<svg xmlns="http://www.w3.org/2000/svg">
<defs>
<font id="SVN-Avobold" horiz-adv-x="1311" >
  <font-face 
    font-family="SVN-Avo"
    font-weight="700"
    font-stretch="normal"
    units-per-em="2048"
    panose-1="2 4 6 3 5 5 6 2 2 4"
    ascent="1638"
    descent="-410"
    x-height="1135"
    cap-height="1513"
    bbox="-100.002 -460.999 4553 2396"
    underline-thickness="109"
    underline-position="-143"
    unicode-range="U+0020-U+2026"
  />
<missing-glyph horiz-adv-x="4653" 
d="M788 1681v510h343v-61h-274v-157h236v-61h-236v-231h-69zM1253 1865c0 -48 10 -83.5 30 -106.5s45.333 -34.5 76 -34.5s56.334 11.5 77.001 34.5s31 58.5 31 106.5c0 46 -10.333 80.833 -31 104.5s-46.334 35.5 -77.001 35.5s-56 -11.833 -76 -35.5s-30 -58.5 -30 -104.5
zM1189 1865c0 69.333 18.666 119.667 55.999 151c30 28 68 42 114 42c24.667 0 47.5 -4.33301 68.5 -13s39.167 -21 54.5 -37s27.333 -35.667 36 -59s13 -49.666 13 -78.999c0 -34.667 -4.16699 -64.334 -12.5 -89.001s-20.166 -45 -35.499 -61s-33.5 -27.667 -54.5 -35
s-44.167 -11 -69.5 -11c-52 0 -93.333 16.167 -124 48.5s-46 79.833 -46 142.5zM1608 1681l0.00292969 369.002h58v-53c27.333 40.667 65.666 61 114.999 61c37.333 0 65.666 -9 84.999 -27s31.666 -39 36.999 -63c1.33301 -6.66699 2.5 -14.834 3.5 -24.501
s1.5 -21.834 1.5 -36.501v-226h-64v223c0 36 -6.5 61.833 -19.5 77.5s-32.167 23.5 -57.5 23.5c-13.333 0 -25.833 -2 -37.5 -6s-21.667 -10.667 -30 -20s-15 -21.833 -20 -37.5s-7.5 -35.167 -7.5 -58.5v-202h-64zM2149 1679l-25.5 -3.5
c-7.66699 -1 -14.834 -1.5 -21.5 -1.5l-44 8c-11.333 2 -20.333 6.33301 -27 13s-11.167 17 -13.5 31s-3.5 34.667 -3.5 62v214h-45v48h45v90l64 38v-128h63v-48h-63v-217c0 -12 0.5 -21.333 1.5 -28s2.83301 -11.667 5.5 -15s6.16699 -5.33301 10.5 -6s9.83301 -1 16.5 -1
h29zM2444 1851c2.66699 -37.333 16 -65.998 40 -85.998s59.333 -30 106 -30c41.333 0 72.833 7.66699 94.5 23s32.5 35.666 32.5 60.999c0 16 -4 29.667 -12 41s-22.667 21.666 -44 30.999c-6.66699 2.66699 -17.667 6 -33 10s-34.333 8.66699 -57 14

<glyph glyph-name=".notdef" horiz-adv-x="4653" 
d="M788 1681v510h343v-61h-274v-157h236v-61h-236v-231h-69zM1253 1865c0 -48 10 -83.5 30 -106.5s45.333 -34.5 76 -34.5s56.334 11.5 77.001 34.5s31 58.5 31 106.5c0 46 -10.333 80.833 -31 104.5s-46.334 35.5 -77.001 35.5s-56 -11.833 -76 -35.5s-30 -58.5 -30 -104.5
zM1189 1865c0 69.333 18.666 119.667 55.999 151c30 28 68 42 114 42c24.667 0 47.5 -4.33301 68.5 -13s39.167 -21 54.5 -37s27.333 -35.667 36 -59s13 -49.666 13 -78.999c0 -34.667 -4.16699 -64.334 -12.5 -89.001s-20.166 -45 -35.499 -61s-33.5 -27.667 -54.5 -35
s-44.167 -11 -69.5 -11c-52 0 -93.333 16.167 -124 48.5s-46 79.833 -46 142.5zM1608 1681l0.00292969 369.002h58v-53c27.333 40.667 65.666 61 114.999 61c37.333 0 65.666 -9 84.999 -27s31.666 -39 36.999 -63c1.33301 -6.66699 2.5 -14.834 3.5 -24.501
s1.5 -21.834 1.5 -36.501v-226h-64v223c0 36 -6.5 61.833 -19.5 77.5s-32.167 23.5 -57.5 23.5c-13.333 0 -25.833 -2 -37.5 -6s-21.667 -10.667 -30 -20s-15 -21.833 -20 -37.5s-7.5 -35.167 -7.5 -58.5v-202h-64zM2149 1679l-25.5 -3.5
c-7.66699 -1 -14.834 -1.5 -21.5 -1.5l-44 8c-11.333 2 -20.333 6.33301 -27 13s-11.167 17 -13.5 31s-3.5 34.667 -3.5 62v214h-45v48h45v90l64 38v-128h63v-48h-63v-217c0 -12 0.5 -21.333 1.5 -28s2.83301 -11.667 5.5 -15s6.16699 -5.33301 10.5 -6s9.83301 -1 16.5 -1
h29zM2444 1851c2.66699 -37.333 16 -65.998 40 -85.998s59.333 -30 106 -30c41.333 0 72.833 7.66699 94.5 23s32.5 35.666 32.5 60.999c0 16 -4 29.667 -12 41s-22.667 21.666 -44 30.999c-6.66699 2.66699 -17.667 6 -33 10s-34.333 8.66699 -57 14
s-42.334 10.666 -59 15.999c-16.667 5.33301 -29.667 10.666 -39 15.999c-26.667 12 -45.667 27.167 -57 45.5s-17 40.166 -17 65.499c0 19.333 4.16699 37.5 12.5 54.5s20.333 32 36 45s34.5 23.167 56.5 30.5s47 11 75 11c30 0 56.833 -3.83301 80.5 -11.5
s43.834 -18.167 60.5 -31.5c16.667 -13.333 29.667 -29.166 39 -47.499s14.666 -38.5 16 -60.5l-69 -3c-7.33301 62 -48.666 93 -124 93c-41.333 0 -70.666 -7.5 -88 -22.5c-17.333 -15 -26 -33.167 -26 -54.5c0 -18 6 -33 18 -45c7.33301 -7.33301 19 -13.666 35 -18.999
s38 -11.333 66 -18c54.667 -10.667 92 -21.334 112 -32.001c30.667 -12 52.834 -28.667 66.5 -50c13.667 -21.333 20.5 -45.333 20.5 -72c0 -22.667 -4.66699 -43.167 -14 -61.5s-22.333 -34.166 -39 -47.499s-36.667 -23.666 -60 -30.999s-49.333 -11 -78 -11
c-66.667 0 -119.167 15 -157.5 45s-57.5 73.333 -57.5 130zM3022 1681l-193 510h74l130 -372c5.33301 -14.667 10 -28.667 14 -42l12 -40c4 14.667 8.66699 28.667 14 42l16 40l140 372h69l-202 -510h-74zM3356 1681v510h72l257 -398v398h69v-510h-74l-255 396v-396h-69z
M128.002 1098c0 -46.667 9.66699 -81.333 29 -104s43 -34 71 -34s51.833 11 71.5 33s29.5 55 29.5 99c0 52 -10.167 89.833 -30.5 113.5s-44.5 35.5 -72.5 35.5s-51.333 -11.5 -70 -34.5s-28 -59.167 -28 -108.5zM327.002 917.006v45
c-24.667 -35.333 -59.334 -53 -104.001 -53c-23.333 0 -44.666 4.66699 -63.999 14s-36 22.333 -50 39s-25 36.667 -33 60s-12 49.333 -12 78c0 28 3.5 53.833 10.5 77.5s17.167 44.167 30.5 61.5s29.5 30.833 48.5 40.5s40.5 14.5 64.5 14.5
c22.667 0 42.5 -4.83301 59.5 -14.5s31.5 -22.5 43.5 -38.5v186h64v-510h-58zM725.002 917.006l-0.00292969 53.001c-15.333 -19.333 -32.666 -34.333 -51.999 -45s-41 -16 -65 -16c-37.333 0 -65.666 8.5 -84.999 25.5s-31.666 38.833 -36.999 65.5
c-1.33301 5.33301 -2.16602 12.5 -2.49902 21.5s-0.5 20.167 -0.5 33.5v231h64v-207c0 -16 0.166992 -29.333 0.5 -40s1.16602 -19.334 2.49902 -26.001c3.33301 -16 11 -28.5 23 -37.5s28 -13.5 48 -13.5c30.667 0 54.667 9.5 72 28.5s26 51.167 26 96.5v199h64v-369h-58z
M668.999 1360.01h-48l-79 99h82zM877.999 917.007l0.00292969 369.002h59v-53c26.667 40.667 64.667 61 114 61c37.333 0 65.666 -9 84.999 -27s31.666 -39 36.999 -63c1.33301 -6.66699 2.5 -14.834 3.5 -24.501s1.5 -21.834 1.5 -36.501v-226h-63v223
c0 36 -6.5 61.833 -19.5 77.5s-32.167 23.5 -57.5 23.5c-13.333 0 -25.833 -2 -37.5 -6s-21.834 -10.667 -30.501 -20s-15.5 -21.833 -20.5 -37.5s-7.5 -35.167 -7.5 -58.5v-202h-64zM1311 1106.01c0 -48 9.33301 -82.667 28 -104s42 -32 70 -32s51.833 10.667 71.5 32
s29.5 56 29.5 104c0 44 -9.83301 77.5 -29.5 100.5s-43.5 34.5 -71.5 34.5s-51.333 -11.5 -70 -34.5s-28 -56.5 -28 -100.5zM1324 883.009c1.33301 -10.667 3.50293 -19.832 6.50293 -27.499s7.83301 -13.5 14.5 -17.5c13.333 -10.667 33.666 -16 60.999 -16
c28 0 49.667 5.16699 65 15.5s25.666 25.5 30.999 45.5c3.33301 14.667 5 41 5 79c-14.667 -14.667 -30.167 -25.834 -46.5 -33.501s-34.5 -11.5 -54.5 -11.5c-26 0 -48.833 4.83301 -68.5 14.5s-36.167 23 -49.5 40s-23.5 36.667 -30.5 59s-10.5 46.5 -10.5 72.5
c0 26.667 3.66699 51.5 11 74.5s17.666 43.167 30.999 60.5s29.833 31 49.5 41s42.167 15 67.5 15c41.333 0 77 -17.667 107 -53v45h58v-318c0.666992 -42 -2.33301 -75.333 -9 -100s-17 -43.834 -31 -57.501s-31.5 -23.167 -52.5 -28.5s-45.833 -9.66602 -74.5 -12.999
c-42.667 0 -77.5 9.66699 -104.5 29s-39.833 50.333 -38.5 93zM1921 1103.01c0 -46 5.33301 -77.667 16 -95c18.667 -32 45.334 -48 80.001 -48c14 0 27.167 2.83301 39.5 8.5s23.166 14.334 32.499 26.001s16.833 26.167 22.5 43.5s8.5 38 8.5 62c0 48 -9.66699 84 -29 108
s-42.333 36 -69 36c-28 0 -51.833 -11.833 -71.5 -35.5s-29.5 -58.834 -29.5 -105.501zM1924 917.011h-61.001v510h63v-183c12 17.333 26.5 30 43.5 38s36.167 12 57.5 12c22.667 0 43.5 -4.66699 62.5 -14s35.5 -22.333 49.5 -39s25 -36.5 33 -59.5s12 -48.167 12 -75.5
c0 -32 -4.33301 -60.333 -13 -85s-20.167 -45.167 -34.5 -61.5s-31.166 -28.833 -50.5 -37.5c-19.333 -8.66699 -39.666 -13 -60.999 -13c-22.667 0 -42.167 4.5 -58.5 13.5s-30.5 22.167 -42.5 39.5v-45zM2500 1103.01c-12 -5.33301 -26.667 -9.83496 -44 -13.502
s-37.333 -7.16699 -60 -10.5c-18 -3.33301 -32.667 -6.66602 -44 -9.99902s-20.333 -7.5 -27 -12.5s-11.167 -10.667 -13.5 -17s-3.5 -14.166 -3.5 -23.499c0 -17.333 6.16699 -31.5 18.5 -42.5s31.166 -16.5 56.5 -16.5c22.667 0 43.667 4.83301 63 14.5
s33.666 24.5 43 44.5c5.33301 14 8 35 8 63zM2502 962.009c-22.667 -19.333 -44.5 -33.001 -65.5 -41.001s-44.167 -12 -69.5 -12c-41.333 0 -72.5 9.66699 -93.5 29s-31.5 44.333 -31.5 75c0 29.333 8.66699 52.333 26 69s38 29 62 37
c6.66699 1.33301 14.667 2.66602 24 3.99902s19.666 2.66602 31 3.99902c50.667 8 88 16 112 24c1.33301 4 2.16602 7.33301 2.5 10c0.333008 2.66699 0.5 4.66699 0.5 6c0 24.667 -6.33301 42.334 -19 53.001c-17.333 14 -41.333 21 -72 21s-52.834 -5.16699 -66.5 -15.5
c-13.667 -10.333 -23.167 -28.166 -28.5 -53.499l-64 8c8 37.333 24.833 65.666 50.5 84.999s63.834 29 114.5 29c24.667 0 45.334 -2.16699 62 -6.5c16.667 -4.33301 30.334 -10.166 41 -17.499c10.667 -7.33301 18.834 -16 24.5 -26c5.66699 -10 9.83398 -20.667 12.5 -32
c1.33301 -6.66699 2.66602 -14.667 4 -24c1.33301 -9.33301 2 -20.666 2 -33.999v-85c0 -28.667 0.166992 -51.5 0.5 -68.5s1 -30.667 2 -41s2.66699 -18.5 5 -24.5s5.83301 -12 10.5 -18h-64c-4 7.33301 -6.83301 14.333 -8.5 21s-3.16699 14.667 -4.5 24zM2407 1406.01
c14 0 22 0.664062 24 1.99707c11.333 2.66699 18.333 7 21 13c0 6.66699 -3.66699 11.334 -11 14.001c-10.667 5.33301 -26.667 8 -48 8c-4 0 -8.5 -0.166992 -13.5 -0.5s-10.833 -1.16602 -17.5 -2.49902l-3 35c4 1.33301 10 2 18 2h30
c14.667 -1.33301 27.834 -3.33301 39.5 -6c11.667 -2.66699 22.167 -6 31.5 -10c18 -7.33301 28.667 -19.666 32 -36.999c0 -24 -21.333 -37.333 -64 -40v-18h-39v40zM2656 917.005v369.002h58v-53c27.333 40.667 65.666 61 115 61c37.333 0 65.666 -9 85 -27
c19.333 -18 31.666 -39 37 -63c1.33301 -6.66699 2.5 -14.834 3.5 -24.501s1.5 -21.834 1.5 -36.501v-226h-64v223c0 36 -6.5 61.833 -19.5 77.5s-32.167 23.5 -57.5 23.5c-13.333 0 -25.833 -2 -37.5 -6s-21.667 -10.667 -30 -20s-15 -21.833 -20 -37.5
s-7.5 -35.167 -7.5 -58.5v-202h-64zM3089 1106.01c0 -48 9.33301 -82.667 28 -104s42 -32 70 -32s51.667 10.667 71 32s29 56 29 104c0 44 -9.66699 77.5 -29 100.5s-43 34.5 -71 34.5s-51.333 -11.5 -70 -34.5s-28 -56.5 -28 -100.5zM3102 883.007
c2 -22.667 9 -37.665 21 -44.998c12.667 -10.667 33 -16 61 -16s49.667 5.16699 65 15.5s25.666 25.5 31 45.5c1.33301 6.66699 2.5 16.667 3.5 30s1.5 29.666 1.5 48.999c-14.667 -14.667 -30.167 -25.834 -46.5 -33.501s-34.5 -11.5 -54.5 -11.5
c-26 0 -48.833 4.83301 -68.5 14.5s-36.167 23 -49.5 40s-23.5 36.667 -30.5 59s-10.5 46.5 -10.5 72.5c0 26.667 3.5 51.5 10.5 74.5s17.333 43.167 31 60.5s30.334 31 50 41c19.667 10 42.167 15 67.5 15c41.333 0 76.666 -17.667 106 -53v45h59v-318
c0.666992 -42 -2.5 -75.333 -9.5 -100s-17.5 -43.834 -31.5 -57.501s-31.5 -23.167 -52.5 -28.5s-45.833 -9.66602 -74.5 -12.999c-42.667 0 -77.5 9.66699 -104.5 29s-39.833 50.333 -38.5 93zM3640 917.009v369.001h59v-53c12 17.333 27.167 31.833 45.5 43.5
s40.166 17.5 65.5 17.5c28 0 50.5 -5.66699 67.5 -17s29.167 -27 36.5 -47c28.667 42.667 67.334 64 116 64c76 0 114 -41.667 114 -125v-252h-63v231c0 34 -5.16699 58 -15.5 72s-27.5 21 -51.5 21c-25.333 0 -46.666 -8.83301 -64 -26.5
c-17.333 -17.667 -26 -45.834 -26 -84.501v-213h-63v239c0 28 -5 49.167 -15 63.5s-26.333 21.5 -49 21.5c-29.333 0 -52.166 -10.167 -68.5 -30.5c-16.333 -20.333 -24.5 -54.5 -24.5 -102.5v-191h-64zM4473 1103.01c-11.334 -5.33301 -25.667 -9.83496 -43 -13.502
c-17.334 -3.66699 -37.334 -7.16699 -60 -10.5c-18 -3.33301 -32.666 -6.66602 -44 -9.99902s-20.334 -7.5 -27 -12.5s-11.166 -10.667 -13.5 -17s-3.5 -14.166 -3.5 -23.499c0 -17.333 6.16602 -31.5 18.5 -42.5s31.167 -16.5 56.5 -16.5c22.666 0 43.666 4.83301 63 14.5
s33.667 24.5 43 44.5c5.33398 14 8 35 8 63zM4476 962.008c-22.666 -19.333 -44.5 -33 -65.5 -41s-44.166 -12 -69.5 -12c-41.334 0 -72.5 9.66699 -93.5 29s-31.5 44.333 -31.5 75c0 29.333 8.66602 52.333 26 69s38 29 62 37c6.66602 1.33301 14.5 2.66602 23.5 3.99902
s19.5 2.66602 31.5 3.99902c50.666 8 88 16 112 24c1.33398 4 2 7.33301 2 10v6c0 25.333 -6 43 -18 53c-17.334 14 -41.334 21 -72 21s-52.833 -5.16699 -66.5 -15.5c-13.666 -10.333 -23.166 -28.166 -28.5 -53.499l-64 8c8 37.333 24.834 65.666 50.5 84.999
s63.833 29 114.5 29c24.666 0 45.333 -2.16699 62 -6.5c16.666 -4.33301 30.333 -10.166 41 -17.499c10.666 -7.33301 18.833 -16 24.5 -26c5.66602 -10 9.83301 -20.667 12.5 -32c1.33398 -6.66699 2.5 -14.667 3.5 -24s1.5 -20.666 1.5 -33.999v-85
c0 -28.667 0.166016 -51.5 0.5 -68.5s1 -30.667 2 -41s2.83398 -18.5 5.5 -24.5s6.33301 -12 11 -18h-64c-4 7.33301 -6.83398 14.333 -8.5 21s-3.16602 14.667 -4.5 24zM4288 1350.01c-1.33398 21.333 4.5 39.001 17.5 53.001s30.166 21 51.5 21
c6.66602 0 15 -1.83301 25 -5.5s21 -8.83398 33 -15.501c14 -5.33301 24.666 -8 32 -8c6.66602 0 12.333 2.5 17 7.5c4.66602 5 7.66602 12.167 9 21.5h46c-2.66602 -49.333 -25.666 -74 -69 -74c-7.33398 0 -16 1.33301 -26 4s-21 6.66699 -33 12
c-8 4 -14.666 7.16699 -20 9.5s-10 3.5 -14 3.5c-19.334 0 -27.334 -9.66699 -24 -29h-45zM1364 535.009l69 0.000976562v-294c0 -36 -3.33301 -67.833 -10 -95.5s-17.834 -51 -33.501 -70s-36.167 -33.333 -61.5 -43s-56.666 -14.5 -93.999 -14.5
c-36.667 0 -67.667 4.16699 -93 12.5s-45.833 21.5 -61.5 39.5s-27 41 -34 69s-10.5 62 -10.5 102v294h69v-291c0 -31.333 2.16699 -57.333 6.5 -78s11.5 -37.334 21.5 -50.001s23 -21.5 39 -26.5s35.333 -7.5 58 -7.5c24 0 44.5 2.5 61.5 7.5s31 13.5 42 25.5
s19 28.5 24 49.5s7.5 47.5 7.5 79.5v291zM1539 26.0098l-0.000976562 369.001h58v-53c13.333 19.333 29.5 34.333 48.5 45s41.167 16 66.5 16c36.667 0 64.834 -9.16699 84.501 -27.5s32.167 -39.5 37.5 -63.5c1.33301 -6.66699 2.5 -14.667 3.5 -24
s1.5 -21.666 1.5 -36.999v-225h-64v223c0 36 -6.5 61.833 -19.5 77.5s-32.167 23.5 -57.5 23.5c-13.333 0 -25.833 -2 -37.5 -6s-21.667 -10.833 -30 -20.5s-15 -22.334 -20 -38.001s-7.5 -34.834 -7.5 -57.501v-202h-64zM1934 26.0107v369h64v-369h-64zM1934 464.011v71h64
v-71h-64zM2396 153.011c-6.66699 -42.667 -24.335 -75.835 -53.001 -99.502c-28.667 -23.667 -62.334 -35.5 -101 -35.5c-52 0 -92.833 16.333 -122.5 49s-44.5 79 -44.5 139c0 62.667 14.833 111.167 44.5 145.5s69.834 51.5 120.501 51.5c41.333 0 74 -10.167 98 -30.5
s40.667 -49.166 50 -86.499l-64 -8c-6.66699 22.667 -17 40.667 -31 54s-31 20 -51 20c-32 0 -57.167 -11.5 -75.5 -34.5s-27.5 -59.167 -27.5 -108.5s9 -85.166 27 -107.499s42.667 -33.5 74 -33.5c51.333 0 82 31 92 93zM2489 209.01c0 -48 10 -83.5 30 -106.5
s45.333 -34.5 76 -34.5s56.5 11.5 77.5 34.5s31.5 58.5 31.5 106.5c0 46.667 -10.5 81.834 -31.5 105.501s-46.833 35.5 -77.5 35.5s-56 -11.833 -76 -35.5s-30 -58.834 -30 -105.501zM2425 209.01c0 68.667 18.667 118.999 56 150.999c31.333 28.667 69.333 43 114 43
c24.667 0 47.5 -4.33301 68.5 -13s39.167 -21.167 54.5 -37.5s27.333 -36.166 36 -59.499s13 -49.666 13 -78.999c0 -34.667 -4.16699 -64.334 -12.5 -89.001s-20.166 -45 -35.5 -61c-15.333 -16 -33.5 -27.667 -54.5 -35s-44.167 -11 -69.5 -11
c-52 0 -93.333 16.167 -124 48.5s-46 79.833 -46 142.5zM2884 206.009c0 -46 9.83301 -80.501 29.5 -103.501s43.5 -34.5 71.5 -34.5s51.833 11.167 71.5 33.5s29.5 55.5 29.5 99.5c0 52 -10.333 89.833 -31 113.5s-45 35.5 -73 35.5c-27.333 0 -50.5 -11.667 -69.5 -35
s-28.5 -59.666 -28.5 -108.999zM3083 26.0078v45c-24.667 -35.333 -59 -53 -103 -53c-23.333 0 -44.666 4.66699 -64 14c-19.333 9.33301 -36 22.333 -50 39s-25 36.667 -33 60s-12 49.333 -12 78c0 28 3.5 53.833 10.5 77.5s17.167 44.167 30.5 61.5s29.333 30.833 48 40.5
s40 14.5 64 14.5c23.333 0 43.5 -5 60.5 -15s31.5 -22.667 43.5 -38v185h64v-509h-59zM3497 244.008c-1.33301 15.333 -4.33301 29 -9 41s-10.334 22 -17 30c-22.667 24.667 -49.334 37 -80 37c-30.667 0 -56.167 -10 -76.5 -30s-31.166 -46 -32.5 -78h215zM3558 137.008
c-10.667 -38.667 -30 -68.167 -58 -88.5s-63.333 -30.5 -106 -30.5c-54.667 0 -98 16.333 -130 49s-48 79 -48 139c0 62.667 15.667 111.167 47 145.5s73 51.5 125 51.5c26 0 49.667 -4.5 71 -13.5s39.5 -22 54.5 -39s26.667 -37.333 35 -61s12.5 -50.5 12.5 -80.5
c0 -1.33301 -0.166992 -3.33301 -0.5 -6s-1.16602 -6 -2.5 -10h-278c1.33301 -41.333 12.666 -72.5 34 -93.5c21.333 -21 48 -31.5 80 -31.5c25.333 0 46 5.83301 62 17.5s28.667 31.5 38 59.5z" />
    <glyph glyph-name="space" unicode=" " horiz-adv-x="573" 
 />
    <glyph glyph-name="exclam" unicode="!" horiz-adv-x="573" 
d="M147 385v1128h273v-1128h-273zM147 0v260h273v-260h-273z" />
    <glyph glyph-name="quotedbl" unicode="&#x22;" horiz-adv-x="737" 
d="M152 1051v462h153v-462h-153zM426 1051v462h154v-462h-154z" />
    <glyph glyph-name="numbersign" unicode="#" horiz-adv-x="1147" 
d="M1024 678v-201h-209l-65 -477h-183l64 477h-174l-66 -477h-180l63 477h-204v201h233l27 188h-203v201h227l62 449h178l-59 -449h176l59 449h184l-61 -449h184v-201h-211l-24 -188h182zM684 866h-176l-25 -188h174z" />
    <glyph glyph-name="dollar" unicode="$" horiz-adv-x="1147" 
d="M123 510l268.001 0.00488281c0 -48.667 17.167 -90.167 51.5 -124.5s76.5 -51.5 126.5 -51.5c48.667 0 90.167 17.167 124.5 51.5s51.5 76.5 51.5 126.5c0 22 -4.66699 42.667 -14 62c-7.33301 18.667 -18.833 37 -34.5 55s-36.167 32.333 -61.5 43
c-12.667 5.33301 -36 12.666 -70 21.999c-124 36 -215 81.667 -273 137c-74.667 69.333 -112 162.333 -112 279c0 54 8 103.167 24 147.5s42.333 85.166 79 122.499c25.333 29.333 50.333 52.333 75 69c34 22.667 65.667 34 95 34v268h256v-268
c75.333 -29.333 136.833 -75.333 184.5 -138s71.5 -132.667 71.5 -210h-256c-8 36 -24 65.667 -48 89c-24 22 -54.667 33 -92 33c-35.333 0 -66.333 -13.833 -93 -41.5s-40 -58.834 -40 -93.501c0 -49.333 21 -89.666 63 -120.999c26 -18 70 -37 132 -57l126 -43
c44 -18 82.333 -40.333 115 -67c46 -38.667 80.833 -86.5 104.5 -143.5s35.5 -117.167 35.5 -180.5c0 -58.667 -8.33301 -110.834 -25 -156.501s-44 -90.5 -82 -134.5c-26.667 -28.667 -57.334 -54.334 -92.001 -77.001c-32 -20 -66.667 -34.667 -104 -44v-272h-256v272
c-90.667 15.333 -168.667 61.166 -234 137.499s-98 159.5 -98 249.5z" />
    <glyph glyph-name="percent" unicode="%" horiz-adv-x="1761" 
d="M457 0l626 1513h209l-626 -1513h-209zM412 1542c101.333 0 187.665 -35.666 258.998 -106.999s107 -158.333 107 -261s-35.667 -189.834 -107 -261.501s-157.666 -107.5 -258.999 -107.5c-102 0 -189 36 -261 108s-108 159 -108 261s35.833 188.833 107.5 260.5
s158.834 107.5 261.501 107.5zM411.999 1315c-40 0 -73.668 -13.667 -101.001 -41s-41 -60.666 -41 -99.999c0 -36.667 14.167 -69.5 42.5 -98.5s60.833 -43.5 97.5 -43.5c38.667 0 71.834 13.667 99.501 41s41.5 61 41.5 101c0 39.333 -13.167 72.666 -39.5 99.999
s-59.5 41 -99.5 41zM1341 700.001c102.667 0 189.834 -35.667 261.501 -107s107.5 -158.333 107.5 -261c0 -101.333 -35.833 -188.166 -107.5 -260.499s-158.834 -108.5 -261.501 -108.5c-102 0 -188.833 36.167 -260.5 108.5s-107.5 159.166 -107.5 260.499
c0 102.667 35.667 189.667 107 261s158.333 107 261 107zM1341 473.001c-40 0 -73.499 -12.499 -100.499 -37.499s-40.5 -56.833 -40.5 -95.5c0 -40.667 13.667 -75.834 41 -105.501s60.666 -44.5 99.999 -44.5c37.333 0 70.333 15 99 45s43 65 43 105
c0 38 -13.5 69.667 -40.5 95s-60.833 38 -101.5 38z" />
    <glyph glyph-name="ampersand" unicode="&#x26;" horiz-adv-x="1393" 
d="M1051 893h300.999l-260 -457l268 -291l-199 -174l-207 217c-48 -68 -102 -121 -162 -159c-68 -44 -140.333 -66 -217 -66c-135.333 0 -253 45.667 -353 137s-150 204.666 -150 339.999c0 100 26 187.667 78 263c45.333 64.667 114 122.667 206 174
c-40.667 42.667 -71.334 84 -92.001 124c-23.333 46.667 -35 96.667 -35 150c0 110 36.5 202.667 109.5 278s164.833 113 275.5 113c106.667 0 197.834 -35.333 273.501 -106s113.5 -159.667 113.5 -267c0 -84 -20.167 -156.667 -60.5 -218
s-99.166 -112.666 -176.499 -153.999l139 -156zM591.999 985c61.333 28 102.333 56 123 84c9.33301 12.667 16.333 25.834 21 39.501s7 29.167 7 46.5c0 39.333 -11.667 69.666 -35 90.999s-55.333 32 -96 32c-36 0 -65.5 -11.333 -88.5 -34s-34.5 -51.667 -34.5 -87
s17 -74 51 -116zM763.999 395l-235.999 264.001c-54.667 -22.667 -97.334 -51 -128.001 -85c-37.333 -41.333 -56 -90 -56 -146c0 -58.667 20 -106.5 60 -143.5s89 -55.5 147 -55.5c48 0 91 17 129 51c30 27.333 58 65.666 84 114.999z" />
    <glyph glyph-name="quotesingle" unicode="'" horiz-adv-x="451" 
d="M152 1051v462h155v-462h-155z" />
    <glyph glyph-name="parenleft" unicode="(" horiz-adv-x="778" 
d="M715 25l0.00195312 -287.003c-38.667 6 -75.834 18.333 -111.501 37s-72.834 45 -111.501 79c-59.333 51.333 -114.666 116.333 -165.999 195c-116 177.333 -174 370 -174 578c0 96.667 13.167 190.834 39.5 282.501s65.166 178.834 116.499 261.501
s109 152.334 173 209.001c72.667 65.333 150.667 109 234 131v-284c-92 -70 -162.167 -158.167 -210.5 -264.5s-72.5 -219.5 -72.5 -339.5c0 -118.667 23.667 -229.667 71 -333c50 -110 120.667 -198.333 212 -265z" />
    <glyph glyph-name="parenright" unicode=")" horiz-adv-x="778" 
d="M76 1227v283.999c81.333 -20 159 -63.667 233 -131c62.667 -56 119.834 -125 171.501 -207s91.167 -169.333 118.5 -262c13.333 -48 23.333 -94.667 30 -140s10 -93.333 10 -144c0 -205.333 -56 -394.666 -168 -567.999c-50.667 -78 -106.667 -144.333 -168 -199
c-73.333 -65.333 -149 -106 -227 -122v287c90 64.667 160.333 153 211 265c47.333 104.667 71 215.667 71 333c0 120 -23.333 231.667 -70 335c-48.667 108 -119.334 197.667 -212.001 269z" />
    <glyph glyph-name="asterisk" unicode="*" horiz-adv-x="901" 
d="M365 934l-127 61l110 187l-205 -15v142l205 -13l-110 183l124 61l93 -184l94 186l117 -72l-111 -174l205 15v-144l-209 13l115 -172l-115 -74l-96 188z" />
    <glyph glyph-name="plus" unicode="+" horiz-adv-x="1229" 
d="M502 776v391h237v-391h398v-237h-398v-406h-237v406h-398v237h398z" />
    <glyph glyph-name="comma" unicode="," horiz-adv-x="573" 
d="M147 0v272.001h273v-262c0 -56 -3.33301 -96 -10 -120c-10 -36 -31.333 -70.333 -64 -103c-24 -24 -53.667 -42.333 -89 -55c-16.667 -6 -34 -10.667 -52 -14s-36.333 -5 -55 -5v137c37.333 6 65.333 17 84 33c22.667 19.333 34 46.666 34 81.999v35h-121z" />
    <glyph glyph-name="hyphen" unicode="-" horiz-adv-x="860" 
d="M152 530v242h567v-242h-567z" />
    <glyph glyph-name="period" unicode="." horiz-adv-x="573" 
d="M147 0v272h273v-272h-273z" />
    <glyph glyph-name="slash" unicode="/" horiz-adv-x="942" 
d="M53 -262l662 1775h192l-661 -1775h-193z" />
    <glyph glyph-name="zero" unicode="0" horiz-adv-x="1147" 
d="M1075 1010l-0.00195312 -514.002c0 -74.667 -8 -139.667 -24 -195c-18 -65.333 -50 -123.5 -96 -174.5s-102.5 -91 -169.5 -120s-135.5 -43.5 -205.5 -43.5c-72 0 -140.167 12.167 -204.5 36.5s-122.833 61.5 -175.5 111.5s-90.334 110.667 -113.001 182
c-17.333 57.333 -26 129 -26 215v502c0 74 8.5 141.333 25.5 202s48 116.5 93 167.5s102.5 90.833 172.5 119.5c34.667 14 69.834 24.667 105.501 32s72.167 11 109.5 11c69.333 0 135.833 -12.167 199.5 -36.5s120.334 -60.666 170.001 -108.999
s85.834 -107.833 108.501 -178.5c20 -61.333 30 -130.666 30 -207.999zM333.998 1006l-0.00195312 -489.999c0 -59.333 4.16699 -103.333 12.5 -132s22.333 -54.334 42 -77.001s45.834 -41.334 78.501 -56.001c15.333 -6.66699 31.333 -12 48 -16s33.334 -6 50.001 -6
c35.333 0 69.5 7.16699 102.5 21.5s60.333 35 82 62s36.5 58.5 44.5 94.5c6 27.333 9 62.333 9 105v504c0 75.333 -20.333 136.666 -61 183.999c-43.333 50.667 -102.333 76 -177 76c-34.667 0 -68 -7.66699 -100 -23s-58.667 -35.666 -80 -60.999
c-18.667 -25.333 -32 -53.666 -40 -84.999c-3.33301 -14 -6 -29.5 -8 -46.5s-3 -35.167 -3 -54.5z" />
    <glyph glyph-name="one" unicode="1" horiz-adv-x="1147" 
d="M504 0v1255h-191v258h463v-1513h-272z" />
    <glyph glyph-name="two" unicode="2" horiz-adv-x="1147" 
d="M86 0l-0.000976562 257.996l522 485c39.333 36.667 69 66.334 89 89.001c30.667 36 53.667 69.667 69 101c18 38 27 78.667 27 122c0 64 -20.333 116.833 -61 158.5s-93 62.5 -157 62.5c-76.667 0 -135.667 -28.667 -177 -86c-37.333 -51.333 -56 -117.666 -56 -198.999
h-272v56c0 136.667 47.833 253.334 143.5 350.001s210.834 145 345.501 145c144 0 264.333 -47.333 361 -142s145 -214 145 -358c0 -59.333 -10 -115.666 -30 -168.999s-49.667 -105.333 -89 -156l-190 -201l-289 -258h598v-258h-979z" />
    <glyph glyph-name="three" unicode="3" horiz-adv-x="1147" 
d="M444 725l-0.000976562 258.001h19c67.333 0 117.333 9.66699 150 29c44.667 25.333 67 68.333 67 129c0 40.667 -13.5 73.334 -40.5 98.001s-61.167 37 -102.5 37c-35.333 0 -64.666 -12.333 -87.999 -37s-35 -55.334 -35 -92.001h-273c0 106 39 198.333 117 277
s171 118 279 118c112 0 209.167 -39.167 291.5 -117.5s123.5 -173.5 123.5 -285.5c0 -57.333 -10.5 -109 -31.5 -155s-54.167 -84.667 -99.5 -116c76.667 -26 137 -79 181 -159c39.333 -72.667 59 -154 59 -244c0 -144.667 -51.667 -265.334 -155 -362.001
c-100.667 -93.333 -224.334 -140 -371.001 -140c-135.333 0 -253.166 47.5 -353.499 142.5s-150.5 209.5 -150.5 343.5h274c0 -62 24.5 -114.167 73.5 -156.5s106.5 -63.5 172.5 -63.5s122 23.167 168 69.5s69 102.5 69 168.5c0 91.333 -35.333 161 -106 209
c-28.667 19.333 -60.667 32.333 -96 39c-14.667 2.66699 -32.5 5 -53.5 7s-41.5 3 -61.5 3h-27z" />
    <glyph glyph-name="four" unicode="4" horiz-adv-x="1147" 
d="M0 449l696 1064h230v-1030h159v-258h-159v-225h-273v225h-653v224zM653 483v570l-362 -570h362z" />
    <glyph glyph-name="five" unicode="5" horiz-adv-x="1147" 
d="M920 1513l-0.00195312 -258.001h-482l-47 -278c62.667 28.667 125.667 43 189 43c138.667 0 255.334 -53.667 350.001 -161c90 -102 135 -223.667 135 -365c0 -143.333 -51.167 -267.666 -153.5 -372.999s-225.166 -158 -368.499 -158c-134 0 -253 47.667 -357 143
c-107.333 98 -161 212.333 -161 343h272c8 -62.667 33.833 -115 77.5 -157s96.167 -63 157.5 -63c76 0 138.167 25.167 186.5 75.5s72.5 114.833 72.5 193.5c0 69.333 -25.333 129.333 -76 180s-110.667 76 -180 76c-38 0 -74.333 -8.66699 -109 -26
s-64.667 -42.333 -90 -75l-244 68l144 792h684z" />
    <glyph glyph-name="six" unicode="6" horiz-adv-x="1147" 
d="M586 1513l321.001 -0.00195312l-338 -514l76 7c59.333 0 115.666 -12.5 168.999 -37.5s101.833 -60.667 145.5 -107s76.667 -99.666 99 -159.999s33.5 -126.833 33.5 -199.5c0 -148.667 -50.333 -275.667 -151 -381s-224.667 -158 -372 -158
c-150 0 -275.167 52.167 -375.5 156.5s-150.5 232.5 -150.5 384.5c0 62 10 124 30 186c17.333 54.667 44.333 109.334 81 164.001zM565.001 753.998c-70 0 -129.165 -24.333 -177.498 -73s-72.5 -109.667 -72.5 -183c0 -74 23.667 -137.333 71 -190s107.666 -79 180.999 -79
c69.333 0 128.666 25.167 177.999 75.5s74 110.5 74 180.5c0 74 -24.333 137.333 -73 190s-109 79 -181 79z" />
    <glyph glyph-name="seven" unicode="7" horiz-adv-x="1147" 
d="M174 0l565 1255h-606v258h891v-258l-547 -1255h-303z" />
    <glyph glyph-name="eight" unicode="8" horiz-adv-x="1147" 
d="M287 842c-44.667 44.667 -76.334 87 -95.001 127s-28 90.333 -28 151c0 117.333 37 216.666 111 297.999c38.667 41.333 81.834 72.333 129.501 93s101.167 31 160.5 31c116 0 213.333 -40.333 292 -121s118 -179 118 -295c0 -30 -2.33301 -58 -7 -84
s-12 -50.333 -22 -73c-18 -44 -49.333 -86.333 -94 -127c71.333 -36.667 126 -89 164 -157c18 -33.333 31.667 -69.166 41 -107.499s14 -79.833 14 -124.5c0 -134 -49.667 -249.167 -149 -345.5s-217 -144.5 -353 -144.5c-143.333 0 -263.5 48.667 -360.5 146
s-145.5 217.333 -145.5 360c0 80.667 19.667 155 59 223c42 72 97 122 165 150zM571 1276c-44.667 0 -82.667 -15.1689 -114 -45.502s-47 -67.166 -47 -110.499c0 -44 16 -81.5 48 -112.5s69.667 -46.5 113 -46.5s80.5 15.5 111.5 46.5s46.5 68.5 46.5 112.5
c0 42.667 -15.5 79.334 -46.5 110.001s-68.167 46 -111.5 46zM567 693.998c-63.333 0 -117.667 -23.002 -163 -69.002s-68 -102 -68 -168c0 -63.333 22.5 -117.166 67.5 -161.499s99.5 -66.5 163.5 -66.5c63.333 0 117.833 22 163.5 66s68.5 98 68.5 162
c0 66.667 -22.333 122.834 -67 168.501s-99.667 68.5 -165 68.5z" />
    <glyph glyph-name="nine" unicode="9" horiz-adv-x="1147" 
d="M227 0l333.999 507.998h-51c-135.333 0 -247.666 48 -336.999 144c-85.333 92.667 -128 207.667 -128 345c0 152 48.333 280.333 145 385c99.333 106.667 224.333 160 375 160c70 0 138.667 -13.833 206 -41.5s125.5 -67 174.5 -118s85.333 -108.833 109 -173.5
s35.5 -134.667 35.5 -210c0 -24.667 -1.33301 -48.667 -4 -72s-7 -45.666 -13 -66.999c-10.667 -41.333 -27.667 -84.666 -51 -129.999c-18 -36.667 -42.667 -78 -74 -124l-401 -606h-320zM560.999 1276c-66.667 0 -124 -25.501 -172 -76.501s-72 -110.167 -72 -177.5
c0 -75.333 23.5 -138.166 70.5 -188.499s107.5 -75.5 181.5 -75.5c70 0 128.833 26.167 176.5 78.5s71.5 113.5 71.5 183.5c0 72 -24.667 132.667 -74 182s-110 74 -182 74z" />
    <glyph glyph-name="colon" unicode=":" horiz-adv-x="573" 
d="M147 0v272h273v-272h-273zM147 756v272h273v-272h-273z" />
    <glyph glyph-name="semicolon" unicode=";" horiz-adv-x="573" 
d="M147 0v272.001h273v-262c0 -56 -3.33301 -96 -10 -120c-10 -36 -31.333 -70.333 -64 -103c-24 -24 -53.667 -42.333 -89 -55c-16.667 -6 -34 -10.667 -52 -14s-36.333 -5 -55 -5v137c37.333 6 65.333 17 84 33c22.667 19.333 34 46.666 34 81.999v35h-121zM147 756.001
v272h273v-272h-273z" />
    <glyph glyph-name="less" unicode="&#x3c;" horiz-adv-x="1229" 
d="M1143 313v-227l-1043 461v203l1043 464v-227l-742 -342z" />
    <glyph glyph-name="equal" unicode="=" horiz-adv-x="1229" 
d="M1137 969v-236h-1033v236h1033zM1137 569v-235h-1033v235h1033z" />
    <glyph glyph-name="greater" unicode="&#x3e;" horiz-adv-x="1229" 
d="M98 313l742 332l-742 342v227l1043 -464v-203l-1043 -461v227z" />
    <glyph glyph-name="question" unicode="?" horiz-adv-x="1147" 
d="M338 1069l-272.001 -0.00292969c0 51.333 8 103 24 155s40 98 72 138c41.333 52.667 97.5 95.834 168.5 129.501s141.167 50.5 210.5 50.5c28.667 0 56.167 -2.66699 82.5 -8s53.833 -14.333 82.5 -27c55.333 -23.333 103.333 -54.666 144 -93.999
c46 -45.333 81.333 -98.833 106 -160.5s37 -125.5 37 -191.5c0 -48.667 -9.16699 -93.667 -27.5 -135s-43.833 -81.333 -76.5 -120c-24 -28 -58.833 -61.833 -104.5 -101.5s-77.5 -75.5 -95.5 -107.5c-21.333 -38.667 -32 -86 -32 -142v-70h-272v59
c0 41.333 4 82.333 12 123s21.167 80.5 39.5 119.5s40.833 73.833 67.5 104.5c14.667 16.667 46 45.334 94 86.001c38.667 30.667 67.334 58.667 86.001 84c11.333 16 20.333 33.667 27 53s10 39 10 59c0 60.667 -17.167 108.667 -51.5 144s-81.5 53 -141.5 53
c-60.667 0 -107.5 -18.5 -140.5 -55.5s-49.5 -85.5 -49.5 -145.5zM384.999 -0.00292969v260h272v-260h-272z" />
    <glyph glyph-name="at" unicode="@" horiz-adv-x="1516" 
d="M1243 291h195.001c-78 -106 -169.167 -187.167 -273.5 -243.5s-220.833 -84.5 -349.5 -84.5c-226 0 -416.667 74.333 -572 223c-158 151.333 -237 340 -237 566c0 223.333 76.833 410.833 230.5 562.5s342.5 227.5 566.5 227.5c94.667 0 182.5 -14 263.5 -42
s157.667 -72.667 230 -134s127.833 -129.666 166.5 -204.999c42 -80 63 -166.667 63 -260c0 -86 -12.667 -164.333 -38 -235s-66.666 -135 -123.999 -193c-44 -44.667 -99 -84.667 -165 -120c-74 -38.667 -139 -58 -195 -58c-36 0 -64.667 8.66699 -86 26
c-23.333 19.333 -35 46.666 -35 81.999c-27.333 -30 -59.833 -53.833 -97.5 -71.5s-76.167 -26.5 -115.5 -26.5c-104.667 0 -188.334 35.667 -251.001 107c-59.333 68.667 -89 156 -89 262c0 128 38.333 238.333 115 331c82.667 98.667 186.334 148 311.001 148
c53.333 0 101.666 -10 144.999 -30s80.333 -51 111 -93l20 107h197l-103 -609l-4 -29l-2 -16c0 -7.33301 3 -14.666 9 -21.999c5.33301 -4 13.333 -6.66699 24 -8c22.667 0 48.667 10.667 78 32c25.333 18 47 38.667 65 62c25.333 36 45.666 80.833 60.999 134.5
s23 104.5 23 152.5c0 170.667 -54.667 306.667 -164 408c-106 98 -245.667 147 -419 147c-184.667 0 -336.667 -60 -456 -180s-179 -272.333 -179 -457c0 -190.667 64.333 -345.334 193 -464.001c124 -114 282.667 -171 476 -171c78.667 0 152.667 15.667 222 47
c64 28 127.333 70.333 190 127zM580.001 707c0 -50.667 13.999 -93.833 41.999 -129.5s67 -53.5 117 -53.5c62.667 0 113.834 22.833 153.501 68.5s59.5 100.167 59.5 163.5c0 50.667 -15.667 93 -47 127s-72.333 51 -123 51c-54 0 -101.167 -23.833 -141.5 -71.5
s-60.5 -99.5 -60.5 -155.5z" />
    <glyph glyph-name="A" unicode="A" horiz-adv-x="1516" 
d="M14 0l631 1513h219l637 -1513h-309l-164 391h-536l-168 -391h-310zM594 664h324l-162 458z" />
    <glyph glyph-name="B" unicode="B" horiz-adv-x="1188" 
d="M139 0l-0.00195312 1513h275h62c48.667 0 89.834 -1 123.501 -3s63.167 -5.66699 88.5 -11c48.667 -9.33301 91.667 -23.666 129 -42.999c62.667 -32 113.834 -79.333 153.501 -142s59.5 -128.667 59.5 -198c0 -62.667 -13.667 -119 -41 -169
c-29.333 -53.333 -71 -93.333 -125 -120c82 -26 145.5 -71.667 190.5 -137s67.5 -141.666 67.5 -228.999c0 -72.667 -15.833 -139.834 -47.5 -201.501s-77.167 -114.834 -136.5 -159.501c-54 -39.333 -120.667 -67 -200 -83c-60 -11.333 -133.333 -17 -220 -17h-379z
M419.998 272h116.998c30.667 0 57.834 1 81.501 3s43.834 5.33301 60.501 10c32 8 61 21 87 39s45.167 39.167 57.5 63.5s18.5 52.833 18.5 85.5c0 36 -8.16699 66.167 -24.5 90.5s-41.833 46.166 -76.5 65.499c-23.333 12.667 -49 20.834 -77 24.501s-60 5.5 -96 5.5h-25
h-123v-387zM419.996 932h53h23h14h11c28.667 0 52.334 1.33301 71.001 4c12 0 23.667 1.5 35 4.5s23.666 7.5 36.999 13.5c26 12 46.833 30.833 62.5 56.5s23.5 53.5 23.5 83.5s-8.16699 56.333 -24.5 79s-39.833 40.667 -70.5 54c-14 6 -29 10 -45 12l-55 4l-44 -1l-40 -1
h-51v-309z" />
    <glyph glyph-name="C" unicode="C" horiz-adv-x="1597" 
d="M1223 412l325.003 0.000976562c-56 -135.333 -150.667 -244.666 -284 -327.999c-129.333 -80.667 -268.666 -121 -417.999 -121c-216 0 -400.833 78.167 -554.5 234.5s-230.5 343.166 -230.5 560.499c0 214 76.667 398.167 230 552.5s335.666 231.5 546.999 231.5
c154.667 0 298.5 -41.5 431.5 -124.5s228.5 -195.167 286.5 -336.5h-319c-46.667 58 -105.334 104 -176.001 138s-144.334 51 -221.001 51c-136.667 0 -253.834 -51.333 -351.501 -154s-146.5 -225.334 -146.5 -368.001c0 -136.667 49.667 -256.167 149 -358.5
s216.333 -153.5 351 -153.5c71.333 0 139.333 15 204 45s123.667 73.667 177 131z" />
    <glyph glyph-name="D" unicode="D" horiz-adv-x="1434" 
d="M139 0v1513h318c94.667 0 169.667 -3.66699 225 -11c79.333 -10 152.666 -27.333 219.999 -52s130.666 -62.334 189.999 -113.001c80 -68 144 -156.333 192 -265c22.667 -52 39.667 -104.5 51 -157.5s17 -107.833 17 -164.5c0 -106 -23.167 -211.333 -69.5 -316
s-109.833 -191.334 -190.5 -260.001c-57.333 -48 -121.666 -86 -192.999 -114c-61.333 -23.333 -131.666 -40 -210.999 -50c-25.333 -2.66699 -58.333 -5 -99 -7s-82.667 -3 -126 -3h-324zM420 272.002h34.998c121.333 0 215 9.33301 281 28
c55.333 15.333 106.333 40.333 153 75c58 45.333 102.833 100.333 134.5 165s47.5 134.667 47.5 210c0 80 -17.167 155.833 -51.5 227.5s-84.166 129.5 -149.499 173.5c-54.667 37.333 -123.667 63 -207 77c-57.333 8.66699 -131.666 13 -222.999 13h-20v-969z" />
    <glyph glyph-name="E" unicode="E" horiz-adv-x="1065" 
d="M139 0v1513h813v-272h-532v-348h510v-272h-510v-349h532v-272h-813z" />
    <glyph glyph-name="F" unicode="F" horiz-adv-x="983" 
d="M139 0v1513h770v-272h-489v-348h467v-272h-467v-621h-281z" />
    <glyph glyph-name="G" unicode="G" horiz-adv-x="1720" 
d="M1599 1069l-334.996 -0.00292969c-44 62 -102.167 111 -174.5 147s-146.833 54 -223.5 54c-64.667 0 -127 -11.167 -187 -33.5s-114.333 -54.833 -163 -97.5c-52.667 -46.667 -94.834 -104.5 -126.501 -173.5s-47.5 -138.167 -47.5 -207.5c0 -32 3 -63.5 9 -94.5
s15.5 -62.167 28.5 -93.5s28.5 -60.666 46.5 -87.999s38.333 -52.666 61 -75.999c51.333 -54.667 111.166 -96.667 179.499 -126s139.166 -44 212.499 -44c88 0 173.167 25 255.5 75s144.5 115.667 186.5 197h-633v264h987v-33c0 -217.333 -80 -402 -240 -554
c-156 -148 -344.333 -222 -565 -222s-410 75 -568 225c-160.667 152.667 -241 339.334 -241 560.001s79.167 408.167 237.5 562.5s347.5 231.5 567.5 231.5c157.333 0 303.666 -42.333 438.999 -127c140 -88 238 -203.333 294 -346z" />
    <glyph glyph-name="H" unicode="H" horiz-adv-x="1393" 
d="M139 0v1513h281v-606h541v606h280v-1513h-280v635h-541v-635h-281z" />
    <glyph glyph-name="I" unicode="I" horiz-adv-x="573" 
d="M139 0v1513h281v-1513h-281z" />
    <glyph glyph-name="J" unicode="J" horiz-adv-x="983" 
d="M567 1513l280.998 0.000976562v-1067c0 -72.667 -3.33301 -125.667 -10 -159c-10 -52.667 -31.333 -102.667 -64 -150c-35.333 -52.667 -83 -94.834 -143 -126.501s-123.667 -47.5 -191 -47.5c-114.667 0 -212.667 35.333 -294 106c-85.333 73.333 -128 166.333 -128 279
h281c6 -32 20.333 -57.333 43 -76s51.334 -28 86.001 -28c52.667 0 90.334 18.333 113.001 55c17.333 28.667 26 71.667 26 129v1085z" />
    <glyph glyph-name="K" unicode="K" horiz-adv-x="1270" 
d="M139 0v1513h281v-655l471 655h336l-572 -743l572 -770h-336l-471 664v-664h-281z" />
    <glyph glyph-name="L" unicode="L" horiz-adv-x="901" 
d="M139 0v1513h281v-1241h463v-272h-744z" />
    <glyph glyph-name="M" unicode="M" horiz-adv-x="1843" 
d="M139 0v1513h383l406 -1157l411 1157h381v-1513h-280v1135l-391 -1135h-238l-391 1135v-1135h-281z" />
    <glyph glyph-name="N" unicode="N" horiz-adv-x="1516" 
d="M139 0v1513h316l630 -1105v1105h281v-1513h-311l-635 1102v-1102h-281z" />
    <glyph glyph-name="O" unicode="O" horiz-adv-x="1720" 
d="M850 1542c217.333 0 403 -77.167 557 -231.5s231 -341.166 231 -560.499c0 -218 -77.333 -403.667 -232 -557s-340 -230 -556 -230s-401.5 76.5 -556.5 229.5s-232.5 338.833 -232.5 557.5c0 219.333 77 406.166 231 560.499s340 231.5 558 231.5zM850 1270
c-140.667 0 -260.5 -50.167 -359.5 -150.5s-148.5 -221.5 -148.5 -363.5c0 -140 50.167 -261.667 150.5 -365s219.5 -155 357.5 -155s257.167 51.667 357.5 155s150.5 225 150.5 365c0 142.667 -49.5 264 -148.5 364s-218.833 150 -359.5 150z" />
    <glyph glyph-name="P" unicode="P" horiz-adv-x="1147" 
d="M420 0l-281 0.00195312v1513h357c39.333 0 72 -0.333008 98 -1c25.333 -0.666992 49.333 -1.33398 72 -2.00098c15.333 0 32.5 -1.5 51.5 -4.5s39.833 -7.83301 62.5 -14.5c42 -10 83.667 -29 125 -57c62 -42 111 -97.167 147 -165.5s54 -140.166 54 -215.499
c0 -76.667 -15.333 -148.834 -46 -216.501s-75.334 -124.5 -134.001 -170.5c-38 -31.333 -84.333 -54.333 -139 -69c-22.667 -6.66699 -44.667 -11.834 -66 -15.501s-43 -5.5 -65 -5.5c-35.333 0 -67.666 -0.333008 -96.999 -1l-84 -2h-55v-573zM420 846.002h50.998h54
c12.667 0 29.334 0.333008 50.001 1c20 0.666992 33.667 1 41 1c11.333 0 22.833 1.16699 34.5 3.5s24.167 5.83301 37.5 10.5c41.333 13.333 74.5 37 99.5 71s37.5 72.667 37.5 116c0 44.667 -13.167 82.834 -39.5 114.501s-61.5 53.5 -105.5 65.5
c-15.333 3.33301 -27.166 5.66602 -35.499 6.99902s-18.5 2 -30.5 2l-84 3h-59h-51v-395z" />
    <glyph glyph-name="Q" unicode="Q" horiz-adv-x="1720" 
d="M1696 215l-0.00390625 -251.999c-74.667 0 -144.667 9.16699 -210 27.5s-126.333 47.5 -183 87.5c-57.333 -35.333 -125.166 -63.333 -203.499 -84s-155.5 -31 -231.5 -31c-220 0 -409 75 -567 225c-160 152 -240 338.667 -240 560c0 110.667 18.333 212.667 55 306
s92.334 177.166 167.001 251.499s162.5 132.333 263.5 174s204.833 62.5 311.5 62.5c222.667 0 412.667 -75.333 570 -226c160.667 -154.667 241 -344 241 -568c0 -97.333 -14.167 -185.333 -42.5 -264s-74.166 -154.667 -137.499 -228
c22.667 -12.667 48.334 -22.667 77.001 -30c12.667 -3.33301 26.5 -6 41.5 -8s29.5 -3 43.5 -3h45zM1067 285.001c-80.667 60 -157.668 106.001 -231.001 138.001c-90 40 -177 60 -261 60c-24.667 0 -48.667 -2 -72 -6c-21.333 -2.66699 -43.666 -8.66699 -66.999 -18
c54 -74.667 121 -131.334 201 -170.001c76 -35.333 162 -53 258 -53c36 0 72 7 108 21zM341.995 766.002l3.99902 -82.0029c27.333 8 61.333 14.667 102 20c18.667 2 37 3.66699 55 5s36.667 2 56 2c82 0 157 -9 225 -27c33.333 -8.66699 68 -20.167 104 -34.5
s72.333 -31.5 109 -51.5c60.667 -31.333 107.667 -58 141 -80c46 -29.333 88.667 -62.666 128 -99.999c38.667 40.667 68.834 89.834 90.501 147.501s32.5 116.834 32.5 177.501c0 144.667 -50.833 268.667 -152.5 372s-224.5 155 -368.5 155c-70 0 -137 -13.667 -201 -41
s-122.333 -67.666 -175 -120.999c-44 -44 -80 -96.833 -108 -158.5s-42 -122.834 -42 -183.501z" />
    <glyph glyph-name="R" unicode="R" horiz-adv-x="1188" 
d="M139 0l-0.00195312 1513h439c42.667 0 81.334 -1.33301 116.001 -4s65 -7 91 -13c71.333 -16 133.5 -46 186.5 -90s95.5 -99.333 127.5 -166s48 -135.334 48 -206.001c0 -29.333 -2.66699 -58 -8 -86s-14.333 -58.333 -27 -91
c-22.667 -61.333 -52.167 -111.5 -88.5 -150.5s-77.833 -70.833 -124.5 -95.5c-41.333 -21.333 -89.666 -38.666 -144.999 -51.999l409 -559h-346l-397 580v-580h-281zM419.998 793h153c48.667 0 88 3.66699 118 11c44 10 79.333 27.333 106 52c46 44 69 98.667 69 164
c0 34 -6.66699 65.667 -20 95s-34 54.5 -62 75.5s-61 35.5 -99 43.5c-12 2 -27 3.66699 -45 5s-39.667 2 -65 2h-155v-448z" />
    <glyph glyph-name="S" unicode="S" horiz-adv-x="1065" 
d="M29 426h292.998c0 -57.333 21 -104 63 -140c39.333 -33.333 88.333 -50 147 -50c26.667 0 51.667 4.33301 75 13s44.666 22 63.999 40c38.667 36.667 58 82.334 58 137.001c0 52 -13.333 95.667 -40 131c-21.333 27.333 -54.666 53 -99.999 77c-28.667 14 -70 30 -124 48
c-67.333 22 -114 39.333 -140 52c-46 22 -86.833 51 -122.5 87s-64.5 80.667 -86.5 134c-10.667 26 -18.667 51.833 -24 77.5s-8 52.167 -8 79.5c0 122 43.667 224.167 131 306.5s192.333 123.5 315 123.5c118 0 221.333 -42.333 310 -127s133 -185.667 133 -303h-289
c0 44 -17 81.333 -51 112s-73.667 46 -119 46c-44.667 0 -80.667 -15.167 -108 -45.5s-41 -68.5 -41 -114.5c0 -38 12 -71 36 -99c28 -32 79.333 -60.333 154 -85c87.333 -30 139 -48.667 155 -56c52.667 -22.667 99.334 -50.667 140.001 -84
c106.667 -84.667 160 -199.334 160 -344.001c0 -133.333 -48.167 -246.5 -144.5 -339.5s-212.166 -139.5 -347.499 -139.5c-130 0 -244 44.667 -342 134s-147 199 -147 329z" />
    <glyph glyph-name="T" unicode="T" horiz-adv-x="860" 
d="M293 0v1241h-279v272h842v-272h-283v-1241h-280z" />
    <glyph glyph-name="U" unicode="U" 
d="M139 1513l280.998 -0.00195312v-944v-39c0 -18.667 0.333008 -35.667 1 -51s2.33398 -32.166 5.00098 -50.499s10.334 -39.5 23.001 -63.5c20 -39.333 47.667 -70.666 83 -93.999s74.333 -35 117 -35c37.333 0 72.833 9 106.5 27s61.834 44.333 84.501 79
c18 30 30 66.333 36 109c3.33301 28.667 5 68 5 118v944h280v-944c0 -88.667 -6 -160.667 -18 -216c-16 -74.667 -46.667 -139 -92 -193c-48.667 -58 -108.834 -105.333 -180.501 -142s-145.5 -55 -221.5 -55c-70 0 -139.833 17 -209.5 51s-129 78.833 -178 134.5
s-83.167 121.5 -102.5 197.5c-6.66699 28 -11.667 59.833 -15 95.5s-5 78.167 -5 127.5v944z" />
    <glyph glyph-name="V" unicode="V" horiz-adv-x="1434" 
d="M604 0l-588 1513h295l408 -1151l407 1151h295l-585 -1513h-232z" />
    <glyph glyph-name="W" unicode="W" horiz-adv-x="1843" 
d="M455 0l-441 1513h287l264 -1058l260 1058h205l256 -1058l266 1058h287l-440 -1513h-223l-246 1001l-252 -1001h-223z" />
    <glyph glyph-name="X" unicode="X" horiz-adv-x="1393" 
d="M10 0l522 754l-522 759h328l358 -520l361 520h327l-524 -759l524 -754h-327l-361 516l-358 -516h-328z" />
    <glyph glyph-name="Y" unicode="Y" horiz-adv-x="1270" 
d="M504 0v559l-498 954h309l330 -696l330 696h307l-498 -954v-559h-280z" />
    <glyph glyph-name="Z" unicode="Z" horiz-adv-x="1024" 
d="M37 240l575 1001h-542v272h874v-253l-571 -988h610v-272h-946v240z" />
    <glyph glyph-name="bracketleft" unicode="[" horiz-adv-x="655" 
d="M598 1513l0.000976562 -291.998c-68.667 -22 -116 -74.667 -142 -158c-16 -52 -24 -126.333 -24 -223v-465c0 -110 16 -193 48 -249c25.333 -45.333 64.666 -77 117.999 -95v-291c-62.667 0 -125.667 22 -189 66c-52 36.667 -100 86.167 -144 148.5s-75 136.5 -93 222.5
c-6.66699 32.667 -11.667 68.667 -15 108s-5 85 -5 137v473c0 90 7 163 21 219c18 69.333 50.667 134.166 98 194.499s95.333 107.166 144 140.499c62 42.667 123 64 183 64z" />
    <glyph glyph-name="backslash" unicode="\" 
d="M817 0l-645 1513h213l645 -1513h-213z" />
    <glyph glyph-name="bracketright" unicode="]" horiz-adv-x="655" 
d="M522 895v-472.999c0 -102 -6.33301 -183.667 -19 -245c-17.333 -84.667 -49 -159.334 -95 -224.001c-43.333 -62 -91 -111 -143 -147c-62 -44 -125 -66 -189 -66v291c66 22 112 68.667 138 140c9.33301 26 16.333 55.333 21 88s7 71.334 7 116.001v465
c0 95.333 -8 169.666 -24 222.999c-24.667 81.333 -72 134 -142 158v292c60.667 0 121.667 -21.333 183 -64c48 -34 95.333 -80 142 -138s79.667 -123.667 99 -197c14.667 -60 22 -133 22 -219z" />
    <glyph glyph-name="asciicircum" unicode="^" horiz-adv-x="1229" 
d="M342 645l-213 96l369 772h245l369 -772l-213 -96l-278 572z" />
    <glyph glyph-name="underscore" unicode="_" horiz-adv-x="1024" 
d="M1024 -283h-1024v185h1024v-185z" />
    <glyph glyph-name="grave" unicode="`" horiz-adv-x="860" 
d="M152 1511l116 209l455 -276l-109 -189z" />
    <glyph glyph-name="a" unicode="a" horiz-adv-x="1352" 
d="M1260 1135l-0.000976562 -1135h-250v154c-42 -56.667 -99.5 -102.667 -172.5 -138s-145.167 -53 -216.5 -53c-87.333 0 -165.833 16.333 -235.5 49s-130.5 80 -182.5 142c-45.333 54.667 -80.333 117.834 -105 189.501s-37 146.167 -37 223.5
c0 82 11.167 155.833 33.5 221.5s59.833 127.834 112.5 186.501c57.333 66.667 121.333 116 192 148s147.334 48 230.001 48c78.667 0 150.5 -16.667 215.5 -50s120.167 -82 165.5 -146v160h250zM1001 568.998c0 96.667 -30.3311 176.834 -90.998 240.501
s-139.334 95.5 -236.001 95.5c-98 0 -179.167 -32.833 -243.5 -98.5s-96.5 -148.834 -96.5 -249.501c0 -92 32.667 -169.667 98 -233s144.666 -95 237.999 -95c96.667 0 176 32 238 96s93 145.333 93 244z" />
    <glyph glyph-name="b" unicode="b" horiz-adv-x="1352" 
d="M111 0l0.000976562 1513h272v-497c37.333 51.333 90 91 158 119c60 24 125.333 36 196 36c162 0 298.333 -60.667 409 -182c107.333 -118.667 161 -259.334 161 -422.001c0 -70.667 -13.167 -144 -39.5 -220s-61.833 -140.333 -106.5 -193
c-49.333 -60 -110.833 -106.833 -184.5 -140.5s-150.834 -50.5 -231.501 -50.5c-80 0 -152 15 -216 45c-68 32 -124.333 80.667 -169 146v-154h-249zM709.001 905.001c-93.333 0 -173.666 -30.667 -240.999 -92s-101 -138.333 -101 -231c0 -100.667 31.667 -184.667 95 -252
s145.666 -101 246.999 -101c95.333 0 173.333 32 234 96s91 144 91 240c0 96.667 -29.667 177 -89 241c-61.333 66 -140 99 -236 99z" />
    <glyph glyph-name="c" unicode="c" 
d="M924 369l307 0.000976562c-36 -119.333 -107 -216.833 -213 -292.5s-222.667 -113.5 -350 -113.5c-75.333 0 -150.833 15.167 -226.5 45.5s-140.834 71.833 -195.501 124.5c-60.667 58.667 -106.667 125.667 -138 201s-47 155.666 -47 240.999
c0 164.667 59.167 305.167 177.5 421.5s260.833 174.5 427.5 174.5c125.333 0 242.333 -38.333 351 -115s180 -176 214 -298h-307c-58 98 -145.333 147 -262 147c-96 0 -174.667 -31.667 -236 -95s-92 -143 -92 -239c0 -100 32 -182 96 -246s146 -96 246 -96
c51.333 0 98.333 12.5 141 37.5s78.334 59.167 107.001 102.5z" />
    <glyph glyph-name="d" unicode="d" horiz-adv-x="1352" 
d="M1255 1513v-1513h-249v154c-40 -60 -94.667 -106.833 -164 -140.5s-141.666 -50.5 -216.999 -50.5c-82 0 -157.833 16.833 -227.5 50.5s-130.5 80.5 -182.5 140.5c-48 55.333 -85.667 119 -113 191s-41 144.667 -41 218c0 40 3 78.167 9 114.5s15.667 72.5 29 108.5
c26 70.667 64.667 134.834 116 192.501s114.666 104.167 189.999 139.5s151.333 53 228 53c66.667 0 131.167 -13.167 193.5 -39.5s114.5 -64.166 156.5 -113.499v495h272zM1001 568.998c0 93.333 -33.168 172.666 -99.501 237.999s-146.166 98 -239.499 98
c-87.333 0 -163.833 -33.167 -229.5 -99.5s-98.5 -143.166 -98.5 -230.499c0 -95.333 31.833 -176.833 95.5 -244.5s142.5 -101.5 236.5 -101.5c92.667 0 171.667 33.167 237 99.5s98 146.5 98 240.5z" />
    <glyph glyph-name="e" unicode="e" 
d="M1231 446l-881 -0.00195312c20 -66 57.5 -118.667 112.5 -158s117.167 -59 186.5 -59c52.667 0 101.5 8.83301 146.5 26.5s80.833 41.834 107.5 72.501h301c-34 -102 -103.333 -188.333 -208 -259s-217 -106 -337 -106c-164 0 -305 58 -423 174
c-58 58 -101.667 122 -131 192s-44 146.667 -44 230c0 168 58 312 174 432s259 180 429 180c160 0 296.833 -59.167 410.5 -177.5s170.5 -257.833 170.5 -418.5v-39c-2 -11.333 -3.33301 -19.666 -4 -24.999zM346 687.998h625.001c-22 65.333 -61.333 117.833 -118 157.5
s-120.334 59.5 -191.001 59.5c-69.333 0 -134.333 -20 -195 -60s-101 -92.333 -121 -157z" />
    <glyph glyph-name="f" unicode="f" horiz-adv-x="573" 
d="M117 0v893h-97v242h97c0 111.333 33 206 99 284c70 82 160.333 123 271 123l74 -4v-270c-64 0 -106.667 -6.33301 -128 -19c-29.333 -18 -44 -56 -44 -114h158v-242h-158v-893h-272z" />
    <glyph glyph-name="g" unicode="g" horiz-adv-x="1352" 
d="M1001 1135l249.998 0.000976562v-963c0 -92 -11 -170.667 -33 -236c-24 -72 -65.667 -139 -125 -201s-128.666 -110.167 -207.999 -144.5s-160.666 -51.5 -243.999 -51.5c-122.667 0 -236.667 34 -342 102s-179 159 -221 273h309c29.333 -31.333 68 -57.333 116 -78
s94 -31 138 -31c46 0 91.667 8.16699 137 24.5s84.333 39.833 117 70.5c29.333 26 51.333 54.333 66 85s29 88.334 43 173.001c-50 -62.667 -103.333 -109.667 -160 -141c-63.333 -36 -132.333 -54 -207 -54c-70 0 -142 16.333 -216 49s-137.333 75.667 -190 129
c-54.667 57.333 -97 124.666 -127 201.999c-14 39.333 -24.667 78.666 -32 117.999s-11 80.333 -11 123c0 73.333 13 143.5 39 210.5s63.667 128.5 113 184.5c54 60 118 107 192 141s153.333 51 238 51c78 0 147.333 -15.333 208 -46c65.333 -33.333 115.333 -82 150 -146
v156zM994.998 563.001c0 97.333 -32.166 178.667 -96.499 244s-145.5 98 -243.5 98c-41.333 0 -82.5 -8.66699 -123.5 -26s-77.167 -42.333 -108.5 -75c-28.667 -30.667 -51.334 -65.667 -68.001 -105c-14 -37.333 -21 -79.333 -21 -126c0 -98.667 32.5 -180.667 97.5 -246
s146.5 -98 244.5 -98c88 0 163.167 33.167 225.5 99.5s93.5 144.5 93.5 234.5z" />
    <glyph glyph-name="h" unicode="h" horiz-adv-x="1229" 
d="M111 0v1513h272v-464c28 39.333 70 69.5 126 90.5s111 31.5 165 31.5c62.667 0 124 -13.667 184 -41s110 -64 150 -110c34 -38.667 60.667 -87 80 -145c9.33301 -28.667 16.333 -64.167 21 -106.5s7 -93.833 7 -154.5v-614h-272v555
c0 138.667 -21.333 233.334 -64 284.001c-37.333 44 -93.333 66 -168 66c-80.667 0 -142.667 -32.667 -186 -98c-18 -28.667 -30.667 -70.334 -38 -125.001c-3.33301 -32 -5 -75.667 -5 -131v-551h-272z" />
    <glyph glyph-name="i" unicode="i" horiz-adv-x="492" 
d="M111 0v1135h272v-1135h-272zM111 1266v247h272v-247h-272z" />
    <glyph glyph-name="j" unicode="j" horiz-adv-x="532" 
d="M147 1135h272.999v-1065c0 -67.333 -7 -126 -21 -176c-16 -59.333 -44.667 -111.333 -86 -156c-31.333 -35.333 -72.666 -64 -123.999 -86c-25.333 -10 -50.5 -17.667 -75.5 -23s-51.167 -8 -78.5 -8v264c36.667 0 63.667 8.66699 81 26c20.667 20.667 31 62.667 31 126
v41v1057zM146.999 1266v247h273v-247h-273z" />
    <glyph glyph-name="k" unicode="k" horiz-adv-x="1188" 
d="M111 0v1513h272v-913l365 535h321l-410 -555l478 -580h-365l-389 530v-530h-272z" />
    <glyph glyph-name="l" unicode="l" horiz-adv-x="492" 
d="M111 0v1513h272v-1513h-272z" />
    <glyph glyph-name="m" unicode="m" horiz-adv-x="1925" 
d="M111 0l-0.000976562 1135h249v-105c24 46.667 67.333 83 130 109c52.667 21.333 109 32 169 32c59.333 0 116 -12.167 170 -36.5s98.667 -59.166 134 -104.499l14 -16l12 -19c4 8 8.33301 14.333 13 19l16 16c37.333 44 86.666 78.5 147.999 103.5
s122.666 37.5 183.999 37.5c72.667 0 137.334 -10.833 194.001 -32.5s107.834 -57.667 153.501 -108s77.5 -111.5 95.5 -183.5c12.667 -54.667 19 -124.667 19 -210v-637h-272v604v18v15v12c0 13.333 -0.333008 25.666 -1 36.999s-2 21.333 -4 30
c-6 44 -17.667 78.833 -35 104.5s-41.5 46.167 -72.5 61.5s-63.833 23 -98.5 23c-39.333 0 -75 -8 -107 -24s-59 -40.667 -81 -74c-12 -19.333 -22.667 -47.666 -32 -84.999c-3.33301 -16 -6 -36.667 -8 -62s-3 -54.333 -3 -87v-32v-541h-273v604v18v15v12
c0 29.333 -1.66699 50.333 -5 63c-6 38.667 -18.5 72.167 -37.5 100.5s-44.667 50.833 -77 67.5s-66.166 25 -101.499 25c-66.667 0 -117.667 -19.667 -153 -59c-29.333 -31.333 -49 -77.666 -59 -138.999c-6 -37.333 -9 -92.666 -9 -165.999v-541h-272z" />
    <glyph glyph-name="n" unicode="n" horiz-adv-x="1229" 
d="M111 0l-0.000976562 1135h251v-105c35.333 46 80.833 81 136.5 105s114.834 36 177.501 36c60 0 118.667 -12.333 176 -37s106.333 -59.334 147 -104.001l17 -17c3.33301 -2 7.33301 -7.33301 12 -16c39.333 -54 65.333 -119.333 78 -196c8 -48 12 -119 12 -213v-588
h-272v535v24v19v16v13v11c0 26.667 -1.66699 46.334 -5 59.001c-6 55.333 -19.667 98.333 -41 129c-20 32 -46.5 56.5 -79.5 73.5s-67.167 25.5 -102.5 25.5c-36 0 -72 -9.16699 -108 -27.5s-63.333 -42.333 -82 -72s-31 -66.5 -37 -110.5
c-2.66699 -22 -4.66699 -44.167 -6 -66.5s-2 -48.833 -2 -79.5v-35v-514h-272z" />
    <glyph glyph-name="o" unicode="o" 
d="M674 1171c164.667 0 305.001 -59.3311 421.001 -177.998c58 -59.333 101.333 -124.333 130 -195s43 -148.334 43 -233.001c0 -166.667 -59.333 -308.667 -178 -426s-261.334 -176 -428.001 -176c-163.333 0 -304.333 59 -423 177s-178 259.667 -178 425
c0 169.333 59.667 312.666 179 429.999s264 176 434 176zM662.001 905.002c-20 0 -40.668 -2.33105 -62.001 -6.99805s-42.666 -12 -63.999 -22c-41.333 -18 -77.333 -42.5 -108 -73.5s-54 -67 -70 -108s-24 -84.167 -24 -129.5c0 -92.667 31.667 -171.834 95 -237.501
s141 -98.5 233 -98.5c94.667 0 173.834 32.167 237.501 96.5s95.5 144.166 95.5 239.499c0 94.667 -32.333 175 -97 241s-143.334 99 -236.001 99z" />
    <glyph glyph-name="p" unicode="p" horiz-adv-x="1352" 
d="M111 -379l-0.000976562 1514h249v-148c44 62 97.333 108.167 160 138.5s132.334 45.5 209.001 45.5c85.333 0 160.5 -14.167 225.5 -42.5s127.167 -75.5 186.5 -141.5c24.667 -25.333 46.667 -53.833 66 -85.5s36 -66.167 50 -103.5c27.333 -74 41 -151 41 -231
c0 -164 -53.333 -304.667 -160 -422c-110 -121.333 -246.333 -182 -409 -182c-74 0 -138.5 12.5 -193.5 37.5s-105.833 65.833 -152.5 122.5v-502h-272zM699.999 905c-94 0 -173.001 -32.502 -237.001 -97.502s-96 -145.167 -96 -240.5c0 -50 8.33301 -96.167 25 -138.5
s43.667 -80.166 81 -113.499c28 -26 62 -46.833 102 -62.5s78.333 -23.5 115 -23.5c96.667 0 176.834 32.667 240.501 98s95.5 146 95.5 242c0 92.667 -31.167 171.834 -93.5 237.501s-139.833 98.5 -232.5 98.5z" />
    <glyph glyph-name="q" unicode="q" horiz-adv-x="1352" 
d="M1001 1135h250.002v-1514h-272v502c-42.667 -53.333 -93.334 -93.333 -152.001 -120s-123.334 -40 -194.001 -40c-163.333 0 -300.666 62 -411.999 186c-106.667 120.667 -160 263.667 -160 429c0 77.333 14.5 151.333 43.5 222s69.333 133.5 121 188.5
s113.167 99.167 184.5 132.5s145 50 221 50c78.667 0 149.667 -14.833 213 -44.5s115.666 -76.167 156.999 -139.5v148zM670.002 905c-96.667 0 -176.834 -31.667 -240.501 -95s-95.5 -143 -95.5 -239c0 -98 31.333 -179.5 94 -244.5s143.334 -97.5 242.001 -97.5
c90 0 166.333 33.667 229 101s94 146.333 94 237c0 90 -31.333 168.833 -94 236.5s-139 101.5 -229 101.5z" />
    <glyph glyph-name="r" unicode="r" horiz-adv-x="655" 
d="M111 0l0.000976562 1135h247v-103c32.667 48.667 68.667 84 108 106s86 33 140 33h21v-264c-15.333 0 -30 -1 -44 -3s-29 -5.66699 -45 -11c-26.667 -8 -52.334 -21 -77.001 -39c-33.333 -27.333 -56 -63.666 -68 -108.999c-6.66699 -30 -10 -74.333 -10 -133v-612h-272z
" />
    <glyph glyph-name="s" unicode="s" horiz-adv-x="901" 
d="M829 823l-266.002 0.00390625c-4 26.667 -15.833 47 -35.5 61s-42.5 21 -68.5 21c-30 0 -55.333 -8.33301 -76 -25s-31 -40.334 -31 -71.001c0 -32 18.667 -57.667 56 -77c11.333 -5.33301 44 -16.666 98 -33.999c80.667 -24.667 138 -45.334 172 -62.001
c56.667 -28 100 -62.333 130 -103c34.667 -48.667 52 -108.334 52 -179.001c0 -105.333 -38.333 -196 -115 -272c-37.333 -35.333 -82.5 -64 -135.5 -86s-105.833 -33 -158.5 -33c-118 0 -216.167 36.667 -294.5 110s-117.5 167.666 -117.5 282.999h278
c8 -38.667 23.667 -68.667 47 -90c26.667 -24.667 59 -37 97 -37c34.667 0 64.5 9.5 89.5 28.5s37.5 45.833 37.5 80.5c0 39.333 -23 72.666 -69 99.999c-8 4.66699 -21.667 10.5 -41 17.5l-83 29.5c-57.333 18.667 -93.333 31.334 -108 38.001
c-33.333 14 -65.666 34.333 -96.999 61c-73.333 61.333 -110 140.333 -110 237c0 102 38.667 186.667 116 254c74 64 163 96 267 96c94.667 0 179.334 -34.333 254.001 -103s112 -150.334 112 -245.001z" />
    <glyph glyph-name="t" unicode="t" horiz-adv-x="614" 
d="M152 0v893h-134v242h134v378h272v-378h164v-242h-164v-893h-272z" />
    <glyph glyph-name="u" unicode="u" horiz-adv-x="1229" 
d="M848 1135l272.003 -0.000976562v-1135h-250v121c-28.667 -52 -68.334 -91.333 -119.001 -118s-108.334 -40 -173.001 -40c-70 0 -135.333 13 -196 39s-114.334 64.167 -161.001 114.5s-78 109.166 -94 176.499c-5.33301 24.667 -9.33301 52.667 -12 84s-4 70.333 -4 117
v641h272v-557c0 -46.667 2 -89.667 6 -129s13.667 -73.666 29 -102.999c18 -35.333 44.5 -63.666 79.5 -84.999s73.167 -32 114.5 -32c92 0 157 37.667 195 113c27.333 56 41 134.667 41 236v557z" />
    <glyph glyph-name="v" unicode="v" horiz-adv-x="1147" 
d="M461 0l-459 1135h303l264 -746l260 746h304l-459 -1135h-213z" />
    <glyph glyph-name="w" unicode="w" horiz-adv-x="1638" 
d="M430 0l-410 1135h289l211 -693l187 693h215l188 -693l209 693h289l-412 -1135h-168l-215 735l-215 -735h-168z" />
    <glyph glyph-name="x" unicode="x" horiz-adv-x="1147" 
d="M2 0l404 586l-353 549h316l198 -312l193 312h317l-350 -549l406 -586h-336l-230 367l-229 -367h-336z" />
    <glyph glyph-name="y" unicode="y" horiz-adv-x="1188" 
d="M219 -379l209 485l-416 1029h310l260 -727l272 727h309l-651 -1514h-293z" />
    <glyph glyph-name="z" unicode="z" horiz-adv-x="942" 
d="M41 0v242l504 651h-447v242h772v-242l-503 -651h538v-242h-864z" />
    <glyph glyph-name="braceleft" unicode="{" horiz-adv-x="696" 
d="M455 367v-392c0 -66.667 11.333 -117.667 34 -153s65.667 -62.666 129 -81.999h-57c-54 0 -93 2.33301 -117 7c-40.667 7.33301 -78.5 22.333 -113.5 45s-59.167 55 -72.5 97c-9.33301 31.333 -14 73 -14 125v389v14v12c0 28 -1.66699 47 -5 57
c-2.66699 12 -7.16699 24.5 -13.5 37.5s-14.5 25.5 -24.5 37.5c-32 36 -73.667 59.333 -125 70c21.333 3.33301 40.833 9 58.5 17s34.167 18 49.5 30c26 20.667 43.667 47.667 53 81c4.66699 21.333 7 54.333 7 99v346c0 57.333 2.66699 99 8 125
c9.33301 47.333 28.166 85.166 56.499 113.499s68.166 47.833 119.499 58.5c14.667 2.66699 34.334 5 59.001 7s51.334 3 80.001 3h51c-58 -16 -99.667 -43 -125 -81s-38 -88.667 -38 -152v-365c0 -84 -10.667 -145 -32 -183c-26.667 -48.667 -77.667 -81.667 -153 -99
c71.333 -16 121 -46.333 149 -91c24 -38 36 -95.667 36 -173z" />
    <glyph glyph-name="bar" unicode="|" horiz-adv-x="1229" 
d="M498 0v1513h243v-1513h-243z" />
    <glyph glyph-name="braceright" unicode="}" horiz-adv-x="696" 
d="M242 913l-0.000976562 365.002c0 64.667 -12 115.167 -36 151.5s-66.667 63.5 -128 81.5h53c76.667 0 132.667 -5.66699 168 -17s65.833 -29.5 91.5 -54.5s43.5 -61.5 53.5 -109.5c6 -30 9 -72 9 -126v-346c0 -46.667 2.33301 -79.334 7 -98.001
c8 -31.333 26.5 -58.833 55.5 -82.5s64.167 -39.167 105.5 -46.5c-24.667 -4.66699 -47.334 -13 -68.001 -25c-19.333 -10 -38.166 -25.5 -56.499 -46.5s-30.5 -43.167 -36.5 -66.5c-2 -10.667 -3.66699 -23.667 -5 -39s-2 -32.333 -2 -51v-389
c0 -68.667 -7.66699 -119.334 -23 -152.001c-12 -27.333 -33 -50.333 -63 -69c-34 -22 -72.333 -37 -115 -45c-30.667 -5.33301 -70.667 -8 -120 -8h-54c62 18 104.833 45 128.5 81s35.5 87.333 35.5 154v392c0 76.667 11.667 134 35 172
c26.667 43.333 76.334 74 149.001 92c-73.333 16 -124 49 -152 99c-21.333 39.333 -32 100.333 -32 183z" />
    <glyph glyph-name="asciitilde" unicode="~" horiz-adv-x="1229" 
d="M1006 862l131 -149l-33 -52c-16 -25.333 -29.667 -45 -41 -59c-31.333 -41.333 -62 -71.666 -92 -90.999c-39.333 -25.333 -82.333 -38 -129 -38c-29.333 0 -61.666 5 -96.999 15c-12.667 3.33301 -43.334 14.666 -92.001 33.999l-82 35l-76 32c-34 12.667 -61 19 -81 19
c-41.333 0 -78 -19 -110 -57c-8 -9.33301 -30.667 -46.333 -68 -111l-132 152c26.667 48.667 51.334 87.667 74.001 117c32 42 65.333 74.333 100 97c42 26.667 86 40 132 40c44 0 96 -11.667 156 -35l155 -67c53.333 -22 93 -33 119 -33c29.333 0 55.666 10.333 78.999 31
c10 9.33301 39 49.333 87 120z" />
    <glyph glyph-name="dieresis" unicode="&#xa8;" horiz-adv-x="1024" 
 />
    <glyph glyph-name="onequarter" unicode="&#xbc;" horiz-adv-x="1780" 
 />
    <glyph glyph-name="onehalf" unicode="&#xbd;" horiz-adv-x="1780" 
 />
    <glyph glyph-name="threequarters" unicode="&#xbe;" horiz-adv-x="1780" 
 />
    <glyph glyph-name=".notdef.106" unicode="&#xc0;" horiz-adv-x="1516" 
d="M14 0l631 1513h219l637 -1513h-309l-164 391h-536l-168 -391h-310zM479 1890l117 209l455 -276l-109 -189zM594 664h324l-162 458z" />
    <glyph glyph-name=".notdef.107" unicode="&#xc1;" horiz-adv-x="1516" 
d="M14 0l631 1513h219l637 -1513h-309l-164 391h-536l-168 -391h-310zM582 1634l-103 189l461 272l109 -213zM594 664h324l-162 458z" />
    <glyph glyph-name=".notdef.111" unicode="&#xc2;" horiz-adv-x="1516" 
d="M14 0l631 1513h219l637 -1513h-309l-164 391h-536l-168 -391h-310zM356 1649l303 282h215l300 -282h-297l-111 131l-113 -131h-297zM594 664h324l-162 458z" />
    <glyph glyph-name=".notdef.109" unicode="&#xc3;" horiz-adv-x="1516" 
d="M14 0l631 1513h219l637 -1513h-309l-164 391h-536l-168 -391h-310zM594 664h324l-162 458zM514 1654l-100.002 179.998c24 22.667 54.667 41 92 55s74.666 21 111.999 21c29.333 0 62 -6 98 -18c76.667 -25.333 120.667 -38.666 132 -39.999c24 0 48.333 5 73 15
s47.334 24.333 68.001 43l103 -175c-31.333 -28 -62.666 -50 -93.999 -66s-65.666 -24 -102.999 -24c-29.333 0 -70.5 9 -123.5 27s-93.833 27 -122.5 27c-22.667 0 -45.5 -3.66699 -68.5 -11s-45.167 -18.666 -66.5 -33.999z" />
    <glyph glyph-name=".notdef.123" unicode="&#xc8;" horiz-adv-x="1065" 
d="M139 0v1513h813v-272h-532v-348h510v-272h-510v-349h532v-272h-813zM209 1890l117 209l454 -276l-108 -189z" />
    <glyph glyph-name=".notdef.124" unicode="&#xc9;" horiz-adv-x="1065" 
d="M139 0v1513h813v-272h-532v-348h510v-272h-510v-349h532v-272h-813zM356 1634l-102 189l461 272l108 -213z" />
    <glyph glyph-name=".notdef.128" unicode="&#xca;" horiz-adv-x="1065" 
d="M139 0v1513h813v-272h-532v-348h510v-272h-510v-349h532v-272h-813zM131 1649l303 282h215l299 -282h-297l-110 131l-113 -131h-297z" />
    <glyph glyph-name=".notdef.104" unicode="&#xcc;" horiz-adv-x="573" 
d="M139 0v1513h281v-1513h-281zM8 1890l117 209l455 -276l-109 -189z" />
    <glyph glyph-name=".notdef.103" unicode="&#xcd;" horiz-adv-x="573" 
d="M139 0v1513h281v-1513h-281zM111 1634l-103 189l461 272l109 -213z" />
    <glyph glyph-name=".notdef.099" unicode="&#xd2;" horiz-adv-x="1720" 
d="M850 1542c216.667 0 402.168 -77.168 556.501 -231.501s231.5 -341.166 231.5 -560.499c0 -217.333 -77.333 -402.833 -232 -556.5s-340 -230.5 -556 -230.5s-401.5 76.5 -556.5 229.5s-232.5 338.833 -232.5 557.5c0 218 77.167 404.5 231.5 559.5
s340.166 232.5 557.499 232.5zM582.001 1890l116 209l455 -276l-109 -189zM850.001 1270c-140 0 -259.667 -50.333 -359 -151s-149 -221.667 -149 -363c0 -139.333 50 -260.833 150 -364.5s219.333 -155.5 358 -155.5s258 51.833 358 155.5s150 225.167 150 364.5
c0 142.667 -49.333 264 -148 364s-218.667 150 -360 150z" />
    <glyph glyph-name=".notdef.098" unicode="&#xd3;" horiz-adv-x="1720" 
d="M850 1542c216.667 0 402.168 -77.168 556.501 -231.501s231.5 -341.166 231.5 -560.499c0 -217.333 -77.333 -402.833 -232 -556.5s-340 -230.5 -556 -230.5s-401.5 76.5 -556.5 229.5s-232.5 338.833 -232.5 557.5c0 218 77.167 404.5 231.5 559.5
s340.166 232.5 557.499 232.5zM684.001 1634l-102 189l460 272l109 -213zM850.001 1270c-140 0 -259.667 -50.333 -359 -151s-149 -221.667 -149 -363c0 -139.333 50 -260.833 150 -364.5s219.333 -155.5 358 -155.5s258 51.833 358 155.5s150 225.167 150 364.5
c0 142.667 -49.333 264 -148 364s-218.667 150 -360 150z" />
    <glyph glyph-name=".notdef.094" unicode="&#xd4;" horiz-adv-x="1720" 
d="M850 1542c217.333 0 403 -77.167 557 -231.5s231 -341.166 231 -560.499c0 -218 -77.333 -403.667 -232 -557s-340 -230 -556 -230s-401.5 76.5 -556.5 229.5s-232.5 338.833 -232.5 557.5c0 219.333 77 406.166 231 560.499s340 231.5 558 231.5zM459 1649l303 282h215
l299 -282h-297l-111 131l-112 -131h-297zM850 1270c-140.667 0 -260.5 -50.167 -359.5 -150.5s-148.5 -221.5 -148.5 -363.5c0 -140 50.167 -261.667 150.5 -365s219.5 -155 357.5 -155s257.167 51.667 357.5 155s150.5 225 150.5 365c0 142.667 -49.5 264 -148.5 364
s-218.833 150 -359.5 150z" />
    <glyph glyph-name=".notdef.096" unicode="&#xd5;" horiz-adv-x="1720" 
d="M850 1542c217.333 0 403 -77.167 557 -231.5s231 -341.166 231 -560.499c0 -218 -77.333 -403.667 -232 -557s-340 -230 -556 -230s-401.5 76.5 -556.5 229.5s-232.5 338.833 -232.5 557.5c0 219.333 77 406.166 231 560.499s340 231.5 558 231.5zM850 1270
c-140.667 0 -260.5 -50.167 -359.5 -150.5s-148.5 -221.5 -148.5 -363.5c0 -140 50.167 -261.667 150.5 -365s219.5 -155 357.5 -155s257.167 51.667 357.5 155s150.5 225 150.5 365c0 142.667 -49.5 264 -148.5 364s-218.833 150 -359.5 150zM612 1654l-100.002 179.998
c24 22.667 54.667 41 92 55s74.666 21 111.999 21c29.333 0 62 -6 98 -18c76.667 -25.333 120.667 -38.666 132 -39.999c24 0 48.333 5 73 15s47.334 24.333 68.001 43l103 -175c-31.333 -28 -62.666 -50 -93.999 -66s-65.666 -24 -102.999 -24c-29.333 0 -70.5 9 -123.5 27
s-93.833 27 -122.5 27c-22.667 0 -45.5 -3.66699 -68.5 -11s-45.167 -18.666 -66.5 -33.999z" />
    <glyph glyph-name=".notdef.088" unicode="&#xd9;" 
d="M139 1513l281 -0.000976562v-944v-39l1 -51c0 -7.33301 0.333008 -15.333 1 -24s2 -17.667 4 -27c2 -19.333 9.66699 -40.333 23 -63c20 -39.333 47.667 -70.666 83 -93.999s74.333 -35 117 -35c36.667 0 72 9 106 27s62.333 44.333 85 79c18 30 30 66.333 36 109
c3.33301 31.333 5 70.666 5 117.999v944h280v-944c0 -88 -6 -160 -18 -216c-16 -74.667 -46.667 -139 -92 -193c-48 -58 -108.167 -105.333 -180.5 -142s-146.166 -55 -221.499 -55c-70 0 -139.833 17 -209.5 51s-128.834 78.833 -177.501 134.5s-83 121.5 -103 197.5
c-6 28.667 -11 60.334 -15 95.001c0 14.667 -0.833008 37 -2.5 67s-2.5 50.333 -2.5 61v944zM377 1890l117 209l454 -276l-108 -189z" />
    <glyph glyph-name=".notdef.087" unicode="&#xda;" 
d="M139 1513l281 -0.000976562v-944v-39l1 -51c0 -7.33301 0.333008 -15.333 1 -24s2 -17.667 4 -27c2 -19.333 9.66699 -40.333 23 -63c20 -39.333 47.667 -70.666 83 -93.999s74.333 -35 117 -35c36.667 0 72 9 106 27s62.333 44.333 85 79c18 30 30 66.333 36 109
c3.33301 31.333 5 70.666 5 117.999v944h280v-944c0 -88 -6 -160 -18 -216c-16 -74.667 -46.667 -139 -92 -193c-48 -58 -108.167 -105.333 -180.5 -142s-146.166 -55 -221.499 -55c-70 0 -139.833 17 -209.5 51s-128.834 78.833 -177.501 134.5s-83 121.5 -103 197.5
c-6 28.667 -11 60.334 -15 95.001c0 14.667 -0.833008 37 -2.5 67s-2.5 50.333 -2.5 61v944zM479 1634l-102 189l461 272l108 -213z" />
    <glyph glyph-name=".notdef.070" unicode="&#xdd;" horiz-adv-x="1270" 
d="M504 0v559l-498 954h309l330 -696l330 696h307l-498 -954v-559h-280zM467 1634l-103 189l461 272l109 -213z" />
    <glyph glyph-name=".notdef.066" unicode="&#xe0;" horiz-adv-x="1352" 
d="M1260 1135l-0.000976562 -1135h-250v154c-42 -56.667 -99.5 -102.667 -172.5 -138s-145.167 -53 -216.5 -53c-87.333 0 -165.833 16.333 -235.5 49s-130.5 80 -182.5 142c-45.333 54.667 -80.333 117.834 -105 189.501s-37 146.167 -37 223.5
c0 82 11.167 155.833 33.5 221.5s59.833 127.834 112.5 186.501c57.333 66.667 121.333 116 192 148s147.334 48 230.001 48c78.667 0 150.5 -16.667 215.5 -50s120.167 -82 165.5 -146v160h250zM396.999 1511l117 209l455 -276l-109 -189zM1001 568.998
c0 96.667 -30.3311 176.834 -90.998 240.501s-139.334 95.5 -236.001 95.5c-98 0 -179.167 -32.833 -243.5 -98.5s-96.5 -148.834 -96.5 -249.501c0 -92 32.667 -169.667 98 -233s144.666 -95 237.999 -95c96.667 0 176 32 238 96s93 145.333 93 244z" />
    <glyph glyph-name=".notdef.065" unicode="&#xe1;" horiz-adv-x="1352" 
d="M1260 1135l-0.000976562 -1135h-250v154c-42 -56.667 -99.5 -102.667 -172.5 -138s-145.167 -53 -216.5 -53c-87.333 0 -165.833 16.333 -235.5 49s-130.5 80 -182.5 142c-45.333 54.667 -80.333 117.834 -105 189.501s-37 146.167 -37 223.5
c0 82 11.167 155.833 33.5 221.5s59.833 127.834 112.5 186.501c57.333 66.667 121.333 116 192 148s147.334 48 230.001 48c78.667 0 150.5 -16.667 215.5 -50s120.167 -82 165.5 -146v160h250zM499.999 1255l-103 189l461 272l109 -213zM1001 568.998
c0 96.667 -30.3311 176.834 -90.998 240.501s-139.334 95.5 -236.001 95.5c-98 0 -179.167 -32.833 -243.5 -98.5s-96.5 -148.834 -96.5 -249.501c0 -92 32.667 -169.667 98 -233s144.666 -95 237.999 -95c96.667 0 176 32 238 96s93 145.333 93 244z" />
    <glyph glyph-name=".notdef.061" unicode="&#xe2;" horiz-adv-x="1352" 
d="M1260 1135l-0.000976562 -1135h-250v154c-42 -56.667 -99.5 -102.667 -172.5 -138s-145.167 -53 -216.5 -53c-87.333 0 -165.833 16.333 -235.5 49s-130.5 80 -182.5 142c-45.333 54.667 -80.333 117.834 -105 189.501s-37 146.167 -37 223.5
c0 82 11.167 155.833 33.5 221.5s59.833 127.834 112.5 186.501c57.333 66.667 121.333 116 192 148s147.334 48 230.001 48c78.667 0 150.5 -16.667 215.5 -50s120.167 -82 165.5 -146v160h250zM273.999 1270l304 282h215l299 -282h-297l-111 131l-113 -131h-297z
M1001 568.998c0 96.667 -30.3311 176.834 -90.998 240.501s-139.334 95.5 -236.001 95.5c-98 0 -179.167 -32.833 -243.5 -98.5s-96.5 -148.834 -96.5 -249.501c0 -92 32.667 -169.667 98 -233s144.666 -95 237.999 -95c96.667 0 176 32 238 96s93 145.333 93 244z" />
    <glyph glyph-name=".notdef.063" unicode="&#xe3;" horiz-adv-x="1352" 
d="M1260 1135l-0.000976562 -1135h-250v154c-42 -56.667 -99.5 -102.667 -172.5 -138s-145.167 -53 -216.5 -53c-87.333 0 -165.833 16.333 -235.5 49s-130.5 80 -182.5 142c-45.333 54.667 -80.333 117.834 -105 189.501s-37 146.167 -37 223.5
c0 82 11.167 155.833 33.5 221.5s59.833 127.834 112.5 186.501c57.333 66.667 121.333 116 192 148s147.334 48 230.001 48c78.667 0 150.5 -16.667 215.5 -50s120.167 -82 165.5 -146v160h250zM435.999 1278l-100.001 179.999c24.667 22.667 55.5 41 92.5 55
s74.5 21 112.5 21c28 0 60.667 -6 98 -18c77.333 -26 121 -39 131 -39c27.333 0 52.666 4.83301 75.999 14.5s45 23.834 65 42.501l103 -174c-31.333 -28 -62.666 -50 -93.999 -66s-65.666 -24 -102.999 -24c-16 0 -34.333 2 -55 6s-44.667 10.667 -72 20
c-52 18 -91.667 27 -119 27c-48.667 0 -93.667 -15 -135 -45zM1001 568.997c0 96.667 -30.3311 176.834 -90.998 240.501s-139.334 95.5 -236.001 95.5c-98 0 -179.167 -32.833 -243.5 -98.5s-96.5 -148.834 -96.5 -249.501c0 -92 32.667 -169.667 98 -233
s144.666 -95 237.999 -95c96.667 0 176 32 238 96s93 145.333 93 244z" />
    <glyph glyph-name=".notdef.049" unicode="&#xe8;" 
d="M1231 446l-881 -0.00195312c20 -66 57.5 -118.667 112.5 -158s117.167 -59 186.5 -59c52.667 0 101.5 8.83301 146.5 26.5s80.833 41.834 107.5 72.501h301c-34 -102 -103.333 -188.333 -208 -259s-217 -106 -337 -106c-164 0 -305 58 -423 174
c-58 58 -101.667 122 -131 192s-44 146.667 -44 230c0 168 58 312 174 432s259 180 429 180c160 0 296.833 -59.167 410.5 -177.5s170.5 -257.833 170.5 -418.5v-39c-2 -11.333 -3.33301 -19.666 -4 -24.999zM377 1511l117 209l454 -276l-108 -189zM346 687.998h625.001
c-22 65.333 -61.333 117.833 -118 157.5s-120.334 59.5 -191.001 59.5c-69.333 0 -134.333 -20 -195 -60s-101 -92.333 -121 -157z" />
    <glyph glyph-name=".notdef.048" unicode="&#xe9;" 
d="M1231 446l-881 -0.00195312c20 -66 57.5 -118.667 112.5 -158s117.167 -59 186.5 -59c52.667 0 101.5 8.83301 146.5 26.5s80.833 41.834 107.5 72.501h301c-34 -102 -103.333 -188.333 -208 -259s-217 -106 -337 -106c-164 0 -305 58 -423 174
c-58 58 -101.667 122 -131 192s-44 146.667 -44 230c0 168 58 312 174 432s259 180 429 180c160 0 296.833 -59.167 410.5 -177.5s170.5 -257.833 170.5 -418.5v-39c-2 -11.333 -3.33301 -19.666 -4 -24.999zM479 1255l-102 189l461 272l108 -213zM346 687.998h625.001
c-22 65.333 -61.333 117.833 -118 157.5s-120.334 59.5 -191.001 59.5c-69.333 0 -134.333 -20 -195 -60s-101 -92.333 -121 -157z" />
    <glyph glyph-name=".notdef.044" unicode="&#xea;" 
d="M1231 446l-881 -0.00195312c20 -66 57.5 -118.667 112.5 -158s117.167 -59 186.5 -59c52.667 0 101.5 8.83301 146.5 26.5s80.833 41.834 107.5 72.501h301c-34 -102 -103.333 -188.333 -208 -259s-217 -106 -337 -106c-164 0 -305 58 -423 174
c-58 58 -101.667 122 -131 192s-44 146.667 -44 230c0 168 58 312 174 432s259 180 429 180c160 0 296.833 -59.167 410.5 -177.5s170.5 -257.833 170.5 -418.5v-39c-2 -11.333 -3.33301 -19.666 -4 -24.999zM254 1270l303 282h215l299 -282h-297l-110 131l-113 -131h-297z
M346 687.998h625.001c-22 65.333 -61.333 117.833 -118 157.5s-120.334 59.5 -191.001 59.5c-69.333 0 -134.333 -20 -195 -60s-101 -92.333 -121 -157z" />
    <glyph glyph-name=".notdef.038" unicode="&#xec;" horiz-adv-x="492" 
d="M111 0v1135h272v-1135h-272zM-33 1511l117 209l455 -276l-109 -189z" />
    <glyph glyph-name=".notdef.037" unicode="&#xed;" horiz-adv-x="492" 
d="M111 0v1135h272v-1135h-272zM70 1255l-103 189l461 272l109 -213z" />
    <glyph glyph-name=".notdef.033" unicode="&#xf2;" 
d="M674 1171c164.667 0 305.001 -59.3311 421.001 -177.998c58 -59.333 101.333 -124.333 130 -195s43 -148.334 43 -233.001c0 -166.667 -59.333 -308.667 -178 -426s-261.334 -176 -428.001 -176c-163.333 0 -304.333 59 -423 177s-178 259.667 -178 425
c0 169.333 59.667 312.666 179 429.999s264 176 434 176zM377.001 1511l117 209l454 -276l-108 -189zM662.001 905.002c-20 0 -40.668 -2.33105 -62.001 -6.99805s-42.666 -12 -63.999 -22c-41.333 -18 -77.333 -42.5 -108 -73.5s-54 -67 -70 -108s-24 -84.167 -24 -129.5
c0 -92.667 31.667 -171.834 95 -237.501s141 -98.5 233 -98.5c94.667 0 173.834 32.167 237.501 96.5s95.5 144.166 95.5 239.499c0 94.667 -32.333 175 -97 241s-143.334 99 -236.001 99z" />
    <glyph glyph-name=".notdef.032" unicode="&#xf3;" 
d="M674 1171c164.667 0 305.001 -59.3311 421.001 -177.998c58 -59.333 101.333 -124.333 130 -195s43 -148.334 43 -233.001c0 -166.667 -59.333 -308.667 -178 -426s-261.334 -176 -428.001 -176c-163.333 0 -304.333 59 -423 177s-178 259.667 -178 425
c0 169.333 59.667 312.666 179 429.999s264 176 434 176zM479.001 1255l-102 189l461 272l108 -213zM662.001 905.002c-20 0 -40.668 -2.33105 -62.001 -6.99805s-42.666 -12 -63.999 -22c-41.333 -18 -77.333 -42.5 -108 -73.5s-54 -67 -70 -108s-24 -84.167 -24 -129.5
c0 -92.667 31.667 -171.834 95 -237.501s141 -98.5 233 -98.5c94.667 0 173.834 32.167 237.501 96.5s95.5 144.166 95.5 239.499c0 94.667 -32.333 175 -97 241s-143.334 99 -236.001 99z" />
    <glyph glyph-name=".notdef.028" unicode="&#xf4;" 
d="M674 1171c164.667 0 305.001 -59.3311 421.001 -177.998c58 -59.333 101.333 -124.333 130 -195s43 -148.334 43 -233.001c0 -166.667 -59.333 -308.667 -178 -426s-261.334 -176 -428.001 -176c-163.333 0 -304.333 59 -423 177s-178 259.667 -178 425
c0 169.333 59.667 312.666 179 429.999s264 176 434 176zM254.001 1270l303 282h215l299 -282h-297l-110 131l-113 -131h-297zM662.001 905.002c-20 0 -40.668 -2.33105 -62.001 -6.99805s-42.666 -12 -63.999 -22c-41.333 -18 -77.333 -42.5 -108 -73.5s-54 -67 -70 -108
s-24 -84.167 -24 -129.5c0 -92.667 31.667 -171.834 95 -237.501s141 -98.5 233 -98.5c94.667 0 173.834 32.167 237.501 96.5s95.5 144.166 95.5 239.499c0 94.667 -32.333 175 -97 241s-143.334 99 -236.001 99z" />
    <glyph glyph-name=".notdef.030" unicode="&#xf5;" 
d="M674 1171c164.667 0 305.001 -59.3311 421.001 -177.998c58 -59.333 101.333 -124.333 130 -195s43 -148.334 43 -233.001c0 -166.667 -59.333 -308.667 -178 -426s-261.334 -176 -428.001 -176c-163.333 0 -304.333 59 -423 177s-178 259.667 -178 425
c0 169.333 59.667 312.666 179 429.999s264 176 434 176zM416.001 1278l-100.999 179.998c24.667 22.667 55.5 41 92.5 55s74.5 21 112.5 21c28 0 60.667 -6 98 -18c77.333 -26 121.333 -39 132 -39c27.333 0 52.666 4.83301 75.999 14.5s45 23.834 65 42.501l102 -174
c-30 -27.333 -60.833 -49.166 -92.5 -65.499s-66.167 -24.5 -103.5 -24.5c-16 0 -34.333 2 -55 6s-44.667 10.667 -72 20c-52 18 -91.667 27 -119 27c-48.667 0 -93.667 -15 -135 -45zM662.002 905c-20 0 -40.668 -2.33105 -62.001 -6.99805s-42.666 -12 -63.999 -22
c-41.333 -18 -77.333 -42.5 -108 -73.5s-54 -67 -70 -108s-24 -84.167 -24 -129.5c0 -92.667 31.667 -171.834 95 -237.501s141 -98.5 233 -98.5c94.667 0 173.834 32.167 237.501 96.5s95.5 144.166 95.5 239.499c0 94.667 -32.333 175 -97 241s-143.334 99 -236.001 99z
" />
    <glyph glyph-name="divide" unicode="&#xf7;" horiz-adv-x="1706" 
 />
    <glyph glyph-name=".notdef.022" unicode="&#xf9;" horiz-adv-x="1229" 
d="M848 1135l272.003 -0.000976562v-1135h-250v121c-28.667 -52 -68.334 -91.333 -119.001 -118s-108.334 -40 -173.001 -40c-70 0 -135.333 13 -196 39s-114.334 64.167 -161.001 114.5s-78 109.166 -94 176.499c-5.33301 24.667 -9.33301 52.667 -12 84s-4 70.333 -4 117
v641h272v-557c0 -46.667 2 -89.667 6 -129s13.667 -73.666 29 -102.999c18 -35.333 44.5 -63.666 79.5 -84.999s73.167 -32 114.5 -32c92 0 157 37.667 195 113c27.333 56 41 134.667 41 236v557zM336.003 1511l117 209l454 -276l-108 -189z" />
    <glyph glyph-name=".notdef.021" unicode="&#xfa;" horiz-adv-x="1229" 
d="M848 1135l272.003 -0.000976562v-1135h-250v121c-28.667 -52 -68.334 -91.333 -119.001 -118s-108.334 -40 -173.001 -40c-70 0 -135.333 13 -196 39s-114.334 64.167 -161.001 114.5s-78 109.166 -94 176.499c-5.33301 24.667 -9.33301 52.667 -12 84s-4 70.333 -4 117
v641h272v-557c0 -46.667 2 -89.667 6 -129s13.667 -73.666 29 -102.999c18 -35.333 44.5 -63.666 79.5 -84.999s73.167 -32 114.5 -32c92 0 157 37.667 195 113c27.333 56 41 134.667 41 236v557zM438.003 1255l-102 189l461 272l108 -213z" />
    <glyph glyph-name=".notdef.004" unicode="&#xfd;" horiz-adv-x="1188" 
d="M219 -379l209 485l-416 1029h310l260 -727l272 727h309l-651 -1514h-293zM418 1255l-103 189l461 272l109 -213z" />
    <glyph glyph-name=".notdef.117" unicode="&#x102;" horiz-adv-x="1516" 
d="M14 0l631 1513h219l637 -1513h-309l-164 391h-536l-168 -391h-310zM594 664h324l-162 458zM590 1899c8.66699 -21.333 19.498 -40.001 32.498 -56.001s26.167 -28 39.5 -36c12 -5.33301 26.167 -9.16602 42.5 -11.499s33 -3.5 50 -3.5s33.333 1.33301 49 4
s29.167 6.66699 40.5 12c12.667 8 25 19.833 37 35.5s22 34.167 30 55.5h201c-18 -84 -63.333 -154.667 -136 -212c-29.333 -22 -62.666 -38.5 -99.999 -49.5s-78 -16.5 -122 -16.5s-84.667 5.5 -122 16.5s-70.666 27.5 -99.999 49.5c-72.667 57.333 -118 128 -136 212h194z
" />
    <glyph glyph-name=".notdef.055" unicode="&#x103;" horiz-adv-x="1352" 
d="M1260 1135l-0.000976562 -1135h-250v154c-42 -56.667 -99.5 -102.667 -172.5 -138s-145.167 -53 -216.5 -53c-87.333 0 -165.833 16.333 -235.5 49s-130.5 80 -182.5 142c-45.333 54.667 -80.333 117.834 -105 189.501s-37 146.167 -37 223.5
c0 82 11.167 155.833 33.5 221.5s59.833 127.834 112.5 186.501c57.333 66.667 121.333 116 192 148s147.334 48 230.001 48c78.667 0 150.5 -16.667 215.5 -50s120.167 -82 165.5 -146v160h250zM1001 568.998c0 96.667 -30.3311 176.834 -90.998 240.501
s-139.334 95.5 -236.001 95.5c-98 0 -179.167 -32.833 -243.5 -98.5s-96.5 -148.834 -96.5 -249.501c0 -92 32.667 -169.667 98 -233s144.666 -95 237.999 -95c96.667 0 176 32 238 96s93 145.333 93 244zM554.001 1535c8.66699 -21.333 19.498 -40.001 32.498 -56.001
s26.167 -28 39.5 -36c12 -5.33301 26.167 -9.16602 42.5 -11.499s33 -3.5 50 -3.5s33.333 1.33301 49 4s29.167 6.66699 40.5 12c12.667 8 25 19.833 37 35.5s22 34.167 30 55.5h201c-18 -84 -63.333 -154.667 -136 -212c-29.333 -22 -62.666 -38.5 -99.999 -49.5
s-78 -16.5 -122 -16.5s-84.667 5.5 -122 16.5s-70.666 27.5 -99.999 49.5c-72.667 57.333 -118 128 -136 212h194z" />
    <glyph glyph-name="Ccaron" unicode="&#x10c;" horiz-adv-x="1274" 
 />
    <glyph glyph-name="ccaron" unicode="&#x10d;" horiz-adv-x="922" 
 />
    <glyph glyph-name="Dslash" unicode="&#x110;" horiz-adv-x="1520" 
d="M549 0l-324 0.00195312v655h-196v217h196v641h318c94.667 0 169.667 -3.66699 225 -11c79.333 -10 152.666 -27.333 219.999 -52s130.666 -62.334 189.999 -113.001c80 -68 144 -156.333 192 -265c22.667 -52 39.667 -104.5 51 -157.5s17 -107.833 17 -164.5
c0 -106 -23.167 -211.333 -69.5 -316s-109.833 -191.334 -190.5 -260.001c-57.333 -48 -121.666 -86 -192.999 -114c-61.333 -23.333 -131.666 -40 -210.999 -50c-25.333 -2.66699 -58.333 -5 -99 -7s-82.667 -3 -126 -3zM743 872.002l-0.00195312 -217h-237v-383h35
c121.333 0 215 9.33301 281 28c55.333 15.333 106.333 40.333 153 75c58 45.333 102.833 100.333 134.5 165s47.5 134.667 47.5 210c0 80 -17.167 155.833 -51.5 227.5s-84.166 129.5 -149.499 173.5c-54.667 37.333 -123.667 63 -207 77
c-57.333 8.66699 -131.666 13 -222.999 13h-20v-369h237z" />
    <glyph glyph-name="dcroat" unicode="&#x111;" horiz-adv-x="1352" 
d="M1001 569c0 93.333 -33.168 172.666 -99.501 237.999s-146.166 98 -239.499 98c-87.333 0 -163.833 -33.167 -229.5 -99.5s-98.5 -143.166 -98.5 -230.499c0 -95.333 31.833 -176.833 95.5 -244.5s142.5 -101.5 236.5 -101.5c92.667 0 171.667 33.167 237 99.5
s98 146.5 98 240.5zM726.999 1484l256 -0.00195312v106h272v-104l98 -1v-176l-98 -4v-1305h-249v154c-40 -60 -94.667 -106.833 -164 -140.5s-141.666 -50.5 -216.999 -50.5c-82 0 -157.833 16.833 -227.5 50.5s-130.5 80.5 -182.5 140.5c-48 55.333 -85.667 119 -113 191
s-41 144.667 -41 218c0 40 3 78.167 9 114.5s15.667 72.5 29 108.5c26 70.667 64.667 134.834 116 192.501s114.666 104.167 189.999 139.5s151.333 53 228 53c66.667 0 131.167 -13.167 193.5 -39.5s114.5 -64.166 156.5 -113.499v287h-254z" />
    <glyph glyph-name=".notdef.101" unicode="&#x128;" horiz-adv-x="573" 
d="M139 0v1513h281v-1513h-281zM49 1654l-100.002 179.998c24 22.667 54.667 41 92 55s74.666 21 111.999 21c29.333 0 62 -6 98 -18c76.667 -25.333 120.667 -38.666 132 -39.999c24 0 48.333 5 73 15s47.334 24.333 68.001 43l103 -175
c-31.333 -28 -62.666 -50 -93.999 -66s-65.666 -24 -102.999 -24c-29.333 0 -70.5 9 -123.5 27s-93.833 27 -122.5 27c-22.667 0 -45.5 -3.66699 -68.5 -11s-45.167 -18.666 -66.5 -33.999z" />
    <glyph glyph-name=".notdef.035" unicode="&#x129;" horiz-adv-x="492" 
d="M111 0v1135h272v-1135h-272zM0 1303l-100.002 179.998c24 22.667 54.667 41 92 55s74.666 21 111.999 21c29.333 0 62 -6 98 -18c76.667 -25.333 120.667 -38.666 132 -39.999c24 0 48.333 5 73 15s47.334 24.333 68.001 43l103 -175
c-31.333 -28 -62.666 -50 -93.999 -66s-65.666 -24 -102.999 -24c-29.333 0 -70.5 9 -123.5 27s-93.833 27 -122.5 27c-22.667 0 -45.5 -3.66699 -68.5 -11s-45.167 -18.666 -66.5 -33.999z" />
    <glyph glyph-name=".notdef.085" unicode="&#x168;" 
d="M139 1513l281 -0.000976562v-944v-39l1 -51c0 -7.33301 0.333008 -15.333 1 -24s2 -17.667 4 -27c2 -19.333 9.66699 -40.333 23 -63c20 -39.333 47.667 -70.666 83 -93.999s74.333 -35 117 -35c36.667 0 72 9 106 27s62.333 44.333 85 79c18 30 30 66.333 36 109
c3.33301 31.333 5 70.666 5 117.999v944h280v-944c0 -88 -6 -160 -18 -216c-16 -74.667 -46.667 -139 -92 -193c-48 -58 -108.167 -105.333 -180.5 -142s-146.166 -55 -221.499 -55c-70 0 -139.833 17 -209.5 51s-128.834 78.833 -177.501 134.5s-83 121.5 -103 197.5
c-6 28.667 -11 60.334 -15 95.001c0 14.667 -0.833008 37 -2.5 67s-2.5 50.333 -2.5 61v944zM400 1654l-100.002 179.998c24 22.667 54.667 41 92 55s74.666 21 111.999 21c29.333 0 62 -6 98 -18c76.667 -25.333 120.667 -38.666 132 -39.999c24 0 48.333 5 73 15
s47.334 24.333 68.001 43l103 -175c-31.333 -28 -62.666 -50 -93.999 -66s-65.666 -24 -102.999 -24c-29.333 0 -70.5 9 -123.5 27s-93.833 27 -122.5 27c-22.667 0 -45.5 -3.66699 -68.5 -11s-45.167 -18.666 -66.5 -33.999z" />
    <glyph glyph-name=".notdef.019" unicode="&#x169;" horiz-adv-x="1229" 
d="M848 1135l272.003 -0.000976562v-1135h-250v121c-28.667 -52 -68.334 -91.333 -119.001 -118s-108.334 -40 -173.001 -40c-70 0 -135.333 13 -196 39s-114.334 64.167 -161.001 114.5s-78 109.166 -94 176.499c-5.33301 24.667 -9.33301 52.667 -12 84s-4 70.333 -4 117
v641h272v-557c0 -46.667 2 -89.667 6 -129s13.667 -73.666 29 -102.999c18 -35.333 44.5 -63.666 79.5 -84.999s73.167 -32 114.5 -32c92 0 157 37.667 195 113c27.333 56 41 134.667 41 236v557zM379.003 1298l-100 180.999c24.667 23.333 55.5 41.666 92.5 54.999
s74.167 20 111.5 20c28 0 60.667 -6 98 -18c77.333 -26 121.333 -39 132 -39c26.667 0 51.167 4.83301 73.5 14.5s44.833 23.834 67.5 42.501l102 -174c-30 -27.333 -60.833 -49.166 -92.5 -65.499s-66.167 -24.5 -103.5 -24.5c-16 0 -34.333 2 -55 6s-44.667 10.667 -72 20
c-52 18 -91.667 27 -119 27c-48.667 0 -93.667 -15 -135 -45z" />
    <glyph glyph-name=".notdef.077" unicode="&#x1a0;" horiz-adv-x="1720" 
d="M850 1270c-140.667 0 -260.5 -50.167 -359.5 -150.5s-148.5 -221.5 -148.5 -363.5c0 -140 50.167 -261.667 150.5 -365s219.5 -155 357.5 -155s257.167 51.667 357.5 155s150.5 225 150.5 365c0 142.667 -49.5 264 -148.5 364s-218.833 150 -359.5 150zM1217 1452
v184.002h272v-247h-170c97.333 -72.667 174.833 -164.834 232.5 -276.501s86.5 -232.5 86.5 -362.5c0 -218 -77.333 -403.667 -232 -557s-340 -230 -556 -230s-401.5 76.5 -556.5 229.5s-232.5 338.833 -232.5 557.5c0 219.333 77 406.166 231 560.499s340 231.5 558 231.5
c36 0 68.5 -1.66699 97.5 -5s60.167 -9.33301 93.5 -18c60 -14 118.667 -36.333 176 -67z" />
    <glyph glyph-name=".notdef.011" unicode="&#x1a1;" 
d="M662 905c-20 0 -40.668 -2.33105 -62.001 -6.99805s-42.666 -12 -63.999 -22c-41.333 -18 -77.333 -42.5 -108 -73.5s-54 -67 -70 -108s-24 -84.167 -24 -129.5c0 -92.667 31.667 -171.834 95 -237.501s141 -98.5 233 -98.5c94.667 0 173.834 32.167 237.501 96.5
s95.5 144.166 95.5 239.499c0 94.667 -32.333 175 -97 241s-143.334 99 -236.001 99zM935.999 1110l0.000976562 160.001h272v-248h-143c62 -56 111.333 -124 148 -204s55 -164.333 55 -253c0 -166.667 -59.333 -308.667 -178 -426s-261.334 -176 -428.001 -176
c-163.333 0 -304.333 59 -423 177s-178 259.667 -178 425c0 169.333 59.667 312.666 179 429.999s264 176 434 176c47.333 0 92.833 -5.16699 136.5 -15.5s85.5 -25.5 125.5 -45.5z" />
    <glyph glyph-name=".notdef.083" unicode="&#x1af;" 
d="M1161 1389l-0.00195312 -820.002c0 -88.667 -6 -160.667 -18 -216c-16 -74.667 -46.667 -139 -92 -193c-48.667 -58 -108.834 -105.333 -180.501 -142s-145.5 -55 -221.5 -55c-70 0 -139.833 17 -209.5 51s-129 78.833 -178 134.5s-83.167 121.5 -102.5 197.5
c-6.66699 28 -11.667 59.833 -15 95.5s-5 78.167 -5 127.5v944h281v-944v-39c0 -18.667 0.333008 -35.667 1 -51s2.33398 -32.166 5.00098 -50.499s10.334 -39.5 23.001 -63.5c20 -39.333 47.667 -70.666 83 -93.999s74.333 -35 117 -35c37.333 0 72.833 9 106.5 27
s61.834 44.333 84.501 79c18 30 30 66.333 36 109c3.33301 28.667 5 68 5 118v944h155v123h273v-247h-148z" />
    <glyph glyph-name=".notdef.017" unicode="&#x1b0;" horiz-adv-x="1229" 
d="M1120 1024l0.00292969 -1024h-250v121c-28.667 -52 -68.334 -91.333 -119.001 -118s-108.334 -40 -173.001 -40c-70 0 -135.333 13 -196 39s-114.334 64.167 -161.001 114.5s-78 109.166 -94 176.499c-5.33301 24.667 -9.33301 52.667 -12 84s-4 70.333 -4 117v641h272
v-557c0 -46.667 2 -89.667 6 -129s13.667 -73.666 29 -102.999c18 -35.333 44.5 -63.666 79.5 -84.999s73.167 -32 114.5 -32c92 0 157 37.667 195 113c27.333 56 41 134.667 41 236v557h151v137h273v-248h-152z" />
    <glyph glyph-name=".notdef.110" unicode="&#x1ea0;" horiz-adv-x="1516" 
d="M14 0l631 1513h219l637 -1513h-309l-164 391h-536l-168 -391h-310zM594 664h324l-162 458zM614 -408v273h273v-273h-273z" />
    <glyph glyph-name=".notdef.062" unicode="&#x1ea1;" horiz-adv-x="1352" 
d="M1260 1135l-0.000976562 -1135h-250v154c-42 -56.667 -99.5 -102.667 -172.5 -138s-145.167 -53 -216.5 -53c-87.333 0 -165.833 16.333 -235.5 49s-130.5 80 -182.5 142c-45.333 54.667 -80.333 117.834 -105 189.501s-37 146.167 -37 223.5
c0 82 11.167 155.833 33.5 221.5s59.833 127.834 112.5 186.501c57.333 66.667 121.333 116 192 148s147.334 48 230.001 48c78.667 0 150.5 -16.667 215.5 -50s120.167 -82 165.5 -146v160h250zM1001 568.998c0 96.667 -30.3311 176.834 -90.998 240.501
s-139.334 95.5 -236.001 95.5c-98 0 -179.167 -32.833 -243.5 -98.5s-96.5 -148.834 -96.5 -249.501c0 -92 32.667 -169.667 98 -233s144.666 -95 237.999 -95c96.667 0 176 32 238 96s93 145.333 93 244zM545.001 -414.002v248h272v-248h-272z" />
    <glyph glyph-name=".notdef.108" unicode="&#x1ea2;" horiz-adv-x="1516" 
d="M14 0l631 1513h219l637 -1513h-309l-164 391h-536l-168 -391h-310zM594 664h324l-162 458zM512 1912l-0.000976562 32.998l4 42c0 0.666992 0.166992 1.16699 0.5 1.5s0.5 1.16602 0.5 2.49902c1.33301 4 2.83301 8.16699 4.5 12.5s5.5 11.5 11.5 21.5h-1
c4.66699 12.667 11.334 25.167 20.001 37.501c8.66699 12.333 19 25.166 31 38.5c9.33301 9.33301 20.333 18.166 33 26.5c12.667 8.33301 27.667 16.166 45 23.5c40 14.667 74.333 22 103 22c34 0 64.667 -5.66699 92 -17s52.333 -28.666 75 -51.999
c44.667 -44.667 67 -99 67 -163c0 -25.333 -7.16699 -51 -21.5 -77s-34.833 -50.667 -61.5 -74c-22.667 -21.333 -40 -44 -52 -68s-18 -48.667 -18 -74h-180c0 23.333 4.16699 47.666 12.5 72.999s21.166 51 38.499 77l87 102c10.667 10 16 26 16 48
c0 20 -5.66699 36.333 -17 49s-25 19 -41 19c-17.333 0 -31 -5 -41 -15c-9.33301 -7.33301 -16.166 -18.666 -20.499 -33.999s-6.5 -33.666 -6.5 -54.999h-181z" />
    <glyph glyph-name=".notdef.064" unicode="&#x1ea3;" horiz-adv-x="1352" 
d="M1260 1135l-0.000976562 -1135h-250v154c-42 -56.667 -99.5 -102.667 -172.5 -138s-145.167 -53 -216.5 -53c-87.333 0 -165.833 16.333 -235.5 49s-130.5 80 -182.5 142c-45.333 54.667 -80.333 117.834 -105 189.501s-37 146.167 -37 223.5
c0 82 11.167 155.833 33.5 221.5s59.833 127.834 112.5 186.501c57.333 66.667 121.333 116 192 148s147.334 48 230.001 48c78.667 0 150.5 -16.667 215.5 -50s120.167 -82 165.5 -146v160h250zM1001 568.998c0 96.667 -30.3311 176.834 -90.998 240.501
s-139.334 95.5 -236.001 95.5c-98 0 -179.167 -32.833 -243.5 -98.5s-96.5 -148.834 -96.5 -249.501c0 -92 32.667 -169.667 98 -233s144.666 -95 237.999 -95c96.667 0 176 32 238 96s93 145.333 93 244zM459.001 1518l-0.000976562 33.002l4 42
c0 0.666992 0.166992 1.16699 0.5 1.5s0.5 1.16602 0.5 2.49902c1.33301 4 2.83301 8.16699 4.5 12.5s5.5 11.5 11.5 21.5h-1c4.66699 12.667 11.334 25.167 20.001 37.5s19 25.166 31 38.499c9.33301 9.33301 20.333 18.166 33 26.499s27.667 16.166 45 23.499
c40 14.667 74.333 22 103 22c34 0 64.667 -5.66699 92 -17s52.333 -28.666 75 -51.999c44.667 -44.667 67 -99 67 -163c0 -25.333 -7.16699 -51 -21.5 -77s-34.833 -50.667 -61.5 -74c-22.667 -21.333 -40 -44 -52 -68s-18 -48.667 -18 -74h-180
c0 23.333 4.16699 47.666 12.5 72.999s21.166 51 38.499 77l87 102c10.667 10 16 26 16 48c0 20 -5.66699 36.333 -17 49s-25 19 -41 19c-17.333 0 -31 -5 -41 -15c-9.33301 -7.33301 -16.166 -18.666 -20.499 -33.999s-6.5 -33.666 -6.5 -54.999h-181z" />
    <glyph glyph-name=".notdef.113" unicode="&#x1ea4;" horiz-adv-x="1516" 
d="M14 0l631 1513h219l637 -1513h-309l-164 391h-536l-168 -391h-310zM356 1649l303 282h215l300 -282h-297l-111 131l-113 -131h-297zM594 664h324l-162 458zM1116 1824l-103 189l461 272l109 -213z" />
    <glyph glyph-name=".notdef.059" unicode="&#x1ea5;" horiz-adv-x="1352" 
d="M1260 1135l-0.000976562 -1135h-250v154c-42 -56.667 -99.5 -102.667 -172.5 -138s-145.167 -53 -216.5 -53c-87.333 0 -165.833 16.333 -235.5 49s-130.5 80 -182.5 142c-45.333 54.667 -80.333 117.834 -105 189.501s-37 146.167 -37 223.5
c0 82 11.167 155.833 33.5 221.5s59.833 127.834 112.5 186.501c57.333 66.667 121.333 116 192 148s147.334 48 230.001 48c78.667 0 150.5 -16.667 215.5 -50s120.167 -82 165.5 -146v160h250zM273.999 1270l304 282h215l299 -282h-297l-111 131l-113 -131h-297z
M1001 568.998c0 96.667 -30.3311 176.834 -90.998 240.501s-139.334 95.5 -236.001 95.5c-98 0 -179.167 -32.833 -243.5 -98.5s-96.5 -148.834 -96.5 -249.501c0 -92 32.667 -169.667 98 -233s144.666 -95 237.999 -95c96.667 0 176 32 238 96s93 145.333 93 244z
M1036 1445l-103 189l461 272l109 -213z" />
    <glyph glyph-name=".notdef.112" unicode="&#x1ea6;" horiz-adv-x="1516" 
d="M14 0l631 1513h219l637 -1513h-309l-164 391h-536l-168 -391h-310zM356 1649l303 282h215l300 -282h-297l-111 131l-113 -131h-297zM594 664h324l-162 458zM847 2080l117 209l455 -276l-109 -189z" />
    <glyph glyph-name=".notdef.060" unicode="&#x1ea7;" horiz-adv-x="1352" 
d="M1260 1135l-0.000976562 -1135h-250v154c-42 -56.667 -99.5 -102.667 -172.5 -138s-145.167 -53 -216.5 -53c-87.333 0 -165.833 16.333 -235.5 49s-130.5 80 -182.5 142c-45.333 54.667 -80.333 117.834 -105 189.501s-37 146.167 -37 223.5
c0 82 11.167 155.833 33.5 221.5s59.833 127.834 112.5 186.501c57.333 66.667 121.333 116 192 148s147.334 48 230.001 48c78.667 0 150.5 -16.667 215.5 -50s120.167 -82 165.5 -146v160h250zM273.999 1270l304 282h215l299 -282h-297l-111 131l-113 -131h-297z
M1001 568.998c0 96.667 -30.3311 176.834 -90.998 240.501s-139.334 95.5 -236.001 95.5c-98 0 -179.167 -32.833 -243.5 -98.5s-96.5 -148.834 -96.5 -249.501c0 -92 32.667 -169.667 98 -233s144.666 -95 237.999 -95c96.667 0 176 32 238 96s93 145.333 93 244z
M766.001 1701l117 209l455 -276l-109 -189z" />
    <glyph glyph-name=".notdef.114" unicode="&#x1ea8;" horiz-adv-x="1516" 
d="M14 0l631 1513h219l637 -1513h-309l-164 391h-536l-168 -391h-310zM356 1649l303 282h215l300 -282h-297l-111 131l-113 -131h-297zM594 664h324l-162 458zM947 2087l-0.000976562 33l4 42c0 0.666992 0.166992 1.16699 0.5 1.5s0.5 1.16602 0.5 2.5
c1.33301 4 2.83301 8.16699 4.5 12.5s5.5 11.5 11.5 21.5h-1c4.66699 12.667 11.334 25.167 20.001 37.5s19 25.166 31 38.5c9.33301 9.33301 20.333 18.166 33 26.5c12.667 8.33301 27.667 16.166 45 23.5c40 14.667 74.333 22 103 22c34 0 64.667 -5.66699 92 -17
s52.333 -28.666 75 -51.999c44.667 -44.667 67 -99 67 -163c0 -25.333 -7.16699 -51 -21.5 -77s-34.833 -50.667 -61.5 -74c-22.667 -21.333 -40 -44 -52 -68s-18 -48.667 -18 -74h-180c0 23.333 4.16699 47.666 12.5 72.999s21.166 51 38.499 77l87 102
c10.667 10 16 26 16 48c0 20 -5.66699 36.333 -17 49s-25 19 -41 19c-17.333 0 -31 -5 -41 -15c-9.33301 -7.33301 -16.166 -18.666 -20.499 -34c-4.33301 -15.333 -6.5 -33.666 -6.5 -55h-181z" />
    <glyph glyph-name=".notdef.058" unicode="&#x1ea9;" horiz-adv-x="1352" 
d="M1260 1135l-0.000976562 -1135h-250v154c-42 -56.667 -99.5 -102.667 -172.5 -138s-145.167 -53 -216.5 -53c-87.333 0 -165.833 16.333 -235.5 49s-130.5 80 -182.5 142c-45.333 54.667 -80.333 117.834 -105 189.501s-37 146.167 -37 223.5
c0 82 11.167 155.833 33.5 221.5s59.833 127.834 112.5 186.501c57.333 66.667 121.333 116 192 148s147.334 48 230.001 48c78.667 0 150.5 -16.667 215.5 -50s120.167 -82 165.5 -146v160h250zM273.999 1270l304 282h215l299 -282h-297l-111 131l-113 -131h-297z
M1001 568.998c0 96.667 -30.3311 176.834 -90.998 240.501s-139.334 95.5 -236.001 95.5c-98 0 -179.167 -32.833 -243.5 -98.5s-96.5 -148.834 -96.5 -249.501c0 -92 32.667 -169.667 98 -233s144.666 -95 237.999 -95c96.667 0 176 32 238 96s93 145.333 93 244z
M864.001 1708l-0.000976562 33.002l4 42c0 0.666992 0.166992 1.16699 0.5 1.5s0.5 1.16602 0.5 2.49902c1.33301 4 2.83301 8.16699 4.5 12.5s5.5 11.5 11.5 21.5h-1c4.66699 12.667 11.334 25.167 20.001 37.5s19 25.166 31 38.499
c9.33301 9.33301 20.333 18.166 33 26.499s27.667 16.166 45 23.499c40 14.667 74.333 22 103 22c34 0 64.667 -5.66699 92 -17s52.333 -28.666 75 -51.999c44.667 -44.667 67 -99 67 -163c0 -25.333 -7.16699 -51 -21.5 -77s-34.833 -50.667 -61.5 -74
c-22.667 -21.333 -40 -44 -52 -68s-18 -48.667 -18 -74h-180c0 23.333 4.16699 47.666 12.5 72.999s21.166 51 38.499 77l87 102c10.667 10 16 26 16 48c0 20 -5.66699 36.333 -17 49s-25 19 -41 19c-17.333 0 -31 -5 -41 -15
c-9.33301 -7.33301 -16.166 -18.666 -20.499 -33.999s-6.5 -33.666 -6.5 -54.999h-181z" />
    <glyph glyph-name=".notdef.115" unicode="&#x1eaa;" horiz-adv-x="1516" 
d="M14 0l631 1513h219l637 -1513h-309l-164 391h-536l-168 -391h-310zM356 1649l303 282h215l300 -282h-297l-111 131l-113 -131h-297zM594 664h324l-162 458zM520 2014l-100.002 179.998c24 22.667 54.667 41 92 55s74.666 21 111.999 21c29.333 0 62 -6 98 -18
c76.667 -25.333 120.667 -38.666 132 -39.999c24 0 48.333 5 73 15s47.334 24.333 68.001 43l103 -175c-31.333 -28 -62.666 -50 -93.999 -66s-65.666 -24 -102.999 -24c-29.333 0 -70.5 9 -123.5 27s-93.833 27 -122.5 27c-22.667 0 -45.5 -3.66699 -68.5 -11
s-45.167 -18.666 -66.5 -33.999z" />
    <glyph glyph-name=".notdef.057" unicode="&#x1eab;" horiz-adv-x="1352" 
d="M1260 1135l-0.000976562 -1135h-250v154c-42 -56.667 -99.5 -102.667 -172.5 -138s-145.167 -53 -216.5 -53c-87.333 0 -165.833 16.333 -235.5 49s-130.5 80 -182.5 142c-45.333 54.667 -80.333 117.834 -105 189.501s-37 146.167 -37 223.5
c0 82 11.167 155.833 33.5 221.5s59.833 127.834 112.5 186.501c57.333 66.667 121.333 116 192 148s147.334 48 230.001 48c78.667 0 150.5 -16.667 215.5 -50s120.167 -82 165.5 -146v160h250zM273.999 1270l304 282h215l299 -282h-297l-111 131l-113 -131h-297z
M1001 568.998c0 96.667 -30.3311 176.834 -90.998 240.501s-139.334 95.5 -236.001 95.5c-98 0 -179.167 -32.833 -243.5 -98.5s-96.5 -148.834 -96.5 -249.501c0 -92 32.667 -169.667 98 -233s144.666 -95 237.999 -95c96.667 0 176 32 238 96s93 145.333 93 244z
M439.001 1635l-100.002 179.998c24 22.667 54.667 41 92 55s74.666 21 111.999 21c29.333 0 62 -6 98 -18c76.667 -25.333 120.667 -38.666 132 -39.999c24 0 48.333 5 73 15s47.334 24.333 68.001 43l103 -175c-31.333 -28 -62.666 -50 -93.999 -66
s-65.666 -24 -102.999 -24c-29.333 0 -70.5 9 -123.5 27s-93.833 27 -122.5 27c-22.667 0 -45.5 -3.66699 -68.5 -11s-45.167 -18.666 -66.5 -33.999z" />
    <glyph glyph-name=".notdef.116" unicode="&#x1eac;" horiz-adv-x="1516" 
d="M14 0l631 1513h219l637 -1513h-309l-164 391h-536l-168 -391h-310zM356 1649l303 282h215l300 -282h-297l-111 131l-113 -131h-297zM594 664h324l-162 458zM614 -408v273h273v-273h-273z" />
    <glyph glyph-name=".notdef.056" unicode="&#x1ead;" horiz-adv-x="1352" 
d="M1260 1135l-0.000976562 -1135h-250v154c-42 -56.667 -99.5 -102.667 -172.5 -138s-145.167 -53 -216.5 -53c-87.333 0 -165.833 16.333 -235.5 49s-130.5 80 -182.5 142c-45.333 54.667 -80.333 117.834 -105 189.501s-37 146.167 -37 223.5
c0 82 11.167 155.833 33.5 221.5s59.833 127.834 112.5 186.501c57.333 66.667 121.333 116 192 148s147.334 48 230.001 48c78.667 0 150.5 -16.667 215.5 -50s120.167 -82 165.5 -146v160h250zM273.999 1270l304 282h215l299 -282h-297l-111 131l-113 -131h-297z
M1001 568.998c0 96.667 -30.3311 176.834 -90.998 240.501s-139.334 95.5 -236.001 95.5c-98 0 -179.167 -32.833 -243.5 -98.5s-96.5 -148.834 -96.5 -249.501c0 -92 32.667 -169.667 98 -233s144.666 -95 237.999 -95c96.667 0 176 32 238 96s93 145.333 93 244z
M545.001 -414.002v248h272v-248h-272z" />
    <glyph glyph-name=".notdef.119" unicode="&#x1eae;" horiz-adv-x="1516" 
d="M14 0l631 1513h219l637 -1513h-309l-164 391h-536l-168 -391h-310zM594 664h324l-162 458zM590 1899c8.66699 -21.333 19.498 -40.001 32.498 -56.001s26.167 -28 39.5 -36c12 -5.33301 26.167 -9.16602 42.5 -11.499s33 -3.5 50 -3.5s33.333 1.33301 49 4
s29.167 6.66699 40.5 12c12.667 8 25 19.833 37 35.5s22 34.167 30 55.5h201c-18 -84 -63.333 -154.667 -136 -212c-29.333 -22 -62.666 -38.5 -99.999 -49.5s-78 -16.5 -122 -16.5s-84.667 5.5 -122 16.5s-70.666 27.5 -99.999 49.5c-72.667 57.333 -118 128 -136 212h194z
M645.998 1918l-103 189l461 272l109 -213z" />
    <glyph glyph-name=".notdef.053" unicode="&#x1eaf;" horiz-adv-x="1352" 
d="M1260 1135l-0.000976562 -1135h-250v154c-42 -56.667 -99.5 -102.667 -172.5 -138s-145.167 -53 -216.5 -53c-87.333 0 -165.833 16.333 -235.5 49s-130.5 80 -182.5 142c-45.333 54.667 -80.333 117.834 -105 189.501s-37 146.167 -37 223.5
c0 82 11.167 155.833 33.5 221.5s59.833 127.834 112.5 186.501c57.333 66.667 121.333 116 192 148s147.334 48 230.001 48c78.667 0 150.5 -16.667 215.5 -50s120.167 -82 165.5 -146v160h250zM1001 568.998c0 96.667 -30.3311 176.834 -90.998 240.501
s-139.334 95.5 -236.001 95.5c-98 0 -179.167 -32.833 -243.5 -98.5s-96.5 -148.834 -96.5 -249.501c0 -92 32.667 -169.667 98 -233s144.666 -95 237.999 -95c96.667 0 176 32 238 96s93 145.333 93 244zM554.001 1535c8.66699 -21.333 19.498 -40.001 32.498 -56.001
s26.167 -28 39.5 -36c12 -5.33301 26.167 -9.16602 42.5 -11.499s33 -3.5 50 -3.5s33.333 1.33301 49 4s29.167 6.66699 40.5 12c12.667 8 25 19.833 37 35.5s22 34.167 30 55.5h201c-18 -84 -63.333 -154.667 -136 -212c-29.333 -22 -62.666 -38.5 -99.999 -49.5
s-78 -16.5 -122 -16.5s-84.667 5.5 -122 16.5s-70.666 27.5 -99.999 49.5c-72.667 57.333 -118 128 -136 212h194zM609.999 1554l-103 189l461 272l109 -213z" />
    <glyph glyph-name=".notdef.118" unicode="&#x1eb0;" horiz-adv-x="1516" 
d="M14 0l631 1513h219l637 -1513h-309l-164 391h-536l-168 -391h-310zM594 664h324l-162 458zM590 1899c8.66699 -21.333 19.498 -40.001 32.498 -56.001s26.167 -28 39.5 -36c12 -5.33301 26.167 -9.16602 42.5 -11.499s33 -3.5 50 -3.5s33.333 1.33301 49 4
s29.167 6.66699 40.5 12c12.667 8 25 19.833 37 35.5s22 34.167 30 55.5h201c-18 -84 -63.333 -154.667 -136 -212c-29.333 -22 -62.666 -38.5 -99.999 -49.5s-78 -16.5 -122 -16.5s-84.667 5.5 -122 16.5s-70.666 27.5 -99.999 49.5c-72.667 57.333 -118 128 -136 212h194z
M388.998 2173l117 209l455 -276l-109 -189z" />
    <glyph glyph-name=".notdef.054" unicode="&#x1eb1;" horiz-adv-x="1352" 
d="M1260 1135l-0.000976562 -1135h-250v154c-42 -56.667 -99.5 -102.667 -172.5 -138s-145.167 -53 -216.5 -53c-87.333 0 -165.833 16.333 -235.5 49s-130.5 80 -182.5 142c-45.333 54.667 -80.333 117.834 -105 189.501s-37 146.167 -37 223.5
c0 82 11.167 155.833 33.5 221.5s59.833 127.834 112.5 186.501c57.333 66.667 121.333 116 192 148s147.334 48 230.001 48c78.667 0 150.5 -16.667 215.5 -50s120.167 -82 165.5 -146v160h250zM1001 568.998c0 96.667 -30.3311 176.834 -90.998 240.501
s-139.334 95.5 -236.001 95.5c-98 0 -179.167 -32.833 -243.5 -98.5s-96.5 -148.834 -96.5 -249.501c0 -92 32.667 -169.667 98 -233s144.666 -95 237.999 -95c96.667 0 176 32 238 96s93 145.333 93 244zM554.001 1535c8.66699 -21.333 19.498 -40.001 32.498 -56.001
s26.167 -28 39.5 -36c12 -5.33301 26.167 -9.16602 42.5 -11.499s33 -3.5 50 -3.5s33.333 1.33301 49 4s29.167 6.66699 40.5 12c12.667 8 25 19.833 37 35.5s22 34.167 30 55.5h201c-18 -84 -63.333 -154.667 -136 -212c-29.333 -22 -62.666 -38.5 -99.999 -49.5
s-78 -16.5 -122 -16.5s-84.667 5.5 -122 16.5s-70.666 27.5 -99.999 49.5c-72.667 57.333 -118 128 -136 212h194zM352.999 1809l117 209l455 -276l-109 -189z" />
    <glyph glyph-name=".notdef.120" unicode="&#x1eb2;" horiz-adv-x="1516" 
d="M14 0l631 1513h219l637 -1513h-309l-164 391h-536l-168 -391h-310zM594 664h324l-162 458zM589 1872c8.66699 -20 19.498 -37.8311 32.498 -53.498s26.167 -27.167 39.5 -34.5c12 -4.66699 26.167 -8.16699 42.5 -10.5s32.833 -3.5 49.5 -3.5s32.834 1.16699 48.501 3.5
s29.167 6.16602 40.5 11.499c12.667 7.33301 25 18.666 37 33.999s22 33 30 53h200c-18 -79.333 -63 -147 -135 -203c-29.333 -21.333 -62.666 -37.166 -99.999 -47.499s-78 -15.5 -122 -15.5s-84.5 5.16699 -121.5 15.5s-70.167 26.166 -99.5 47.499
c-72 56 -117 123.667 -135 203h193zM502.998 2135l-0.000976562 33l4 42c0 0.666992 0.166992 1.16699 0.5 1.5s0.5 1.16602 0.5 2.5c1.33301 4 2.83301 8.16699 4.5 12.5s5.5 11.5 11.5 21.5h-1c4.66699 12.667 11.334 25.167 20.001 37.5s19 25.166 31 38.5
c9.33301 9.33301 20.333 18.166 33 26.5c12.667 8.33301 27.667 16.166 45 23.5c40 14.667 74.333 22 103 22c34 0 64.667 -5.66699 92 -17s52.333 -28.666 75 -51.999c44.667 -44.667 67 -99 67 -163c0 -25.333 -7.16699 -51 -21.5 -77s-34.833 -50.667 -61.5 -74
c-22.667 -21.333 -40 -44 -52 -68s-18 -48.667 -18 -74h-180c0 23.333 4.16699 47.666 12.5 72.999s21.166 51 38.499 77l87 102c10.667 10 16 26 16 48c0 20 -5.66699 36.333 -17 49s-25 19 -41 19c-17.333 0 -31 -5 -41 -15
c-9.33301 -7.33301 -16.166 -18.666 -20.499 -34c-4.33301 -15.333 -6.5 -33.666 -6.5 -55h-181z" />
    <glyph glyph-name=".notdef.052" unicode="&#x1eb3;" horiz-adv-x="1352" 
d="M1260 1135l-0.000976562 -1135h-250v154c-42 -56.667 -99.5 -102.667 -172.5 -138s-145.167 -53 -216.5 -53c-87.333 0 -165.833 16.333 -235.5 49s-130.5 80 -182.5 142c-45.333 54.667 -80.333 117.834 -105 189.501s-37 146.167 -37 223.5
c0 82 11.167 155.833 33.5 221.5s59.833 127.834 112.5 186.501c57.333 66.667 121.333 116 192 148s147.334 48 230.001 48c78.667 0 150.5 -16.667 215.5 -50s120.167 -82 165.5 -146v160h250zM1001 568.998c0 96.667 -30.3311 176.834 -90.998 240.501
s-139.334 95.5 -236.001 95.5c-98 0 -179.167 -32.833 -243.5 -98.5s-96.5 -148.834 -96.5 -249.501c0 -92 32.667 -169.667 98 -233s144.666 -95 237.999 -95c96.667 0 176 32 238 96s93 145.333 93 244zM555.001 1525c8.66699 -20 19.498 -37.8311 32.498 -53.498
s26.167 -27.167 39.5 -34.5c12 -4.66699 26.167 -8.16699 42.5 -10.5s32.833 -3.5 49.5 -3.5s32.834 1.16699 48.501 3.5s29.167 6.16602 40.5 11.499c12.667 7.33301 25 18.666 37 33.999s22 33 30 53h200c-18 -79.333 -63 -147 -135 -203
c-29.333 -21.333 -62.666 -37.166 -99.999 -47.499s-78 -15.5 -122 -15.5s-84.5 5.16699 -121.5 15.5s-70.167 26.166 -99.5 47.499c-72 56 -117 123.667 -135 203h193zM473.999 1802l-0.000976562 33.002l4 42c0 0.666992 0.166992 1.16699 0.5 1.5
s0.5 1.16602 0.5 2.49902c1.33301 4 2.83301 8.16699 4.5 12.5s5.5 11.5 11.5 21.5h-1c4.66699 12.667 11.334 25.167 20.001 37.5s19 25.166 31 38.499c9.33301 9.33301 20.333 18.166 33 26.499s27.667 16.166 45 23.499c40 14.667 74.333 22 103 22
c34 0 64.667 -5.66699 92 -17s52.333 -28.666 75 -51.999c44.667 -44.667 67 -99 67 -163c0 -25.333 -7.16699 -51 -21.5 -77s-34.833 -50.667 -61.5 -74c-22.667 -21.333 -40 -44 -52 -68s-18 -48.667 -18 -74h-180c0 23.333 4.16699 47.666 12.5 72.999
s21.166 51 38.499 77l87 102c10.667 10 16 26 16 48c0 20 -5.66699 36.333 -17 49s-25 19 -41 19c-17.333 0 -31 -5 -41 -15c-9.33301 -7.33301 -16.166 -18.666 -20.499 -33.999s-6.5 -33.666 -6.5 -54.999h-181z" />
    <glyph glyph-name=".notdef.121" unicode="&#x1eb4;" horiz-adv-x="1516" 
d="M14 0l631 1513h219l637 -1513h-309l-164 391h-536l-168 -391h-310zM594 664h324l-162 458zM590 1899c8.66699 -21.333 19.498 -40.001 32.498 -56.001s26.167 -28 39.5 -36c12 -5.33301 26.167 -9.16602 42.5 -11.499s33 -3.5 50 -3.5s33.333 1.33301 49 4
s29.167 6.66699 40.5 12c12.667 8 25 19.833 37 35.5s22 34.167 30 55.5h201c-18 -84 -63.333 -154.667 -136 -212c-29.333 -22 -62.666 -38.5 -99.999 -49.5s-78 -16.5 -122 -16.5s-84.667 5.5 -122 16.5s-70.666 27.5 -99.999 49.5c-72.667 57.333 -118 128 -136 212h194z
M506.998 1972l-100.002 179.999c24 22.667 54.667 41 92 55s74.666 21 111.999 21c29.333 0 62 -6 98 -18c76.667 -25.333 120.667 -38.666 132 -40c24 0 48.333 5 73 15s47.334 24.333 68.001 43l103 -175c-31.333 -28 -62.666 -50 -93.999 -66s-65.666 -24 -102.999 -24
c-29.333 0 -70.5 9 -123.5 27s-93.833 27 -122.5 27c-22.667 0 -45.5 -3.66699 -68.5 -11s-45.167 -18.666 -66.5 -33.999z" />
    <glyph glyph-name=".notdef.051" unicode="&#x1eb5;" horiz-adv-x="1352" 
d="M1260 1135l-0.000976562 -1135h-250v154c-42 -56.667 -99.5 -102.667 -172.5 -138s-145.167 -53 -216.5 -53c-87.333 0 -165.833 16.333 -235.5 49s-130.5 80 -182.5 142c-45.333 54.667 -80.333 117.834 -105 189.501s-37 146.167 -37 223.5
c0 82 11.167 155.833 33.5 221.5s59.833 127.834 112.5 186.501c57.333 66.667 121.333 116 192 148s147.334 48 230.001 48c78.667 0 150.5 -16.667 215.5 -50s120.167 -82 165.5 -146v160h250zM1001 568.998c0 96.667 -30.3311 176.834 -90.998 240.501
s-139.334 95.5 -236.001 95.5c-98 0 -179.167 -32.833 -243.5 -98.5s-96.5 -148.834 -96.5 -249.501c0 -92 32.667 -169.667 98 -233s144.666 -95 237.999 -95c96.667 0 176 32 238 96s93 145.333 93 244zM554.001 1535c8.66699 -21.333 19.498 -40.001 32.498 -56.001
s26.167 -28 39.5 -36c12 -5.33301 26.167 -9.16602 42.5 -11.499s33 -3.5 50 -3.5s33.333 1.33301 49 4s29.167 6.66699 40.5 12c12.667 8 25 19.833 37 35.5s22 34.167 30 55.5h201c-18 -84 -63.333 -154.667 -136 -212c-29.333 -22 -62.666 -38.5 -99.999 -49.5
s-78 -16.5 -122 -16.5s-84.667 5.5 -122 16.5s-70.666 27.5 -99.999 49.5c-72.667 57.333 -118 128 -136 212h194zM470.999 1608l-100.002 179.998c24 22.667 54.667 41 92 55s74.666 21 111.999 21c29.333 0 62 -6 98 -18c76.667 -25.333 120.667 -38.666 132 -39.999
c24 0 48.333 5 73 15s47.334 24.333 68.001 43l103 -175c-31.333 -28 -62.666 -50 -93.999 -66s-65.666 -24 -102.999 -24c-29.333 0 -70.5 9 -123.5 27s-93.833 27 -122.5 27c-22.667 0 -45.5 -3.66699 -68.5 -11s-45.167 -18.666 -66.5 -33.999z" />
    <glyph glyph-name=".notdef.122" unicode="&#x1eb6;" horiz-adv-x="1516" 
d="M14 0l631 1513h219l637 -1513h-309l-164 391h-536l-168 -391h-310zM594 664h324l-162 458zM590 1899c8.66699 -21.333 19.498 -40.001 32.498 -56.001s26.167 -28 39.5 -36c12 -5.33301 26.167 -9.16602 42.5 -11.499s33 -3.5 50 -3.5s33.333 1.33301 49 4
s29.167 6.66699 40.5 12c12.667 8 25 19.833 37 35.5s22 34.167 30 55.5h201c-18 -84 -63.333 -154.667 -136 -212c-29.333 -22 -62.666 -38.5 -99.999 -49.5s-78 -16.5 -122 -16.5s-84.667 5.5 -122 16.5s-70.666 27.5 -99.999 49.5c-72.667 57.333 -118 128 -136 212h194z
M613.998 -408.001v273h273v-273h-273z" />
    <glyph glyph-name=".notdef.050" unicode="&#x1eb7;" horiz-adv-x="1352" 
d="M1260 1135l-0.000976562 -1135h-250v154c-42 -56.667 -99.5 -102.667 -172.5 -138s-145.167 -53 -216.5 -53c-87.333 0 -165.833 16.333 -235.5 49s-130.5 80 -182.5 142c-45.333 54.667 -80.333 117.834 -105 189.501s-37 146.167 -37 223.5
c0 82 11.167 155.833 33.5 221.5s59.833 127.834 112.5 186.501c57.333 66.667 121.333 116 192 148s147.334 48 230.001 48c78.667 0 150.5 -16.667 215.5 -50s120.167 -82 165.5 -146v160h250zM1001 568.998c0 96.667 -30.3311 176.834 -90.998 240.501
s-139.334 95.5 -236.001 95.5c-98 0 -179.167 -32.833 -243.5 -98.5s-96.5 -148.834 -96.5 -249.501c0 -92 32.667 -169.667 98 -233s144.666 -95 237.999 -95c96.667 0 176 32 238 96s93 145.333 93 244zM554.001 1535c8.66699 -21.333 19.498 -40.001 32.498 -56.001
s26.167 -28 39.5 -36c12 -5.33301 26.167 -9.16602 42.5 -11.499s33 -3.5 50 -3.5s33.333 1.33301 49 4s29.167 6.66699 40.5 12c12.667 8 25 19.833 37 35.5s22 34.167 30 55.5h201c-18 -84 -63.333 -154.667 -136 -212c-29.333 -22 -62.666 -38.5 -99.999 -49.5
s-78 -16.5 -122 -16.5s-84.667 5.5 -122 16.5s-70.666 27.5 -99.999 49.5c-72.667 57.333 -118 128 -136 212h194zM544.999 -414.003v248h272v-248h-272z" />
    <glyph glyph-name=".notdef.127" unicode="&#x1eb8;" horiz-adv-x="1065" 
d="M139 0v1513h813v-272h-532v-348h510v-272h-510v-349h532v-272h-813zM393 -395v272h273v-272h-273z" />
    <glyph glyph-name=".notdef.045" unicode="&#x1eb9;" 
d="M1231 446l-881 -0.00195312c20 -66 57.5 -118.667 112.5 -158s117.167 -59 186.5 -59c52.667 0 101.5 8.83301 146.5 26.5s80.833 41.834 107.5 72.501h301c-34 -102 -103.333 -188.333 -208 -259s-217 -106 -337 -106c-164 0 -305 58 -423 174
c-58 58 -101.667 122 -131 192s-44 146.667 -44 230c0 168 58 312 174 432s259 180 429 180c160 0 296.833 -59.167 410.5 -177.5s170.5 -257.833 170.5 -418.5v-39c-2 -11.333 -3.33301 -19.666 -4 -24.999zM346 687.998h625.001c-22 65.333 -61.333 117.833 -118 157.5
s-120.334 59.5 -191.001 59.5c-69.333 0 -134.333 -20 -195 -60s-101 -92.333 -121 -157zM524.001 -397.002v272h273v-272h-273z" />
    <glyph glyph-name=".notdef.125" unicode="&#x1eba;" horiz-adv-x="1065" 
d="M139 0v1513h813v-272h-532v-348h510v-272h-510v-349h532v-272h-813zM307 1912l-0.000976562 32.998l4 42c0 0.666992 0.166992 1.16699 0.5 1.5s0.5 1.16602 0.5 2.49902c1.33301 4 2.83301 8.16699 4.5 12.5s5.5 11.5 11.5 21.5h-1
c4.66699 12.667 11.334 25.167 20.001 37.501c8.66699 12.333 19 25.166 31 38.5c9.33301 9.33301 20.333 18.166 33 26.5c12.667 8.33301 27.667 16.166 45 23.5c40 14.667 74.333 22 103 22c34 0 64.667 -5.66699 92 -17s52.333 -28.666 75 -51.999
c44.667 -44.667 67 -99 67 -163c0 -25.333 -7.16699 -51 -21.5 -77s-34.833 -50.667 -61.5 -74c-22.667 -21.333 -40 -44 -52 -68s-18 -48.667 -18 -74h-180c0 23.333 4.16699 47.666 12.5 72.999s21.166 51 38.499 77l87 102c10.667 10 16 26 16 48
c0 20 -5.66699 36.333 -17 49s-25 19 -41 19c-17.333 0 -31 -5 -41 -15c-9.33301 -7.33301 -16.166 -18.666 -20.499 -33.999s-6.5 -33.666 -6.5 -54.999h-181z" />
    <glyph glyph-name=".notdef.047" unicode="&#x1ebb;" 
d="M1231 446l-881 -0.00195312c20 -66 57.5 -118.667 112.5 -158s117.167 -59 186.5 -59c52.667 0 101.5 8.83301 146.5 26.5s80.833 41.834 107.5 72.501h301c-34 -102 -103.333 -188.333 -208 -259s-217 -106 -337 -106c-164 0 -305 58 -423 174
c-58 58 -101.667 122 -131 192s-44 146.667 -44 230c0 168 58 312 174 432s259 180 429 180c160 0 296.833 -59.167 410.5 -177.5s170.5 -257.833 170.5 -418.5v-39c-2 -11.333 -3.33301 -19.666 -4 -24.999zM346 687.998h625.001c-22 65.333 -61.333 117.833 -118 157.5
s-120.334 59.5 -191.001 59.5c-69.333 0 -134.333 -20 -195 -60s-101 -92.333 -121 -157zM442.001 1518l-0.000976562 33.002l4 42c0 0.666992 0.166992 1.16699 0.5 1.5s0.5 1.16602 0.5 2.49902c1.33301 4 2.83301 8.16699 4.5 12.5s5.5 11.5 11.5 21.5h-1
c4.66699 12.667 11.334 25.167 20.001 37.5s19 25.166 31 38.499c9.33301 9.33301 20.333 18.166 33 26.499s27.667 16.166 45 23.499c40 14.667 74.333 22 103 22c34 0 64.667 -5.66699 92 -17s52.333 -28.666 75 -51.999c44.667 -44.667 67 -99 67 -163
c0 -25.333 -7.16699 -51 -21.5 -77s-34.833 -50.667 -61.5 -74c-22.667 -21.333 -40 -44 -52 -68s-18 -48.667 -18 -74h-180c0 23.333 4.16699 47.666 12.5 72.999s21.166 51 38.499 77l87 102c10.667 10 16 26 16 48c0 20 -5.66699 36.333 -17 49s-25 19 -41 19
c-17.333 0 -31 -5 -41 -15c-9.33301 -7.33301 -16.166 -18.666 -20.499 -33.999s-6.5 -33.666 -6.5 -54.999h-181z" />
    <glyph glyph-name=".notdef.126" unicode="&#x1ebc;" horiz-adv-x="1065" 
d="M139 0v1513h813v-272h-532v-348h510v-272h-510v-349h532v-272h-813zM317 1654l-100.002 179.998c24 22.667 54.667 41 92 55s74.666 21 111.999 21c29.333 0 62 -6 98 -18c76.667 -25.333 120.667 -38.666 132 -39.999c24 0 48.333 5 73 15s47.334 24.333 68.001 43
l103 -175c-31.333 -28 -62.666 -50 -93.999 -66s-65.666 -24 -102.999 -24c-29.333 0 -70.5 9 -123.5 27s-93.833 27 -122.5 27c-22.667 0 -45.5 -3.66699 -68.5 -11s-45.167 -18.666 -66.5 -33.999z" />
    <glyph glyph-name=".notdef.046" unicode="&#x1ebd;" 
d="M1231 446l-881 -0.00195312c20 -66 57.5 -118.667 112.5 -158s117.167 -59 186.5 -59c52.667 0 101.5 8.83301 146.5 26.5s80.833 41.834 107.5 72.501h301c-34 -102 -103.333 -188.333 -208 -259s-217 -106 -337 -106c-164 0 -305 58 -423 174
c-58 58 -101.667 122 -131 192s-44 146.667 -44 230c0 168 58 312 174 432s259 180 429 180c160 0 296.833 -59.167 410.5 -177.5s170.5 -257.833 170.5 -418.5v-39c-2 -11.333 -3.33301 -19.666 -4 -24.999zM346 687.998h625.001c-22 65.333 -61.333 117.833 -118 157.5
s-120.334 59.5 -191.001 59.5c-69.333 0 -134.333 -20 -195 -60s-101 -92.333 -121 -157zM436.001 1278l-100.001 179.999c24.667 22.667 55.5 41 92.5 55s74.5 21 112.5 21c28 0 60.667 -6 98 -18c77.333 -26 121 -39 131 -39c27.333 0 52.666 4.83301 75.999 14.5
s45 23.834 65 42.501l103 -174c-31.333 -28 -62.666 -50 -93.999 -66s-65.666 -24 -102.999 -24c-16 0 -34.333 2 -55 6s-44.667 10.667 -72 20c-52 18 -91.667 27 -119 27c-48.667 0 -93.667 -15 -135 -45z" />
    <glyph glyph-name=".notdef.130" unicode="&#x1ebe;" horiz-adv-x="1065" 
d="M139 0v1513h813v-272h-532v-348h510v-272h-510v-349h532v-272h-813zM131 1649l303 282h215l299 -282h-297l-110 131l-113 -131h-297zM891 1824l-103 189l461 272l109 -213z" />
    <glyph glyph-name=".notdef.042" unicode="&#x1ebf;" 
d="M1231 446l-881 -0.00195312c20 -66 57.5 -118.667 112.5 -158s117.167 -59 186.5 -59c52.667 0 101.5 8.83301 146.5 26.5s80.833 41.834 107.5 72.501h301c-34 -102 -103.333 -188.333 -208 -259s-217 -106 -337 -106c-164 0 -305 58 -423 174
c-58 58 -101.667 122 -131 192s-44 146.667 -44 230c0 168 58 312 174 432s259 180 429 180c160 0 296.833 -59.167 410.5 -177.5s170.5 -257.833 170.5 -418.5v-39c-2 -11.333 -3.33301 -19.666 -4 -24.999zM254 1270l303 282h215l299 -282h-297l-110 131l-113 -131h-297z
M346 687.998h625.001c-22 65.333 -61.333 117.833 -118 157.5s-120.334 59.5 -191.001 59.5c-69.333 0 -134.333 -20 -195 -60s-101 -92.333 -121 -157zM1014 1445l-103 189l461 272l109 -213z" />
    <glyph glyph-name=".notdef.129" unicode="&#x1ec0;" horiz-adv-x="1065" 
d="M139 0v1513h813v-272h-532v-348h510v-272h-510v-349h532v-272h-813zM131 1649l303 282h215l299 -282h-297l-110 131l-113 -131h-297zM622 2080l117 209l455 -276l-109 -189z" />
    <glyph glyph-name=".notdef.043" unicode="&#x1ec1;" 
d="M1231 446l-881 -0.00195312c20 -66 57.5 -118.667 112.5 -158s117.167 -59 186.5 -59c52.667 0 101.5 8.83301 146.5 26.5s80.833 41.834 107.5 72.501h301c-34 -102 -103.333 -188.333 -208 -259s-217 -106 -337 -106c-164 0 -305 58 -423 174
c-58 58 -101.667 122 -131 192s-44 146.667 -44 230c0 168 58 312 174 432s259 180 429 180c160 0 296.833 -59.167 410.5 -177.5s170.5 -257.833 170.5 -418.5v-39c-2 -11.333 -3.33301 -19.666 -4 -24.999zM254 1270l303 282h215l299 -282h-297l-110 131l-113 -131h-297z
M346 687.998h625.001c-22 65.333 -61.333 117.833 -118 157.5s-120.334 59.5 -191.001 59.5c-69.333 0 -134.333 -20 -195 -60s-101 -92.333 -121 -157zM745.001 1701l117 209l455 -276l-109 -189z" />
    <glyph glyph-name=".notdef.131" unicode="&#x1ec2;" horiz-adv-x="1065" 
d="M139 0v1513h813v-272h-532v-348h510v-272h-510v-349h532v-272h-813zM131 1649l303 282h215l299 -282h-297l-110 131l-113 -131h-297zM722 2087l-0.000976562 33l4 42c0 0.666992 0.166992 1.16699 0.5 1.5s0.5 1.16602 0.5 2.5c1.33301 4 2.83301 8.16699 4.5 12.5
s5.5 11.5 11.5 21.5h-1c4.66699 12.667 11.334 25.167 20.001 37.5s19 25.166 31 38.5c9.33301 9.33301 20.333 18.166 33 26.5c12.667 8.33301 27.667 16.166 45 23.5c40 14.667 74.333 22 103 22c34 0 64.667 -5.66699 92 -17s52.333 -28.666 75 -51.999
c44.667 -44.667 67 -99 67 -163c0 -25.333 -7.16699 -51 -21.5 -77s-34.833 -50.667 -61.5 -74c-22.667 -21.333 -40 -44 -52 -68s-18 -48.667 -18 -74h-180c0 23.333 4.16699 47.666 12.5 72.999s21.166 51 38.499 77l87 102c10.667 10 16 26 16 48
c0 20 -5.66699 36.333 -17 49s-25 19 -41 19c-17.333 0 -31 -5 -41 -15c-9.33301 -7.33301 -16.166 -18.666 -20.499 -34c-4.33301 -15.333 -6.5 -33.666 -6.5 -55h-181z" />
    <glyph glyph-name=".notdef.041" unicode="&#x1ec3;" 
d="M1231 446l-881 -0.00195312c20 -66 57.5 -118.667 112.5 -158s117.167 -59 186.5 -59c52.667 0 101.5 8.83301 146.5 26.5s80.833 41.834 107.5 72.501h301c-34 -102 -103.333 -188.333 -208 -259s-217 -106 -337 -106c-164 0 -305 58 -423 174
c-58 58 -101.667 122 -131 192s-44 146.667 -44 230c0 168 58 312 174 432s259 180 429 180c160 0 296.833 -59.167 410.5 -177.5s170.5 -257.833 170.5 -418.5v-39c-2 -11.333 -3.33301 -19.666 -4 -24.999zM254 1270l303 282h215l299 -282h-297l-110 131l-113 -131h-297z
M346 687.998h625.001c-22 65.333 -61.333 117.833 -118 157.5s-120.334 59.5 -191.001 59.5c-69.333 0 -134.333 -20 -195 -60s-101 -92.333 -121 -157zM844.001 1708l-0.000976562 33.002l4 42c0 0.666992 0.166992 1.16699 0.5 1.5s0.5 1.16602 0.5 2.49902
c1.33301 4 2.83301 8.16699 4.5 12.5s5.5 11.5 11.5 21.5h-1c4.66699 12.667 11.334 25.167 20.001 37.5s19 25.166 31 38.499c9.33301 9.33301 20.333 18.166 33 26.499s27.667 16.166 45 23.499c40 14.667 74.333 22 103 22c34 0 64.667 -5.66699 92 -17
s52.333 -28.666 75 -51.999c44.667 -44.667 67 -99 67 -163c0 -25.333 -7.16699 -51 -21.5 -77s-34.833 -50.667 -61.5 -74c-22.667 -21.333 -40 -44 -52 -68s-18 -48.667 -18 -74h-180c0 23.333 4.16699 47.666 12.5 72.999s21.166 51 38.499 77l87 102
c10.667 10 16 26 16 48c0 20 -5.66699 36.333 -17 49s-25 19 -41 19c-17.333 0 -31 -5 -41 -15c-9.33301 -7.33301 -16.166 -18.666 -20.499 -33.999s-6.5 -33.666 -6.5 -54.999h-181z" />
    <glyph glyph-name=".notdef.132" unicode="&#x1ec4;" horiz-adv-x="1065" 
d="M139 0v1513h813v-272h-532v-348h510v-272h-510v-349h532v-272h-813zM131 1649l303 282h215l299 -282h-297l-110 131l-113 -131h-297zM295 2014l-100.002 179.998c24 22.667 54.667 41 92 55s74.666 21 111.999 21c29.333 0 62 -6 98 -18
c76.667 -25.333 120.667 -38.666 132 -39.999c24 0 48.333 5 73 15s47.334 24.333 68.001 43l103 -175c-31.333 -28 -62.666 -50 -93.999 -66s-65.666 -24 -102.999 -24c-29.333 0 -70.5 9 -123.5 27s-93.833 27 -122.5 27c-22.667 0 -45.5 -3.66699 -68.5 -11
s-45.167 -18.666 -66.5 -33.999z" />
    <glyph glyph-name=".notdef.040" unicode="&#x1ec5;" 
d="M1231 446l-881 -0.00195312c20 -66 57.5 -118.667 112.5 -158s117.167 -59 186.5 -59c52.667 0 101.5 8.83301 146.5 26.5s80.833 41.834 107.5 72.501h301c-34 -102 -103.333 -188.333 -208 -259s-217 -106 -337 -106c-164 0 -305 58 -423 174
c-58 58 -101.667 122 -131 192s-44 146.667 -44 230c0 168 58 312 174 432s259 180 429 180c160 0 296.833 -59.167 410.5 -177.5s170.5 -257.833 170.5 -418.5v-39c-2 -11.333 -3.33301 -19.666 -4 -24.999zM254 1270l303 282h215l299 -282h-297l-110 131l-113 -131h-297z
M346 687.998h625.001c-22 65.333 -61.333 117.833 -118 157.5s-120.334 59.5 -191.001 59.5c-69.333 0 -134.333 -20 -195 -60s-101 -92.333 -121 -157zM418.001 1635l-100.002 179.998c24 22.667 54.667 41 92 55s74.666 21 111.999 21c29.333 0 62 -6 98 -18
c76.667 -25.333 120.667 -38.666 132 -39.999c24 0 48.333 5 73 15s47.334 24.333 68.001 43l103 -175c-31.333 -28 -62.666 -50 -93.999 -66s-65.666 -24 -102.999 -24c-29.333 0 -70.5 9 -123.5 27s-93.833 27 -122.5 27c-22.667 0 -45.5 -3.66699 -68.5 -11
s-45.167 -18.666 -66.5 -33.999z" />
    <glyph glyph-name=".notdef.105" unicode="&#x1ec6;" horiz-adv-x="1065" 
d="M139 0v1513h813v-272h-532v-348h510v-272h-510v-349h532v-272h-813zM131 1649l303 282h215l299 -282h-297l-110 131l-113 -131h-297zM393 -395v272h273v-272h-273z" />
    <glyph glyph-name=".notdef.039" unicode="&#x1ec7;" 
d="M1231 446l-881 -0.00195312c20 -66 57.5 -118.667 112.5 -158s117.167 -59 186.5 -59c52.667 0 101.5 8.83301 146.5 26.5s80.833 41.834 107.5 72.501h301c-34 -102 -103.333 -188.333 -208 -259s-217 -106 -337 -106c-164 0 -305 58 -423 174
c-58 58 -101.667 122 -131 192s-44 146.667 -44 230c0 168 58 312 174 432s259 180 429 180c160 0 296.833 -59.167 410.5 -177.5s170.5 -257.833 170.5 -418.5v-39c-2 -11.333 -3.33301 -19.666 -4 -24.999zM254 1270l303 282h215l299 -282h-297l-110 131l-113 -131h-297z
M346 687.998h625.001c-22 65.333 -61.333 117.833 -118 157.5s-120.334 59.5 -191.001 59.5c-69.333 0 -134.333 -20 -195 -60s-101 -92.333 -121 -157zM524.001 -397.002v272h273v-272h-273z" />
    <glyph glyph-name=".notdef.102" unicode="&#x1ec8;" horiz-adv-x="573" 
d="M139 0v1513h281v-1513h-281zM29 1914l-0.000976562 32.998l4 42c0 0.666992 0.166992 1.16699 0.5 1.5s0.5 1.16602 0.5 2.49902c1.33301 4 2.83301 8.16699 4.5 12.5s5.5 11.5 11.5 21.5h-1c4.66699 12.667 11.334 25.167 20.001 37.501
c8.66699 12.333 19 25.166 31 38.5c9.33301 9.33301 20.333 18.166 33 26.5c12.667 8.33301 27.667 16.166 45 23.5c40 14.667 74.333 22 103 22c34 0 64.667 -5.66699 92 -17s52.333 -28.666 75 -51.999c44.667 -44.667 67 -99 67 -163c0 -25.333 -7.16699 -51 -21.5 -77
s-34.833 -50.667 -61.5 -74c-22.667 -21.333 -40 -44 -52 -68s-18 -48.667 -18 -74h-180c0 23.333 4.16699 47.666 12.5 72.999s21.166 51 38.499 77l87 102c10.667 10 16 26 16 48c0 20 -5.66699 36.333 -17 49s-25 19 -41 19c-17.333 0 -31 -5 -41 -15
c-9.33301 -7.33301 -16.166 -18.666 -20.499 -33.999s-6.5 -33.666 -6.5 -54.999h-181z" />
    <glyph glyph-name=".notdef.036" unicode="&#x1ec9;" horiz-adv-x="492" 
d="M111 0v1135h272v-1135h-272zM10 1519l-0.000976562 33.002l4 42c0 0.666992 0.166992 1.16699 0.5 1.5s0.5 1.16602 0.5 2.49902c1.33301 4 2.83301 8.16699 4.5 12.5s5.5 11.5 11.5 21.5h-1c4.66699 12.667 11.334 25.167 20.001 37.5s19 25.166 31 38.499
c9.33301 9.33301 20.333 18.166 33 26.499s27.667 16.166 45 23.499c40 14.667 74.333 22 103 22c34 0 64.667 -5.66699 92 -17s52.333 -28.666 75 -51.999c44.667 -44.667 67 -99 67 -163c0 -25.333 -7.16699 -51 -21.5 -77s-34.833 -50.667 -61.5 -74
c-22.667 -21.333 -40 -44 -52 -68s-18 -48.667 -18 -74h-180c0 23.333 4.16699 47.666 12.5 72.999s21.166 51 38.499 77l87 102c10.667 10 16 26 16 48c0 20 -5.66699 36.333 -17 49s-25 19 -41 19c-17.333 0 -31 -5 -41 -15
c-9.33301 -7.33301 -16.166 -18.666 -20.499 -33.999s-6.5 -33.666 -6.5 -54.999h-181z" />
    <glyph glyph-name=".notdef.100" unicode="&#x1eca;" horiz-adv-x="573" 
d="M139 0v1513h281v-1513h-281zM135 -403v272h273v-272h-273zM135 1604v272h273v-272h-273z" />
    <glyph glyph-name=".notdef.034" unicode="&#x1ecb;" horiz-adv-x="492" 
d="M111 0v1135h272v-1135h-272zM111 1266v247h272v-247h-272zM111 -414v248h272v-248h-272z" />
    <glyph glyph-name=".notdef.095" unicode="&#x1ecc;" horiz-adv-x="1720" 
d="M850 1542c216.667 0 402.168 -77.168 556.501 -231.501s231.5 -341.166 231.5 -560.499c0 -217.333 -77.333 -402.833 -232 -556.5s-340 -230.5 -556 -230.5s-401.5 76.5 -556.5 229.5s-232.5 338.833 -232.5 557.5c0 218 77.167 404.5 231.5 559.5
s340.166 232.5 557.499 232.5zM850.001 1270c-140 0 -259.667 -50.333 -359 -151s-149 -221.667 -149 -363c0 -139.333 50 -260.833 150 -364.5s219.333 -155.5 358 -155.5s258 51.833 358 155.5s150 225.167 150 364.5c0 142.667 -49.333 264 -148 364
s-218.667 150 -360 150zM713.001 -414.001v273h272v-273h-272z" />
    <glyph glyph-name=".notdef.029" unicode="&#x1ecd;" 
d="M674 1171c164.667 0 305.001 -59.3311 421.001 -177.998c58 -59.333 101.333 -124.333 130 -195s43 -148.334 43 -233.001c0 -166.667 -59.333 -308.667 -178 -426s-261.334 -176 -428.001 -176c-163.333 0 -304.333 59 -423 177s-178 259.667 -178 425
c0 169.333 59.667 312.666 179 429.999s264 176 434 176zM662.001 905.002c-20 0 -40.668 -2.33105 -62.001 -6.99805s-42.666 -12 -63.999 -22c-41.333 -18 -77.333 -42.5 -108 -73.5s-54 -67 -70 -108s-24 -84.167 -24 -129.5c0 -92.667 31.667 -171.834 95 -237.501
s141 -98.5 233 -98.5c94.667 0 173.834 32.167 237.501 96.5s95.5 144.166 95.5 239.499c0 94.667 -32.333 175 -97 241s-143.334 99 -236.001 99zM528 -409.996v248h273v-248h-273z" />
    <glyph glyph-name=".notdef.097" unicode="&#x1ece;" horiz-adv-x="1720" 
d="M850 1542c216.667 0 402.168 -77.168 556.501 -231.501s231.5 -341.166 231.5 -560.499c0 -217.333 -77.333 -402.833 -232 -556.5s-340 -230.5 -556 -230.5s-401.5 76.5 -556.5 229.5s-232.5 338.833 -232.5 557.5c0 218 77.167 404.5 231.5 559.5
s340.166 232.5 557.499 232.5zM850.001 1270c-140 0 -259.667 -50.333 -359 -151s-149 -221.667 -149 -363c0 -139.333 50 -260.833 150 -364.5s219.333 -155.5 358 -155.5s258 51.833 358 155.5s150 225.167 150 364.5c0 142.667 -49.333 264 -148 364
s-218.667 150 -360 150zM605.001 1912l-0.000976562 32.999l4 42c0 0.666992 0.166992 1.16699 0.5 1.5s0.5 1.16602 0.5 2.49902c1.33301 4 2.83301 8.16699 4.5 12.5s5.5 11.5 11.5 21.5h-1c4.66699 12.667 11.334 25.167 20.001 37.501c8.66699 12.333 19 25.166 31 38.5
c9.33301 9.33301 20.333 18.166 33 26.5c12.667 8.33301 27.667 16.166 45 23.5c40 14.667 74.333 22 103 22c34 0 64.667 -5.66699 92 -17s52.333 -28.666 75 -52c44.667 -44.667 67 -99 67 -163c0 -25.333 -7.16699 -51 -21.5 -77s-34.833 -50.667 -61.5 -74
c-22.667 -21.333 -40 -44 -52 -68s-18 -48.667 -18 -74h-180c0 23.333 4.16699 47.666 12.5 72.999s21.166 51 38.499 77l87 102c10.667 10 16 26 16 48c0 20 -5.66699 36.333 -17 49s-25 19 -41 19c-17.333 0 -31 -5 -41 -15
c-9.33301 -7.33301 -16.166 -18.666 -20.499 -33.999s-6.5 -33.666 -6.5 -54.999h-181z" />
    <glyph glyph-name=".notdef.031" unicode="&#x1ecf;" 
d="M674 1171c164.667 0 305.001 -59.3311 421.001 -177.998c58 -59.333 101.333 -124.333 130 -195s43 -148.334 43 -233.001c0 -166.667 -59.333 -308.667 -178 -426s-261.334 -176 -428.001 -176c-163.333 0 -304.333 59 -423 177s-178 259.667 -178 425
c0 169.333 59.667 312.666 179 429.999s264 176 434 176zM662.001 905.002c-20 0 -40.668 -2.33105 -62.001 -6.99805s-42.666 -12 -63.999 -22c-41.333 -18 -77.333 -42.5 -108 -73.5s-54 -67 -70 -108s-24 -84.167 -24 -129.5c0 -92.667 31.667 -171.834 95 -237.501
s141 -98.5 233 -98.5c94.667 0 173.834 32.167 237.501 96.5s95.5 144.166 95.5 239.499c0 94.667 -32.333 175 -97 241s-143.334 99 -236.001 99zM435 1518l-0.000976562 33.002l4 42c0 0.666992 0.166992 1.16699 0.5 1.5s0.5 1.16602 0.5 2.49902
c1.33301 4 2.83301 8.16699 4.5 12.5s5.5 11.5 11.5 21.5h-1c4.66699 12.667 11.334 25.167 20.001 37.5s19 25.166 31 38.499c9.33301 9.33301 20.333 18.166 33 26.499s27.667 16.166 45 23.499c40 14.667 74.333 22 103 22c34 0 64.667 -5.66699 92 -17
s52.333 -28.666 75 -51.999c44.667 -44.667 67 -99 67 -163c0 -25.333 -7.16699 -51 -21.5 -77s-34.833 -50.667 -61.5 -74c-22.667 -21.333 -40 -44 -52 -68s-18 -48.667 -18 -74h-180c0 23.333 4.16699 47.666 12.5 72.999s21.166 51 38.499 77l87 102
c10.667 10 16 26 16 48c0 20 -5.66699 36.333 -17 49s-25 19 -41 19c-17.333 0 -31 -5 -41 -15c-9.33301 -7.33301 -16.166 -18.666 -20.499 -33.999s-6.5 -33.666 -6.5 -54.999h-181z" />
    <glyph glyph-name=".notdef.092" unicode="&#x1ed0;" horiz-adv-x="1720" 
d="M850 1542c217.333 0 403 -77.167 557 -231.5s231 -341.166 231 -560.499c0 -218 -77.333 -403.667 -232 -557s-340 -230 -556 -230s-401.5 76.5 -556.5 229.5s-232.5 338.833 -232.5 557.5c0 219.333 77 406.166 231 560.499s340 231.5 558 231.5zM459 1649l303 282h215
l299 -282h-297l-111 131l-112 -131h-297zM850 1270c-140.667 0 -260.5 -50.167 -359.5 -150.5s-148.5 -221.5 -148.5 -363.5c0 -140 50.167 -261.667 150.5 -365s219.5 -155 357.5 -155s257.167 51.667 357.5 155s150.5 225 150.5 365c0 142.667 -49.5 264 -148.5 364
s-218.833 150 -359.5 150zM1219 1824l-103 189l461 272l109 -213z" />
    <glyph glyph-name=".notdef.026" unicode="&#x1ed1;" 
d="M674 1171c164.667 0 305.001 -59.3311 421.001 -177.998c58 -59.333 101.333 -124.333 130 -195s43 -148.334 43 -233.001c0 -166.667 -59.333 -308.667 -178 -426s-261.334 -176 -428.001 -176c-163.333 0 -304.333 59 -423 177s-178 259.667 -178 425
c0 169.333 59.667 312.666 179 429.999s264 176 434 176zM254.001 1270l303 282h215l299 -282h-297l-110 131l-113 -131h-297zM662.001 905.002c-20 0 -40.668 -2.33105 -62.001 -6.99805s-42.666 -12 -63.999 -22c-41.333 -18 -77.333 -42.5 -108 -73.5s-54 -67 -70 -108
s-24 -84.167 -24 -129.5c0 -92.667 31.667 -171.834 95 -237.501s141 -98.5 233 -98.5c94.667 0 173.834 32.167 237.501 96.5s95.5 144.166 95.5 239.499c0 94.667 -32.333 175 -97 241s-143.334 99 -236.001 99zM1014 1445l-103 189l461 272l109 -213z" />
    <glyph glyph-name=".notdef.093" unicode="&#x1ed2;" horiz-adv-x="1720" 
d="M850 1542c217.333 0 403 -77.167 557 -231.5s231 -341.166 231 -560.499c0 -218 -77.333 -403.667 -232 -557s-340 -230 -556 -230s-401.5 76.5 -556.5 229.5s-232.5 338.833 -232.5 557.5c0 219.333 77 406.166 231 560.499s340 231.5 558 231.5zM459 1649l303 282h215
l299 -282h-297l-111 131l-112 -131h-297zM850 1270c-140.667 0 -260.5 -50.167 -359.5 -150.5s-148.5 -221.5 -148.5 -363.5c0 -140 50.167 -261.667 150.5 -365s219.5 -155 357.5 -155s257.167 51.667 357.5 155s150.5 225 150.5 365c0 142.667 -49.5 264 -148.5 364
s-218.833 150 -359.5 150zM949 2080l117 209l455 -276l-109 -189z" />
    <glyph glyph-name=".notdef.027" unicode="&#x1ed3;" 
d="M674 1171c164.667 0 305.001 -59.3311 421.001 -177.998c58 -59.333 101.333 -124.333 130 -195s43 -148.334 43 -233.001c0 -166.667 -59.333 -308.667 -178 -426s-261.334 -176 -428.001 -176c-163.333 0 -304.333 59 -423 177s-178 259.667 -178 425
c0 169.333 59.667 312.666 179 429.999s264 176 434 176zM254.001 1270l303 282h215l299 -282h-297l-110 131l-113 -131h-297zM662.001 905.002c-20 0 -40.668 -2.33105 -62.001 -6.99805s-42.666 -12 -63.999 -22c-41.333 -18 -77.333 -42.5 -108 -73.5s-54 -67 -70 -108
s-24 -84.167 -24 -129.5c0 -92.667 31.667 -171.834 95 -237.501s141 -98.5 233 -98.5c94.667 0 173.834 32.167 237.501 96.5s95.5 144.166 95.5 239.499c0 94.667 -32.333 175 -97 241s-143.334 99 -236.001 99zM745 1701l117 209l455 -276l-109 -189z" />
    <glyph glyph-name=".notdef.091" unicode="&#x1ed4;" horiz-adv-x="1720" 
d="M850 1542c217.333 0 403 -77.167 557 -231.5s231 -341.166 231 -560.499c0 -218 -77.333 -403.667 -232 -557s-340 -230 -556 -230s-401.5 76.5 -556.5 229.5s-232.5 338.833 -232.5 557.5c0 219.333 77 406.166 231 560.499s340 231.5 558 231.5zM459 1649l303 282h215
l299 -282h-297l-111 131l-112 -131h-297zM850 1270c-140.667 0 -260.5 -50.167 -359.5 -150.5s-148.5 -221.5 -148.5 -363.5c0 -140 50.167 -261.667 150.5 -365s219.5 -155 357.5 -155s257.167 51.667 357.5 155s150.5 225 150.5 365c0 142.667 -49.5 264 -148.5 364
s-218.833 150 -359.5 150zM1049 2087l-0.000976562 33l4 42c0 0.666992 0.166992 1.16699 0.5 1.5s0.5 1.16602 0.5 2.5c1.33301 4 2.83301 8.16699 4.5 12.5s5.5 11.5 11.5 21.5h-1c4.66699 12.667 11.334 25.167 20.001 37.5s19 25.166 31 38.5
c9.33301 9.33301 20.333 18.166 33 26.5c12.667 8.33301 27.667 16.166 45 23.5c40 14.667 74.333 22 103 22c34 0 64.667 -5.66699 92 -17s52.333 -28.666 75 -51.999c44.667 -44.667 67 -99 67 -163c0 -25.333 -7.16699 -51 -21.5 -77s-34.833 -50.667 -61.5 -74
c-22.667 -21.333 -40 -44 -52 -68s-18 -48.667 -18 -74h-180c0 23.333 4.16699 47.666 12.5 72.999s21.166 51 38.499 77l87 102c10.667 10 16 26 16 48c0 20 -5.66699 36.333 -17 49s-25 19 -41 19c-17.333 0 -31 -5 -41 -15
c-9.33301 -7.33301 -16.166 -18.666 -20.499 -34c-4.33301 -15.333 -6.5 -33.666 -6.5 -55h-181z" />
    <glyph glyph-name=".notdef.025" unicode="&#x1ed5;" 
d="M674 1171c164.667 0 305.001 -59.3311 421.001 -177.998c58 -59.333 101.333 -124.333 130 -195s43 -148.334 43 -233.001c0 -166.667 -59.333 -308.667 -178 -426s-261.334 -176 -428.001 -176c-163.333 0 -304.333 59 -423 177s-178 259.667 -178 425
c0 169.333 59.667 312.666 179 429.999s264 176 434 176zM254.001 1270l303 282h215l299 -282h-297l-110 131l-113 -131h-297zM662.001 905.002c-20 0 -40.668 -2.33105 -62.001 -6.99805s-42.666 -12 -63.999 -22c-41.333 -18 -77.333 -42.5 -108 -73.5s-54 -67 -70 -108
s-24 -84.167 -24 -129.5c0 -92.667 31.667 -171.834 95 -237.501s141 -98.5 233 -98.5c94.667 0 173.834 32.167 237.501 96.5s95.5 144.166 95.5 239.499c0 94.667 -32.333 175 -97 241s-143.334 99 -236.001 99zM844 1708l-0.000976562 33.002l4 42
c0 0.666992 0.166992 1.16699 0.5 1.5s0.5 1.16602 0.5 2.49902c1.33301 4 2.83301 8.16699 4.5 12.5s5.5 11.5 11.5 21.5h-1c4.66699 12.667 11.334 25.167 20.001 37.5s19 25.166 31 38.499c9.33301 9.33301 20.333 18.166 33 26.499s27.667 16.166 45 23.499
c40 14.667 74.333 22 103 22c34 0 64.667 -5.66699 92 -17s52.333 -28.666 75 -51.999c44.667 -44.667 67 -99 67 -163c0 -25.333 -7.16699 -51 -21.5 -77s-34.833 -50.667 -61.5 -74c-22.667 -21.333 -40 -44 -52 -68s-18 -48.667 -18 -74h-180
c0 23.333 4.16699 47.666 12.5 72.999s21.166 51 38.499 77l87 102c10.667 10 16 26 16 48c0 20 -5.66699 36.333 -17 49s-25 19 -41 19c-17.333 0 -31 -5 -41 -15c-9.33301 -7.33301 -16.166 -18.666 -20.499 -33.999s-6.5 -33.666 -6.5 -54.999h-181z" />
    <glyph glyph-name=".notdef.090" unicode="&#x1ed6;" horiz-adv-x="1720" 
d="M850 1542c217.333 0 403 -77.167 557 -231.5s231 -341.166 231 -560.499c0 -218 -77.333 -403.667 -232 -557s-340 -230 -556 -230s-401.5 76.5 -556.5 229.5s-232.5 338.833 -232.5 557.5c0 219.333 77 406.166 231 560.499s340 231.5 558 231.5zM459 1649l303 282h215
l299 -282h-297l-111 131l-112 -131h-297zM850 1270c-140.667 0 -260.5 -50.167 -359.5 -150.5s-148.5 -221.5 -148.5 -363.5c0 -140 50.167 -261.667 150.5 -365s219.5 -155 357.5 -155s257.167 51.667 357.5 155s150.5 225 150.5 365c0 142.667 -49.5 264 -148.5 364
s-218.833 150 -359.5 150zM622 2014l-100.002 179.998c24 22.667 54.667 41 92 55s74.666 21 111.999 21c29.333 0 62 -6 98 -18c76.667 -25.333 120.667 -38.666 132 -39.999c24 0 48.333 5 73 15s47.334 24.333 68.001 43l103 -175c-31.333 -28 -62.666 -50 -93.999 -66
s-65.666 -24 -102.999 -24c-29.333 0 -70.5 9 -123.5 27s-93.833 27 -122.5 27c-22.667 0 -45.5 -3.66699 -68.5 -11s-45.167 -18.666 -66.5 -33.999z" />
    <glyph glyph-name=".notdef.024" unicode="&#x1ed7;" 
d="M674 1171c164.667 0 305.001 -59.3311 421.001 -177.998c58 -59.333 101.333 -124.333 130 -195s43 -148.334 43 -233.001c0 -166.667 -59.333 -308.667 -178 -426s-261.334 -176 -428.001 -176c-163.333 0 -304.333 59 -423 177s-178 259.667 -178 425
c0 169.333 59.667 312.666 179 429.999s264 176 434 176zM254.001 1270l303 282h215l299 -282h-297l-110 131l-113 -131h-297zM662.001 905.002c-20 0 -40.668 -2.33105 -62.001 -6.99805s-42.666 -12 -63.999 -22c-41.333 -18 -77.333 -42.5 -108 -73.5s-54 -67 -70 -108
s-24 -84.167 -24 -129.5c0 -92.667 31.667 -171.834 95 -237.501s141 -98.5 233 -98.5c94.667 0 173.834 32.167 237.501 96.5s95.5 144.166 95.5 239.499c0 94.667 -32.333 175 -97 241s-143.334 99 -236.001 99zM418 1635l-100.002 179.998c24 22.667 54.667 41 92 55
s74.666 21 111.999 21c29.333 0 62 -6 98 -18c76.667 -25.333 120.667 -38.666 132 -39.999c24 0 48.333 5 73 15s47.334 24.333 68.001 43l103 -175c-31.333 -28 -62.666 -50 -93.999 -66s-65.666 -24 -102.999 -24c-29.333 0 -70.5 9 -123.5 27s-93.833 27 -122.5 27
c-22.667 0 -45.5 -3.66699 -68.5 -11s-45.167 -18.666 -66.5 -33.999z" />
    <glyph glyph-name=".notdef.089" unicode="&#x1ed8;" horiz-adv-x="1720" 
d="M850 1542c217.333 0 403 -77.167 557 -231.5s231 -341.166 231 -560.499c0 -218 -77.333 -403.667 -232 -557s-340 -230 -556 -230s-401.5 76.5 -556.5 229.5s-232.5 338.833 -232.5 557.5c0 219.333 77 406.166 231 560.499s340 231.5 558 231.5zM459 1649l303 282h215
l299 -282h-297l-111 131l-112 -131h-297zM850 1270c-140.667 0 -260.5 -50.167 -359.5 -150.5s-148.5 -221.5 -148.5 -363.5c0 -140 50.167 -261.667 150.5 -365s219.5 -155 357.5 -155s257.167 51.667 357.5 155s150.5 225 150.5 365c0 142.667 -49.5 264 -148.5 364
s-218.833 150 -359.5 150zM713 -414v273h272v-273h-272z" />
    <glyph glyph-name=".notdef.023" unicode="&#x1ed9;" 
d="M674 1171c164.667 0 305.001 -59.3311 421.001 -177.998c58 -59.333 101.333 -124.333 130 -195s43 -148.334 43 -233.001c0 -166.667 -59.333 -308.667 -178 -426s-261.334 -176 -428.001 -176c-163.333 0 -304.333 59 -423 177s-178 259.667 -178 425
c0 169.333 59.667 312.666 179 429.999s264 176 434 176zM254.001 1270l303 282h215l299 -282h-297l-110 131l-113 -131h-297zM662.001 905.002c-20 0 -40.668 -2.33105 -62.001 -6.99805s-42.666 -12 -63.999 -22c-41.333 -18 -77.333 -42.5 -108 -73.5s-54 -67 -70 -108
s-24 -84.167 -24 -129.5c0 -92.667 31.667 -171.834 95 -237.501s141 -98.5 233 -98.5c94.667 0 173.834 32.167 237.501 96.5s95.5 144.166 95.5 239.499c0 94.667 -32.333 175 -97 241s-143.334 99 -236.001 99zM528 -400.996v247h273v-247h-273z" />
    <glyph glyph-name=".notdef.075" unicode="&#x1eda;" horiz-adv-x="1720" 
d="M850 1270c-140.667 0 -260.5 -50.167 -359.5 -150.5s-148.5 -221.5 -148.5 -363.5c0 -140 50.167 -261.667 150.5 -365s219.5 -155 357.5 -155s257.167 51.667 357.5 155s150.5 225 150.5 365c0 142.667 -49.5 264 -148.5 364s-218.833 150 -359.5 150zM1217 1452
v184.002h272v-247h-170c97.333 -72.667 174.833 -164.834 232.5 -276.501s86.5 -232.5 86.5 -362.5c0 -218 -77.333 -403.667 -232 -557s-340 -230 -556 -230s-401.5 76.5 -556.5 229.5s-232.5 338.833 -232.5 557.5c0 219.333 77 406.166 231 560.499s340 231.5 558 231.5
c36 0 68.5 -1.66699 97.5 -5s60.167 -9.33301 93.5 -18c60 -14 118.667 -36.333 176 -67zM684 1634l-102 189l460 272l109 -213z" />
    <glyph glyph-name=".notdef.009" unicode="&#x1edb;" 
d="M662 905c-20 0 -40.668 -2.33105 -62.001 -6.99805s-42.666 -12 -63.999 -22c-41.333 -18 -77.333 -42.5 -108 -73.5s-54 -67 -70 -108s-24 -84.167 -24 -129.5c0 -92.667 31.667 -171.834 95 -237.501s141 -98.5 233 -98.5c94.667 0 173.834 32.167 237.501 96.5
s95.5 144.166 95.5 239.499c0 94.667 -32.333 175 -97 241s-143.334 99 -236.001 99zM935.999 1110l0.000976562 160.001h272v-248h-143c62 -56 111.333 -124 148 -204s55 -164.333 55 -253c0 -166.667 -59.333 -308.667 -178 -426s-261.334 -176 -428.001 -176
c-163.333 0 -304.333 59 -423 177s-178 259.667 -178 425c0 169.333 59.667 312.666 179 429.999s264 176 434 176c47.333 0 92.833 -5.16699 136.5 -15.5s85.5 -25.5 125.5 -45.5zM479 1255l-102 189l461 272l108 -213z" />
    <glyph glyph-name=".notdef.076" unicode="&#x1edc;" horiz-adv-x="1720" 
d="M850 1270c-140.667 0 -260.5 -50.167 -359.5 -150.5s-148.5 -221.5 -148.5 -363.5c0 -140 50.167 -261.667 150.5 -365s219.5 -155 357.5 -155s257.167 51.667 357.5 155s150.5 225 150.5 365c0 142.667 -49.5 264 -148.5 364s-218.833 150 -359.5 150zM1217 1452
v184.002h272v-247h-170c97.333 -72.667 174.833 -164.834 232.5 -276.501s86.5 -232.5 86.5 -362.5c0 -218 -77.333 -403.667 -232 -557s-340 -230 -556 -230s-401.5 76.5 -556.5 229.5s-232.5 338.833 -232.5 557.5c0 219.333 77 406.166 231 560.499s340 231.5 558 231.5
c36 0 68.5 -1.66699 97.5 -5s60.167 -9.33301 93.5 -18c60 -14 118.667 -36.333 176 -67zM582 1890l116 209l455 -276l-109 -189z" />
    <glyph glyph-name=".notdef.010" unicode="&#x1edd;" 
d="M662 905c-20 0 -40.668 -2.33105 -62.001 -6.99805s-42.666 -12 -63.999 -22c-41.333 -18 -77.333 -42.5 -108 -73.5s-54 -67 -70 -108s-24 -84.167 -24 -129.5c0 -92.667 31.667 -171.834 95 -237.501s141 -98.5 233 -98.5c94.667 0 173.834 32.167 237.501 96.5
s95.5 144.166 95.5 239.499c0 94.667 -32.333 175 -97 241s-143.334 99 -236.001 99zM935.999 1110l0.000976562 160.001h272v-248h-143c62 -56 111.333 -124 148 -204s55 -164.333 55 -253c0 -166.667 -59.333 -308.667 -178 -426s-261.334 -176 -428.001 -176
c-163.333 0 -304.333 59 -423 177s-178 259.667 -178 425c0 169.333 59.667 312.666 179 429.999s264 176 434 176c47.333 0 92.833 -5.16699 136.5 -15.5s85.5 -25.5 125.5 -45.5zM377 1511l117 209l454 -276l-108 -189z" />
    <glyph glyph-name=".notdef.074" unicode="&#x1ede;" horiz-adv-x="1720" 
d="M850 1270c-140.667 0 -260.5 -50.167 -359.5 -150.5s-148.5 -221.5 -148.5 -363.5c0 -140 50.167 -261.667 150.5 -365s219.5 -155 357.5 -155s257.167 51.667 357.5 155s150.5 225 150.5 365c0 142.667 -49.5 264 -148.5 364s-218.833 150 -359.5 150zM1217 1452
v184.002h272v-247h-170c97.333 -72.667 174.833 -164.834 232.5 -276.501s86.5 -232.5 86.5 -362.5c0 -218 -77.333 -403.667 -232 -557s-340 -230 -556 -230s-401.5 76.5 -556.5 229.5s-232.5 338.833 -232.5 557.5c0 219.333 77 406.166 231 560.499s340 231.5 558 231.5
c36 0 68.5 -1.66699 97.5 -5s60.167 -9.33301 93.5 -18c60 -14 118.667 -36.333 176 -67zM601 1912l-0.000976562 32.998l4 42c0 0.666992 0.166992 1.16699 0.5 1.5s0.5 1.16602 0.5 2.49902c1.33301 4 2.83301 8.16699 4.5 12.5s5.5 11.5 11.5 21.5h-1
c4.66699 12.667 11.334 25.167 20.001 37.501c8.66699 12.333 19 25.166 31 38.5c9.33301 9.33301 20.333 18.166 33 26.5c12.667 8.33301 27.667 16.166 45 23.5c40 14.667 74.333 22 103 22c34 0 64.667 -5.66699 92 -17s52.333 -28.666 75 -51.999
c44.667 -44.667 67 -99 67 -163c0 -25.333 -7.16699 -51 -21.5 -77s-34.833 -50.667 -61.5 -74c-22.667 -21.333 -40 -44 -52 -68s-18 -48.667 -18 -74h-180c0 23.333 4.16699 47.666 12.5 72.999s21.166 51 38.499 77l87 102c10.667 10 16 26 16 48
c0 20 -5.66699 36.333 -17 49s-25 19 -41 19c-17.333 0 -31 -5 -41 -15c-9.33301 -7.33301 -16.166 -18.666 -20.499 -33.999s-6.5 -33.666 -6.5 -54.999h-181z" />
    <glyph glyph-name=".notdef.008" unicode="&#x1edf;" 
d="M662 905c-20 0 -40.668 -2.33105 -62.001 -6.99805s-42.666 -12 -63.999 -22c-41.333 -18 -77.333 -42.5 -108 -73.5s-54 -67 -70 -108s-24 -84.167 -24 -129.5c0 -92.667 31.667 -171.834 95 -237.501s141 -98.5 233 -98.5c94.667 0 173.834 32.167 237.501 96.5
s95.5 144.166 95.5 239.499c0 94.667 -32.333 175 -97 241s-143.334 99 -236.001 99zM935.999 1110l0.000976562 160.001h272v-248h-143c62 -56 111.333 -124 148 -204s55 -164.333 55 -253c0 -166.667 -59.333 -308.667 -178 -426s-261.334 -176 -428.001 -176
c-163.333 0 -304.333 59 -423 177s-178 259.667 -178 425c0 169.333 59.667 312.666 179 429.999s264 176 434 176c47.333 0 92.833 -5.16699 136.5 -15.5s85.5 -25.5 125.5 -45.5zM435 1518l-0.000976562 33.002l4 42c0 0.666992 0.166992 1.16699 0.5 1.5
s0.5 1.16602 0.5 2.49902c1.33301 4 2.83301 8.16699 4.5 12.5s5.5 11.5 11.5 21.5h-1c4.66699 12.667 11.334 25.167 20.001 37.5s19 25.166 31 38.499c9.33301 9.33301 20.333 18.166 33 26.499s27.667 16.166 45 23.499c40 14.667 74.333 22 103 22
c34 0 64.667 -5.66699 92 -17s52.333 -28.666 75 -51.999c44.667 -44.667 67 -99 67 -163c0 -25.333 -7.16699 -51 -21.5 -77s-34.833 -50.667 -61.5 -74c-22.667 -21.333 -40 -44 -52 -68s-18 -48.667 -18 -74h-180c0 23.333 4.16699 47.666 12.5 72.999
s21.166 51 38.499 77l87 102c10.667 10 16 26 16 48c0 20 -5.66699 36.333 -17 49s-25 19 -41 19c-17.333 0 -31 -5 -41 -15c-9.33301 -7.33301 -16.166 -18.666 -20.499 -33.999s-6.5 -33.666 -6.5 -54.999h-181z" />
    <glyph glyph-name=".notdef.073" unicode="&#x1ee0;" horiz-adv-x="1720" 
d="M850 1270c-140.667 0 -260.5 -50.167 -359.5 -150.5s-148.5 -221.5 -148.5 -363.5c0 -140 50.167 -261.667 150.5 -365s219.5 -155 357.5 -155s257.167 51.667 357.5 155s150.5 225 150.5 365c0 142.667 -49.5 264 -148.5 364s-218.833 150 -359.5 150zM1217 1452
v184.002h272v-247h-170c97.333 -72.667 174.833 -164.834 232.5 -276.501s86.5 -232.5 86.5 -362.5c0 -218 -77.333 -403.667 -232 -557s-340 -230 -556 -230s-401.5 76.5 -556.5 229.5s-232.5 338.833 -232.5 557.5c0 219.333 77 406.166 231 560.499s340 231.5 558 231.5
c36 0 68.5 -1.66699 97.5 -5s60.167 -9.33301 93.5 -18c60 -14 118.667 -36.333 176 -67zM612 1654l-100.002 179.998c24 22.667 54.667 41 92 55s74.666 21 111.999 21c29.333 0 62 -6 98 -18c76.667 -25.333 120.667 -38.666 132 -39.999c24 0 48.333 5 73 15
s47.334 24.333 68.001 43l103 -175c-31.333 -28 -62.666 -50 -93.999 -66s-65.666 -24 -102.999 -24c-29.333 0 -70.5 9 -123.5 27s-93.833 27 -122.5 27c-22.667 0 -45.5 -3.66699 -68.5 -11s-45.167 -18.666 -66.5 -33.999z" />
    <glyph glyph-name=".notdef.007" unicode="&#x1ee1;" 
d="M662 905c-20 0 -40.668 -2.33105 -62.001 -6.99805s-42.666 -12 -63.999 -22c-41.333 -18 -77.333 -42.5 -108 -73.5s-54 -67 -70 -108s-24 -84.167 -24 -129.5c0 -92.667 31.667 -171.834 95 -237.501s141 -98.5 233 -98.5c94.667 0 173.834 32.167 237.501 96.5
s95.5 144.166 95.5 239.499c0 94.667 -32.333 175 -97 241s-143.334 99 -236.001 99zM935.999 1110l0.000976562 160.001h272v-248h-143c62 -56 111.333 -124 148 -204s55 -164.333 55 -253c0 -166.667 -59.333 -308.667 -178 -426s-261.334 -176 -428.001 -176
c-163.333 0 -304.333 59 -423 177s-178 259.667 -178 425c0 169.333 59.667 312.666 179 429.999s264 176 434 176c47.333 0 92.833 -5.16699 136.5 -15.5s85.5 -25.5 125.5 -45.5zM416 1278l-100.999 179.998c24.667 22.667 55.5 41 92.5 55s74.5 21 112.5 21
c28 0 60.667 -6 98 -18c77.333 -26 121.333 -39 132 -39c27.333 0 52.666 4.83301 75.999 14.5s45 23.834 65 42.501l102 -174c-30 -27.333 -60.833 -49.166 -92.5 -65.499s-66.167 -24.5 -103.5 -24.5c-16 0 -34.333 2 -55 6s-44.667 10.667 -72 20
c-52 18 -91.667 27 -119 27c-48.667 0 -93.667 -15 -135 -45z" />
    <glyph glyph-name=".notdef.072" unicode="&#x1ee2;" horiz-adv-x="1720" 
d="M850 1270c-140.667 0 -260.5 -50.167 -359.5 -150.5s-148.5 -221.5 -148.5 -363.5c0 -140 50.167 -261.667 150.5 -365s219.5 -155 357.5 -155s257.167 51.667 357.5 155s150.5 225 150.5 365c0 142.667 -49.5 264 -148.5 364s-218.833 150 -359.5 150zM1217 1452
v184.002h272v-247h-170c97.333 -72.667 174.833 -164.834 232.5 -276.501s86.5 -232.5 86.5 -362.5c0 -218 -77.333 -403.667 -232 -557s-340 -230 -556 -230s-401.5 76.5 -556.5 229.5s-232.5 338.833 -232.5 557.5c0 219.333 77 406.166 231 560.499s340 231.5 558 231.5
c36 0 68.5 -1.66699 97.5 -5s60.167 -9.33301 93.5 -18c60 -14 118.667 -36.333 176 -67zM713 -413.998v273h272v-273h-272z" />
    <glyph glyph-name=".notdef.006" unicode="&#x1ee3;" 
d="M528 -410v248h273v-248h-273zM662 905c-20 0 -40.668 -2.33105 -62.001 -6.99805s-42.666 -12 -63.999 -22c-41.333 -18 -77.333 -42.5 -108 -73.5s-54 -67 -70 -108s-24 -84.167 -24 -129.5c0 -92.667 31.667 -171.834 95 -237.501s141 -98.5 233 -98.5
c94.667 0 173.834 32.167 237.501 96.5s95.5 144.166 95.5 239.499c0 94.667 -32.333 175 -97 241s-143.334 99 -236.001 99zM935.999 1110l0.000976562 160.001h272v-248h-143c62 -56 111.333 -124 148 -204s55 -164.333 55 -253c0 -166.667 -59.333 -308.667 -178 -426
s-261.334 -176 -428.001 -176c-163.333 0 -304.333 59 -423 177s-178 259.667 -178 425c0 169.333 59.667 312.666 179 429.999s264 176 434 176c47.333 0 92.833 -5.16699 136.5 -15.5s85.5 -25.5 125.5 -45.5z" />
    <glyph glyph-name=".notdef.084" unicode="&#x1ee4;" 
d="M139 1513l281 -0.000976562v-944v-39l1 -51c0 -7.33301 0.333008 -15.333 1 -24s2 -17.667 4 -27c2 -19.333 9.66699 -40.333 23 -63c20 -39.333 47.667 -70.666 83 -93.999s74.333 -35 117 -35c36.667 0 72 9 106 27s62.333 44.333 85 79c18 30 30 66.333 36 109
c3.33301 31.333 5 70.666 5 117.999v944h280v-944c0 -88 -6 -160 -18 -216c-16 -74.667 -46.667 -139 -92 -193c-48 -58 -108.167 -105.333 -180.5 -142s-146.166 -55 -221.499 -55c-70 0 -139.833 17 -209.5 51s-128.834 78.833 -177.501 134.5s-83 121.5 -103 197.5
c-6 28.667 -11 60.334 -15 95.001c0 14.667 -0.833008 37 -2.5 67s-2.5 50.333 -2.5 61v944zM516 -412.001v273h272v-273h-272z" />
    <glyph glyph-name=".notdef.018" unicode="&#x1ee5;" horiz-adv-x="1229" 
d="M848 1135l272.003 -0.000976562v-1135h-250v121c-28.667 -52 -68.334 -91.333 -119.001 -118s-108.334 -40 -173.001 -40c-70 0 -135.333 13 -196 39s-114.334 64.167 -161.001 114.5s-78 109.166 -94 176.499c-5.33301 24.667 -9.33301 52.667 -12 84s-4 70.333 -4 117
v641h272v-557c0 -46.667 2 -89.667 6 -129s13.667 -73.666 29 -102.999c18 -35.333 44.5 -63.666 79.5 -84.999s73.167 -32 114.5 -32c92 0 157 37.667 195 113c27.333 56 41 134.667 41 236v557zM500.003 -145.001h272v-261h-272v261z" />
    <glyph glyph-name=".notdef.086" unicode="&#x1ee6;" 
d="M139 1513l281 -0.000976562v-944v-39l1 -51c0 -7.33301 0.333008 -15.333 1 -24s2 -17.667 4 -27c2 -19.333 9.66699 -40.333 23 -63c20 -39.333 47.667 -70.666 83 -93.999s74.333 -35 117 -35c36.667 0 72 9 106 27s62.333 44.333 85 79c18 30 30 66.333 36 109
c3.33301 31.333 5 70.666 5 117.999v944h280v-944c0 -88 -6 -160 -18 -216c-16 -74.667 -46.667 -139 -92 -193c-48 -58 -108.167 -105.333 -180.5 -142s-146.166 -55 -221.499 -55c-70 0 -139.833 17 -209.5 51s-128.834 78.833 -177.501 134.5s-83 121.5 -103 197.5
c-6 28.667 -11 60.334 -15 95.001c0 14.667 -0.833008 37 -2.5 67s-2.5 50.333 -2.5 61v944zM405 1912l-0.000976562 32.999l4 42c0 0.666992 0.166992 1.16699 0.5 1.5s0.5 1.16602 0.5 2.49902c1.33301 4 2.83301 8.16699 4.5 12.5s5.5 11.5 11.5 21.5h-1
c4.66699 12.667 11.334 25.167 20.001 37.501c8.66699 12.333 19 25.166 31 38.5c9.33301 9.33301 20.333 18.166 33 26.5c12.667 8.33301 27.667 16.166 45 23.5c40 14.667 74.333 22 103 22c34 0 64.667 -5.66699 92 -17s52.333 -28.666 75 -52
c44.667 -44.667 67 -99 67 -163c0 -25.333 -7.16699 -51 -21.5 -77s-34.833 -50.667 -61.5 -74c-22.667 -21.333 -40 -44 -52 -68s-18 -48.667 -18 -74h-180c0 23.333 4.16699 47.666 12.5 72.999s21.166 51 38.499 77l87 102c10.667 10 16 26 16 48
c0 20 -5.66699 36.333 -17 49s-25 19 -41 19c-17.333 0 -31 -5 -41 -15c-9.33301 -7.33301 -16.166 -18.666 -20.499 -33.999s-6.5 -33.666 -6.5 -54.999h-181z" />
    <glyph glyph-name=".notdef.020" unicode="&#x1ee7;" horiz-adv-x="1229" 
d="M848 1135l272.003 -0.000976562v-1135h-250v121c-28.667 -52 -68.334 -91.333 -119.001 -118s-108.334 -40 -173.001 -40c-70 0 -135.333 13 -196 39s-114.334 64.167 -161.001 114.5s-78 109.166 -94 176.499c-5.33301 24.667 -9.33301 52.667 -12 84s-4 70.333 -4 117
v641h272v-557c0 -46.667 2 -89.667 6 -129s13.667 -73.666 29 -102.999c18 -35.333 44.5 -63.666 79.5 -84.999s73.167 -32 114.5 -32c92 0 157 37.667 195 113c27.333 56 41 134.667 41 236v557zM371.003 1520l-0.000976562 33.002l4 42
c0 0.666992 0.166992 1.16699 0.5 1.5s0.5 1.16602 0.5 2.49902c1.33301 4 2.83301 8.16699 4.5 12.5s5.5 11.5 11.5 21.5h-1c4.66699 12.667 11.334 25.167 20.001 37.5s19 25.166 31 38.499c9.33301 9.33301 20.333 18.166 33 26.499s27.667 16.166 45 23.499
c40 14.667 74.333 22 103 22c34 0 64.667 -5.66699 92 -17s52.333 -28.666 75 -51.999c44.667 -44.667 67 -99 67 -163c0 -25.333 -7.16699 -51 -21.5 -77s-34.833 -50.667 -61.5 -74c-22.667 -21.333 -40 -44 -52 -68s-18 -48.667 -18 -74h-180
c0 23.333 4.16699 47.666 12.5 72.999s21.166 51 38.499 77l87 102c10.667 10 16 26 16 48c0 20 -5.66699 36.333 -17 49s-25 19 -41 19c-17.333 0 -31 -5 -41 -15c-9.33301 -7.33301 -16.166 -18.666 -20.499 -33.999s-6.5 -33.666 -6.5 -54.999h-181z" />
    <glyph glyph-name=".notdef.081" unicode="&#x1ee8;" 
d="M1161 1389l-0.00195312 -820.002c0 -88.667 -6 -160.667 -18 -216c-16 -74.667 -46.667 -139 -92 -193c-48.667 -58 -108.834 -105.333 -180.501 -142s-145.5 -55 -221.5 -55c-70 0 -139.833 17 -209.5 51s-129 78.833 -178 134.5s-83.167 121.5 -102.5 197.5
c-6.66699 28 -11.667 59.833 -15 95.5s-5 78.167 -5 127.5v944h281v-944v-39c0 -18.667 0.333008 -35.667 1 -51s2.33398 -32.166 5.00098 -50.499s10.334 -39.5 23.001 -63.5c20 -39.333 47.667 -70.666 83 -93.999s74.333 -35 117 -35c37.333 0 72.833 9 106.5 27
s61.834 44.333 84.501 79c18 30 30 66.333 36 109c3.33301 28.667 5 68 5 118v944h155v123h273v-247h-148zM478.998 1634l-102 189l461 272l108 -213z" />
    <glyph glyph-name=".notdef.015" unicode="&#x1ee9;" horiz-adv-x="1229" 
d="M438 1255l-102 189l461 272l108 -213zM1120 1024l0.00292969 -1024h-250v121c-28.667 -52 -68.334 -91.333 -119.001 -118s-108.334 -40 -173.001 -40c-70 0 -135.333 13 -196 39s-114.334 64.167 -161.001 114.5s-78 109.166 -94 176.499
c-5.33301 24.667 -9.33301 52.667 -12 84s-4 70.333 -4 117v641h272v-557c0 -46.667 2 -89.667 6 -129s13.667 -73.666 29 -102.999c18 -35.333 44.5 -63.666 79.5 -84.999s73.167 -32 114.5 -32c92 0 157 37.667 195 113c27.333 56 41 134.667 41 236v557h151v137h273v-248
h-152z" />
    <glyph glyph-name=".notdef.082" unicode="&#x1eea;" 
d="M1161 1389l-0.00195312 -820.002c0 -88.667 -6 -160.667 -18 -216c-16 -74.667 -46.667 -139 -92 -193c-48.667 -58 -108.834 -105.333 -180.501 -142s-145.5 -55 -221.5 -55c-70 0 -139.833 17 -209.5 51s-129 78.833 -178 134.5s-83.167 121.5 -102.5 197.5
c-6.66699 28 -11.667 59.833 -15 95.5s-5 78.167 -5 127.5v944h281v-944v-39c0 -18.667 0.333008 -35.667 1 -51s2.33398 -32.166 5.00098 -50.499s10.334 -39.5 23.001 -63.5c20 -39.333 47.667 -70.666 83 -93.999s74.333 -35 117 -35c37.333 0 72.833 9 106.5 27
s61.834 44.333 84.501 79c18 30 30 66.333 36 109c3.33301 28.667 5 68 5 118v944h155v123h273v-247h-148zM376.998 1890l117 209l454 -276l-108 -189z" />
    <glyph glyph-name=".notdef.016" unicode="&#x1eeb;" horiz-adv-x="1229" 
d="M336 1511l117 209l454 -276l-108 -189zM1120 1024l0.00292969 -1024h-250v121c-28.667 -52 -68.334 -91.333 -119.001 -118s-108.334 -40 -173.001 -40c-70 0 -135.333 13 -196 39s-114.334 64.167 -161.001 114.5s-78 109.166 -94 176.499
c-5.33301 24.667 -9.33301 52.667 -12 84s-4 70.333 -4 117v641h272v-557c0 -46.667 2 -89.667 6 -129s13.667 -73.666 29 -102.999c18 -35.333 44.5 -63.666 79.5 -84.999s73.167 -32 114.5 -32c92 0 157 37.667 195 113c27.333 56 41 134.667 41 236v557h151v137h273v-248
h-152z" />
    <glyph glyph-name=".notdef.080" unicode="&#x1eec;" 
d="M1161 1389l-0.00195312 -820.002c0 -88.667 -6 -160.667 -18 -216c-16 -74.667 -46.667 -139 -92 -193c-48.667 -58 -108.834 -105.333 -180.501 -142s-145.5 -55 -221.5 -55c-70 0 -139.833 17 -209.5 51s-129 78.833 -178 134.5s-83.167 121.5 -102.5 197.5
c-6.66699 28 -11.667 59.833 -15 95.5s-5 78.167 -5 127.5v944h281v-944v-39c0 -18.667 0.333008 -35.667 1 -51s2.33398 -32.166 5.00098 -50.499s10.334 -39.5 23.001 -63.5c20 -39.333 47.667 -70.666 83 -93.999s74.333 -35 117 -35c37.333 0 72.833 9 106.5 27
s61.834 44.333 84.501 79c18 30 30 66.333 36 109c3.33301 28.667 5 68 5 118v944h155v123h273v-247h-148zM404.998 1912l-0.000976562 32.998l4 42c0 0.666992 0.166992 1.16699 0.5 1.5s0.5 1.16602 0.5 2.49902c1.33301 4 2.83301 8.16699 4.5 12.5s5.5 11.5 11.5 21.5
h-1c4.66699 12.667 11.334 25.167 20.001 37.501c8.66699 12.333 19 25.166 31 38.5c9.33301 9.33301 20.333 18.166 33 26.5c12.667 8.33301 27.667 16.166 45 23.5c40 14.667 74.333 22 103 22c34 0 64.667 -5.66699 92 -17s52.333 -28.666 75 -51.999
c44.667 -44.667 67 -99 67 -163c0 -25.333 -7.16699 -51 -21.5 -77s-34.833 -50.667 -61.5 -74c-22.667 -21.333 -40 -44 -52 -68s-18 -48.667 -18 -74h-180c0 23.333 4.16699 47.666 12.5 72.999s21.166 51 38.499 77l87 102c10.667 10 16 26 16 48
c0 20 -5.66699 36.333 -17 49s-25 19 -41 19c-17.333 0 -31 -5 -41 -15c-9.33301 -7.33301 -16.166 -18.666 -20.499 -33.999s-6.5 -33.666 -6.5 -54.999h-181z" />
    <glyph glyph-name=".notdef.014" unicode="&#x1eed;" horiz-adv-x="1229" 
d="M1120 1024l0.00292969 -1024h-250v121c-28.667 -52 -68.334 -91.333 -119.001 -118s-108.334 -40 -173.001 -40c-70 0 -135.333 13 -196 39s-114.334 64.167 -161.001 114.5s-78 109.166 -94 176.499c-5.33301 24.667 -9.33301 52.667 -12 84s-4 70.333 -4 117v641h272
v-557c0 -46.667 2 -89.667 6 -129s13.667 -73.666 29 -102.999c18 -35.333 44.5 -63.666 79.5 -84.999s73.167 -32 114.5 -32c92 0 157 37.667 195 113c27.333 56 41 134.667 41 236v557h151v137h273v-248h-152zM371.003 1520l-0.000976562 33.002l4 42
c0 0.666992 0.166992 1.16699 0.5 1.5s0.5 1.16602 0.5 2.49902c1.33301 4 2.83301 8.16699 4.5 12.5s5.5 11.5 11.5 21.5h-1c4.66699 12.667 11.334 25.167 20.001 37.5s19 25.166 31 38.499c9.33301 9.33301 20.333 18.166 33 26.499s27.667 16.166 45 23.499
c40 14.667 74.333 22 103 22c34 0 64.667 -5.66699 92 -17s52.333 -28.666 75 -51.999c44.667 -44.667 67 -99 67 -163c0 -25.333 -7.16699 -51 -21.5 -77s-34.833 -50.667 -61.5 -74c-22.667 -21.333 -40 -44 -52 -68s-18 -48.667 -18 -74h-180
c0 23.333 4.16699 47.666 12.5 72.999s21.166 51 38.499 77l87 102c10.667 10 16 26 16 48c0 20 -5.66699 36.333 -17 49s-25 19 -41 19c-17.333 0 -31 -5 -41 -15c-9.33301 -7.33301 -16.166 -18.666 -20.499 -33.999s-6.5 -33.666 -6.5 -54.999h-181z" />
    <glyph glyph-name=".notdef.079" unicode="&#x1eee;" 
d="M1161 1389l-0.00195312 -820.002c0 -88.667 -6 -160.667 -18 -216c-16 -74.667 -46.667 -139 -92 -193c-48.667 -58 -108.834 -105.333 -180.501 -142s-145.5 -55 -221.5 -55c-70 0 -139.833 17 -209.5 51s-129 78.833 -178 134.5s-83.167 121.5 -102.5 197.5
c-6.66699 28 -11.667 59.833 -15 95.5s-5 78.167 -5 127.5v944h281v-944v-39c0 -18.667 0.333008 -35.667 1 -51s2.33398 -32.166 5.00098 -50.499s10.334 -39.5 23.001 -63.5c20 -39.333 47.667 -70.666 83 -93.999s74.333 -35 117 -35c37.333 0 72.833 9 106.5 27
s61.834 44.333 84.501 79c18 30 30 66.333 36 109c3.33301 28.667 5 68 5 118v944h155v123h273v-247h-148zM399.998 1654l-100.002 179.998c24 22.667 54.667 41 92 55s74.666 21 111.999 21c29.333 0 62 -6 98 -18c76.667 -25.333 120.667 -38.666 132 -39.999
c24 0 48.333 5 73 15s47.334 24.333 68.001 43l103 -175c-31.333 -28 -62.666 -50 -93.999 -66s-65.666 -24 -102.999 -24c-29.333 0 -70.5 9 -123.5 27s-93.833 27 -122.5 27c-22.667 0 -45.5 -3.66699 -68.5 -11s-45.167 -18.666 -66.5 -33.999z" />
    <glyph glyph-name=".notdef.013" unicode="&#x1eef;" horiz-adv-x="1229" 
d="M1120 1024l0.00292969 -1024h-250v121c-28.667 -52 -68.334 -91.333 -119.001 -118s-108.334 -40 -173.001 -40c-70 0 -135.333 13 -196 39s-114.334 64.167 -161.001 114.5s-78 109.166 -94 176.499c-5.33301 24.667 -9.33301 52.667 -12 84s-4 70.333 -4 117v641h272
v-557c0 -46.667 2 -89.667 6 -129s13.667 -73.666 29 -102.999c18 -35.333 44.5 -63.666 79.5 -84.999s73.167 -32 114.5 -32c92 0 157 37.667 195 113c27.333 56 41 134.667 41 236v557h271v137h237v-252zM379.003 1298l-100 180.999
c24.667 23.333 55.5 41.666 92.5 54.999s74.167 20 111.5 20c28 0 60.667 -6 98 -18c77.333 -26 121.333 -39 132 -39c26.667 0 51.167 4.83301 73.5 14.5s44.833 23.834 67.5 42.501l102 -174c-30 -27.333 -60.833 -49.166 -92.5 -65.499s-66.167 -24.5 -103.5 -24.5
c-16 0 -34.333 2 -55 6s-44.667 10.667 -72 20c-52 18 -91.667 27 -119 27c-48.667 0 -93.667 -15 -135 -45z" />
    <glyph glyph-name=".notdef.078" unicode="&#x1ef0;" 
d="M516 -412v273h273v-273h-273zM1161 1389v-820.001c0 -88 -6 -160 -18 -216c-16 -74.667 -46.667 -139 -92 -193c-48 -58 -108.167 -105.333 -180.5 -142s-146.166 -55 -221.499 -55c-70 0 -139.833 17 -209.5 51s-128.834 78.833 -177.501 134.5s-83 121.5 -103 197.5
c-6 28.667 -11 60.334 -15 95.001c0 14.667 -0.833008 37 -2.5 67s-2.5 50.333 -2.5 61v944h281v-944v-39l1 -51c0 -7.33301 0.333008 -15.333 1 -24s2 -17.667 4 -27c2 -19.333 9.66699 -40.333 23 -63c20 -39.333 47.667 -70.666 83 -93.999s74.333 -35 117 -35
c36.667 0 72 9 106 27s62.333 44.333 85 79c18 30 30 66.333 36 109c3.33301 31.333 5 70.666 5 117.999v944h155v123h273v-247h-148z" />
    <glyph glyph-name=".notdef.012" unicode="&#x1ef1;" horiz-adv-x="1229" 
d="M500 -145h272v-261h-272v261zM1120 1024l0.00292969 -1024h-250v121c-28.667 -52 -68.334 -91.333 -119.001 -118s-108.334 -40 -173.001 -40c-70 0 -135.333 13 -196 39s-114.334 64.167 -161.001 114.5s-78 109.166 -94 176.499
c-5.33301 24.667 -9.33301 52.667 -12 84s-4 70.333 -4 117v641h272v-557c0 -46.667 2 -89.667 6 -129s13.667 -73.666 29 -102.999c18 -35.333 44.5 -63.666 79.5 -84.999s73.167 -32 114.5 -32c92 0 157 37.667 195 113c27.333 56 41 134.667 41 236v557h151v137h273v-248
h-152z" />
    <glyph glyph-name=".notdef.071" unicode="&#x1ef2;" horiz-adv-x="1270" 
d="M504 0v559l-498 954h309l330 -696l330 696h307l-498 -954v-559h-280zM315 1878l117 209l455 -277l-109 -188z" />
    <glyph glyph-name=".notdef.005" unicode="&#x1ef3;" horiz-adv-x="1188" 
d="M219 -379l209 485l-416 1029h310l260 -727l272 727h309l-651 -1514h-293zM295 1511l117 209l454 -276l-108 -189z" />
    <glyph glyph-name=".notdef.067" unicode="&#x1ef4;" horiz-adv-x="1270" 
d="M504 0v559l-498 954h309l330 -696l330 696h307l-498 -954v-559h-280zM516 -412v273h272v-273h-272z" />
    <glyph glyph-name=".notdef.001" unicode="&#x1ef5;" horiz-adv-x="1188" 
d="M219 -379l209 485l-416 1029h310l260 -727l272 727h309l-651 -1514h-293zM711 -145h272v-261h-272v261z" />
    <glyph glyph-name=".notdef.069" unicode="&#x1ef6;" horiz-adv-x="1270" 
d="M504 0v559l-498 954h309l330 -696l330 696h307l-498 -954v-559h-280zM416 1912l-0.000976562 32.998l4 42c0 0.666992 0.166992 1.16699 0.5 1.5s0.5 1.16602 0.5 2.49902c1.33301 4 2.83301 8.16699 4.5 12.5s5.5 11.5 11.5 21.5h-1
c4.66699 12.667 11.334 25.167 20.001 37.501c8.66699 12.333 19 25.166 31 38.5c9.33301 9.33301 20.333 18.166 33 26.5c12.667 8.33301 27.667 16.166 45 23.5c40 14.667 74.333 22 103 22c34 0 64.667 -5.66699 92 -17s52.333 -28.666 75 -51.999
c44.667 -44.667 67 -99 67 -163c0 -25.333 -7.16699 -51 -21.5 -77s-34.833 -50.667 -61.5 -74c-22.667 -21.333 -40 -44 -52 -68s-18 -48.667 -18 -74h-180c0 23.333 4.16699 47.666 12.5 72.999s21.166 51 38.499 77l87 102c10.667 10 16 26 16 48
c0 20 -5.66699 36.333 -17 49s-25 19 -41 19c-17.333 0 -31 -5 -41 -15c-9.33301 -7.33301 -16.166 -18.666 -20.499 -33.999s-6.5 -33.666 -6.5 -54.999h-181z" />
    <glyph glyph-name=".notdef.003" unicode="&#x1ef7;" horiz-adv-x="1188" 
d="M219 -379l209 485l-416 1029h310l260 -727l272 727h309l-651 -1514h-293zM337 1518l-0.000976562 33.002l4 42c0 0.666992 0.166992 1.16699 0.5 1.5s0.5 1.16602 0.5 2.49902c1.33301 4 2.83301 8.16699 4.5 12.5s5.5 11.5 11.5 21.5h-1
c4.66699 12.667 11.334 25.167 20.001 37.5s19 25.166 31 38.499c9.33301 9.33301 20.333 18.166 33 26.499s27.667 16.166 45 23.499c40 14.667 74.333 22 103 22c34 0 64.667 -5.66699 92 -17s52.333 -28.666 75 -51.999c44.667 -44.667 67 -99 67 -163
c0 -25.333 -7.16699 -51 -21.5 -77s-34.833 -50.667 -61.5 -74c-22.667 -21.333 -40 -44 -52 -68s-18 -48.667 -18 -74h-180c0 23.333 4.16699 47.666 12.5 72.999s21.166 51 38.499 77l87 102c10.667 10 16 26 16 48c0 20 -5.66699 36.333 -17 49s-25 19 -41 19
c-17.333 0 -31 -5 -41 -15c-9.33301 -7.33301 -16.166 -18.666 -20.499 -33.999s-6.5 -33.666 -6.5 -54.999h-181z" />
    <glyph glyph-name=".notdef.068" unicode="&#x1ef8;" horiz-adv-x="1270" 
d="M504 0v559l-498 954h309l330 -696l330 696h307l-498 -954v-559h-280zM400 1654l-100.002 179.998c24 22.667 54.667 41 92 55s74.666 21 111.999 21c29.333 0 62 -6 98 -18c76.667 -25.333 120.667 -38.666 132 -39.999c24 0 48.333 5 73 15s47.334 24.333 68.001 43
l103 -175c-31.333 -28 -62.666 -50 -93.999 -66s-65.666 -24 -102.999 -24c-29.333 0 -70.5 9 -123.5 27s-93.833 27 -122.5 27c-22.667 0 -45.5 -3.66699 -68.5 -11s-45.167 -18.666 -66.5 -33.999z" />
    <glyph glyph-name=".notdef.002" unicode="&#x1ef9;" horiz-adv-x="1188" 
d="M219 -379l209 485l-416 1029h310l260 -727l272 727h309l-651 -1514h-293zM379 1298l-100 180.999c24.667 23.333 55.5 41.666 92.5 54.999s74.167 20 111.5 20c28 0 60.667 -6 98 -18c77.333 -26 121.333 -39 132 -39c26.667 0 51.167 4.83301 73.5 14.5
s44.833 23.834 67.5 42.501l102 -174c-30 -27.333 -60.833 -49.166 -92.5 -65.499s-66.167 -24.5 -103.5 -24.5c-16 0 -34.333 2 -55 6s-44.667 10.667 -72 20c-52 18 -91.667 27 -119 27c-48.667 0 -93.667 -15 -135 -45z" />
    <glyph glyph-name="quoteleft" unicode="&#x2018;" horiz-adv-x="451" 
d="M152 1051v462h155v-462h-155z" />
    <glyph glyph-name="quoteright" unicode="&#x2019;" horiz-adv-x="451" 
d="M152 1051v462h155v-462h-155z" />
    <glyph glyph-name="quotedblleft" unicode="&#x201c;" horiz-adv-x="737" 
d="M152 1051v462h153v-462h-153zM426 1051v462h154v-462h-154z" />
    <glyph glyph-name="quotedblright" unicode="&#x201d;" horiz-adv-x="737" 
d="M152 1051v462h153v-462h-153zM426 1051v462h154v-462h-154z" />
    <glyph glyph-name="ellipsis" unicode="&#x2026;" horiz-adv-x="1719" 
d="M147 0v272h273v-272h-273zM720 0v272h273v-272h-273zM1293 0v272h273v-272h-273z" />
    <glyph glyph-name="nonmarkingreturn" horiz-adv-x="571" 
 />
    <glyph glyph-name="ugrave" horiz-adv-x="582" 
 />
    <glyph glyph-name="uacute" horiz-adv-x="580" 
 />
    <glyph glyph-name="yacute" horiz-adv-x="629" 
 />
  </font>
</defs>
</svg>
