<svg xmlns="http://www.w3.org/2000/svg">
<defs>
<font id="SVN-Avo" horiz-adv-x="1341" >
  <font-face 
    font-family="SVN-Avo"
    font-weight="400"
    font-stretch="normal"
    units-per-em="2048"
    panose-1="2 4 6 3 5 5 6 2 2 4"
    ascent="1638"
    descent="-410"
    x-height="1120"
    cap-height="1513"
    bbox="-92 -438.003 4553 2258"
    underline-thickness="109"
    underline-position="-143"
    unicode-range="U+0020-U+2026"
  />
<missing-glyph horiz-adv-x="4653" 
d="M788 1681v510h343v-61h-274v-157h236v-61h-236v-231h-69zM1253 1865c0 -48 10 -83.5 30 -106.5s45.333 -34.5 76 -34.5s56.334 11.5 77.001 34.5s31 58.5 31 106.5c0 46 -10.333 80.833 -31 104.5s-46.334 35.5 -77.001 35.5s-56 -11.833 -76 -35.5s-30 -58.5 -30 -104.5
zM1189 1865c0 69.333 18.666 119.667 55.999 151c30 28 68 42 114 42c24.667 0 47.5 -4.33301 68.5 -13s39.167 -21 54.5 -37s27.333 -35.667 36 -59s13 -49.666 13 -78.999c0 -34.667 -4.16699 -64.334 -12.5 -89.001s-20.166 -45 -35.499 -61s-33.5 -27.667 -54.5 -35
s-44.167 -11 -69.5 -11c-52 0 -93.333 16.167 -124 48.5s-46 79.833 -46 142.5zM1608 1681l0.00292969 369.002h58v-53c27.333 40.667 65.666 61 114.999 61c37.333 0 65.666 -9 84.999 -27s31.666 -39 36.999 -63c1.33301 -6.66699 2.5 -14.834 3.5 -24.501
s1.5 -21.834 1.5 -36.501v-226h-64v223c0 36 -6.5 61.833 -19.5 77.5s-32.167 23.5 -57.5 23.5c-13.333 0 -25.833 -2 -37.5 -6s-21.667 -10.667 -30 -20s-15 -21.833 -20 -37.5s-7.5 -35.167 -7.5 -58.5v-202h-64zM2149 1679l-25.5 -3.5
c-7.66699 -1 -14.834 -1.5 -21.5 -1.5l-44 8c-11.333 2 -20.333 6.33301 -27 13s-11.167 17 -13.5 31s-3.5 34.667 -3.5 62v214h-45v48h45v90l64 38v-128h63v-48h-63v-217c0 -12 0.5 -21.333 1.5 -28s2.83301 -11.667 5.5 -15s6.16699 -5.33301 10.5 -6s9.83301 -1 16.5 -1
h29zM2444 1851c2.66699 -37.333 16 -65.998 40 -85.998s59.333 -30 106 -30c41.333 0 72.833 7.66699 94.5 23s32.5 35.666 32.5 60.999c0 16 -4 29.667 -12 41s-22.667 21.666 -44 30.999c-6.66699 2.66699 -17.667 6 -33 10s-34.333 8.66699 -57 14

<glyph glyph-name=".notdef" horiz-adv-x="4653" 
d="M788 1681v510h343v-61h-274v-157h236v-61h-236v-231h-69zM1253 1865c0 -48 10 -83.5 30 -106.5s45.333 -34.5 76 -34.5s56.334 11.5 77.001 34.5s31 58.5 31 106.5c0 46 -10.333 80.833 -31 104.5s-46.334 35.5 -77.001 35.5s-56 -11.833 -76 -35.5s-30 -58.5 -30 -104.5
zM1189 1865c0 69.333 18.666 119.667 55.999 151c30 28 68 42 114 42c24.667 0 47.5 -4.33301 68.5 -13s39.167 -21 54.5 -37s27.333 -35.667 36 -59s13 -49.666 13 -78.999c0 -34.667 -4.16699 -64.334 -12.5 -89.001s-20.166 -45 -35.499 -61s-33.5 -27.667 -54.5 -35
s-44.167 -11 -69.5 -11c-52 0 -93.333 16.167 -124 48.5s-46 79.833 -46 142.5zM1608 1681l0.00292969 369.002h58v-53c27.333 40.667 65.666 61 114.999 61c37.333 0 65.666 -9 84.999 -27s31.666 -39 36.999 -63c1.33301 -6.66699 2.5 -14.834 3.5 -24.501
s1.5 -21.834 1.5 -36.501v-226h-64v223c0 36 -6.5 61.833 -19.5 77.5s-32.167 23.5 -57.5 23.5c-13.333 0 -25.833 -2 -37.5 -6s-21.667 -10.667 -30 -20s-15 -21.833 -20 -37.5s-7.5 -35.167 -7.5 -58.5v-202h-64zM2149 1679l-25.5 -3.5
c-7.66699 -1 -14.834 -1.5 -21.5 -1.5l-44 8c-11.333 2 -20.333 6.33301 -27 13s-11.167 17 -13.5 31s-3.5 34.667 -3.5 62v214h-45v48h45v90l64 38v-128h63v-48h-63v-217c0 -12 0.5 -21.333 1.5 -28s2.83301 -11.667 5.5 -15s6.16699 -5.33301 10.5 -6s9.83301 -1 16.5 -1
h29zM2444 1851c2.66699 -37.333 16 -65.998 40 -85.998s59.333 -30 106 -30c41.333 0 72.833 7.66699 94.5 23s32.5 35.666 32.5 60.999c0 16 -4 29.667 -12 41s-22.667 21.666 -44 30.999c-6.66699 2.66699 -17.667 6 -33 10s-34.333 8.66699 -57 14
s-42.334 10.666 -59 15.999c-16.667 5.33301 -29.667 10.666 -39 15.999c-26.667 12 -45.667 27.167 -57 45.5s-17 40.166 -17 65.499c0 19.333 4.16699 37.5 12.5 54.5s20.333 32 36 45s34.5 23.167 56.5 30.5s47 11 75 11c30 0 56.833 -3.83301 80.5 -11.5
s43.834 -18.167 60.5 -31.5c16.667 -13.333 29.667 -29.166 39 -47.499s14.666 -38.5 16 -60.5l-69 -3c-7.33301 62 -48.666 93 -124 93c-41.333 0 -70.666 -7.5 -88 -22.5c-17.333 -15 -26 -33.167 -26 -54.5c0 -18 6 -33 18 -45c7.33301 -7.33301 19 -13.666 35 -18.999
s38 -11.333 66 -18c54.667 -10.667 92 -21.334 112 -32.001c30.667 -12 52.834 -28.667 66.5 -50c13.667 -21.333 20.5 -45.333 20.5 -72c0 -22.667 -4.66699 -43.167 -14 -61.5s-22.333 -34.166 -39 -47.499s-36.667 -23.666 -60 -30.999s-49.333 -11 -78 -11
c-66.667 0 -119.167 15 -157.5 45s-57.5 73.333 -57.5 130zM3022 1681l-193 510h74l130 -372c5.33301 -14.667 10 -28.667 14 -42l12 -40c4 14.667 8.66699 28.667 14 42l16 40l140 372h69l-202 -510h-74zM3356 1681v510h72l257 -398v398h69v-510h-74l-255 396v-396h-69z
M128.002 1098c0 -46.667 9.66699 -81.333 29 -104s43 -34 71 -34s51.833 11 71.5 33s29.5 55 29.5 99c0 52 -10.167 89.833 -30.5 113.5s-44.5 35.5 -72.5 35.5s-51.333 -11.5 -70 -34.5s-28 -59.167 -28 -108.5zM327.002 917.006v45
c-24.667 -35.333 -59.334 -53 -104.001 -53c-23.333 0 -44.666 4.66699 -63.999 14s-36 22.333 -50 39s-25 36.667 -33 60s-12 49.333 -12 78c0 28 3.5 53.833 10.5 77.5s17.167 44.167 30.5 61.5s29.5 30.833 48.5 40.5s40.5 14.5 64.5 14.5
c22.667 0 42.5 -4.83301 59.5 -14.5s31.5 -22.5 43.5 -38.5v186h64v-510h-58zM725.002 917.006l-0.00292969 53.001c-15.333 -19.333 -32.666 -34.333 -51.999 -45s-41 -16 -65 -16c-37.333 0 -65.666 8.5 -84.999 25.5s-31.666 38.833 -36.999 65.5
c-1.33301 5.33301 -2.16602 12.5 -2.49902 21.5s-0.5 20.167 -0.5 33.5v231h64v-207c0 -16 0.166992 -29.333 0.5 -40s1.16602 -19.334 2.49902 -26.001c3.33301 -16 11 -28.5 23 -37.5s28 -13.5 48 -13.5c30.667 0 54.667 9.5 72 28.5s26 51.167 26 96.5v199h64v-369h-58z
M668.999 1360.01h-48l-79 99h82zM877.999 917.007l0.00292969 369.002h59v-53c26.667 40.667 64.667 61 114 61c37.333 0 65.666 -9 84.999 -27s31.666 -39 36.999 -63c1.33301 -6.66699 2.5 -14.834 3.5 -24.501s1.5 -21.834 1.5 -36.501v-226h-63v223
c0 36 -6.5 61.833 -19.5 77.5s-32.167 23.5 -57.5 23.5c-13.333 0 -25.833 -2 -37.5 -6s-21.834 -10.667 -30.501 -20s-15.5 -21.833 -20.5 -37.5s-7.5 -35.167 -7.5 -58.5v-202h-64zM1311 1106.01c0 -48 9.33301 -82.667 28 -104s42 -32 70 -32s51.833 10.667 71.5 32
s29.5 56 29.5 104c0 44 -9.83301 77.5 -29.5 100.5s-43.5 34.5 -71.5 34.5s-51.333 -11.5 -70 -34.5s-28 -56.5 -28 -100.5zM1324 883.009c1.33301 -10.667 3.50293 -19.832 6.50293 -27.499s7.83301 -13.5 14.5 -17.5c13.333 -10.667 33.666 -16 60.999 -16
c28 0 49.667 5.16699 65 15.5s25.666 25.5 30.999 45.5c3.33301 14.667 5 41 5 79c-14.667 -14.667 -30.167 -25.834 -46.5 -33.501s-34.5 -11.5 -54.5 -11.5c-26 0 -48.833 4.83301 -68.5 14.5s-36.167 23 -49.5 40s-23.5 36.667 -30.5 59s-10.5 46.5 -10.5 72.5
c0 26.667 3.66699 51.5 11 74.5s17.666 43.167 30.999 60.5s29.833 31 49.5 41s42.167 15 67.5 15c41.333 0 77 -17.667 107 -53v45h58v-318c0.666992 -42 -2.33301 -75.333 -9 -100s-17 -43.834 -31 -57.501s-31.5 -23.167 -52.5 -28.5s-45.833 -9.66602 -74.5 -12.999
c-42.667 0 -77.5 9.66699 -104.5 29s-39.833 50.333 -38.5 93zM1921 1103.01c0 -46 5.33301 -77.667 16 -95c18.667 -32 45.334 -48 80.001 -48c14 0 27.167 2.83301 39.5 8.5s23.166 14.334 32.499 26.001s16.833 26.167 22.5 43.5s8.5 38 8.5 62c0 48 -9.66699 84 -29 108
s-42.333 36 -69 36c-28 0 -51.833 -11.833 -71.5 -35.5s-29.5 -58.834 -29.5 -105.501zM1924 917.011h-61.001v510h63v-183c12 17.333 26.5 30 43.5 38s36.167 12 57.5 12c22.667 0 43.5 -4.66699 62.5 -14s35.5 -22.333 49.5 -39s25 -36.5 33 -59.5s12 -48.167 12 -75.5
c0 -32 -4.33301 -60.333 -13 -85s-20.167 -45.167 -34.5 -61.5s-31.166 -28.833 -50.5 -37.5c-19.333 -8.66699 -39.666 -13 -60.999 -13c-22.667 0 -42.167 4.5 -58.5 13.5s-30.5 22.167 -42.5 39.5v-45zM2500 1103.01c-12 -5.33301 -26.667 -9.83496 -44 -13.502
s-37.333 -7.16699 -60 -10.5c-18 -3.33301 -32.667 -6.66602 -44 -9.99902s-20.333 -7.5 -27 -12.5s-11.167 -10.667 -13.5 -17s-3.5 -14.166 -3.5 -23.499c0 -17.333 6.16699 -31.5 18.5 -42.5s31.166 -16.5 56.5 -16.5c22.667 0 43.667 4.83301 63 14.5
s33.666 24.5 43 44.5c5.33301 14 8 35 8 63zM2502 962.009c-22.667 -19.333 -44.5 -33.001 -65.5 -41.001s-44.167 -12 -69.5 -12c-41.333 0 -72.5 9.66699 -93.5 29s-31.5 44.333 -31.5 75c0 29.333 8.66699 52.333 26 69s38 29 62 37
c6.66699 1.33301 14.667 2.66602 24 3.99902s19.666 2.66602 31 3.99902c50.667 8 88 16 112 24c1.33301 4 2.16602 7.33301 2.5 10c0.333008 2.66699 0.5 4.66699 0.5 6c0 24.667 -6.33301 42.334 -19 53.001c-17.333 14 -41.333 21 -72 21s-52.834 -5.16699 -66.5 -15.5
c-13.667 -10.333 -23.167 -28.166 -28.5 -53.499l-64 8c8 37.333 24.833 65.666 50.5 84.999s63.834 29 114.5 29c24.667 0 45.334 -2.16699 62 -6.5c16.667 -4.33301 30.334 -10.166 41 -17.499c10.667 -7.33301 18.834 -16 24.5 -26c5.66699 -10 9.83398 -20.667 12.5 -32
c1.33301 -6.66699 2.66602 -14.667 4 -24c1.33301 -9.33301 2 -20.666 2 -33.999v-85c0 -28.667 0.166992 -51.5 0.5 -68.5s1 -30.667 2 -41s2.66699 -18.5 5 -24.5s5.83301 -12 10.5 -18h-64c-4 7.33301 -6.83301 14.333 -8.5 21s-3.16699 14.667 -4.5 24zM2407 1406.01
c14 0 22 0.664062 24 1.99707c11.333 2.66699 18.333 7 21 13c0 6.66699 -3.66699 11.334 -11 14.001c-10.667 5.33301 -26.667 8 -48 8c-4 0 -8.5 -0.166992 -13.5 -0.5s-10.833 -1.16602 -17.5 -2.49902l-3 35c4 1.33301 10 2 18 2h30
c14.667 -1.33301 27.834 -3.33301 39.5 -6c11.667 -2.66699 22.167 -6 31.5 -10c18 -7.33301 28.667 -19.666 32 -36.999c0 -24 -21.333 -37.333 -64 -40v-18h-39v40zM2656 917.005v369.002h58v-53c27.333 40.667 65.666 61 115 61c37.333 0 65.666 -9 85 -27
c19.333 -18 31.666 -39 37 -63c1.33301 -6.66699 2.5 -14.834 3.5 -24.501s1.5 -21.834 1.5 -36.501v-226h-64v223c0 36 -6.5 61.833 -19.5 77.5s-32.167 23.5 -57.5 23.5c-13.333 0 -25.833 -2 -37.5 -6s-21.667 -10.667 -30 -20s-15 -21.833 -20 -37.5
s-7.5 -35.167 -7.5 -58.5v-202h-64zM3089 1106.01c0 -48 9.33301 -82.667 28 -104s42 -32 70 -32s51.667 10.667 71 32s29 56 29 104c0 44 -9.66699 77.5 -29 100.5s-43 34.5 -71 34.5s-51.333 -11.5 -70 -34.5s-28 -56.5 -28 -100.5zM3102 883.007
c2 -22.667 9 -37.665 21 -44.998c12.667 -10.667 33 -16 61 -16s49.667 5.16699 65 15.5s25.666 25.5 31 45.5c1.33301 6.66699 2.5 16.667 3.5 30s1.5 29.666 1.5 48.999c-14.667 -14.667 -30.167 -25.834 -46.5 -33.501s-34.5 -11.5 -54.5 -11.5
c-26 0 -48.833 4.83301 -68.5 14.5s-36.167 23 -49.5 40s-23.5 36.667 -30.5 59s-10.5 46.5 -10.5 72.5c0 26.667 3.5 51.5 10.5 74.5s17.333 43.167 31 60.5s30.334 31 50 41c19.667 10 42.167 15 67.5 15c41.333 0 76.666 -17.667 106 -53v45h59v-318
c0.666992 -42 -2.5 -75.333 -9.5 -100s-17.5 -43.834 -31.5 -57.501s-31.5 -23.167 -52.5 -28.5s-45.833 -9.66602 -74.5 -12.999c-42.667 0 -77.5 9.66699 -104.5 29s-39.833 50.333 -38.5 93zM3640 917.009v369.001h59v-53c12 17.333 27.167 31.833 45.5 43.5
s40.166 17.5 65.5 17.5c28 0 50.5 -5.66699 67.5 -17s29.167 -27 36.5 -47c28.667 42.667 67.334 64 116 64c76 0 114 -41.667 114 -125v-252h-63v231c0 34 -5.16699 58 -15.5 72s-27.5 21 -51.5 21c-25.333 0 -46.666 -8.83301 -64 -26.5
c-17.333 -17.667 -26 -45.834 -26 -84.501v-213h-63v239c0 28 -5 49.167 -15 63.5s-26.333 21.5 -49 21.5c-29.333 0 -52.166 -10.167 -68.5 -30.5c-16.333 -20.333 -24.5 -54.5 -24.5 -102.5v-191h-64zM4473 1103.01c-11.334 -5.33301 -25.667 -9.83496 -43 -13.502
c-17.334 -3.66699 -37.334 -7.16699 -60 -10.5c-18 -3.33301 -32.666 -6.66602 -44 -9.99902s-20.334 -7.5 -27 -12.5s-11.166 -10.667 -13.5 -17s-3.5 -14.166 -3.5 -23.499c0 -17.333 6.16602 -31.5 18.5 -42.5s31.167 -16.5 56.5 -16.5c22.666 0 43.666 4.83301 63 14.5
s33.667 24.5 43 44.5c5.33398 14 8 35 8 63zM4476 962.008c-22.666 -19.333 -44.5 -33 -65.5 -41s-44.166 -12 -69.5 -12c-41.334 0 -72.5 9.66699 -93.5 29s-31.5 44.333 -31.5 75c0 29.333 8.66602 52.333 26 69s38 29 62 37c6.66602 1.33301 14.5 2.66602 23.5 3.99902
s19.5 2.66602 31.5 3.99902c50.666 8 88 16 112 24c1.33398 4 2 7.33301 2 10v6c0 25.333 -6 43 -18 53c-17.334 14 -41.334 21 -72 21s-52.833 -5.16699 -66.5 -15.5c-13.666 -10.333 -23.166 -28.166 -28.5 -53.499l-64 8c8 37.333 24.834 65.666 50.5 84.999
s63.833 29 114.5 29c24.666 0 45.333 -2.16699 62 -6.5c16.666 -4.33301 30.333 -10.166 41 -17.499c10.666 -7.33301 18.833 -16 24.5 -26c5.66602 -10 9.83301 -20.667 12.5 -32c1.33398 -6.66699 2.5 -14.667 3.5 -24s1.5 -20.666 1.5 -33.999v-85
c0 -28.667 0.166016 -51.5 0.5 -68.5s1 -30.667 2 -41s2.83398 -18.5 5.5 -24.5s6.33301 -12 11 -18h-64c-4 7.33301 -6.83398 14.333 -8.5 21s-3.16602 14.667 -4.5 24zM4288 1350.01c-1.33398 21.333 4.5 39.001 17.5 53.001s30.166 21 51.5 21
c6.66602 0 15 -1.83301 25 -5.5s21 -8.83398 33 -15.501c14 -5.33301 24.666 -8 32 -8c6.66602 0 12.333 2.5 17 7.5c4.66602 5 7.66602 12.167 9 21.5h46c-2.66602 -49.333 -25.666 -74 -69 -74c-7.33398 0 -16 1.33301 -26 4s-21 6.66699 -33 12
c-8 4 -14.666 7.16699 -20 9.5s-10 3.5 -14 3.5c-19.334 0 -27.334 -9.66699 -24 -29h-45zM1364 535.009l69 0.000976562v-294c0 -36 -3.33301 -67.833 -10 -95.5s-17.834 -51 -33.501 -70s-36.167 -33.333 -61.5 -43s-56.666 -14.5 -93.999 -14.5
c-36.667 0 -67.667 4.16699 -93 12.5s-45.833 21.5 -61.5 39.5s-27 41 -34 69s-10.5 62 -10.5 102v294h69v-291c0 -31.333 2.16699 -57.333 6.5 -78s11.5 -37.334 21.5 -50.001s23 -21.5 39 -26.5s35.333 -7.5 58 -7.5c24 0 44.5 2.5 61.5 7.5s31 13.5 42 25.5
s19 28.5 24 49.5s7.5 47.5 7.5 79.5v291zM1539 26.0098l-0.000976562 369.001h58v-53c13.333 19.333 29.5 34.333 48.5 45s41.167 16 66.5 16c36.667 0 64.834 -9.16699 84.501 -27.5s32.167 -39.5 37.5 -63.5c1.33301 -6.66699 2.5 -14.667 3.5 -24
s1.5 -21.666 1.5 -36.999v-225h-64v223c0 36 -6.5 61.833 -19.5 77.5s-32.167 23.5 -57.5 23.5c-13.333 0 -25.833 -2 -37.5 -6s-21.667 -10.833 -30 -20.5s-15 -22.334 -20 -38.001s-7.5 -34.834 -7.5 -57.501v-202h-64zM1934 26.0107v369h64v-369h-64zM1934 464.011v71h64
v-71h-64zM2396 153.011c-6.66699 -42.667 -24.335 -75.835 -53.001 -99.502c-28.667 -23.667 -62.334 -35.5 -101 -35.5c-52 0 -92.833 16.333 -122.5 49s-44.5 79 -44.5 139c0 62.667 14.833 111.167 44.5 145.5s69.834 51.5 120.501 51.5c41.333 0 74 -10.167 98 -30.5
s40.667 -49.166 50 -86.499l-64 -8c-6.66699 22.667 -17 40.667 -31 54s-31 20 -51 20c-32 0 -57.167 -11.5 -75.5 -34.5s-27.5 -59.167 -27.5 -108.5s9 -85.166 27 -107.499s42.667 -33.5 74 -33.5c51.333 0 82 31 92 93zM2489 209.01c0 -48 10 -83.5 30 -106.5
s45.333 -34.5 76 -34.5s56.5 11.5 77.5 34.5s31.5 58.5 31.5 106.5c0 46.667 -10.5 81.834 -31.5 105.501s-46.833 35.5 -77.5 35.5s-56 -11.833 -76 -35.5s-30 -58.834 -30 -105.501zM2425 209.01c0 68.667 18.667 118.999 56 150.999c31.333 28.667 69.333 43 114 43
c24.667 0 47.5 -4.33301 68.5 -13s39.167 -21.167 54.5 -37.5s27.333 -36.166 36 -59.499s13 -49.666 13 -78.999c0 -34.667 -4.16699 -64.334 -12.5 -89.001s-20.166 -45 -35.5 -61c-15.333 -16 -33.5 -27.667 -54.5 -35s-44.167 -11 -69.5 -11
c-52 0 -93.333 16.167 -124 48.5s-46 79.833 -46 142.5zM2884 206.009c0 -46 9.83301 -80.501 29.5 -103.501s43.5 -34.5 71.5 -34.5s51.833 11.167 71.5 33.5s29.5 55.5 29.5 99.5c0 52 -10.333 89.833 -31 113.5s-45 35.5 -73 35.5c-27.333 0 -50.5 -11.667 -69.5 -35
s-28.5 -59.666 -28.5 -108.999zM3083 26.0078v45c-24.667 -35.333 -59 -53 -103 -53c-23.333 0 -44.666 4.66699 -64 14c-19.333 9.33301 -36 22.333 -50 39s-25 36.667 -33 60s-12 49.333 -12 78c0 28 3.5 53.833 10.5 77.5s17.167 44.167 30.5 61.5s29.333 30.833 48 40.5
s40 14.5 64 14.5c23.333 0 43.5 -5 60.5 -15s31.5 -22.667 43.5 -38v185h64v-509h-59zM3497 244.008c-1.33301 15.333 -4.33301 29 -9 41s-10.334 22 -17 30c-22.667 24.667 -49.334 37 -80 37c-30.667 0 -56.167 -10 -76.5 -30s-31.166 -46 -32.5 -78h215zM3558 137.008
c-10.667 -38.667 -30 -68.167 -58 -88.5s-63.333 -30.5 -106 -30.5c-54.667 0 -98 16.333 -130 49s-48 79 -48 139c0 62.667 15.667 111.167 47 145.5s73 51.5 125 51.5c26 0 49.667 -4.5 71 -13.5s39.5 -22 54.5 -39s26.667 -37.333 35 -61s12.5 -50.5 12.5 -80.5
c0 -1.33301 -0.166992 -3.33301 -0.5 -6s-1.16602 -6 -2.5 -10h-278c1.33301 -41.333 12.666 -72.5 34 -93.5c21.333 -21 48 -31.5 80 -31.5c25.333 0 46 5.83301 62 17.5s28.667 31.5 38 59.5z" />
    <glyph glyph-name="space" unicode=" " horiz-adv-x="567" 
 />
    <glyph glyph-name="exclam" unicode="!" horiz-adv-x="604" 
d="M227 0v258h152v-258h-152zM227 395v1118h152v-1118h-152z" />
    <glyph glyph-name="quotedbl" unicode="&#x22;" horiz-adv-x="633" 
d="M152 1051v462h106v-462h-106zM379 1051v462h106v-462h-106z" />
    <glyph glyph-name="numbersign" unicode="#" horiz-adv-x="1135" 
d="M164 0l151 512h-305l33 119h307l74 252h-305l33 118h309l149 512h86l-147 -512h182l152 512h84l-150 -512h307l-32 -118h-310l-73 -252h307l-35 -119h-309l-150 -512h-88l152 512h-185l-151 -512h-86zM436 631h187l71 252h-184z" />
    <glyph glyph-name="dollar" unicode="$" horiz-adv-x="1135" 
d="M502 -111l-0.000976562 170c-96 16 -177.333 59.333 -244 130c-69.333 73.333 -104 157 -104 251v25h143c0 -76.667 26.167 -141.667 78.5 -195s116.833 -80 193.5 -80c72 0 134.5 25.5 187.5 76.5s79.5 112.5 79.5 184.5c0 84.667 -26.667 150.667 -80 198
c-39.333 35.333 -105 66 -197 92c-64 18 -110 33.667 -138 47c-46.667 21.333 -86.334 48.5 -119.001 81.5s-57.667 72.167 -75 117.5s-26 91.666 -26 138.999c0 92 27.667 170.667 83 236s128 106.333 218 123v170h133v-170c97.333 -14 177 -55 239 -123
s93 -151.333 93 -250h-144c0 68.667 -23.167 126.167 -69.5 172.5s-105.833 69.5 -178.5 69.5c-29.333 0 -55.5 -3.66699 -78.5 -11s-46.5 -20.666 -70.5 -39.999c-30 -25.333 -50.833 -52.5 -62.5 -81.5s-17.5 -64.167 -17.5 -105.5c0 -74 24.333 -130 73 -168
c30 -23.333 87.667 -48 173 -74c63.333 -18 111.333 -34.667 144 -50c52 -23.333 94.667 -51 128 -83c38.667 -37.333 67.834 -80.833 87.501 -130.5s29.5 -102.167 29.5 -157.5c0 -99.333 -33 -189 -99 -269c-69.333 -83.333 -151.666 -125 -246.999 -125v-170h-133z" />
    <glyph glyph-name="percent" unicode="%" horiz-adv-x="1587" 
d="M371 0l680 1513h147l-680 -1513h-147zM387 1538c99.333 0 182.831 -34.835 250.498 -104.502s101.5 -154.167 101.5 -253.5c0 -97.333 -35.167 -181.5 -105.5 -252.5s-153.166 -106.5 -248.499 -106.5c-98 0 -182.167 35.833 -252.5 107.5s-105.5 156.834 -105.5 255.501
c0 100.667 34.333 184.834 103 252.501s154.334 101.5 257.001 101.5zM386.998 1393c-63.333 0 -115.001 -19.667 -155.001 -59s-60 -90 -60 -152c0 -58 20.833 -108.333 62.5 -151s91.167 -64 148.5 -64c60.667 0 111 22 151 66s60 96.333 60 157
c0 56 -20.167 103.833 -60.5 143.5s-89.166 59.5 -146.499 59.5zM1186 691.998c100 0 184 -36 252 -108s102 -158 102 -258c0 -96.667 -35.333 -179.667 -106 -249s-154 -104 -250 -104c-98.667 0 -183.167 34.667 -253.5 104s-105.5 153 -105.5 251
c0 102 34.667 188.167 104 258.5s155 105.5 257 105.5zM1186 546.998c-62 0 -113.333 -21.001 -154 -63.001s-61 -94.667 -61 -158c0 -58 21 -107 63 -147s92 -60 150 -60c60.667 0 111 21 151 63s60 92.667 60 152c0 58.667 -20.167 108.834 -60.5 150.501
s-89.833 62.5 -148.5 62.5z" />
    <glyph glyph-name="ampersand" unicode="&#x26;" horiz-adv-x="1550" 
d="M1233 983l170.001 0.000976562l-281 -534l383 -373l-108 -103l-346 338c-52.667 -106 -113.334 -186.667 -182.001 -242c-80 -64 -174.333 -96 -283 -96c-130 0 -240.667 45.667 -332 137s-137 202 -137 332c0 100.667 34.667 192 104 274
c57.333 68.667 136 127.667 236 177c-28 28 -51.167 53.333 -69.5 76s-33.166 43.667 -44.499 63c-30.667 54 -46 112.667 -46 176c0 89.333 36.167 166.666 108.5 231.999s154.166 98 245.499 98c102 0 189.667 -34.167 263 -102.5s110 -153.5 110 -255.5
c0 -80.667 -30.667 -152 -92 -214c-52 -53.333 -120.333 -95.333 -205 -126l287 -283zM573.001 776.001l-65 -34.999c-74.667 -36.667 -131 -76.667 -169 -120c-47.333 -54.667 -71 -118.334 -71 -191.001c0 -81.333 30 -153.5 90 -216.5s131.667 -94.5 215 -94.5
c62 0 116.667 14.333 164 43c39.333 23.333 77.666 60.333 114.999 111c12.667 17.333 25.834 37.833 39.501 61.5s29.167 52.167 46.5 85.5zM872.001 1200c0 52 -22.168 97.168 -66.501 135.501s-93.166 57.5 -146.499 57.5c-58 0 -107.5 -18.333 -148.5 -55
s-61.5 -83.334 -61.5 -140.001c0 -42 19 -87.667 57 -137c16 -20.667 52 -57.667 108 -111c94 32.667 162.667 72.667 206 120c34.667 38.667 52 82 52 130z" />
    <glyph glyph-name="quotesingle" unicode="'" horiz-adv-x="406" 
d="M152 1051v462h102v-462h-102z" />
    <glyph glyph-name="parenleft" unicode="(" horiz-adv-x="756" 
d="M686 1513l-0.000976562 -131c-126 -71.333 -227.167 -177.833 -303.5 -319.5s-114.5 -288.167 -114.5 -439.5c0 -148 37.667 -291 113 -429c78 -143.333 179.667 -250.333 305 -321v-133c-71.333 18 -145.666 61.667 -222.999 131
c-63.333 56 -120.666 121.667 -171.999 197c-116 167.333 -174 352.333 -174 555c0 199.333 54 382 162 548c51.333 78.667 109.666 147.667 174.999 207c78 72 155.333 117 232 135z" />
    <glyph glyph-name="parenright" unicode=")" horiz-adv-x="756" 
d="M70 -260v133c123.333 68.667 224.666 175.667 303.999 321c75.333 139.333 113 282.333 113 429c0 153.333 -36.667 298.333 -110 435c-76 142 -178.333 249.333 -307 322v133c79.333 -22 156.666 -66.667 231.999 -134c62 -56 120 -124.833 174 -206.5
s94.667 -168.667 122 -261s41 -188.5 41 -288.5c0 -102 -14.5 -199.5 -43.5 -292.5s-72.5 -180.5 -130.5 -262.5c-49.333 -73.333 -106.666 -139 -171.999 -197c-75.333 -67.333 -149.666 -111 -222.999 -131z" />
    <glyph glyph-name="asterisk" unicode="*" horiz-adv-x="870" 
d="M737 1296v-104h-205l109 -180l-94 -58l-111 185l-106 -185l-99 58l111 180h-211v104h211l-111 185l99 57l106 -184l111 184l94 -57l-109 -185h205z" />
    <glyph glyph-name="plus" unicode="+" horiz-adv-x="1241" 
d="M543 698v437h155v-437h439v-155h-439v-443h-155v443h-439v155h439z" />
    <glyph glyph-name="comma" unicode="," horiz-adv-x="567" 
d="M186 -137l181 395h151l-180 -395h-152z" />
    <glyph glyph-name="hyphen" unicode="-" horiz-adv-x="680" 
d="M63 684h555v-137h-555v137z" />
    <glyph glyph-name="period" unicode="." horiz-adv-x="567" 
d="M207 0v258h151v-258h-151z" />
    <glyph glyph-name="slash" unicode="/" horiz-adv-x="895" 
d="M82 -262l592 1775h139l-596 -1775h-135z" />
    <glyph glyph-name="zero" unicode="0" horiz-adv-x="1135" 
d="M61 575l0.000976562 394c0 83.333 7.83301 154.666 23.5 213.999s47.167 117.833 94.5 175.5s105.166 102 173.499 133s140.5 46.5 216.5 46.5c71.333 0 139.333 -13.667 204 -41s121.167 -67.5 169.5 -120.5s83.5 -116.167 105.5 -189.5c18 -61.333 27 -134 27 -218
v-394c0 -46 -1.33301 -87 -4 -123s-7 -67.333 -13 -94c-16 -72.667 -47.833 -139.167 -95.5 -199.5s-105.5 -106.5 -173.5 -138.5c-32.667 -15.333 -67.5 -27 -104.5 -35s-75.5 -12 -115.5 -12c-80 0 -152.167 14.5 -216.5 43.5s-120.833 72.833 -169.5 131.5
s-82.667 126.334 -102 203.001c-13.333 57.333 -20 132 -20 224zM924.001 600v334.004c0 81.333 -5.66699 145 -17 191s-27.666 85.333 -48.999 118c-30 45.333 -71.667 81.666 -125 108.999s-108 41 -164 41c-59.333 0 -117.833 -15.833 -175.5 -47.5
s-100.834 -73.167 -129.501 -124.5c-18.667 -34.667 -32 -78.334 -40 -131.001c-3.33301 -22.667 -6 -47.667 -8 -75s-3 -54.333 -3 -81v-334c0 -74 3 -132 9 -174c10 -66.667 29 -120.667 57 -162c34.667 -48 76.167 -84.167 124.5 -108.5s103.5 -36.5 165.5 -36.5
c66 0 125 14 177 42s94 70 126 126c22 37.333 37 88 45 152c2 19.333 3.66699 42.166 5 68.499s2 57.166 2 92.499z" />
    <glyph glyph-name="one" unicode="1" horiz-adv-x="1135" 
d="M573 0v1376h-256v137h408v-1513h-152z" />
    <glyph glyph-name="two" unicode="2" horiz-adv-x="1135" 
d="M68 0l0.000976562 134.998l577 557c52 49.333 88.333 86 109 110c42.667 46.667 73.667 89.334 93 128.001c25.333 48.667 38 97.667 38 147c0 90.667 -32.5 166 -97.5 226s-143.167 90 -234.5 90c-56 0 -109 -14 -159 -42s-90 -66.667 -120 -116
c-15.333 -28 -26.333 -59.5 -33 -94.5s-10 -73.833 -10 -116.5h-151c0 148 44.5 270.667 133.5 368s206.167 146 351.5 146c66.667 0 126.167 -10.333 178.5 -31s102.166 -54.667 149.499 -102c43.333 -43.333 78 -93.5 104 -150.5s39 -115.5 39 -175.5
c0 -69.333 -14 -134.666 -42 -195.999c-24 -52 -59.667 -104.667 -107 -158c-24.667 -26.667 -72 -73.667 -142 -141l-469 -447h752v-137h-960z" />
    <glyph glyph-name="three" unicode="3" horiz-adv-x="1135" 
d="M322 1137l-152.001 0.000976562c0 114 35.833 209.333 107.5 286s164.834 115 279.501 115c106 0 195.333 -37.833 268 -113.5s109 -166.834 109 -273.501c0 -60.667 -13.333 -113.5 -40 -158.5s-65.334 -87.167 -116.001 -126.5c76 -34 137.333 -88.833 184 -164.5
s70 -155.834 70 -240.501c0 -136 -47.333 -251.333 -142 -346s-209.667 -142 -345 -142c-134 0 -247 49.333 -339 148s-138 216 -138 352h151c0 -40.667 3.66699 -75.667 11 -105s20.666 -59 39.999 -89c30.667 -47.333 69.834 -85.833 117.501 -115.5
s98.834 -44.5 153.501 -44.5c93.333 0 173.333 33 240 99s100 146.333 100 241c0 70 -21 134 -63 192s-96.333 99 -163 123c-20.667 7.33301 -44 12.333 -70 15s-44 4.33398 -54 5.00098s-25.333 1 -46 1h-34v135l51 -4c80.667 0 145.667 18.667 195 56
c56.667 42.667 85 103 85 181c0 67.333 -22.5 122.5 -67.5 165.5s-101.5 64.5 -169.5 64.5c-65.333 0 -120 -26.333 -164 -79c-39.333 -48.667 -59 -107.667 -59 -177z" />
    <glyph glyph-name="four" unicode="4" horiz-adv-x="1135" 
d="M791 0v276h-766v138l733 1099h184v-1099h137v-138h-137v-276h-151zM791 414v891l-588 -891h588z" />
    <glyph glyph-name="five" unicode="5" horiz-adv-x="1135" 
d="M135 768l137.002 745.003h684v-137h-561l-76 -418c37.333 22 78.666 39.5 123.999 52.5s89.333 19.5 132 19.5c142 0 262.333 -52.667 361 -158c96.667 -102.667 145 -225.334 145 -368.001c0 -144.667 -48.667 -269.334 -146 -374.001s-218 -157 -362 -157
c-143.333 0 -265.833 48.833 -367.5 146.5s-152.5 216.167 -152.5 355.5h152c0 -94.667 35.167 -177.667 105.5 -249s155.166 -107 254.499 -107c104 0 190.833 37.167 260.5 111.5s104.5 164.166 104.5 269.499c0 102.667 -34 192 -102 268c-70 78 -157 117 -261 117
c-58 0 -115.667 -15 -173 -45c-51.333 -28 -97.333 -66.333 -138 -115z" />
    <glyph glyph-name="six" unicode="6" horiz-adv-x="1135" 
d="M604 1513h175.999l-358 -532c24.667 15.333 52.667 27 84 35s63.333 12 96 12c134 0 248.667 -54.667 344 -164c91.333 -105.333 137 -226 137 -362c0 -66 -12.667 -131.167 -38 -195.5s-61.666 -122.166 -108.999 -173.499c-100.667 -106.667 -225 -160 -373 -160
c-139.333 0 -259.5 52 -360.5 156s-151.5 227.667 -151.5 371c0 62 9 121 27 177c16 49.333 39.333 99.666 70 150.999l98 149zM564.999 883c-102.667 0 -188.667 -36.5 -258 -109.5s-104 -160.833 -104 -263.5c0 -106.667 33.667 -197.667 101 -273
c70.667 -78.667 157.667 -118 261 -118c100.667 0 187 37.5 259 112.5s108 163.833 108 266.5c0 104 -34.667 193.667 -104 269c-71.333 77.333 -159 116 -263 116z" />
    <glyph glyph-name="seven" unicode="7" horiz-adv-x="1135" 
d="M221 0l623 1376h-713v137h873v-137l-619 -1376h-164z" />
    <glyph glyph-name="eight" unicode="8" horiz-adv-x="1135" 
d="M342 846c-56.667 28 -100.169 68.667 -130.502 122s-45.5 113.666 -45.5 180.999c0 111.333 39.5 204 118.5 278s175.167 111 288.5 111c112.667 0 206.834 -38.667 282.501 -116s113.5 -171.666 113.5 -282.999c0 -62 -16 -120.333 -48 -175s-76.333 -94 -133 -118
c78.667 -34 141.834 -87.667 189.501 -161s71.5 -153 71.5 -239c0 -132 -48.167 -243.833 -144.5 -335.5s-210.833 -137.5 -343.5 -137.5c-129.333 0 -240.833 46 -334.5 138s-140.5 203 -140.5 333c0 42 5.66699 82.5 17 121.5s29.333 79.167 54 120.5
c48 78 109.667 131.333 185 160zM562.998 764c-91.333 0 -168.333 -31.833 -231 -95.5s-94 -141.167 -94 -232.5c0 -88.667 31.667 -163.667 95 -225s139.333 -92 228 -92c94 0 173.5 31.333 238.5 94s97.5 140.334 97.5 233.001c0 89.333 -33 164.666 -99 225.999
s-144.333 92 -235 92zM572.998 1393c-68.667 0 -128.5 -22.333 -179.5 -67s-76.5 -101 -76.5 -169c0 -70.667 24.667 -129.667 74 -177s109.333 -71 180 -71c64 0 121 24 171 72s75 104.667 75 170c0 66.667 -23.667 123.667 -71 171s-105 71 -173 71z" />
    <glyph glyph-name="nine" unicode="9" horiz-adv-x="1135" 
d="M530 0l-176.001 -0.00195312l359 530c-28 -16 -57 -28 -87 -36c-13.333 -3.33301 -28.166 -6 -44.499 -8s-33.5 -3 -51.5 -3c-132 0 -246 55 -342 165c-91.333 106.667 -137 227.334 -137 362.001c0 66 13 131.5 39 196.5s62.333 122.167 109 171.5
c100.667 106.667 224.667 160 372 160c140 0 260.333 -52 361 -156s151 -226.667 151 -368c0 -61.333 -9 -120.666 -27 -177.999c-14 -47.333 -37.333 -97.333 -70 -150l-97 -149zM202.999 1016c0 -102 36.999 -190.999 110.999 -266.999s159 -114 255 -114
c102.667 0 188.834 35.667 258.501 107s104.5 157.666 104.5 258.999c0 106.667 -33.667 198 -101 274c-70.667 78.667 -158 118 -262 118c-100 0 -186 -37.5 -258 -112.5s-108 -163.167 -108 -264.5z" />
    <glyph glyph-name="colon" unicode=":" horiz-adv-x="567" 
d="M207 0v258h151v-258h-151zM207 786v258h151v-258h-151z" />
    <glyph glyph-name="semicolon" unicode=";" horiz-adv-x="567" 
d="M84 -137l180 395h152l-180 -395h-152zM264 786v258h152v-258h-152z" />
    <glyph glyph-name="less" unicode="&#x3c;" horiz-adv-x="1241" 
d="M295 616l848 -391v-149l-1043 475v131l1043 475v-149z" />
    <glyph glyph-name="equal" unicode="=" horiz-adv-x="1241" 
d="M1137 893v-154h-1033v154h1033zM1137 494v-154h-1033v154h1033z" />
    <glyph glyph-name="greater" unicode="&#x3e;" horiz-adv-x="1241" 
d="M98 225l848 391l-848 392v149l1043 -475v-131l-1043 -475v149z" />
    <glyph glyph-name="question" unicode="?" horiz-adv-x="1210" 
d="M541 0v258h151v-258h-151zM279 1040h-146.002v43c0 58.667 12.5 115.834 37.5 171.501s58.833 104.5 101.5 146.5c46.667 44.667 99.834 78.667 159.501 102s121.834 35 186.501 35c130.667 0 239.5 -44.167 326.5 -132.5s130.5 -197.833 130.5 -328.5
c0 -86 -33 -168 -99 -246l-185 -190c-66 -77.333 -99 -159.333 -99 -246h-151c0 80 20.333 156.667 61 230c35.333 63.333 86 124.666 152 183.999l84 81c27.333 29.333 48.5 60 63.5 92s22.5 69.333 22.5 112c0 84 -31.833 154.833 -95.5 212.5s-138.5 86.5 -224.5 86.5
c-91.333 0 -168.333 -35.333 -231 -106s-94 -153 -94 -247z" />
    <glyph glyph-name="at" unicode="@" horiz-adv-x="1776" 
d="M1475 358l121.996 2c-63.333 -117.333 -156.666 -211 -279.999 -281c-61.333 -34.667 -124 -60.667 -188 -78s-131 -26 -201 -26c-219.333 0 -404.666 76.667 -555.999 230s-227 339.666 -227 558.999c0 214 77.167 396.833 231.5 548.5s338.833 227.5 553.5 227.5
c89.333 0 175.5 -15.167 258.5 -45.5s158.5 -74.5 226.5 -132.5c144.667 -125.333 217 -283.666 217 -474.999c0 -136.667 -40.333 -262.334 -121 -377.001c-46.667 -65.333 -97.667 -117.666 -153 -156.999c-66.667 -45.333 -135.667 -68 -207 -68
c-40 0 -75.667 8.33301 -107 25c-35.333 18.667 -59 46.334 -71 83.001c-30 -30.667 -67.333 -56 -112 -76c-23.333 -9.33301 -45.5 -16.333 -66.5 -21s-43.5 -7 -67.5 -7c-85.333 0 -154.5 30 -207.5 90s-79.5 133 -79.5 219c0 150 47 289 141 417
c102 140 225.667 210 371 210c50 0 95.833 -12 137.5 -36s73.167 -58 94.5 -102l30 97h140l-209 -625l-17 -53c-6.66699 -25.333 -10 -43 -10 -53c0 -16.667 6.16699 -30.834 18.5 -42.501s26.833 -17.5 43.5 -17.5c42.667 0 89 18.667 139 56
c42.667 32 78.667 68.667 108 110c16.667 23.333 31.167 47.833 43.5 73.5s23.333 54 33 85s16.834 60.5 21.501 88.5s7 57.667 7 89c0 160.667 -62.333 293.334 -187 398.001c-117.333 98 -257.666 147 -420.999 147c-187.333 0 -346.5 -67.833 -477.5 -203.5
s-196.5 -297.834 -196.5 -486.501c0 -186 66.5 -344.833 199.5 -476.5s292.5 -197.5 478.5 -197.5c105.333 0 207.333 25 306 75s179 119 241 207zM757.996 420c48.667 0 95.666 19.668 140.999 59.001c36.667 31.333 68 72.333 94 123c30 59.333 54 116 72 170
c23.333 71.333 35 131.333 35 180c0 41.333 -13.667 76.666 -41 105.999s-61.666 44 -102.999 44c-100.667 0 -187.667 -58.667 -261 -176c-64.667 -105.333 -97 -211.333 -97 -318c0 -52 13.333 -95.667 40 -131c29.333 -38 69.333 -57 120 -57z" />
    <glyph glyph-name="A" unicode="A" horiz-adv-x="1516" 
d="M23 0l653 1513h168l649 -1513h-164l-219 508h-704l-220 -508h-163zM465 645h586l-291 694z" />
    <glyph glyph-name="B" unicode="B" horiz-adv-x="1176" 
d="M156 0l0.00488281 1513h354c73.333 0 132.666 -4 177.999 -12c61.333 -10.667 116.666 -31.667 165.999 -63c53.333 -35.333 96.333 -82.166 129 -140.499s49 -120.166 49 -185.499c0 -64.667 -14.333 -121.834 -43 -171.501s-70.334 -93.5 -125.001 -131.5
c78.667 -32 140 -81.5 184 -148.5s66 -144.5 66 -232.5c0 -71.333 -16.333 -137.5 -49 -198.5s-78.334 -110.167 -137.001 -147.5s-125.334 -61.333 -200.001 -72c-20.667 -2.66699 -50.167 -5 -88.5 -7s-80.833 -3 -127.5 -3h-356zM307.005 136.999l187.003 -0.00195312h39
c80.667 0 140.167 3.5 178.5 10.5s72.166 18.5 101.499 34.5c41.333 22 76.333 56 105 102s43 93.333 43 142c0 32.667 -4 62.834 -12 90.501s-20.667 53.834 -38 78.501c-32.667 48 -79 82.333 -139 103c-38.667 13.333 -81.334 22 -128.001 26c-16.667 0 -46 1 -88 3
c-42.667 1.33301 -72.334 2 -89.001 2h-160v-592zM307.008 865.997h164.001h36c54 0 101 2.66699 141 8s77.5 17.666 112.5 36.999s63.833 48.833 86.5 88.5s34 80.5 34 122.5c0 40 -11.333 79.333 -34 118s-50.834 68.334 -84.501 89.001s-79.167 34.667 -136.5 42
c-33.333 3.33301 -81 5 -143 5h-176v-510z" />
    <glyph glyph-name="C" unicode="C" horiz-adv-x="1665" 
d="M1571 1124l-167.999 -0.00195312c-54.667 83.333 -130.334 149 -227.001 197s-197.334 72 -302.001 72c-170 0 -317.833 -63.333 -443.5 -190s-188.5 -273.667 -188.5 -441c0 -176 63.833 -327.167 191.5 -453.5s278.167 -189.5 451.5 -189.5
c102.667 0 200.5 24.833 293.5 74.5s169.833 116.834 230.5 201.501h168c-65.333 -126 -161.666 -227.833 -288.999 -305.5s-261.666 -116.5 -402.999 -116.5c-222.667 0 -410.834 75.833 -564.501 227.5s-230.5 338.834 -230.5 561.501c0 214 76.333 396.833 229 548.5
s337 227.5 553 227.5c80.667 0 158 -10.5 232 -31.5s142.333 -52.833 205 -95.5c54 -34 104.333 -75.333 151 -124c54 -56 91 -110.333 111 -163z" />
    <glyph glyph-name="D" unicode="D" horiz-adv-x="1524" 
d="M156 0l-0.00292969 1513h407c62.667 0 118.834 -2.66699 168.501 -8s97.834 -14.333 144.501 -27c104 -28 198.167 -75.833 282.5 -143.5s151.333 -153 201 -256s74.5 -209.167 74.5 -318.5c0 -106 -22 -208.667 -66 -308c-22 -50 -47.833 -95.833 -77.5 -137.5
s-64.5 -80.834 -104.5 -117.501c-83.333 -75.333 -178.666 -128.666 -285.999 -159.999c-88.667 -24.667 -197.667 -37 -327 -37h-417zM306.997 137l195 -0.00292969c84.667 0 149 2 193 6c68.667 6 129 18.333 181 37c60.667 20.667 118.334 52.667 173.001 96
c74 58.667 131.333 129.834 172 213.501s61 173.834 61 270.501c0 194.667 -78.333 354.334 -235 479.001c-52.667 40.667 -109.334 71.667 -170.001 93c-49.333 17.333 -103.833 29 -163.5 35s-130.167 9 -211.5 9h-195v-1239z" />
    <glyph glyph-name="E" unicode="E" horiz-adv-x="1098" 
d="M156 0v1513h827v-137h-676v-545h654v-137h-654v-557h676v-137h-827z" />
    <glyph glyph-name="F" unicode="F" horiz-adv-x="993" 
d="M156 0v1513h768v-137h-617v-547h594v-137h-594v-692h-151z" />
    <glyph glyph-name="G" unicode="G" horiz-adv-x="1786" 
d="M674 698l1028 -0.00292969c0 -201.333 -82.333 -374 -247 -518c-158 -138 -342.667 -207 -554 -207c-220 0 -410.167 76.667 -570.5 230s-240.5 340.333 -240.5 561c0 101.333 20.833 199 62.5 293s98.834 177.333 171.501 250
c75.333 75.333 163.333 132.666 264 171.999s205 59 313 59c79.333 0 156.5 -10.667 231.5 -32s146.167 -53.666 213.5 -96.999c56.667 -38 108 -81.333 154 -130c54 -57.333 90.667 -113.666 110 -168.999h-172c-52 87.333 -127.667 156.333 -227 207
c-50 25.333 -100.167 44.333 -150.5 57s-103.5 19 -159.5 19c-82.667 0 -162.834 -14.167 -240.501 -42.5s-148 -71.166 -211 -128.499s-113.333 -127.166 -151 -209.499s-56.5 -165.833 -56.5 -250.5c0 -182 65.667 -335.333 197 -460c128 -122 284 -183 468 -183
c138 0 265.167 41 381.5 123s193.5 188.333 231.5 319h-846v137z" />
    <glyph glyph-name="H" unicode="H" horiz-adv-x="1399" 
d="M156 0v1513h151v-665h785v665h151v-1513h-151v711h-785v-711h-151z" />
    <glyph glyph-name="I" unicode="I" horiz-adv-x="463" 
d="M156 0v1513h151v-1513h-151z" />
    <glyph glyph-name="J" unicode="J" horiz-adv-x="987" 
d="M831 1513l0.00195312 -1087c0 -75.333 -3.33301 -128.333 -10 -159c-10 -51.333 -33.667 -100 -71 -146s-84.833 -82.167 -142.5 -108.5s-118.167 -39.5 -181.5 -39.5c-110.667 0 -205.5 37.167 -284.5 111.5s-118.5 165.5 -118.5 273.5h149
c0 -69.333 26.167 -126.5 78.5 -171.5s115.5 -67.5 189.5 -67.5c51.333 0 96.666 13 135.999 39s68 63.333 86 112c3.33301 10.667 6.66602 24 9.99902 40s5 31 5 45l3 116v1042h151z" />
    <glyph glyph-name="K" unicode="K" horiz-adv-x="1210" 
d="M156 0v1513h151v-870l699 870h192l-598 -737l598 -776h-188l-506 655l-197 -241v-414h-151z" />
    <glyph glyph-name="L" unicode="L" horiz-adv-x="946" 
d="M156 0v1513h151v-1376h627v-137h-778z" />
    <glyph glyph-name="M" unicode="M" horiz-adv-x="1882" 
d="M156 0v1513h233l553 -1288l551 1288h233v-1513h-151v1346l-569 -1346h-129l-570 1346v-1346h-151z" />
    <glyph glyph-name="N" unicode="N" horiz-adv-x="1516" 
d="M156 0v1513h204l848 -1255v1255h152v-1513h-152l-901 1331v-1331h-151z" />
    <glyph glyph-name="O" unicode="O" horiz-adv-x="1780" 
d="M889 1538c216.667 0 404.333 -75.333 563 -226s238 -334 238 -550c0 -218 -78.5 -404 -235.5 -558s-345.5 -231 -565.5 -231c-214 0 -400 75 -558 225c-160.667 153.333 -241 337.333 -241 552c0 218.667 78.167 404.667 234.5 558s344.5 230 564.5 230zM890.999 1393
c-178 0 -330.667 -62.667 -458 -188s-191 -277 -191 -455c0 -172.667 64.667 -321 194 -445s281 -186 455 -186c178 0 330.333 62.5 457 187.5s190 276.833 190 455.5c0 173.333 -64.167 321.833 -192.5 445.5s-279.833 185.5 -454.5 185.5z" />
    <glyph glyph-name="P" unicode="P" horiz-adv-x="1212" 
d="M156 0v1513h397c96 0 166 -3.66699 210 -11c74.667 -11.333 139.667 -34.666 195 -69.999c64 -40 113.167 -92.667 147.5 -158s51.5 -137 51.5 -215c0 -72.667 -14 -138.334 -42 -197.001s-71.333 -109.667 -130 -153c-53.333 -39.333 -115.666 -66.666 -186.999 -81.999
c-54.667 -11.333 -123.334 -17 -206.001 -17h-285v-610h-151zM307 747.999h260.001c84 0 147.5 5 190.5 15s81.167 25.333 114.5 46c41.333 25.333 74 61.166 98 107.499s36 94.5 36 144.5c0 66 -16.333 123.333 -49 172s-79.334 85.334 -140.001 110.001
c-30 13.333 -63.333 22.333 -100 27c-18.667 2 -37.667 3.66699 -57 5s-40 2 -62 2l-48 -1h-48h-195v-628z" />
    <glyph glyph-name="Q" unicode="Q" horiz-adv-x="1784" 
d="M1694 115l-0.00292969 -142h-19c-121.333 0 -227.666 43 -318.999 129c-61.333 -42 -132.666 -74 -213.999 -96s-161.666 -33 -240.999 -33c-218.667 0 -407.667 73.667 -567 221c-162.667 150.667 -244 334.334 -244 551.001c0 228.667 78.833 418 236.5 568
s350.5 225 578.5 225c230.667 0 423.834 -75.167 579.501 -225.5s233.5 -340.833 233.5 -571.5c0 -104.667 -22.167 -204.667 -66.5 -300s-106.833 -180.333 -187.5 -255c29.333 -20.667 61.666 -38.334 96.999 -53.001c16.667 -6.66699 33 -11.667 49 -15s33 -5 51 -5z
M1239 209l-79.9971 60.999c-48.667 38.667 -89 68.334 -121 89.001c-41.333 26.667 -87 49 -137 67s-105.667 32.333 -167 43c-32.667 5.33301 -62.334 9.33301 -89.001 12s-54.667 4 -84 4c-45.333 0 -86 -3.16699 -122 -9.5s-73 -17.5 -111 -33.5
c20 -40 50.667 -80.667 92 -122c36 -36 75.667 -68.333 119 -97c53.333 -35.333 112.166 -61.5 176.499 -78.5s130.166 -25.5 197.499 -25.5c57.333 0 114 7 170 21c61.333 16 113.333 39 156 69zM266 570.999c106.667 37.333 214.667 56 324 56
c152.667 0 291.667 -29.667 417 -89c108.667 -50.667 226.334 -133 353.001 -247c63.333 59.333 113.666 128.333 150.999 207s56 160.334 56 245.001c0 184 -64.333 338.333 -193 463s-285.667 187 -471 187c-182.667 0 -338.5 -62.5 -467.5 -187.5
s-193.5 -279.167 -193.5 -462.5c0 -14.667 0.333008 -29.334 1 -44.001s2.5 -33 5.5 -55s8.83301 -46.333 17.5 -73z" />
    <glyph glyph-name="R" unicode="R" horiz-adv-x="1243" 
d="M156 0l0.00195312 1513h360c30 0 60 -0.333008 90 -1c30 -1.33301 54.333 -2.33301 73 -3c23.333 0 45.166 -1.5 65.499 -4.5s44.166 -8.16699 71.499 -15.5c46.667 -10 90 -26.333 130 -49c76 -42.667 134.333 -101 175 -175s61 -155.667 61 -245
c0 -124 -43.833 -230.833 -131.5 -320.5s-192.834 -134.5 -315.501 -134.5l426 -565h-188l-514 686h45h40h25h20h16h14h11c28 0 48.667 1.66699 62 5c52.667 6 100 18 142 36c61.333 28 109.333 69.5 144 124.5s52 115.833 52 182.5c0 52.667 -12.667 103.667 -38 153
s-59.833 88.833 -103.5 118.5s-98.167 50.167 -163.5 61.5c-39.333 6 -98.666 9 -177.999 9h-240v-1376h-151z" />
    <glyph glyph-name="S" unicode="S" horiz-adv-x="1020" 
d="M45 424l161.998 -0.00195312c0 -84 29 -155.833 87 -215.5s130 -89.5 216 -89.5c87.333 0 161.333 28.333 222 85s91 128 91 214c0 41.333 -9.16699 80.833 -27.5 118.5s-43.166 69.334 -74.499 95.001s-69 47.167 -113 64.5c-24 8.66699 -65 21 -123 37
c-34.667 8.66699 -62.667 16.334 -84 23.001s-40 13 -56 19c-50.667 19.333 -92.667 43.666 -126 72.999c-40 34 -71.167 75.667 -93.5 125s-33.5 101.666 -33.5 156.999c0 118.667 41.667 216.334 125 293.001s185 115 305 115c116 0 214.333 -39.333 295 -118
s121 -176 121 -292h-158c0 76.667 -26.5 140 -79.5 190s-118.5 75 -196.5 75c-72 0 -133.333 -26 -184 -78s-76 -114.333 -76 -187c0 -56 14.667 -102.667 44 -140c24 -30 61.333 -56.333 112 -79c15.333 -6.66699 34.833 -13.834 58.5 -21.501s51.834 -16.167 84.501 -25.5
c84.667 -24 135.334 -39.333 152.001 -46c28 -10.667 53 -22.5 75 -35.5s43.333 -28.833 64 -47.5c43.333 -37.333 77.666 -84.666 102.999 -141.999s38 -115.666 38 -174.999c0 -122.667 -45.667 -227.167 -137 -313.5s-199.333 -129.5 -324 -129.5
c-130.667 0 -241 42 -331 126c-92 86 -138 194.333 -138 325z" />
    <glyph glyph-name="T" unicode="T" horiz-adv-x="872" 
d="M362 0v1376h-348v137h844v-137h-344v-1376h-152z" />
    <glyph glyph-name="U" unicode="U" 
d="M156 1513l150.998 0.00292969v-919c0 -65.333 4.5 -123.5 13.5 -174.5s28.333 -99.833 58 -146.5s70.834 -84 123.501 -112s109.334 -42 170.001 -42c55.333 0 107.5 11.833 156.5 35.5s89.667 57.167 122 100.5s55.5 97.333 69.5 162c9.33301 46.667 14 105.667 14 177
v919h152v-919c0 -92.667 -6.33301 -167.334 -19 -224.001c-17.333 -76 -48.833 -144.333 -94.5 -205s-104.334 -107.834 -176.001 -141.501s-146.5 -50.5 -224.5 -50.5c-78.667 0 -151.667 15.333 -219 46s-125.666 75.667 -174.999 135s-83 128.666 -101 207.999
c-14 60 -21 137.333 -21 232v919z" />
    <glyph glyph-name="V" unicode="V" horiz-adv-x="1438" 
d="M645 0l-625 1513h166l531 -1325l534 1325h166l-629 -1513h-143z" />
    <glyph glyph-name="W" unicode="W" horiz-adv-x="1966" 
d="M451 0l-431 1513h158l371 -1318l362 1318h144l362 -1316l371 1316h158l-433 -1513h-198l-332 1241l-334 -1241h-198z" />
    <glyph glyph-name="X" unicode="X" horiz-adv-x="1247" 
d="M16 0l514 774l-483 739h176l402 -606l399 606h176l-489 -739l520 -774h-178l-428 647l-430 -647h-179z" />
    <glyph glyph-name="Y" unicode="Y" horiz-adv-x="1212" 
d="M530 0v506l-526 1007h166l436 -849l436 849h166l-526 -1007v-506h-152z" />
    <glyph glyph-name="Z" unicode="Z" horiz-adv-x="983" 
d="M35 0v135l743 1241h-721v137h891v-137l-741 -1239h764v-137h-936z" />
    <glyph glyph-name="bracketleft" unicode="[" horiz-adv-x="719" 
d="M641 -104l-0.000976562 -155.998c-50 10.667 -98.167 30.667 -144.5 60s-88.166 64.666 -125.499 105.999c-54.667 60.667 -93 126 -115 196c-18 59.333 -27 134.666 -27 225.999v592c0 88.667 6.66699 157.667 20 207c16 65.333 47.667 127.333 95 186
c38 46 82 87 132 123c54.667 39.333 109.667 65 165 77v-155c-96.667 -42 -165.667 -99 -207 -171c-38 -66 -57 -155 -57 -267v-568c0 -121.333 16.333 -213.333 49 -276c38 -74.667 109.667 -134.667 215 -180z" />
    <glyph glyph-name="backslash" unicode="\" horiz-adv-x="1239" 
d="M807 0l-635 1513h145l633 -1513h-143z" />
    <glyph glyph-name="bracketright" unicode="]" horiz-adv-x="719" 
d="M78 1358l0.000976562 155.002c53.333 -12 101.666 -32.167 144.999 -60.5s85 -63.833 125 -106.5c56 -62 94.333 -127.667 115 -197c17.333 -59.333 26 -134.333 26 -225v-592c0 -89.333 -6.66699 -158.333 -20 -207c-16 -64 -48 -126 -96 -186
c-36 -46.667 -79.667 -88.334 -131 -125.001c-54.667 -39.333 -109.334 -64 -164.001 -74v156c94.667 38.667 163.334 95 206.001 169c38.667 69.333 58 158.333 58 267v565c0 75.333 -3 129 -9 161c-9.33301 50.667 -31 100 -65 148c-22.667 36 -50 66.333 -82 91
c-27.333 21.333 -63.333 41.666 -108 60.999z" />
    <glyph glyph-name="asciicircum" unicode="^" horiz-adv-x="1241" 
d="M168 369h-131l522 1144h119l526 -1144h-131l-457 991z" />
    <glyph glyph-name="underscore" unicode="_" horiz-adv-x="1024" 
d="M1024 -256h-1024v119h1024v-119z" />
    <glyph glyph-name="grave" unicode="`" horiz-adv-x="774" 
d="M217 1595l406 -221l-68 -119l-403 218z" />
    <glyph glyph-name="a" unicode="a" horiz-adv-x="1399" 
d="M1270 1120l-0.00195312 -1120h-146v211c-40.667 -75.333 -101.667 -134.666 -183 -177.999c-76 -40 -159.667 -60 -251 -60c-87.333 0 -172.666 19 -255.999 57c-88.667 40 -167.667 100.333 -237 181c-25.333 27.333 -49 71 -71 131c-26.667 74.667 -40 149.667 -40 225
c0 68 14.333 138.667 43 212c24 62.667 48.667 105.334 74 128.001c78.667 86 161 148.333 247 187c74 34 152.667 51 236 51c47.333 0 91.5 -4.66699 132.5 -14s81.167 -24.333 120.5 -45c82.667 -42 144.334 -101.667 185.001 -179v213h146zM685.998 998.998
c-122.667 0 -227.999 -43.168 -315.999 -129.501s-132 -191.166 -132 -314.499c0 -120.667 45.167 -223.5 135.5 -308.5s195.833 -127.5 316.5 -127.5c116 0 217.333 43 304 129s130 187.667 130 305c0 123.333 -41.833 228.5 -125.5 315.5s-187.834 130.5 -312.501 130.5z
" />
    <glyph glyph-name="b" unicode="b" horiz-adv-x="1397" 
d="M129 0v1513h152v-602c34 73.333 93 131.666 177 174.999c76.667 39.333 159 59 247 59c164 0 306 -55.667 426 -167s180 -249 180 -413c0 -76.667 -14.333 -150.667 -43 -222c-24 -60 -54 -110 -90 -150c-72 -82 -147.333 -140.667 -226 -176
c-66.667 -29.333 -144.334 -44 -233.001 -44c-86 0 -169.667 18.333 -251 55c-87.333 40 -152.666 95 -195.999 165v-193h-143zM709 999.001c-61.333 0 -118.833 -11.499 -172.5 -34.499s-102.834 -56.167 -147.501 -99.5c-41.333 -41.333 -71.666 -88.333 -90.999 -141
c-9.33301 -26.667 -16.333 -53.834 -21 -81.501s-7 -58.167 -7 -91.5c0 -124 43.5 -227 130.5 -309s193.167 -123 318.5 -123c121.333 0 225 43 311 129s129 190.333 129 313c0 126 -43.5 230.5 -130.5 313.5s-193.5 124.5 -319.5 124.5z" />
    <glyph glyph-name="c" unicode="c" horiz-adv-x="1325" 
d="M1075 328l168.004 0.00195312c-50 -110 -123.167 -196.667 -219.5 -260s-204.833 -95 -325.5 -95c-168 0 -312 55.667 -432 167s-180 251.666 -180 420.999c0 162.667 60.167 300.667 180.5 414s262.166 170 425.499 170c121.333 0 233.166 -32.833 335.499 -98.5
s174.833 -154.5 217.5 -266.5h-170c-38 66 -91.833 119 -161.5 159s-142.834 60 -219.501 60c-126 0 -233.5 -41.5 -322.5 -124.5s-133.5 -186.833 -133.5 -311.5s42.667 -229.834 128 -315.501s190.666 -128.5 315.999 -128.5c85.333 0 159.333 17 222 51
s119.667 86.667 171 158z" />
    <glyph glyph-name="d" unicode="d" horiz-adv-x="1403" 
d="M1274 1513v-1513h-144v205c-54.667 -77.333 -119.334 -135.333 -194.001 -174s-160.667 -58 -258 -58c-83.333 0 -162.333 18 -237 54s-152 95.333 -232 178c-29.333 25.333 -56.666 70.333 -81.999 135c-27.333 72.667 -41 147 -41 223
c0 164.667 58.833 302.834 176.5 414.501s259.5 167.5 425.5 167.5c87.333 0 169 -18.333 245 -55c81.333 -39.333 144.333 -94 189 -164v587h152zM1126 564.999c0 122.667 -43.667 225.667 -131 309s-193 125 -317 125c-120 0 -223.333 -42.333 -310 -127
s-130 -187 -130 -307c0 -122.667 43.167 -227.667 129.5 -315s191.166 -131 314.499 -131c122.667 0 227.334 43.667 314.001 131s130 192.333 130 315z" />
    <glyph glyph-name="e" unicode="e" horiz-adv-x="1331" 
d="M1251 506h-1013c0 -104 44.333 -195 133 -273c86 -76 182 -114 288 -114c84.667 0 164.334 22 239.001 66s129 104 163 180h158c-38.667 -112 -109.334 -205.333 -212.001 -280s-213.667 -112 -333 -112c-164.667 0 -303.834 56.667 -417.501 170s-170.5 252 -170.5 416
c0 163.333 56.5 301.833 169.5 415.5s251.167 170.5 414.5 170.5c87.333 0 170 -19 248 -57s145.333 -91.333 202 -160c50 -61.333 85 -127.333 105 -198c17.333 -61.333 26 -136 26 -224zM238.001 643h862c-20 100 -70.5 184.333 -151.5 253s-173.167 103 -276.5 103
c-106 0 -200.333 -33.333 -283 -100s-133 -152 -151 -256z" />
    <glyph glyph-name="f" unicode="f" horiz-adv-x="643" 
d="M207 0l-0.000976562 983.001h-174v137h174c0 123.333 35.333 219.666 106 288.999s168.334 104 293.001 104h29v-137h-29c-79.333 0 -140.5 -19.5 -183.5 -58.5s-64.5 -97.167 -64.5 -174.5v-23h279v-137h-279v-983h-151z" />
    <glyph glyph-name="g" unicode="g" horiz-adv-x="1378" 
d="M1249 1120v-960.003c0 -102 -6 -176 -18 -222c-17.333 -66 -55 -130.667 -113 -194c-53.333 -58 -119.5 -102.833 -198.5 -134.5s-160.167 -47.5 -243.5 -47.5c-126 0 -241.333 38 -346 114s-172.334 175 -203.001 297h147c45.333 -85.333 101.333 -150.333 168 -195
c70.667 -47.333 152.667 -71 246 -71c74 0 143.667 16.333 209 49c69.333 34.667 122 83.334 158 146.001c22 39.333 36.333 81 43 125c4 26 6 70.333 6 133v61c-34 -79.333 -94 -141.666 -180 -186.999c-79.333 -40.667 -165.333 -61 -258 -61
c-74 0 -145.833 14.333 -215.5 43s-132.5 69 -188.5 121c-58 55.333 -101.833 118.833 -131.5 190.5s-44.5 148.167 -44.5 229.5c0 36.667 3 72.5 9 107.5s15.667 70.833 29 107.5c20.667 58.667 43.667 102.334 69 131.001c68.667 87.333 144.334 151 227.001 191
c71.333 34 150.333 51 237 51c92.667 0 178.667 -20 258 -60c84.667 -43.333 147.667 -104 189 -182v217h145zM653 998.997c-116 0 -214.166 -42.167 -294.499 -126.5s-120.5 -184.833 -120.5 -301.5c0 -126 40 -232.833 120 -320.5s183.333 -131.5 310 -131.5
c59.333 0 114.666 10 165.999 30s98.333 52.333 141 97c37.333 39.333 67.833 87.5 91.5 144.5s35.5 113.167 35.5 168.5c0 124.667 -43.167 229.167 -129.5 313.5s-192.833 126.5 -319.5 126.5z" />
    <glyph glyph-name="h" unicode="h" horiz-adv-x="1249" 
d="M129 0l0.000976562 1513h152v-555c31.333 60 78.166 106.167 140.499 138.5s128.833 48.5 199.5 48.5c72.667 0 142.167 -14.667 208.5 -44s124.5 -72 174.5 -128c44 -52 75.333 -111.667 94 -179c14.667 -57.333 22 -125.333 22 -204v-590h-151v590
c0 60 -3.66699 106.667 -11 140c-10 46.667 -28.333 89.334 -55 128.001c-31.333 44.667 -73.166 79.334 -125.499 104.001s-106.833 37 -163.5 37c-52.667 0 -103.834 -12.167 -153.501 -36.5s-90.5 -57.833 -122.5 -100.5c-24 -32.667 -40.667 -76 -50 -130
c-2 -15.333 -3.66699 -34.5 -5 -57.5s-2 -51.167 -2 -84.5v-590h-152z" />
    <glyph glyph-name="i" unicode="i" horiz-adv-x="410" 
d="M129 0v1120h152v-1120h-152zM129 1255v258h152v-258h-152z" />
    <glyph glyph-name="j" unicode="j" horiz-adv-x="416" 
d="M287 1120v-1018c0 -99.333 -3.66699 -166.333 -11 -201c-13.333 -68.667 -44 -127.667 -92 -177c-35.333 -38.667 -76.833 -67.834 -124.5 -87.501s-98.167 -29.5 -151.5 -29.5v147c95.333 0 160 36.333 194 109c22 48 33 127.667 33 239v1018h152zM135 1255v258h152
v-258h-152z" />
    <glyph glyph-name="k" unicode="k" horiz-adv-x="1028" 
d="M129 0v1513h152v-1062l514 669h194l-434 -561l463 -559h-195l-364 442l-178 -229v-213h-152z" />
    <glyph glyph-name="l" unicode="l" horiz-adv-x="410" 
d="M129 0v1513h152v-1513h-152z" />
    <glyph glyph-name="m" unicode="m" horiz-adv-x="1921" 
d="M129 0l-0.000976562 1120h143v-145c26.667 55.333 66.834 97.5 120.501 126.5s113.167 43.5 178.5 43.5c74 0 141.167 -14.167 201.5 -42.5s114.166 -70.833 161.499 -127.5l29 -43l22 43c38 52 89.667 93.333 155 124c32 14.667 65 26 99 34s67.333 12 100 12
c118.667 0 235 -56.667 349 -170c40.667 -40.667 69.334 -91.334 86.001 -152.001c12 -45.333 18 -106.666 18 -183.999v-639h-152v625c0 34.667 -1 63.834 -3 87.501s-5.66699 44.834 -11 63.501c-9.33301 35.333 -23 65.333 -41 90
c-62.667 88.667 -147.334 133 -254.001 133c-48 0 -94.333 -11.167 -139 -33.5s-81 -53.5 -109 -93.5c-21.333 -30 -35.333 -69.333 -42 -118c-3.33301 -28 -5 -71 -5 -129v-625h-151v641c0 52.667 -2.66699 91 -8 115c-7.33301 38.667 -22.666 74.667 -45.999 108
c-28 40.667 -64.667 73.334 -110 98.001s-92.333 37 -141 37s-94.5 -10 -137.5 -30s-79.167 -49.333 -108.5 -88c-21.333 -30.667 -35.5 -65.334 -42.5 -104.001s-10.5 -84 -10.5 -136v-641h-152z" />
    <glyph glyph-name="n" unicode="n" horiz-adv-x="1249" 
d="M129 0l-0.000976562 1120h143v-162c44 61.333 94.833 107.833 152.5 139.5s123.167 47.5 196.5 47.5c76 0 148.5 -16 217.5 -48s128.833 -78.333 179.5 -139c39.333 -48.667 67 -105.667 83 -171c6 -26 10.667 -55.333 14 -88s5 -69 5 -109v-590h-151v590
c0 59.333 -3.66699 105.666 -11 138.999c-10 47.333 -28.333 89.666 -55 126.999c-32.667 46 -74.5 81.333 -125.5 106s-105.5 37 -163.5 37c-52.667 0 -104.167 -12.167 -154.5 -36.5s-90.166 -57.833 -119.499 -100.5c-26 -34 -43 -77.333 -51 -130
c-2.66699 -16.667 -4.66699 -36 -6 -58s-2 -50 -2 -84v-590h-152z" />
    <glyph glyph-name="o" unicode="o" 
d="M674 1145c154.667 0 290.168 -57.168 406.501 -171.501s174.5 -249.833 174.5 -406.5c0 -161.333 -56.667 -300.666 -170 -417.999s-250.333 -176 -411 -176s-298.834 56.667 -414.501 170s-173.5 250 -173.5 410c0 162.667 57 302 171 418s253 174 417 174z
M674.001 998.999c-122.667 0 -226 -43.499 -310 -130.499s-126 -192.167 -126 -315.5c0 -120 42.833 -222.333 128.5 -307s188.167 -127 307.5 -127c123.333 0 225.833 43.833 307.5 131.5s122.5 193.167 122.5 316.5s-43.667 226.666 -131 309.999
c-39.333 37.333 -85.5 67 -138.5 89s-106.5 33 -160.5 33z" />
    <glyph glyph-name="p" unicode="p" horiz-adv-x="1397" 
d="M129 1120l143.002 0.000976562v-192c42 68.667 107 123 195 163c80 36 164 54 252 54c84 0 163.667 -17.167 239 -51.5s148.666 -89.5 219.999 -165.5c36 -32.667 67.167 -83.834 93.5 -153.501s39.5 -142.834 39.5 -219.501
c0 -163.333 -59.833 -301.166 -179.5 -413.499s-261.834 -168.5 -426.501 -168.5c-88.667 0 -171 19.667 -247 59c-82 42 -141 101 -177 177v-602h-152v1513zM709.002 119.001c125.333 0 231.667 41.666 319 124.999s131 187.666 131 312.999
c0 122 -42.833 226.167 -128.5 312.5s-189.5 129.5 -311.5 129.5c-124 0 -229.833 -41 -317.5 -123s-131.5 -184.333 -131.5 -307c0 -63.333 9 -120.666 27 -171.999s48 -98.166 90 -140.499s91.167 -75.833 147.5 -100.5s114.5 -37 174.5 -37z" />
    <glyph glyph-name="q" unicode="q" horiz-adv-x="1397" 
d="M1268 1120l0.00195312 -1513h-152v602c-34.667 -73.333 -93.667 -132 -177 -176c-76 -40 -158.333 -60 -247 -60c-164 0 -306 55.667 -426 167s-180 249.666 -180 414.999c0 76 14 151 42 225c24 64.667 53.667 114 89 148c63.333 73.333 136.666 129 219.999 167
c76 33.333 156.333 50 241 50c85.333 0 168.666 -18 249.999 -54c88 -40 153.333 -94.333 196 -163v192h144zM688.002 119.001c62 0 120.333 11.5 175 34.5s103.167 56.333 145.5 100s72.5 91.167 90.5 142.5s27 109 27 173c0 122.667 -43.167 225 -129.5 307
s-192.5 123 -318.5 123c-122 0 -225.833 -43.333 -311.5 -130s-128.5 -190.667 -128.5 -312c0 -124 43.5 -228 130.5 -312s193.5 -126 319.5 -126z" />
    <glyph glyph-name="r" unicode="r" horiz-adv-x="616" 
d="M129 0v1120h143v-162c28 64.667 72.667 112.667 134 144c55.333 28.667 119.333 43 192 43v-150c-73.333 0 -141 -25.667 -203 -77c-48 -41.333 -80 -85 -96 -131c-12 -35.333 -18 -88.666 -18 -159.999v-627h-152z" />
    <glyph glyph-name="s" unicode="s" horiz-adv-x="795" 
d="M37 330l151 0.00585938c0 -58.667 19.5 -108.5 58.5 -149.5s87.167 -61.5 144.5 -61.5c54.667 0 101.167 17.167 139.5 51.5s57.5 79.166 57.5 134.499c0 59.333 -22.333 108 -67 146c-32 26 -79.667 48.667 -143 68c-27.333 8 -51.833 15.667 -73.5 23
s-35.5 12.333 -41.5 15c-37.333 16 -69.333 36.5 -96 61.5s-48.667 56.833 -66 95.5c-15.333 38.667 -23 77.667 -23 117c0 90 31.333 164.833 94 224.5s139 89.5 229 89.5c83.333 0 155.833 -30 217.5 -90s92.5 -131 92.5 -213h-152c0 48 -16.333 86.167 -49 114.5
s-74.334 42.5 -125.001 42.5c-41.333 0 -77.666 -15.167 -108.999 -45.5s-47 -66.833 -47 -109.5c0 -54.667 20.333 -97.334 61 -128.001c22.667 -17.333 68 -37 136 -59c101.333 -31.333 174.333 -67 219 -107c30.667 -26.667 54 -58.334 70 -95.001
s24 -78.334 24 -125.001c0 -104.667 -33.833 -190.334 -101.5 -257.001s-154.5 -100 -260.5 -100c-94 0 -174.167 35.167 -240.5 105.5s-99.5 154.166 -99.5 251.499z" />
    <glyph glyph-name="t" unicode="t" horiz-adv-x="694" 
d="M258 0v983h-233v137h233v393h152v-393h260v-137h-260v-983h-152z" />
    <glyph glyph-name="u" unicode="u" horiz-adv-x="1245" 
d="M1116 1120l0.000976562 -1120h-143v174c-34.667 -68 -86 -119.333 -154 -154c-62.667 -31.333 -135 -47 -217 -47c-75.333 0 -142.666 14.667 -201.999 44c-64.667 32 -128.334 84.333 -191.001 157c-29.333 31.333 -51 81 -65 149c-10 53.333 -15 121.666 -15 204.999
v592h152v-592c0 -68 4 -119 12 -153s20.333 -65.333 37 -94c30 -52 70.667 -92 122 -120s108.333 -42 171 -42c55.333 0 106.333 11.5 153 34.5s87 57.167 121 102.5c25.333 35.333 43.666 78.666 54.999 129.999c8.66699 43.333 13 90.666 13 141.999v592h151z" />
    <glyph glyph-name="v" unicode="v" horiz-adv-x="1135" 
d="M487 0l-471 1120h164l387 -927l387 927h164l-473 -1120h-158z" />
    <glyph glyph-name="w" unicode="w" horiz-adv-x="1702" 
d="M438 0l-424 1120h160l352 -938l260 801h125l258 -801l359 938h160l-426 -1120h-175l-239 743l-236 -743h-174z" />
    <glyph glyph-name="x" unicode="x" horiz-adv-x="983" 
d="M16 0l383 569l-383 551h179l297 -432l296 432h179l-385 -551l385 -569h-179l-296 449l-297 -449h-179z" />
    <glyph glyph-name="y" unicode="y" horiz-adv-x="1098" 
d="M918 1120h161l-647 -1513h-160l177 428l-431 1085h162l359 -893z" />
    <glyph glyph-name="z" unicode="z" horiz-adv-x="870" 
d="M20 0v133l607 850h-586v137h770v-137l-602 -846h641v-137h-830z" />
    <glyph glyph-name="braceleft" unicode="{" horiz-adv-x="719" 
d="M244 858v346c0 118 21 199 63 243s124.667 66 248 66c-60 -16.667 -102.333 -44 -127 -82s-37 -89 -37 -153v-365c0 -83.333 -10.667 -144.333 -32 -183c-26.667 -50 -77.334 -84.333 -152.001 -103c70 -14 119.333 -43.333 148 -88c24 -38 36 -95.333 36 -172v-392
c0 -67.333 11.333 -118.333 34 -153s66 -62 130 -82c-58 0 -99 2 -123 6c-40 6 -76.333 21.333 -109 46s-55 58 -67 100c-8 29.333 -12 70 -12 122v389v14v12c0 28 -1.66699 47 -5 57c-2.66699 12 -7.16699 24.5 -13.5 37.5s-14.5 25.5 -24.5 37.5
c-34 38 -75.667 60 -125 66c13.333 3.33301 23.833 6.33301 31.5 9s16.834 6.33398 27.501 11.001c16 7.33301 32.333 17.666 49 30.999c26 20.667 43.667 47.667 53 81c4.66699 21.333 7 54.333 7 99z" />
    <glyph glyph-name="bar" unicode="|" horiz-adv-x="1376" 
d="M623 0v1513h131v-1513h-131z" />
    <glyph glyph-name="braceright" unicode="}" horiz-adv-x="719" 
d="M236 913l-0.00195312 364.995c0 64 -12 114.667 -36 152s-64.667 65 -122 83c118.667 0 199.667 -22.667 243 -68c41.333 -43.333 62 -123.666 62 -240.999v-346c0 -46.667 2.33301 -79.334 7 -98.001c8 -31.333 26 -58.666 54 -81.999
c14.667 -11.333 31 -21.666 49 -30.999c10.667 -4.66699 22 -9 34 -13c2 -0.666992 10 -3 24 -7c-48 -6 -89 -28 -123 -66c-19.333 -22 -32 -44.667 -38 -68c-2 -10.667 -3.66699 -23.667 -5 -39s-2 -32.333 -2 -51v-389c0 -22.667 -0.5 -43.667 -1.5 -63
s-4.16699 -38.666 -9.5 -57.999c-10.667 -42 -33 -75.333 -67 -100c-23.333 -17.333 -50.666 -30.666 -81.999 -39.999c-32.667 -8.66699 -81 -13 -145 -13c60 18.667 101.333 45.834 124 81.501s34 86.834 34 153.501v392c0 40 2.66699 73.833 8 101.5
s14.333 51.167 27 70.5c26.667 44 76.334 73.333 149.001 88c-73.333 18 -124 52 -152 102c-21.333 39.333 -32 100.666 -32 183.999z" />
    <glyph glyph-name="asciitilde" unicode="~" horiz-adv-x="1241" 
d="M1051 801l85.999 -95.999c-38 -68 -77 -120 -117 -156c-53.333 -48 -111.333 -72 -174 -72c-38.667 0 -98 16 -178 48l-99 42l-83 34c-32.667 11.333 -62.334 17 -89.001 17c-46.667 0 -89 -20.333 -127 -61c-17.333 -18.667 -44.666 -59.667 -81.999 -123l-84 98
c52 93.333 103 158.666 153 195.999c42.667 30.667 89.334 46 140.001 46c41.333 0 94 -12.333 158 -37l164 -71c56.667 -23.333 99.667 -35 129 -35c40.667 0 81 19 121 57c30 29.333 57.333 67 82 113z" />
    <glyph glyph-name="dieresis" unicode="&#xa8;" horiz-adv-x="1024" 
 />
    <glyph glyph-name="onequarter" unicode="&#xbc;" horiz-adv-x="1780" 
 />
    <glyph glyph-name="onehalf" unicode="&#xbd;" horiz-adv-x="1780" 
 />
    <glyph glyph-name="threequarters" unicode="&#xbe;" horiz-adv-x="1780" 
 />
    <glyph glyph-name=".notdef.106" unicode="&#xc0;" horiz-adv-x="1516" 
d="M23 0l653 1513h168l649 -1513h-164l-219 508h-704l-220 -508h-163zM588 1989l405 -222l-67 -118l-404 217zM465 645h586l-291 694z" />
    <glyph glyph-name=".notdef.107" unicode="&#xc1;" horiz-adv-x="1516" 
d="M23 0l653 1513h168l649 -1513h-164l-219 508h-704l-220 -508h-163zM526 1763l394 238l71 -119l-395 -233zM465 645h586l-291 694z" />
    <glyph glyph-name=".notdef.111" unicode="&#xc2;" horiz-adv-x="1516" 
d="M23 0l653 1513h168l649 -1513h-164l-219 508h-704l-220 -508h-163zM395 1649l297 258h131l297 -258h-184l-178 149l-178 -149h-185zM465 645h586l-291 694z" />
    <glyph glyph-name=".notdef.109" unicode="&#xc3;" horiz-adv-x="1516" 
d="M23 0l653 1513h168l649 -1513h-164l-219 508h-704l-220 -508h-163zM995 1827l62.001 -97.998c-10 -9.33301 -21.167 -18.333 -33.5 -27s-28.166 -18.334 -47.499 -29.001c-30 -16 -59 -24 -87 -24l-37 3c-4.66699 0.666992 -10.834 2 -18.501 4s-14.5 4.33301 -20.5 7
c-15.333 5.33301 -37.833 15.833 -67.5 31.5s-52.834 25.667 -69.501 30s-29.667 6.5 -39 6.5c-18 0 -38.667 -6 -62 -18c-7.33301 -4 -15.833 -9.83301 -25.5 -17.5s-18.834 -15.834 -27.501 -24.501l-59 101c26 28 53.833 49.333 83.5 64s61.834 22 96.501 22
c40 0 84.833 -13.667 134.5 -41s86.167 -41 109.5 -41c20 0 42 7 66 21zM465.001 645.002h586l-291 694z" />
    <glyph glyph-name=".notdef.123" unicode="&#xc8;" horiz-adv-x="1098" 
d="M156 0v1513h827v-137h-676v-545h654v-137h-654v-557h676v-137h-827zM379 1989l405 -222l-67 -118l-404 217z" />
    <glyph glyph-name=".notdef.124" unicode="&#xc9;" horiz-adv-x="1098" 
d="M156 0v1513h827v-137h-676v-545h654v-137h-654v-557h676v-137h-827zM317 1763l394 238l71 -119l-395 -233z" />
    <glyph glyph-name=".notdef.128" unicode="&#xca;" horiz-adv-x="1098" 
d="M156 0v1513h827v-137h-676v-545h654v-137h-654v-557h676v-137h-827zM188 1649l297 258h131l297 -258h-184l-178 149l-178 -149h-185z" />
    <glyph glyph-name=".notdef.104" unicode="&#xcc;" horiz-adv-x="463" 
d="M156 0v1513h151v-1513h-151zM61 1989l406 -222l-68 -118l-403 217z" />
    <glyph glyph-name=".notdef.103" unicode="&#xcd;" horiz-adv-x="463" 
d="M156 0v1513h151v-1513h-151zM0 1763l393 238l72 -119l-395 -233z" />
    <glyph glyph-name=".notdef.099" unicode="&#xd2;" horiz-adv-x="1780" 
d="M889 1538c216 0 403.501 -75.332 562.501 -225.999s238.5 -334 238.5 -550c0 -218.667 -78.333 -404.834 -235 -558.501s-345.334 -230.5 -566.001 -230.5c-214 0 -400 75 -558 225c-160.667 153.333 -241 337.333 -241 552c0 218 78.167 403.833 234.5 557.5
s344.5 230.5 564.5 230.5zM721.001 1989l405 -222l-67 -118l-404 217zM891.001 1393c-178 0 -330.667 -62.667 -458 -188s-191 -277 -191 -455c0 -172 64.667 -320.167 194 -444.5s281 -186.5 455 -186.5c178 0 330.333 62.5 457 187.5s190 276.833 190 455.5
c0 172.667 -64.167 321 -192.5 445s-279.833 186 -454.5 186z" />
    <glyph glyph-name=".notdef.098" unicode="&#xd3;" horiz-adv-x="1780" 
d="M889 1538c216 0 403.501 -75.332 562.501 -225.999s238.5 -334 238.5 -550c0 -218.667 -78.333 -404.834 -235 -558.501s-345.334 -230.5 -566.001 -230.5c-214 0 -400 75 -558 225c-160.667 153.333 -241 337.333 -241 552c0 218 78.167 403.833 234.5 557.5
s344.5 230.5 564.5 230.5zM657.001 1763l394 238l71 -119l-395 -233zM891.001 1393c-178 0 -330.667 -62.667 -458 -188s-191 -277 -191 -455c0 -172 64.667 -320.167 194 -444.5s281 -186.5 455 -186.5c178 0 330.333 62.5 457 187.5s190 276.833 190 455.5
c0 172.667 -64.167 321 -192.5 445s-279.833 186 -454.5 186z" />
    <glyph glyph-name=".notdef.094" unicode="&#xd4;" horiz-adv-x="1780" 
d="M889 1538c216 0 403.501 -75.332 562.501 -225.999s238.5 -334 238.5 -550c0 -218.667 -78.333 -404.834 -235 -558.501s-345.334 -230.5 -566.001 -230.5c-214 0 -400 75 -558 225c-160.667 153.333 -241 337.333 -241 552c0 218 78.167 403.833 234.5 557.5
s344.5 230.5 564.5 230.5zM528.001 1649l297 258h131l297 -258h-184l-178 149l-178 -149h-185zM891.001 1393c-178 0 -330.667 -62.667 -458 -188s-191 -277 -191 -455c0 -172 64.667 -320.167 194 -444.5s281 -186.5 455 -186.5c178 0 330.333 62.5 457 187.5
s190 276.833 190 455.5c0 172.667 -64.167 321 -192.5 445s-279.833 186 -454.5 186z" />
    <glyph glyph-name=".notdef.096" unicode="&#xd5;" horiz-adv-x="1780" 
d="M889 1538c216 0 403.501 -75.332 562.501 -225.999s238.5 -334 238.5 -550c0 -218.667 -78.333 -404.834 -235 -558.501s-345.334 -230.5 -566.001 -230.5c-214 0 -400 75 -558 225c-160.667 153.333 -241 337.333 -241 552c0 218 78.167 403.833 234.5 557.5
s344.5 230.5 564.5 230.5zM1126 1827l62.001 -97.998c-10 -9.33301 -21.167 -18.333 -33.5 -27s-28.166 -18.334 -47.499 -29.001c-30 -16 -59 -24 -87 -24l-37 3c-4.66699 0.666992 -10.834 2 -18.501 4s-14.5 4.33301 -20.5 7c-15.333 5.33301 -37.833 15.833 -67.5 31.5
s-52.834 25.667 -69.501 30s-29.667 6.5 -39 6.5c-18 0 -38.667 -6 -62 -18c-7.33301 -4 -15.833 -9.83301 -25.5 -17.5s-18.834 -15.834 -27.501 -24.501l-59 101c26 28 53.833 49.333 83.5 64s61.834 22 96.501 22c40 0 84.833 -13.667 134.5 -41s86.167 -41 109.5 -41
c20 0 42 7 66 21zM891.002 1393c-178 0 -330.667 -62.667 -458 -188s-191 -277 -191 -455c0 -172 64.667 -320.167 194 -444.5s281 -186.5 455 -186.5c178 0 330.333 62.5 457 187.5s190 276.833 190 455.5c0 172.667 -64.167 321 -192.5 445s-279.833 186 -454.5 186z" />
    <glyph glyph-name=".notdef.088" unicode="&#xd9;" 
d="M156 1513h151v-919c0 -32 1 -62.333 3 -91s5.33301 -56.667 10 -84c8.66699 -50 28 -98.333 58 -145s71.167 -84.167 123.5 -112.5s109.166 -42.5 170.499 -42.5c56.667 0 109 11.833 157 35.5s88 57 120 100s55.667 97.167 71 162.5c9.33301 48 14 107 14 177v919h152
v-919c0 -92.667 -6.33301 -167.334 -19 -224.001c-8.66699 -38.667 -20.667 -74.667 -36 -108s-35 -65.666 -59 -96.999c-44.667 -60 -103.167 -107 -175.5 -141s-147.166 -51 -224.499 -51c-78.667 0 -151.5 15.167 -218.5 45.5s-125 75 -174 134
s-83.167 128.833 -102.5 209.5c-14 60 -21 137.333 -21 232v919zM502 1989l405 -222l-67 -118l-404 217z" />
    <glyph glyph-name=".notdef.087" unicode="&#xda;" 
d="M156 1513h151v-919c0 -32 1 -62.333 3 -91s5.33301 -56.667 10 -84c8.66699 -50 28 -98.333 58 -145s71.167 -84.167 123.5 -112.5s109.166 -42.5 170.499 -42.5c56.667 0 109 11.833 157 35.5s88 57 120 100s55.667 97.167 71 162.5c9.33301 48 14 107 14 177v919h152
v-919c0 -92.667 -6.33301 -167.334 -19 -224.001c-8.66699 -38.667 -20.667 -74.667 -36 -108s-35 -65.666 -59 -96.999c-44.667 -60 -103.167 -107 -175.5 -141s-147.166 -51 -224.499 -51c-78.667 0 -151.5 15.167 -218.5 45.5s-125 75 -174 134
s-83.167 128.833 -102.5 209.5c-14 60 -21 137.333 -21 232v919zM438 1763l393 238l72 -119l-395 -233z" />
    <glyph glyph-name=".notdef.070" unicode="&#xdd;" horiz-adv-x="1212" 
d="M530 0v506l-526 1007h166l436 -849l436 849h166l-526 -1007v-506h-152zM375 1763l393 238l72 -119l-396 -233z" />
    <glyph glyph-name=".notdef.066" unicode="&#xe0;" horiz-adv-x="1399" 
d="M1270 1120l-0.00195312 -1120h-146v211c-40.667 -75.333 -101.667 -134.666 -183 -177.999c-76 -40 -159.667 -60 -251 -60c-87.333 0 -172.666 19 -255.999 57c-88.667 40 -167.667 100.333 -237 181c-25.333 27.333 -49 71 -71 131c-26.667 74.667 -40 149.667 -40 225
c0 68 14.333 138.667 43 212c24 62.667 48.667 105.334 74 128.001c78.667 86 161 148.333 247 187c74 34 152.667 51 236 51c47.333 0 91.5 -4.66699 132.5 -14s81.167 -24.333 120.5 -45c82.667 -42 144.334 -101.667 185.001 -179v213h146zM529.998 1595l406 -221
l-68 -119l-403 218zM685.998 998.998c-122.667 0 -227.999 -43.168 -315.999 -129.501s-132 -191.166 -132 -314.499c0 -120.667 45.167 -223.5 135.5 -308.5s195.833 -127.5 316.5 -127.5c116 0 217.333 43 304 129s130 187.667 130 305
c0 123.333 -41.833 228.5 -125.5 315.5s-187.834 130.5 -312.501 130.5z" />
    <glyph glyph-name=".notdef.065" unicode="&#xe1;" horiz-adv-x="1399" 
d="M1270 1120l-0.00195312 -1120h-146v211c-40.667 -75.333 -101.667 -134.666 -183 -177.999c-76 -40 -159.667 -60 -251 -60c-87.333 0 -172.666 19 -255.999 57c-88.667 40 -167.667 100.333 -237 181c-25.333 27.333 -49 71 -71 131c-26.667 74.667 -40 149.667 -40 225
c0 68 14.333 138.667 43 212c24 62.667 48.667 105.334 74 128.001c78.667 86 161 148.333 247 187c74 34 152.667 51 236 51c47.333 0 91.5 -4.66699 132.5 -14s81.167 -24.333 120.5 -45c82.667 -42 144.334 -101.667 185.001 -179v213h146zM685.998 998.998
c-122.667 0 -227.999 -43.168 -315.999 -129.501s-132 -191.166 -132 -314.499c0 -120.667 45.167 -223.5 135.5 -308.5s195.833 -127.5 316.5 -127.5c116 0 217.333 43 304 129s130 187.667 130 305c0 123.333 -41.833 228.5 -125.5 315.5s-187.834 130.5 -312.501 130.5z
M958.999 1473l-403 -218l-68 119l406 221z" />
    <glyph glyph-name=".notdef.061" unicode="&#xe2;" horiz-adv-x="1399" 
d="M1270 1120l-0.00195312 -1120h-146v211c-40.667 -75.333 -101.667 -134.666 -183 -177.999c-76 -40 -159.667 -60 -251 -60c-87.333 0 -172.666 19 -255.999 57c-88.667 40 -167.667 100.333 -237 181c-25.333 27.333 -49 71 -71 131c-26.667 74.667 -40 149.667 -40 225
c0 68 14.333 138.667 43 212c24 62.667 48.667 105.334 74 128.001c78.667 86 161 148.333 247 187c74 34 152.667 51 236 51c47.333 0 91.5 -4.66699 132.5 -14s81.167 -24.333 120.5 -45c82.667 -42 144.334 -101.667 185.001 -179v213h146zM337.998 1255l297 258h131
l297 -258h-184l-179 150l-178 -150h-184zM685.998 998.998c-122.667 0 -227.999 -43.168 -315.999 -129.501s-132 -191.166 -132 -314.499c0 -120.667 45.167 -223.5 135.5 -308.5s195.833 -127.5 316.5 -127.5c116 0 217.333 43 304 129s130 187.667 130 305
c0 123.333 -41.833 228.5 -125.5 315.5s-187.834 130.5 -312.501 130.5z" />
    <glyph glyph-name=".notdef.063" unicode="&#xe3;" horiz-adv-x="1399" 
d="M1270 1120l-0.00195312 -1120h-146v211c-40.667 -75.333 -101.667 -134.666 -183 -177.999c-76 -40 -159.667 -60 -251 -60c-87.333 0 -172.666 19 -255.999 57c-88.667 40 -167.667 100.333 -237 181c-25.333 27.333 -49 71 -71 131c-26.667 74.667 -40 149.667 -40 225
c0 68 14.333 138.667 43 212c24 62.667 48.667 105.334 74 128.001c78.667 86 161 148.333 247 187c74 34 152.667 51 236 51c47.333 0 91.5 -4.66699 132.5 -14s81.167 -24.333 120.5 -45c82.667 -42 144.334 -101.667 185.001 -179v213h146zM685.998 998.998
c-122.667 0 -227.999 -43.168 -315.999 -129.501s-132 -191.166 -132 -314.499c0 -120.667 45.167 -223.5 135.5 -308.5s195.833 -127.5 316.5 -127.5c116 0 217.333 43 304 129s130 187.667 130 305c0 123.333 -41.833 228.5 -125.5 315.5s-187.834 130.5 -312.501 130.5z
M923.999 1460l62.001 -97.998c-10 -9.33301 -21.167 -18.333 -33.5 -27s-28.166 -18.334 -47.499 -29.001c-30 -16 -59 -24 -87 -24l-37 3c-4.66699 0.666992 -10.834 2 -18.501 4s-14.5 4.33301 -20.5 7c-15.333 5.33301 -37.833 15.833 -67.5 31.5
s-52.834 25.667 -69.501 30s-29.667 6.5 -39 6.5c-18 0 -38.667 -6 -62 -18c-7.33301 -4 -15.833 -9.83301 -25.5 -17.5s-18.834 -15.834 -27.501 -24.501l-59 101c26 28 53.833 49.333 83.5 64s61.834 22 96.501 22c40 0 84.833 -13.667 134.5 -41s86.167 -41 109.5 -41
c20 0 42 7 66 21z" />
    <glyph glyph-name=".notdef.049" unicode="&#xe8;" horiz-adv-x="1331" 
d="M1251 506h-1013c0 -104 44.333 -195 133 -273c86 -76 182 -114 288 -114c84.667 0 164.334 22 239.001 66s129 104 163 180h158c-38.667 -112 -109.334 -205.333 -212.001 -280s-213.667 -112 -333 -112c-164.667 0 -303.834 56.667 -417.501 170s-170.5 252 -170.5 416
c0 163.333 56.5 301.833 169.5 415.5s251.167 170.5 414.5 170.5c87.333 0 170 -19 248 -57s145.333 -91.333 202 -160c50 -61.333 85 -127.333 105 -198c17.333 -61.333 26 -136 26 -224zM238.001 643h862c-20 100 -70.5 184.333 -151.5 253s-173.167 103 -276.5 103
c-106 0 -200.333 -33.333 -283 -100s-133 -152 -151 -256zM530.001 1595l406 -221l-68 -119l-403 218z" />
    <glyph glyph-name=".notdef.048" unicode="&#xe9;" horiz-adv-x="1331" 
d="M1251 506h-1013c0 -104 44.333 -195 133 -273c86 -76 182 -114 288 -114c84.667 0 164.334 22 239.001 66s129 104 163 180h158c-38.667 -112 -109.334 -205.333 -212.001 -280s-213.667 -112 -333 -112c-164.667 0 -303.834 56.667 -417.501 170s-170.5 252 -170.5 416
c0 163.333 56.5 301.833 169.5 415.5s251.167 170.5 414.5 170.5c87.333 0 170 -19 248 -57s145.333 -91.333 202 -160c50 -61.333 85 -127.333 105 -198c17.333 -61.333 26 -136 26 -224zM238.001 643h862c-20 100 -70.5 184.333 -151.5 253s-173.167 103 -276.5 103
c-106 0 -200.333 -33.333 -283 -100s-133 -152 -151 -256zM959.001 1473l-403 -218l-68 119l406 221z" />
    <glyph glyph-name=".notdef.044" unicode="&#xea;" horiz-adv-x="1331" 
d="M1251 506h-1013c0 -104 44.333 -195 133 -273c86 -76 182 -114 288 -114c84.667 0 164.334 22 239.001 66s129 104 163 180h158c-38.667 -112 -109.334 -205.333 -212.001 -280s-213.667 -112 -333 -112c-164.667 0 -303.834 56.667 -417.501 170s-170.5 252 -170.5 416
c0 163.333 56.5 301.833 169.5 415.5s251.167 170.5 414.5 170.5c87.333 0 170 -19 248 -57s145.333 -91.333 202 -160c50 -61.333 85 -127.333 105 -198c17.333 -61.333 26 -136 26 -224zM303.001 1255l297 258h131l297 -258h-184l-178 150l-179 -150h-184zM238.001 643
h862c-20 100 -70.5 184.333 -151.5 253s-173.167 103 -276.5 103c-106 0 -200.333 -33.333 -283 -100s-133 -152 -151 -256z" />
    <glyph glyph-name=".notdef.038" unicode="&#xec;" horiz-adv-x="410" 
d="M129 0v1120h152v-1120h-152zM4 1595l406 -221l-68 -119l-403 218z" />
    <glyph glyph-name=".notdef.037" unicode="&#xed;" horiz-adv-x="410" 
d="M129 0v1120h152v-1120h-152zM470 1473l-403 -218l-68 119l406 221z" />
    <glyph glyph-name=".notdef.033" unicode="&#xf2;" 
d="M674 1145c154.667 0 290.168 -57.168 406.501 -171.501s174.5 -249.833 174.5 -406.5c0 -161.333 -56.667 -300.666 -170 -417.999s-250.333 -176 -411 -176s-298.834 56.667 -414.501 170s-173.5 250 -173.5 410c0 162.667 57 302 171 418s253 174 417 174z
M674.001 998.999c-122.667 0 -226 -43.499 -310 -130.499s-126 -192.167 -126 -315.5c0 -120 42.833 -222.333 128.5 -307s188.167 -127 307.5 -127c123.333 0 225.833 43.833 307.5 131.5s122.5 193.167 122.5 316.5s-43.667 226.666 -131 309.999
c-39.333 37.333 -85.5 67 -138.5 89s-106.5 33 -160.5 33zM530.001 1595l406 -221l-68 -119l-403 218z" />
    <glyph glyph-name=".notdef.032" unicode="&#xf3;" 
d="M674 1145c154.667 0 290.168 -57.168 406.501 -171.501s174.5 -249.833 174.5 -406.5c0 -161.333 -56.667 -300.666 -170 -417.999s-250.333 -176 -411 -176s-298.834 56.667 -414.501 170s-173.5 250 -173.5 410c0 162.667 57 302 171 418s253 174 417 174z
M674.001 998.999c-122.667 0 -226 -43.499 -310 -130.499s-126 -192.167 -126 -315.5c0 -120 42.833 -222.333 128.5 -307s188.167 -127 307.5 -127c123.333 0 225.833 43.833 307.5 131.5s122.5 193.167 122.5 316.5s-43.667 226.666 -131 309.999
c-39.333 37.333 -85.5 67 -138.5 89s-106.5 33 -160.5 33zM959.001 1473l-403 -218l-68 119l406 221z" />
    <glyph glyph-name=".notdef.028" unicode="&#xf4;" 
d="M674 1145c154.667 0 290.168 -57.168 406.501 -171.501s174.5 -249.833 174.5 -406.5c0 -161.333 -56.667 -300.666 -170 -417.999s-250.333 -176 -411 -176s-298.834 56.667 -414.501 170s-173.5 250 -173.5 410c0 162.667 57 302 171 418s253 174 417 174z
M309.001 1255l297 258h131l297 -258h-184l-178 150l-178 -150h-185zM674.001 998.999c-122.667 0 -226 -43.499 -310 -130.499s-126 -192.167 -126 -315.5c0 -120 42.833 -222.333 128.5 -307s188.167 -127 307.5 -127c123.333 0 225.833 43.833 307.5 131.5
s122.5 193.167 122.5 316.5s-43.667 226.666 -131 309.999c-39.333 37.333 -85.5 67 -138.5 89s-106.5 33 -160.5 33z" />
    <glyph glyph-name=".notdef.030" unicode="&#xf5;" 
d="M674 1145c154.667 0 290.168 -57.168 406.501 -171.501s174.5 -249.833 174.5 -406.5c0 -161.333 -56.667 -300.666 -170 -417.999s-250.333 -176 -411 -176s-298.834 56.667 -414.501 170s-173.5 250 -173.5 410c0 162.667 57 302 171 418s253 174 417 174z
M674.001 998.999c-122.667 0 -226 -43.499 -310 -130.499s-126 -192.167 -126 -315.5c0 -120 42.833 -222.333 128.5 -307s188.167 -127 307.5 -127c123.333 0 225.833 43.833 307.5 131.5s122.5 193.167 122.5 316.5s-43.667 226.666 -131 309.999
c-39.333 37.333 -85.5 67 -138.5 89s-106.5 33 -160.5 33zM908.001 1460l62.001 -97.998c-10 -9.33301 -21.167 -18.333 -33.5 -27s-28.166 -18.334 -47.499 -29.001c-30 -16 -59 -24 -87 -24l-37 3c-4.66699 0.666992 -10.834 2 -18.501 4s-14.5 4.33301 -20.5 7
c-15.333 5.33301 -37.833 15.833 -67.5 31.5s-52.834 25.667 -69.501 30s-29.667 6.5 -39 6.5c-18 0 -38.667 -6 -62 -18c-7.33301 -4 -15.833 -9.83301 -25.5 -17.5s-18.834 -15.834 -27.501 -24.501l-59 101c26 28 53.833 49.333 83.5 64s61.834 22 96.501 22
c40 0 84.833 -13.667 134.5 -41s86.167 -41 109.5 -41c20 0 42 7 66 21z" />
    <glyph glyph-name="divide" unicode="&#xf7;" horiz-adv-x="1706" 
 />
    <glyph glyph-name=".notdef.022" unicode="&#xf9;" horiz-adv-x="1245" 
d="M1116 1120l0.000976562 -1120h-143v174c-34.667 -68 -86 -119.333 -154 -154c-62.667 -31.333 -135 -47 -217 -47c-75.333 0 -142.666 14.667 -201.999 44c-64.667 32 -128.334 84.333 -191.001 157c-29.333 31.333 -51 81 -65 149c-10 53.333 -15 121.666 -15 204.999
v592h152v-592c0 -68 4 -119 12 -153s20.333 -65.333 37 -94c30 -52 70.667 -92 122 -120s108.333 -42 171 -42c55.333 0 106.333 11.5 153 34.5s87 57.167 121 102.5c25.333 35.333 43.666 78.666 54.999 129.999c8.66699 43.333 13 90.666 13 141.999v592h151z
M455.001 1595l406 -221l-68 -119l-403 218z" />
    <glyph glyph-name=".notdef.021" unicode="&#xfa;" horiz-adv-x="1245" 
d="M1116 1120l0.000976562 -1120h-143v174c-34.667 -68 -86 -119.333 -154 -154c-62.667 -31.333 -135 -47 -217 -47c-75.333 0 -142.666 14.667 -201.999 44c-64.667 32 -128.334 84.333 -191.001 157c-29.333 31.333 -51 81 -65 149c-10 53.333 -15 121.666 -15 204.999
v592h152v-592c0 -68 4 -119 12 -153s20.333 -65.333 37 -94c30 -52 70.667 -92 122 -120s108.333 -42 171 -42c55.333 0 106.333 11.5 153 34.5s87 57.167 121 102.5c25.333 35.333 43.666 78.666 54.999 129.999c8.66699 43.333 13 90.666 13 141.999v592h151z
M884.001 1473l-403 -218l-68 119l406 221z" />
    <glyph glyph-name=".notdef.004" unicode="&#xfd;" horiz-adv-x="1098" 
d="M918 1120h161l-647 -1513h-160l177 428l-431 1085h162l359 -893zM817 1473l-403 -218l-68 119l406 221z" />
    <glyph glyph-name=".notdef.117" unicode="&#x102;" horiz-adv-x="1516" 
d="M23 0l653 1513h168l649 -1513h-164l-219 508h-704l-220 -508h-163zM465 645h586l-291 694zM421 1862l136.999 -0.000976562c16 -34 42.833 -59.5 80.5 -76.5s77.167 -25.5 118.5 -25.5s80.333 8.83301 117 26.5s62.334 42.834 77.001 75.501h142
c-19.333 -75.333 -61.333 -133.666 -126 -174.999c-59.333 -36.667 -129.333 -55 -210 -55c-81.333 0 -151.333 18.333 -210 55c-64.667 41.333 -106.667 99.666 -126 174.999z" />
    <glyph glyph-name=".notdef.055" unicode="&#x103;" horiz-adv-x="1399" 
d="M1270 1120l-0.00195312 -1120h-146v211c-40.667 -75.333 -101.667 -134.666 -183 -177.999c-76 -40 -159.667 -60 -251 -60c-87.333 0 -172.666 19 -255.999 57c-88.667 40 -167.667 100.333 -237 181c-25.333 27.333 -49 71 -71 131c-26.667 74.667 -40 149.667 -40 225
c0 68 14.333 138.667 43 212c24 62.667 48.667 105.334 74 128.001c78.667 86 161 148.333 247 187c74 34 152.667 51 236 51c47.333 0 91.5 -4.66699 132.5 -14s81.167 -24.333 120.5 -45c82.667 -42 144.334 -101.667 185.001 -179v213h146zM685.998 998.998
c-122.667 0 -227.999 -43.168 -315.999 -129.501s-132 -191.166 -132 -314.499c0 -120.667 45.167 -223.5 135.5 -308.5s195.833 -127.5 316.5 -127.5c116 0 217.333 43 304 129s130 187.667 130 305c0 123.333 -41.833 228.5 -125.5 315.5s-187.834 130.5 -312.501 130.5z
M397.999 1474l136.999 -0.000976562c16 -34 42.833 -59.5 80.5 -76.5s77.167 -25.5 118.5 -25.5s80.333 8.83301 117 26.5s62.334 42.834 77.001 75.501h142c-19.333 -75.333 -61.333 -133.666 -126 -174.999c-59.333 -36.667 -129.333 -55 -210 -55
c-81.333 0 -151.333 18.333 -210 55c-64.667 41.333 -106.667 99.666 -126 174.999z" />
    <glyph glyph-name="Ccaron" unicode="&#x10c;" horiz-adv-x="1274" 
 />
    <glyph glyph-name="ccaron" unicode="&#x10d;" horiz-adv-x="922" 
 />
    <glyph glyph-name="Dslash" unicode="&#x110;" horiz-adv-x="1618" 
d="M401 137h195.001c84 0 148.667 2 194 6c68.667 6 130.667 18.667 186 38s111 51 167 95c73.333 57.333 130.5 128.5 171.5 213.5s61.5 175.167 61.5 270.5c0 193.333 -78.333 353 -235 479c-52.667 40.667 -109.334 71.667 -170.001 93
c-46.667 16 -100.5 27.333 -161.5 34s-132.167 10 -213.5 10h-195v-502h267v-137h-267v-600zM668.001 0l-417.999 0.000976562v737h-197v137h197v639h407c67.333 0 124.5 -2.5 171.5 -7.5s94.167 -14.167 141.5 -27.5c104 -28 198 -75.833 282 -143.5
s151 -152.834 201 -255.501s75 -209 75 -319c0 -108 -21 -210 -63 -306s-104.333 -182.333 -187 -259c-80 -73.333 -174.667 -126 -284 -158c-40.667 -10.667 -89.667 -19.667 -147 -27c-24.667 -2.66699 -53.334 -5 -86.001 -7s-63.667 -3 -93 -3z" />
    <glyph glyph-name="dcroat" unicode="&#x111;" horiz-adv-x="1403" 
d="M1126 565c0 122.667 -43.667 225.667 -131 309s-193 125 -317 125c-120 0 -223.333 -42.333 -310 -127s-130 -187 -130 -307c0 -122.667 43.167 -227.667 129.5 -315s191.166 -131 314.499 -131c122.667 0 227.334 43.667 314.001 131s130 192.333 130 315zM830 1406
l281 -3.00098v154h152v-154l97 3l2 -139h-88v-1267h-144v205c-54.667 -77.333 -119.334 -135.333 -194.001 -174s-160.667 -58 -258 -58c-83.333 0 -162.333 18 -237 54s-152 95.333 -232 178c-29.333 25.333 -56.666 70.333 -81.999 135c-27.333 72.667 -41 147 -41 223
c0 164.667 58.833 302.834 176.5 414.501s259.5 167.5 425.5 167.5c87.333 0 169 -18.333 245 -55c81.333 -39.333 144.333 -94 189 -164v341l-293 -2z" />
    <glyph glyph-name=".notdef.101" unicode="&#x128;" horiz-adv-x="463" 
d="M156 0v1513h151v-1513h-151zM451 1839l61.002 -97.998c-10 -9.33301 -21.167 -18.333 -33.5 -27s-28.166 -18.334 -47.499 -29.001c-30 -16 -59 -24 -87 -24l-37 3c-4.66699 0.666992 -10.834 2 -18.501 4s-14.5 4.33301 -20.5 7l-28 12l-43 21
c-24.667 12 -46 21.333 -64 28l-21 5l-20 2c-18 0 -38.667 -6 -62 -18c-7.33301 -4 -15.833 -9.83301 -25.5 -17.5s-18.834 -15.834 -27.501 -24.501l-59 101c25.333 27.333 52.666 48.5 81.999 63.5s62 22.5 98 22.5c40 0 84.833 -13.667 134.5 -41s86.167 -41 109.5 -41
c20 0 38 4.66699 54 14c12 6 30.333 18.333 55 37z" />
    <glyph glyph-name=".notdef.035" unicode="&#x129;" horiz-adv-x="410" 
d="M129 0v1120h152v-1120h-152zM442 1464l62.001 -97.998c-10 -9.33301 -21.167 -18.333 -33.5 -27s-28.166 -18.334 -47.499 -29.001c-30 -16 -59 -24 -87 -24l-37 3c-4.66699 0.666992 -10.834 2 -18.501 4s-14.5 4.33301 -20.5 7
c-15.333 5.33301 -37.833 15.833 -67.5 31.5s-52.834 25.667 -69.501 30s-29.667 6.5 -39 6.5c-18 0 -38.667 -6 -62 -18c-7.33301 -4 -15.833 -9.83301 -25.5 -17.5s-18.834 -15.834 -27.501 -24.501l-59 101c26 28 53.833 49.333 83.5 64s61.834 22 96.501 22
c40 0 84.833 -13.667 134.5 -41s86.167 -41 109.5 -41c20 0 42 7 66 21z" />
    <glyph glyph-name=".notdef.085" unicode="&#x168;" 
d="M156 1513h151v-919c0 -32 1 -62.333 3 -91s5.33301 -56.667 10 -84c8.66699 -50 28 -98.333 58 -145s71.167 -84.167 123.5 -112.5s109.166 -42.5 170.499 -42.5c56.667 0 109 11.833 157 35.5s88 57 120 100s55.667 97.167 71 162.5c9.33301 48 14 107 14 177v919h152
v-919c0 -92.667 -6.33301 -167.334 -19 -224.001c-8.66699 -38.667 -20.667 -74.667 -36 -108s-35 -65.666 -59 -96.999c-44.667 -60 -103.167 -107 -175.5 -141s-147.166 -51 -224.499 -51c-78.667 0 -151.5 15.167 -218.5 45.5s-125 75 -174 134
s-83.167 128.833 -102.5 209.5c-14 60 -21 137.333 -21 232v919zM919 1851l61.001 -98c-22 -22 -48.667 -40.833 -80 -56.5s-60.666 -23.5 -87.999 -23.5l-37 3c-4.66699 0.666992 -10.834 2 -18.501 4s-14.5 4.33301 -20.5 7l-71 33l-34 16l-29 13c-12 4 -25.667 6 -41 6
c-20 0 -40 -5.16699 -60 -15.5s-38.333 -24.833 -55 -43.5l-60 100c26 28 54 49.333 84 64s62.333 22 97 22c37.333 0 81.166 -13.667 131.499 -41s87.5 -41 111.5 -41c20 0 42.667 7.33301 68 22z" />
    <glyph glyph-name=".notdef.019" unicode="&#x169;" horiz-adv-x="1245" 
d="M1116 1120l0.000976562 -1120h-143v174c-34.667 -68 -86 -119.333 -154 -154c-62.667 -31.333 -135 -47 -217 -47c-75.333 0 -142.666 14.667 -201.999 44c-64.667 32 -128.334 84.333 -191.001 157c-29.333 31.333 -51 81 -65 149c-10 53.333 -15 121.666 -15 204.999
v592h152v-592c0 -68 4 -119 12 -153s20.333 -65.333 37 -94c30 -52 70.667 -92 122 -120s108.333 -42 171 -42c55.333 0 106.333 11.5 153 34.5s87 57.167 121 102.5c25.333 35.333 43.666 78.666 54.999 129.999c8.66699 43.333 13 90.666 13 141.999v592h151z
M857.001 1460l62.001 -97.998c-10 -9.33301 -21.167 -18.333 -33.5 -27s-28.166 -18.334 -47.499 -29.001c-30 -16 -59 -24 -87 -24l-37 3c-4.66699 0.666992 -10.834 2 -18.501 4s-14.5 4.33301 -20.5 7c-15.333 5.33301 -37.833 15.833 -67.5 31.5
s-52.834 25.667 -69.501 30s-29.667 6.5 -39 6.5c-18 0 -38.667 -6 -62 -18c-7.33301 -4 -15.833 -9.83301 -25.5 -17.5s-18.834 -15.834 -27.501 -24.501l-59 101c26 28 53.833 49.333 83.5 64s61.834 22 96.501 22c40 0 84.833 -13.667 134.5 -41s86.167 -41 109.5 -41
c20 0 42 7 66 21z" />
    <glyph glyph-name=".notdef.077" unicode="&#x1a0;" horiz-adv-x="1780" 
d="M889 1538c216.667 0 404.333 -75.333 563 -226s238 -334 238 -550c0 -218 -78.5 -404 -235.5 -558s-345.5 -231 -565.5 -231c-214 0 -400 75 -558 225c-160.667 153.333 -241 337.333 -241 552c0 218.667 78.167 404.667 234.5 558s344.5 230 564.5 230zM890.999 1393
c-178 0 -330.667 -62.667 -458 -188s-191 -277 -191 -455c0 -172.667 64.667 -321 194 -445s281 -186 455 -186c178 0 330.333 62.5 457 187.5s190 276.833 190 455.5c0 173.333 -64.167 321.833 -192.5 445.5s-279.833 185.5 -454.5 185.5zM1376 1317v259h164v-259h-164z
" />
    <glyph glyph-name=".notdef.011" unicode="&#x1a1;" 
d="M674 999c-122.667 0 -226 -43.499 -310 -130.499s-126 -192.167 -126 -315.5c0 -120 42.833 -222.333 128.5 -307s188.167 -127 307.5 -127c123.333 0 225.833 43.833 307.5 131.5s122.5 193.167 122.5 316.5s-43.667 226.666 -131 309.999
c-39.333 37.333 -85.5 67 -138.5 89s-106.5 33 -160.5 33zM1026 1020l0.00195312 197h153v-259h-83c48 -50.667 86.667 -111 116 -181c14 -34 24.667 -68.333 32 -103s11 -70.334 11 -107.001c0 -161.333 -56.667 -300.666 -170 -417.999s-250.333 -176 -411 -176
s-298.834 56.667 -414.501 170s-173.5 250 -173.5 410c0 162.667 57 302 171 418s253 174 417 174c63.333 0 125.666 -10.833 186.999 -32.5s116.333 -52.5 165 -92.5z" />
    <glyph glyph-name=".notdef.083" unicode="&#x1af;" horiz-adv-x="1364" 
d="M1186 1376l-0.00195312 -781.997c0 -92.667 -6.33301 -167.334 -19 -224.001c-17.333 -76 -48.833 -144.333 -94.5 -205s-104.334 -107.834 -176.001 -141.501s-146.5 -50.5 -224.5 -50.5c-78.667 0 -151.667 15.333 -219 46s-125.666 75.667 -174.999 135
s-83 128.666 -101 207.999c-14 60 -21 137.333 -21 232v919h151v-919c0 -65.333 4.5 -123.5 13.5 -174.5s28.333 -99.833 58 -146.5s70.834 -84 123.501 -112s109.334 -42 170.001 -42c55.333 0 107.5 11.833 156.5 35.5s89.667 57.167 122 100.5s55.5 97.333 69.5 162
c9.33301 46.667 14 105.667 14 177v919l122 1v120h158v-258h-128z" />
    <glyph glyph-name=".notdef.017" unicode="&#x1b0;" horiz-adv-x="1245" 
d="M1116 958l0.000976562 -957.997h-143v174c-34.667 -68 -86 -119.333 -154 -154c-62.667 -31.333 -135 -47 -217 -47c-75.333 0 -142.666 14.667 -201.999 44c-64.667 32 -128.334 84.333 -191.001 157c-29.333 31.333 -51 81 -65 149c-10 53.333 -15 121.666 -15 204.999
v592h152v-592c0 -68 4 -119 12 -153s20.333 -65.333 37 -94c30 -52 70.667 -92 122 -120s108.333 -42 171 -42c55.333 0 106.333 11.5 153 34.5s87 57.167 121 102.5c25.333 35.333 43.666 78.666 54.999 129.999c8.66699 43.333 13 90.666 13 141.999v592h94v97h151v-259
h-94z" />
    <glyph glyph-name=".notdef.110" unicode="&#x1ea0;" horiz-adv-x="1516" 
d="M23 0l653 1513h168l649 -1513h-164l-219 508h-704l-220 -508h-163zM465 645h586l-291 694zM681 -395v258h152v-258h-152z" />
    <glyph glyph-name=".notdef.062" unicode="&#x1ea1;" horiz-adv-x="1399" 
d="M1270 1120l-0.00195312 -1120h-146v211c-40.667 -75.333 -101.667 -134.666 -183 -177.999c-76 -40 -159.667 -60 -251 -60c-87.333 0 -172.666 19 -255.999 57c-88.667 40 -167.667 100.333 -237 181c-25.333 27.333 -49 71 -71 131c-26.667 74.667 -40 149.667 -40 225
c0 68 14.333 138.667 43 212c24 62.667 48.667 105.334 74 128.001c78.667 86 161 148.333 247 187c74 34 152.667 51 236 51c47.333 0 91.5 -4.66699 132.5 -14s81.167 -24.333 120.5 -45c82.667 -42 144.334 -101.667 185.001 -179v213h146zM685.998 998.998
c-122.667 0 -227.999 -43.168 -315.999 -129.501s-132 -191.166 -132 -314.499c0 -120.667 45.167 -223.5 135.5 -308.5s195.833 -127.5 316.5 -127.5c116 0 217.333 43 304 129s130 187.667 130 305c0 123.333 -41.833 228.5 -125.5 315.5s-187.834 130.5 -312.501 130.5z
M612.999 -395.003v258h152v-258h-152z" />
    <glyph glyph-name=".notdef.108" unicode="&#x1ea2;" horiz-adv-x="1516" 
d="M23 0l653 1513h168l649 -1513h-164l-219 508h-704l-220 -508h-163zM465 645h586l-291 694zM699 1852l-109 -0.00292969v14l3 29c2.66699 11.333 6.33398 21.333 11.001 30c8 18.667 20.333 37.334 37 56.001c14 14 33.333 26.667 58 38c26 8.66699 49 13 69 13
c46.667 0 86 -16.167 118 -48.5s48 -72.166 48 -119.499c0 -38 -19.667 -74 -59 -108s-59 -69.667 -59 -107h-108c0 28.667 10.333 59.667 31 93l72 84c10 11.333 15 26 15 44s-5.83301 32.833 -17.5 44.5s-25.834 17.5 -42.501 17.5c-18.667 0 -33.667 -5.33301 -45 -16
c-14.667 -13.333 -22 -34.666 -22 -63.999z" />
    <glyph glyph-name=".notdef.064" unicode="&#x1ea3;" horiz-adv-x="1399" 
d="M1270 1120l-0.00195312 -1120h-146v211c-40.667 -75.333 -101.667 -134.666 -183 -177.999c-76 -40 -159.667 -60 -251 -60c-87.333 0 -172.666 19 -255.999 57c-88.667 40 -167.667 100.333 -237 181c-25.333 27.333 -49 71 -71 131c-26.667 74.667 -40 149.667 -40 225
c0 68 14.333 138.667 43 212c24 62.667 48.667 105.334 74 128.001c78.667 86 161 148.333 247 187c74 34 152.667 51 236 51c47.333 0 91.5 -4.66699 132.5 -14s81.167 -24.333 120.5 -45c82.667 -42 144.334 -101.667 185.001 -179v213h146zM685.998 998.998
c-122.667 0 -227.999 -43.168 -315.999 -129.501s-132 -191.166 -132 -314.499c0 -120.667 45.167 -223.5 135.5 -308.5s195.833 -127.5 316.5 -127.5c116 0 217.333 43 304 129s130 187.667 130 305c0 123.333 -41.833 228.5 -125.5 315.5s-187.834 130.5 -312.501 130.5z
M624.999 1459l-109 -0.00292969v14l3 29c2.66699 11.333 6.33398 21.333 11.001 30c8 18.667 20.333 37.334 37 56.001c14 14 33.333 26.667 58 38c26 8.66699 49 13 69 13c46.667 0 86 -16.167 118 -48.5s48 -72.166 48 -119.499c0 -38 -19.667 -74 -59 -108
s-59 -69.667 -59 -107h-108c0 28.667 10.333 59.667 31 93l72 84c10 11.333 15 26 15 44s-5.83301 32.833 -17.5 44.5s-25.834 17.5 -42.501 17.5c-18.667 0 -33.667 -5.33301 -45 -16c-14.667 -13.333 -22 -34.666 -22 -63.999z" />
    <glyph glyph-name=".notdef.113" unicode="&#x1ea4;" horiz-adv-x="1516" 
d="M23 0l653 1513h168l649 -1513h-164l-219 508h-704l-220 -508h-163zM395 1649l297 258h131l297 -258h-184l-178 149l-178 -149h-185zM465 645h586l-291 694zM996 1958l394 238l71 -119l-395 -233z" />
    <glyph glyph-name=".notdef.059" unicode="&#x1ea5;" horiz-adv-x="1399" 
d="M1270 1120l-0.00195312 -1120h-146v211c-40.667 -75.333 -101.667 -134.666 -183 -177.999c-76 -40 -159.667 -60 -251 -60c-87.333 0 -172.666 19 -255.999 57c-88.667 40 -167.667 100.333 -237 181c-25.333 27.333 -49 71 -71 131c-26.667 74.667 -40 149.667 -40 225
c0 68 14.333 138.667 43 212c24 62.667 48.667 105.334 74 128.001c78.667 86 161 148.333 247 187c74 34 152.667 51 236 51c47.333 0 91.5 -4.66699 132.5 -14s81.167 -24.333 120.5 -45c82.667 -42 144.334 -101.667 185.001 -179v213h146zM337.998 1255l297 258h131
l297 -258h-184l-179 150l-178 -150h-184zM685.998 998.998c-122.667 0 -227.999 -43.168 -315.999 -129.501s-132 -191.166 -132 -314.499c0 -120.667 45.167 -223.5 135.5 -308.5s195.833 -127.5 316.5 -127.5c116 0 217.333 43 304 129s130 187.667 130 305
c0 123.333 -41.833 228.5 -125.5 315.5s-187.834 130.5 -312.501 130.5zM937.999 1565l394 238l71 -119l-395 -233z" />
    <glyph glyph-name=".notdef.112" unicode="&#x1ea6;" horiz-adv-x="1516" 
d="M23 0l653 1513h168l649 -1513h-164l-219 508h-704l-220 -508h-163zM395 1649l297 258h131l297 -258h-184l-178 149l-178 -149h-185zM465 645h586l-291 694zM855 2188l405 -222l-67 -118l-404 217z" />
    <glyph glyph-name=".notdef.060" unicode="&#x1ea7;" horiz-adv-x="1399" 
d="M1270 1120l-0.00195312 -1120h-146v211c-40.667 -75.333 -101.667 -134.666 -183 -177.999c-76 -40 -159.667 -60 -251 -60c-87.333 0 -172.666 19 -255.999 57c-88.667 40 -167.667 100.333 -237 181c-25.333 27.333 -49 71 -71 131c-26.667 74.667 -40 149.667 -40 225
c0 68 14.333 138.667 43 212c24 62.667 48.667 105.334 74 128.001c78.667 86 161 148.333 247 187c74 34 152.667 51 236 51c47.333 0 91.5 -4.66699 132.5 -14s81.167 -24.333 120.5 -45c82.667 -42 144.334 -101.667 185.001 -179v213h146zM337.998 1255l297 258h131
l297 -258h-184l-179 150l-178 -150h-184zM685.998 998.998c-122.667 0 -227.999 -43.168 -315.999 -129.501s-132 -191.166 -132 -314.499c0 -120.667 45.167 -223.5 135.5 -308.5s195.833 -127.5 316.5 -127.5c116 0 217.333 43 304 129s130 187.667 130 305
c0 123.333 -41.833 228.5 -125.5 315.5s-187.834 130.5 -312.501 130.5zM796.999 1794l405 -222l-67 -118l-404 217z" />
    <glyph glyph-name=".notdef.114" unicode="&#x1ea8;" horiz-adv-x="1516" 
d="M23 0l653 1513h168l649 -1513h-164l-219 508h-704l-220 -508h-163zM395 1649l297 258h131l297 -258h-184l-178 149l-178 -149h-185zM465 645h586l-291 694zM986 2051h-109v14l3 29c2.66699 11.333 6.33398 21.333 11.001 30c8 18.667 20.333 37.334 37 56
c14 14 33.333 26.667 58 38c26 8.66699 49 13 69 13c46.667 0 86 -16.167 118 -48.5s48 -72.166 48 -119.5c0 -38 -19.667 -74 -59 -108s-59 -69.667 -59 -107h-108c0 28.667 10.333 59.667 31 93l72 84c10 11.333 15 26 15 44s-5.83301 32.833 -17.5 44.5
s-25.834 17.5 -42.501 17.5c-18.667 0 -33.667 -5.33301 -45 -16c-14.667 -13.333 -22 -34.666 -22 -64z" />
    <glyph glyph-name=".notdef.058" unicode="&#x1ea9;" horiz-adv-x="1399" 
d="M1270 1120l-0.00195312 -1120h-146v211c-40.667 -75.333 -101.667 -134.666 -183 -177.999c-76 -40 -159.667 -60 -251 -60c-87.333 0 -172.666 19 -255.999 57c-88.667 40 -167.667 100.333 -237 181c-25.333 27.333 -49 71 -71 131c-26.667 74.667 -40 149.667 -40 225
c0 68 14.333 138.667 43 212c24 62.667 48.667 105.334 74 128.001c78.667 86 161 148.333 247 187c74 34 152.667 51 236 51c47.333 0 91.5 -4.66699 132.5 -14s81.167 -24.333 120.5 -45c82.667 -42 144.334 -101.667 185.001 -179v213h146zM337.998 1255l297 258h131
l297 -258h-184l-179 150l-178 -150h-184zM685.998 998.998c-122.667 0 -227.999 -43.168 -315.999 -129.501s-132 -191.166 -132 -314.499c0 -120.667 45.167 -223.5 135.5 -308.5s195.833 -127.5 316.5 -127.5c116 0 217.333 43 304 129s130 187.667 130 305
c0 123.333 -41.833 228.5 -125.5 315.5s-187.834 130.5 -312.501 130.5zM927.999 1658l-109 -0.00292969v14l3 29c2.66699 11.333 6.33398 21.333 11.001 30c8 18.667 20.333 37.334 37 56.001c14 14 33.333 26.667 58 38c26 8.66699 49 13 69 13
c46.667 0 86 -16.167 118 -48.5s48 -72.166 48 -119.499c0 -38 -19.667 -74 -59 -108s-59 -69.667 -59 -107h-108c0 28.667 10.333 59.667 31 93l72 84c10 11.333 15 26 15 44s-5.83301 32.833 -17.5 44.5s-25.834 17.5 -42.501 17.5c-18.667 0 -33.667 -5.33301 -45 -16
c-14.667 -13.333 -22 -34.666 -22 -63.999z" />
    <glyph glyph-name=".notdef.115" unicode="&#x1eaa;" horiz-adv-x="1516" 
d="M23 0l653 1513h168l649 -1513h-164l-219 508h-704l-220 -508h-163zM395 1649l297 258h131l297 -258h-184l-178 149l-178 -149h-185zM465 645h586l-291 694zM999 2164l62.001 -97.998c-10 -9.33301 -21.167 -18.333 -33.5 -27s-28.166 -18.334 -47.499 -29.001
c-30 -16 -59 -24 -87 -24l-37 3c-4.66699 0.666992 -10.834 2 -18.501 4s-14.5 4.33301 -20.5 7c-15.333 5.33301 -37.833 15.833 -67.5 31.5s-52.834 25.667 -69.501 30s-29.667 6.5 -39 6.5c-18 0 -38.667 -6 -62 -18c-7.33301 -4 -15.833 -9.83301 -25.5 -17.5
s-18.834 -15.834 -27.501 -24.501l-59 101c26 28 53.833 49.333 83.5 64s61.834 22 96.501 22c40 0 84.833 -13.667 134.5 -41s86.167 -41 109.5 -41c20 0 42 7 66 21z" />
    <glyph glyph-name=".notdef.057" unicode="&#x1eab;" horiz-adv-x="1399" 
d="M1270 1120l-0.00195312 -1120h-146v211c-40.667 -75.333 -101.667 -134.666 -183 -177.999c-76 -40 -159.667 -60 -251 -60c-87.333 0 -172.666 19 -255.999 57c-88.667 40 -167.667 100.333 -237 181c-25.333 27.333 -49 71 -71 131c-26.667 74.667 -40 149.667 -40 225
c0 68 14.333 138.667 43 212c24 62.667 48.667 105.334 74 128.001c78.667 86 161 148.333 247 187c74 34 152.667 51 236 51c47.333 0 91.5 -4.66699 132.5 -14s81.167 -24.333 120.5 -45c82.667 -42 144.334 -101.667 185.001 -179v213h146zM337.998 1255l297 258h131
l297 -258h-184l-179 150l-178 -150h-184zM685.998 998.998c-122.667 0 -227.999 -43.168 -315.999 -129.501s-132 -191.166 -132 -314.499c0 -120.667 45.167 -223.5 135.5 -308.5s195.833 -127.5 316.5 -127.5c116 0 217.333 43 304 129s130 187.667 130 305
c0 123.333 -41.833 228.5 -125.5 315.5s-187.834 130.5 -312.501 130.5zM940.999 1770l62.001 -97.998c-10 -9.33301 -21.167 -18.333 -33.5 -27s-28.166 -18.334 -47.499 -29.001c-30 -16 -59 -24 -87 -24l-37 3c-4.66699 0.666992 -10.834 2 -18.501 4
s-14.5 4.33301 -20.5 7c-15.333 5.33301 -37.833 15.833 -67.5 31.5s-52.834 25.667 -69.501 30s-29.667 6.5 -39 6.5c-18 0 -38.667 -6 -62 -18c-7.33301 -4 -15.833 -9.83301 -25.5 -17.5s-18.834 -15.834 -27.501 -24.501l-59 101c26 28 53.833 49.333 83.5 64
s61.834 22 96.501 22c40 0 84.833 -13.667 134.5 -41s86.167 -41 109.5 -41c20 0 42 7 66 21z" />
    <glyph glyph-name=".notdef.116" unicode="&#x1eac;" horiz-adv-x="1516" 
d="M23 0l653 1513h168l649 -1513h-164l-219 508h-704l-220 -508h-163zM395 1649l297 258h131l297 -258h-184l-178 149l-178 -149h-185zM465 645h586l-291 694zM681 -395v258h152v-258h-152z" />
    <glyph glyph-name=".notdef.056" unicode="&#x1ead;" horiz-adv-x="1399" 
d="M1270 1120l-0.00195312 -1120h-146v211c-40.667 -75.333 -101.667 -134.666 -183 -177.999c-76 -40 -159.667 -60 -251 -60c-87.333 0 -172.666 19 -255.999 57c-88.667 40 -167.667 100.333 -237 181c-25.333 27.333 -49 71 -71 131c-26.667 74.667 -40 149.667 -40 225
c0 68 14.333 138.667 43 212c24 62.667 48.667 105.334 74 128.001c78.667 86 161 148.333 247 187c74 34 152.667 51 236 51c47.333 0 91.5 -4.66699 132.5 -14s81.167 -24.333 120.5 -45c82.667 -42 144.334 -101.667 185.001 -179v213h146zM337.998 1255l297 258h131
l297 -258h-184l-179 150l-178 -150h-184zM685.998 998.998c-122.667 0 -227.999 -43.168 -315.999 -129.501s-132 -191.166 -132 -314.499c0 -120.667 45.167 -223.5 135.5 -308.5s195.833 -127.5 316.5 -127.5c116 0 217.333 43 304 129s130 187.667 130 305
c0 123.333 -41.833 228.5 -125.5 315.5s-187.834 130.5 -312.501 130.5zM612.999 -395.003v258h152v-258h-152z" />
    <glyph glyph-name=".notdef.119" unicode="&#x1eae;" horiz-adv-x="1516" 
d="M23 0l653 1513h168l649 -1513h-164l-219 508h-704l-220 -508h-163zM465 645h586l-291 694zM421 1862l136.999 -0.000976562c16 -34 42.833 -59.5 80.5 -76.5s77.167 -25.5 118.5 -25.5s80.333 8.83301 117 26.5s62.334 42.834 77.001 75.501h142
c-19.333 -75.333 -61.333 -133.666 -126 -174.999c-59.333 -36.667 -129.333 -55 -210 -55c-81.333 0 -151.333 18.333 -210 55c-64.667 41.333 -106.667 99.666 -126 174.999zM560.999 2016l394 238l71 -119l-395 -233z" />
    <glyph glyph-name=".notdef.053" unicode="&#x1eaf;" horiz-adv-x="1399" 
d="M1270 1120l-0.00195312 -1120h-146v211c-40.667 -75.333 -101.667 -134.666 -183 -177.999c-76 -40 -159.667 -60 -251 -60c-87.333 0 -172.666 19 -255.999 57c-88.667 40 -167.667 100.333 -237 181c-25.333 27.333 -49 71 -71 131c-26.667 74.667 -40 149.667 -40 225
c0 68 14.333 138.667 43 212c24 62.667 48.667 105.334 74 128.001c78.667 86 161 148.333 247 187c74 34 152.667 51 236 51c47.333 0 91.5 -4.66699 132.5 -14s81.167 -24.333 120.5 -45c82.667 -42 144.334 -101.667 185.001 -179v213h146zM685.998 998.998
c-122.667 0 -227.999 -43.168 -315.999 -129.501s-132 -191.166 -132 -314.499c0 -120.667 45.167 -223.5 135.5 -308.5s195.833 -127.5 316.5 -127.5c116 0 217.333 43 304 129s130 187.667 130 305c0 123.333 -41.833 228.5 -125.5 315.5s-187.834 130.5 -312.501 130.5z
M397.999 1474l136.999 -0.000976562c16 -34 42.833 -59.5 80.5 -76.5s77.167 -25.5 118.5 -25.5s80.333 8.83301 117 26.5s62.334 42.834 77.001 75.501h142c-19.333 -75.333 -61.333 -133.666 -126 -174.999c-59.333 -36.667 -129.333 -55 -210 -55
c-81.333 0 -151.333 18.333 -210 55c-64.667 41.333 -106.667 99.666 -126 174.999zM538.998 1628l394 238l71 -119l-395 -233z" />
    <glyph glyph-name=".notdef.118" unicode="&#x1eb0;" horiz-adv-x="1516" 
d="M23 0l653 1513h168l649 -1513h-164l-219 508h-704l-220 -508h-163zM465 645h586l-291 694zM421 1862l136.999 -0.000976562c16 -34 42.833 -59.5 80.5 -76.5s77.167 -25.5 118.5 -25.5s80.333 8.83301 117 26.5s62.334 42.834 77.001 75.501h142
c-19.333 -75.333 -61.333 -133.666 -126 -174.999c-59.333 -36.667 -129.333 -55 -210 -55c-81.333 0 -151.333 18.333 -210 55c-64.667 41.333 -106.667 99.666 -126 174.999zM529.999 2242l405 -222l-67 -118l-404 217z" />
    <glyph glyph-name=".notdef.054" unicode="&#x1eb1;" horiz-adv-x="1399" 
d="M1270 1120l-0.00195312 -1120h-146v211c-40.667 -75.333 -101.667 -134.666 -183 -177.999c-76 -40 -159.667 -60 -251 -60c-87.333 0 -172.666 19 -255.999 57c-88.667 40 -167.667 100.333 -237 181c-25.333 27.333 -49 71 -71 131c-26.667 74.667 -40 149.667 -40 225
c0 68 14.333 138.667 43 212c24 62.667 48.667 105.334 74 128.001c78.667 86 161 148.333 247 187c74 34 152.667 51 236 51c47.333 0 91.5 -4.66699 132.5 -14s81.167 -24.333 120.5 -45c82.667 -42 144.334 -101.667 185.001 -179v213h146zM685.998 998.998
c-122.667 0 -227.999 -43.168 -315.999 -129.501s-132 -191.166 -132 -314.499c0 -120.667 45.167 -223.5 135.5 -308.5s195.833 -127.5 316.5 -127.5c116 0 217.333 43 304 129s130 187.667 130 305c0 123.333 -41.833 228.5 -125.5 315.5s-187.834 130.5 -312.501 130.5z
M397.999 1474l136.999 -0.000976562c16 -34 42.833 -59.5 80.5 -76.5s77.167 -25.5 118.5 -25.5s80.333 8.83301 117 26.5s62.334 42.834 77.001 75.501h142c-19.333 -75.333 -61.333 -133.666 -126 -174.999c-59.333 -36.667 -129.333 -55 -210 -55
c-81.333 0 -151.333 18.333 -210 55c-64.667 41.333 -106.667 99.666 -126 174.999zM506.998 1854l405 -222l-67 -118l-404 217z" />
    <glyph glyph-name=".notdef.120" unicode="&#x1eb2;" horiz-adv-x="1516" 
d="M23 0l653 1513h168l649 -1513h-164l-219 508h-704l-220 -508h-163zM465 645h586l-291 694zM421 1862l136.999 -0.000976562c16 -34 42.833 -59.5 80.5 -76.5s77.167 -25.5 118.5 -25.5s80.333 8.83301 117 26.5s62.334 42.834 77.001 75.501h142
c-19.333 -75.333 -61.333 -133.666 -126 -174.999c-59.333 -36.667 -129.333 -55 -210 -55c-81.333 0 -151.333 18.333 -210 55c-64.667 41.333 -106.667 99.666 -126 174.999zM692.999 2078l-109 -0.000976562v14l3 29c2.66699 11.333 6.33398 21.333 11.001 30
c8 18.667 20.333 37.334 37 56c14 14 33.333 26.667 58 38c26 8.66699 49 13 69 13c46.667 0 86 -16.167 118 -48.5s48 -72.166 48 -119.5c0 -38 -19.667 -74 -59 -108s-59 -69.667 -59 -107h-108c0 28.667 10.333 59.667 31 93l72 84c10 11.333 15 26 15 44
s-5.83301 32.833 -17.5 44.5s-25.834 17.5 -42.501 17.5c-18.667 0 -33.667 -5.33301 -45 -16c-14.667 -13.333 -22 -34.666 -22 -63.999z" />
    <glyph glyph-name=".notdef.052" unicode="&#x1eb3;" horiz-adv-x="1399" 
d="M1270 1120l-0.00195312 -1120h-146v211c-40.667 -75.333 -101.667 -134.666 -183 -177.999c-76 -40 -159.667 -60 -251 -60c-87.333 0 -172.666 19 -255.999 57c-88.667 40 -167.667 100.333 -237 181c-25.333 27.333 -49 71 -71 131c-26.667 74.667 -40 149.667 -40 225
c0 68 14.333 138.667 43 212c24 62.667 48.667 105.334 74 128.001c78.667 86 161 148.333 247 187c74 34 152.667 51 236 51c47.333 0 91.5 -4.66699 132.5 -14s81.167 -24.333 120.5 -45c82.667 -42 144.334 -101.667 185.001 -179v213h146zM685.998 998.998
c-122.667 0 -227.999 -43.168 -315.999 -129.501s-132 -191.166 -132 -314.499c0 -120.667 45.167 -223.5 135.5 -308.5s195.833 -127.5 316.5 -127.5c116 0 217.333 43 304 129s130 187.667 130 305c0 123.333 -41.833 228.5 -125.5 315.5s-187.834 130.5 -312.501 130.5z
M397.999 1474l136.999 -0.000976562c16 -34 42.833 -59.5 80.5 -76.5s77.167 -25.5 118.5 -25.5s80.333 8.83301 117 26.5s62.334 42.834 77.001 75.501h142c-19.333 -75.333 -61.333 -133.666 -126 -174.999c-59.333 -36.667 -129.333 -55 -210 -55
c-81.333 0 -151.333 18.333 -210 55c-64.667 41.333 -106.667 99.666 -126 174.999zM669.998 1690l-109 -0.00292969v14l3 29c2.66699 11.333 6.33398 21.333 11.001 30c8 18.667 20.333 37.334 37 56.001c14 14 33.333 26.667 58 38c26 8.66699 49 13 69 13
c46.667 0 86 -16.167 118 -48.5s48 -72.166 48 -119.499c0 -38 -19.667 -74 -59 -108s-59 -69.667 -59 -107h-108c0 28.667 10.333 59.667 31 93l72 84c10 11.333 15 26 15 44s-5.83301 32.833 -17.5 44.5s-25.834 17.5 -42.501 17.5c-18.667 0 -33.667 -5.33301 -45 -16
c-14.667 -13.333 -22 -34.666 -22 -63.999z" />
    <glyph glyph-name=".notdef.121" unicode="&#x1eb4;" horiz-adv-x="1516" 
d="M23 0l653 1513h168l649 -1513h-164l-219 508h-704l-220 -508h-163zM465 645h586l-291 694zM421 1862l136.999 -0.000976562c16 -34 42.833 -59.5 80.5 -76.5s77.167 -25.5 118.5 -25.5s80.333 8.83301 117 26.5s62.334 42.834 77.001 75.501h142
c-19.333 -75.333 -61.333 -133.666 -126 -174.999c-59.333 -36.667 -129.333 -55 -210 -55c-81.333 0 -151.333 18.333 -210 55c-64.667 41.333 -106.667 99.666 -126 174.999zM1009 2113l62.001 -97.998c-10 -9.33301 -21.167 -18.333 -33.5 -27
s-28.166 -18.334 -47.499 -29.001c-30 -16 -59 -24 -87 -24l-37 3c-4.66699 0.666992 -10.834 2 -18.501 4s-14.5 4.33301 -20.5 7c-15.333 5.33301 -37.833 15.833 -67.5 31.5s-52.834 25.667 -69.501 30s-29.667 6.5 -39 6.5c-18 0 -38.667 -6 -62 -18
c-7.33301 -4 -15.833 -9.83301 -25.5 -17.5s-18.834 -15.834 -27.501 -24.501l-59 101c26 28 53.833 49.333 83.5 64s61.834 22 96.501 22c40 0 84.833 -13.667 134.5 -41s86.167 -41 109.5 -41c20 0 42 7 66 21z" />
    <glyph glyph-name=".notdef.051" unicode="&#x1eb5;" horiz-adv-x="1399" 
d="M1270 1120l-0.00195312 -1120h-146v211c-40.667 -75.333 -101.667 -134.666 -183 -177.999c-76 -40 -159.667 -60 -251 -60c-87.333 0 -172.666 19 -255.999 57c-88.667 40 -167.667 100.333 -237 181c-25.333 27.333 -49 71 -71 131c-26.667 74.667 -40 149.667 -40 225
c0 68 14.333 138.667 43 212c24 62.667 48.667 105.334 74 128.001c78.667 86 161 148.333 247 187c74 34 152.667 51 236 51c47.333 0 91.5 -4.66699 132.5 -14s81.167 -24.333 120.5 -45c82.667 -42 144.334 -101.667 185.001 -179v213h146zM685.998 998.998
c-122.667 0 -227.999 -43.168 -315.999 -129.501s-132 -191.166 -132 -314.499c0 -120.667 45.167 -223.5 135.5 -308.5s195.833 -127.5 316.5 -127.5c116 0 217.333 43 304 129s130 187.667 130 305c0 123.333 -41.833 228.5 -125.5 315.5s-187.834 130.5 -312.501 130.5z
M397.999 1474l136.999 -0.000976562c16 -34 42.833 -59.5 80.5 -76.5s77.167 -25.5 118.5 -25.5s80.333 8.83301 117 26.5s62.334 42.834 77.001 75.501h142c-19.333 -75.333 -61.333 -133.666 -126 -174.999c-59.333 -36.667 -129.333 -55 -210 -55
c-81.333 0 -151.333 18.333 -210 55c-64.667 41.333 -106.667 99.666 -126 174.999zM985.998 1725l62.001 -97.998c-10 -9.33301 -21.167 -18.333 -33.5 -27s-28.166 -18.334 -47.499 -29.001c-30 -16 -59 -24 -87 -24l-37 3c-4.66699 0.666992 -10.834 2 -18.501 4
s-14.5 4.33301 -20.5 7c-15.333 5.33301 -37.833 15.833 -67.5 31.5s-52.834 25.667 -69.501 30s-29.667 6.5 -39 6.5c-18 0 -38.667 -6 -62 -18c-7.33301 -4 -15.833 -9.83301 -25.5 -17.5s-18.834 -15.834 -27.501 -24.501l-59 101c26 28 53.833 49.333 83.5 64
s61.834 22 96.501 22c40 0 84.833 -13.667 134.5 -41s86.167 -41 109.5 -41c20 0 42 7 66 21z" />
    <glyph glyph-name=".notdef.122" unicode="&#x1eb6;" horiz-adv-x="1516" 
d="M23 0l653 1513h168l649 -1513h-164l-219 508h-704l-220 -508h-163zM465 645h586l-291 694zM421 1862l136.999 -0.000976562c16 -34 42.833 -59.5 80.5 -76.5s77.167 -25.5 118.5 -25.5s80.333 8.83301 117 26.5s62.334 42.834 77.001 75.501h142
c-19.333 -75.333 -61.333 -133.666 -126 -174.999c-59.333 -36.667 -129.333 -55 -210 -55c-81.333 0 -151.333 18.333 -210 55c-64.667 41.333 -106.667 99.666 -126 174.999zM680.999 -395.001v258h152v-258h-152z" />
    <glyph glyph-name=".notdef.050" unicode="&#x1eb7;" horiz-adv-x="1399" 
d="M1270 1120l-0.00195312 -1120h-146v211c-40.667 -75.333 -101.667 -134.666 -183 -177.999c-76 -40 -159.667 -60 -251 -60c-87.333 0 -172.666 19 -255.999 57c-88.667 40 -167.667 100.333 -237 181c-25.333 27.333 -49 71 -71 131c-26.667 74.667 -40 149.667 -40 225
c0 68 14.333 138.667 43 212c24 62.667 48.667 105.334 74 128.001c78.667 86 161 148.333 247 187c74 34 152.667 51 236 51c47.333 0 91.5 -4.66699 132.5 -14s81.167 -24.333 120.5 -45c82.667 -42 144.334 -101.667 185.001 -179v213h146zM685.998 998.998
c-122.667 0 -227.999 -43.168 -315.999 -129.501s-132 -191.166 -132 -314.499c0 -120.667 45.167 -223.5 135.5 -308.5s195.833 -127.5 316.5 -127.5c116 0 217.333 43 304 129s130 187.667 130 305c0 123.333 -41.833 228.5 -125.5 315.5s-187.834 130.5 -312.501 130.5z
M397.999 1474l136.999 -0.000976562c16 -34 42.833 -59.5 80.5 -76.5s77.167 -25.5 118.5 -25.5s80.333 8.83301 117 26.5s62.334 42.834 77.001 75.501h142c-19.333 -75.333 -61.333 -133.666 -126 -174.999c-59.333 -36.667 -129.333 -55 -210 -55
c-81.333 0 -151.333 18.333 -210 55c-64.667 41.333 -106.667 99.666 -126 174.999zM612.998 -395.004v258h152v-258h-152z" />
    <glyph glyph-name=".notdef.127" unicode="&#x1eb8;" horiz-adv-x="1098" 
d="M156 0v1513h827v-137h-676v-545h654v-137h-654v-557h676v-137h-827zM480 -395v258h152v-258h-152z" />
    <glyph glyph-name=".notdef.045" unicode="&#x1eb9;" horiz-adv-x="1331" 
d="M1251 506h-1013c0 -104 44.333 -195 133 -273c86 -76 182 -114 288 -114c84.667 0 164.334 22 239.001 66s129 104 163 180h158c-38.667 -112 -109.334 -205.333 -212.001 -280s-213.667 -112 -333 -112c-164.667 0 -303.834 56.667 -417.501 170s-170.5 252 -170.5 416
c0 163.333 56.5 301.833 169.5 415.5s251.167 170.5 414.5 170.5c87.333 0 170 -19 248 -57s145.333 -91.333 202 -160c50 -61.333 85 -127.333 105 -198c17.333 -61.333 26 -136 26 -224zM238.001 643h862c-20 100 -70.5 184.333 -151.5 253s-173.167 103 -276.5 103
c-106 0 -200.333 -33.333 -283 -100s-133 -152 -151 -256zM590.001 -414v258h151v-258h-151z" />
    <glyph glyph-name=".notdef.125" unicode="&#x1eba;" horiz-adv-x="1098" 
d="M156 0v1513h827v-137h-676v-545h654v-137h-654v-557h676v-137h-827zM516 1852l-109 -0.00292969v14l3 29c2.66699 11.333 6.33398 21.333 11.001 30c8 18.667 20.333 37.334 37 56.001c14 14 33.333 26.667 58 38c26 8.66699 49 13 69 13c46.667 0 86 -16.167 118 -48.5
s48 -72.166 48 -119.499c0 -38 -19.667 -74 -59 -108s-59 -69.667 -59 -107h-108c0 28.667 10.333 59.667 31 93l72 84c10 11.333 15 26 15 44s-5.83301 32.833 -17.5 44.5s-25.834 17.5 -42.501 17.5c-18.667 0 -33.667 -5.33301 -45 -16
c-14.667 -13.333 -22 -34.666 -22 -63.999z" />
    <glyph glyph-name=".notdef.047" unicode="&#x1ebb;" horiz-adv-x="1331" 
d="M1251 506h-1013c0 -104 44.333 -195 133 -273c86 -76 182 -114 288 -114c84.667 0 164.334 22 239.001 66s129 104 163 180h158c-38.667 -112 -109.334 -205.333 -212.001 -280s-213.667 -112 -333 -112c-164.667 0 -303.834 56.667 -417.501 170s-170.5 252 -170.5 416
c0 163.333 56.5 301.833 169.5 415.5s251.167 170.5 414.5 170.5c87.333 0 170 -19 248 -57s145.333 -91.333 202 -160c50 -61.333 85 -127.333 105 -198c17.333 -61.333 26 -136 26 -224zM238.001 643h862c-20 100 -70.5 184.333 -151.5 253s-173.167 103 -276.5 103
c-106 0 -200.333 -33.333 -283 -100s-133 -152 -151 -256zM612.001 1459l-109 -0.00292969v14l3 29c2.66699 11.333 6.33398 21.333 11.001 30c8 18.667 20.333 37.334 37 56.001c14 14 33.333 26.667 58 38c26 8.66699 49 13 69 13c46.667 0 86 -16.167 118 -48.5
s48 -72.166 48 -119.499c0 -38 -19.667 -74 -59 -108s-59 -69.667 -59 -107h-108c0 28.667 10.333 59.667 31 93l72 84c10 11.333 15 26 15 44s-5.83301 32.833 -17.5 44.5s-25.834 17.5 -42.501 17.5c-18.667 0 -33.667 -5.33301 -45 -16
c-14.667 -13.333 -22 -34.666 -22 -63.999z" />
    <glyph glyph-name=".notdef.126" unicode="&#x1ebc;" horiz-adv-x="1098" 
d="M156 0v1513h827v-137h-676v-545h654v-137h-654v-557h676v-137h-827zM827 1827l62.001 -97.998c-10 -9.33301 -21.167 -18.333 -33.5 -27s-28.166 -18.334 -47.499 -29.001c-30 -16 -59 -24 -87 -24l-37 3c-4.66699 0.666992 -10.834 2 -18.501 4s-14.5 4.33301 -20.5 7
c-15.333 5.33301 -37.833 15.833 -67.5 31.5s-52.834 25.667 -69.501 30s-29.667 6.5 -39 6.5c-18 0 -38.667 -6 -62 -18c-7.33301 -4 -15.833 -9.83301 -25.5 -17.5s-18.834 -15.834 -27.501 -24.501l-59 101c26 28 53.833 49.333 83.5 64s61.834 22 96.501 22
c40 0 84.833 -13.667 134.5 -41s86.167 -41 109.5 -41c20 0 42 7 66 21z" />
    <glyph glyph-name=".notdef.046" unicode="&#x1ebd;" horiz-adv-x="1331" 
d="M1251 506h-1013c0 -104 44.333 -195 133 -273c86 -76 182 -114 288 -114c84.667 0 164.334 22 239.001 66s129 104 163 180h158c-38.667 -112 -109.334 -205.333 -212.001 -280s-213.667 -112 -333 -112c-164.667 0 -303.834 56.667 -417.501 170s-170.5 252 -170.5 416
c0 163.333 56.5 301.833 169.5 415.5s251.167 170.5 414.5 170.5c87.333 0 170 -19 248 -57s145.333 -91.333 202 -160c50 -61.333 85 -127.333 105 -198c17.333 -61.333 26 -136 26 -224zM238.001 643h862c-20 100 -70.5 184.333 -151.5 253s-173.167 103 -276.5 103
c-106 0 -200.333 -33.333 -283 -100s-133 -152 -151 -256zM924.001 1460l62.001 -97.998c-10 -9.33301 -21.167 -18.333 -33.5 -27s-28.166 -18.334 -47.499 -29.001c-30 -16 -59 -24 -87 -24l-37 3c-4.66699 0.666992 -10.834 2 -18.501 4s-14.5 4.33301 -20.5 7
c-15.333 5.33301 -37.833 15.833 -67.5 31.5s-52.834 25.667 -69.501 30s-29.667 6.5 -39 6.5c-18 0 -38.667 -6 -62 -18c-7.33301 -4 -15.833 -9.83301 -25.5 -17.5s-18.834 -15.834 -27.501 -24.501l-59 101c26 28 53.833 49.333 83.5 64s61.834 22 96.501 22
c40 0 84.833 -13.667 134.5 -41s86.167 -41 109.5 -41c20 0 42 7 66 21z" />
    <glyph glyph-name=".notdef.130" unicode="&#x1ebe;" horiz-adv-x="1098" 
d="M156 0v1513h827v-137h-676v-545h654v-137h-654v-557h676v-137h-827zM188 1649l297 258h131l297 -258h-184l-178 149l-178 -149h-185zM790 1958l394 238l71 -119l-395 -233z" />
    <glyph glyph-name=".notdef.042" unicode="&#x1ebf;" horiz-adv-x="1331" 
d="M1251 506h-1013c0 -104 44.333 -195 133 -273c86 -76 182 -114 288 -114c84.667 0 164.334 22 239.001 66s129 104 163 180h158c-38.667 -112 -109.334 -205.333 -212.001 -280s-213.667 -112 -333 -112c-164.667 0 -303.834 56.667 -417.501 170s-170.5 252 -170.5 416
c0 163.333 56.5 301.833 169.5 415.5s251.167 170.5 414.5 170.5c87.333 0 170 -19 248 -57s145.333 -91.333 202 -160c50 -61.333 85 -127.333 105 -198c17.333 -61.333 26 -136 26 -224zM303.001 1255l297 258h131l297 -258h-184l-178 150l-179 -150h-184zM238.001 643
h862c-20 100 -70.5 184.333 -151.5 253s-173.167 103 -276.5 103c-106 0 -200.333 -33.333 -283 -100s-133 -152 -151 -256zM904.001 1565l394 238l71 -119l-395 -233z" />
    <glyph glyph-name=".notdef.129" unicode="&#x1ec0;" horiz-adv-x="1098" 
d="M156 0v1513h827v-137h-676v-545h654v-137h-654v-557h676v-137h-827zM188 1649l297 258h131l297 -258h-184l-178 149l-178 -149h-185zM648 2189l405 -222l-67 -118l-404 217z" />
    <glyph glyph-name=".notdef.043" unicode="&#x1ec1;" horiz-adv-x="1331" 
d="M1251 506h-1013c0 -104 44.333 -195 133 -273c86 -76 182 -114 288 -114c84.667 0 164.334 22 239.001 66s129 104 163 180h158c-38.667 -112 -109.334 -205.333 -212.001 -280s-213.667 -112 -333 -112c-164.667 0 -303.834 56.667 -417.501 170s-170.5 252 -170.5 416
c0 163.333 56.5 301.833 169.5 415.5s251.167 170.5 414.5 170.5c87.333 0 170 -19 248 -57s145.333 -91.333 202 -160c50 -61.333 85 -127.333 105 -198c17.333 -61.333 26 -136 26 -224zM303.001 1255l297 258h131l297 -258h-184l-178 150l-179 -150h-184zM238.001 643
h862c-20 100 -70.5 184.333 -151.5 253s-173.167 103 -276.5 103c-106 0 -200.333 -33.333 -283 -100s-133 -152 -151 -256zM763.001 1794l405 -222l-67 -118l-404 217z" />
    <glyph glyph-name=".notdef.131" unicode="&#x1ec2;" horiz-adv-x="1098" 
d="M156 0v1513h827v-137h-676v-545h654v-137h-654v-557h676v-137h-827zM188 1649l297 258h131l297 -258h-184l-178 149l-178 -149h-185zM778 2051h-109v14l3 29c2.66699 11.333 6.33398 21.333 11.001 30c8 18.667 20.333 37.334 37 56c14 14 33.333 26.667 58 38
c26 8.66699 49 13 69 13c46.667 0 86 -16.167 118 -48.5s48 -72.166 48 -119.5c0 -38 -19.667 -74 -59 -108s-59 -69.667 -59 -107h-108c0 28.667 10.333 59.667 31 93l72 84c10 11.333 15 26 15 44s-5.83301 32.833 -17.5 44.5s-25.834 17.5 -42.501 17.5
c-18.667 0 -33.667 -5.33301 -45 -16c-14.667 -13.333 -22 -34.666 -22 -64z" />
    <glyph glyph-name=".notdef.041" unicode="&#x1ec3;" horiz-adv-x="1331" 
d="M1251 506h-1013c0 -104 44.333 -195 133 -273c86 -76 182 -114 288 -114c84.667 0 164.334 22 239.001 66s129 104 163 180h158c-38.667 -112 -109.334 -205.333 -212.001 -280s-213.667 -112 -333 -112c-164.667 0 -303.834 56.667 -417.501 170s-170.5 252 -170.5 416
c0 163.333 56.5 301.833 169.5 415.5s251.167 170.5 414.5 170.5c87.333 0 170 -19 248 -57s145.333 -91.333 202 -160c50 -61.333 85 -127.333 105 -198c17.333 -61.333 26 -136 26 -224zM303.001 1255l297 258h131l297 -258h-184l-178 150l-179 -150h-184zM238.001 643
h862c-20 100 -70.5 184.333 -151.5 253s-173.167 103 -276.5 103c-106 0 -200.333 -33.333 -283 -100s-133 -152 -151 -256zM893.001 1658l-109 -0.00292969v14l3 29c2.66699 11.333 6.33398 21.333 11.001 30c8 18.667 20.333 37.334 37 56.001c14 14 33.333 26.667 58 38
c26 8.66699 49 13 69 13c46.667 0 86 -16.167 118 -48.5s48 -72.166 48 -119.499c0 -38 -19.667 -74 -59 -108s-59 -69.667 -59 -107h-108c0 28.667 10.333 59.667 31 93l72 84c10 11.333 15 26 15 44s-5.83301 32.833 -17.5 44.5s-25.834 17.5 -42.501 17.5
c-18.667 0 -33.667 -5.33301 -45 -16c-14.667 -13.333 -22 -34.666 -22 -63.999z" />
    <glyph glyph-name=".notdef.132" unicode="&#x1ec4;" horiz-adv-x="1098" 
d="M156 0v1513h827v-137h-676v-545h654v-137h-654v-557h676v-137h-827zM188 1649l297 258h131l297 -258h-184l-178 149l-178 -149h-185zM790 2164l62.001 -97.998c-10 -9.33301 -21.167 -18.333 -33.5 -27s-28.166 -18.334 -47.499 -29.001c-30 -16 -59 -24 -87 -24l-37 3
c-4.66699 0.666992 -10.834 2 -18.501 4s-14.5 4.33301 -20.5 7c-15.333 5.33301 -37.833 15.833 -67.5 31.5s-52.834 25.667 -69.501 30s-29.667 6.5 -39 6.5c-18 0 -38.667 -6 -62 -18c-7.33301 -4 -15.833 -9.83301 -25.5 -17.5s-18.834 -15.834 -27.501 -24.501l-59 101
c26 28 53.833 49.333 83.5 64s61.834 22 96.501 22c40 0 84.833 -13.667 134.5 -41s86.167 -41 109.5 -41c20 0 42 7 66 21z" />
    <glyph glyph-name=".notdef.040" unicode="&#x1ec5;" horiz-adv-x="1331" 
d="M1251 506h-1013c0 -104 44.333 -195 133 -273c86 -76 182 -114 288 -114c84.667 0 164.334 22 239.001 66s129 104 163 180h158c-38.667 -112 -109.334 -205.333 -212.001 -280s-213.667 -112 -333 -112c-164.667 0 -303.834 56.667 -417.501 170s-170.5 252 -170.5 416
c0 163.333 56.5 301.833 169.5 415.5s251.167 170.5 414.5 170.5c87.333 0 170 -19 248 -57s145.333 -91.333 202 -160c50 -61.333 85 -127.333 105 -198c17.333 -61.333 26 -136 26 -224zM303.001 1255l297 258h131l297 -258h-184l-178 150l-179 -150h-184zM238.001 643
h862c-20 100 -70.5 184.333 -151.5 253s-173.167 103 -276.5 103c-106 0 -200.333 -33.333 -283 -100s-133 -152 -151 -256zM907.001 1770l62.001 -97.998c-10 -9.33301 -21.167 -18.333 -33.5 -27s-28.166 -18.334 -47.499 -29.001c-30 -16 -59 -24 -87 -24l-37 3
c-4.66699 0.666992 -10.834 2 -18.501 4s-14.5 4.33301 -20.5 7c-15.333 5.33301 -37.833 15.833 -67.5 31.5s-52.834 25.667 -69.501 30s-29.667 6.5 -39 6.5c-18 0 -38.667 -6 -62 -18c-7.33301 -4 -15.833 -9.83301 -25.5 -17.5s-18.834 -15.834 -27.501 -24.501l-59 101
c26 28 53.833 49.333 83.5 64s61.834 22 96.501 22c40 0 84.833 -13.667 134.5 -41s86.167 -41 109.5 -41c20 0 42 7 66 21z" />
    <glyph glyph-name=".notdef.105" unicode="&#x1ec6;" horiz-adv-x="1098" 
d="M156 0v1513h827v-137h-676v-545h654v-137h-654v-557h676v-137h-827zM188 1649l297 258h131l297 -258h-184l-178 149l-178 -149h-185zM480 -395v258h152v-258h-152z" />
    <glyph glyph-name=".notdef.039" unicode="&#x1ec7;" horiz-adv-x="1331" 
d="M1251 506h-1013c0 -104 44.333 -195 133 -273c86 -76 182 -114 288 -114c84.667 0 164.334 22 239.001 66s129 104 163 180h158c-38.667 -112 -109.334 -205.333 -212.001 -280s-213.667 -112 -333 -112c-164.667 0 -303.834 56.667 -417.501 170s-170.5 252 -170.5 416
c0 163.333 56.5 301.833 169.5 415.5s251.167 170.5 414.5 170.5c87.333 0 170 -19 248 -57s145.333 -91.333 202 -160c50 -61.333 85 -127.333 105 -198c17.333 -61.333 26 -136 26 -224zM303.001 1255l297 258h131l297 -258h-184l-178 150l-179 -150h-184zM238.001 643
h862c-20 100 -70.5 184.333 -151.5 253s-173.167 103 -276.5 103c-106 0 -200.333 -33.333 -283 -100s-133 -152 -151 -256zM590.001 -414v258h151v-258h-151z" />
    <glyph glyph-name=".notdef.102" unicode="&#x1ec8;" horiz-adv-x="463" 
d="M156 0v1513h151v-1513h-151zM171 1852l-109 -0.00292969v14l3 29c2.66699 11.333 6.33398 21.333 11.001 30c8 18.667 20.333 37.334 37 56.001c14 14 33.333 26.667 58 38c26 8.66699 49 13 69 13c46.667 0 86 -16.167 118 -48.5s48 -72.166 48 -119.499
c0 -38 -19.667 -74 -59 -108s-59 -69.667 -59 -107h-108c0 28.667 10.333 59.667 31 93l72 84c10 11.333 15 26 15 44s-5.83301 32.833 -17.5 44.5s-25.834 17.5 -42.501 17.5c-18.667 0 -33.667 -5.33301 -45 -16c-14.667 -13.333 -22 -34.666 -22 -63.999z" />
    <glyph glyph-name=".notdef.036" unicode="&#x1ec9;" horiz-adv-x="410" 
d="M129 0v1120h152v-1120h-152zM144 1459l-109 -0.00292969v14l3 29c2.66699 11.333 6.33398 21.333 11.001 30c8 18.667 20.333 37.334 37 56.001c14 14 33.333 26.667 58 38c26 8.66699 49 13 69 13c46.667 0 86 -16.167 118 -48.5s48 -72.166 48 -119.499
c0 -38 -19.667 -74 -59 -108s-59 -69.667 -59 -107h-108c0 28.667 10.333 59.667 31 93l72 84c10 11.333 15 26 15 44s-5.83301 32.833 -17.5 44.5s-25.834 17.5 -42.501 17.5c-18.667 0 -33.667 -5.33301 -45 -16c-14.667 -13.333 -22 -34.666 -22 -63.999z" />
    <glyph glyph-name=".notdef.100" unicode="&#x1eca;" horiz-adv-x="463" 
d="M156 0v1513h151v-1513h-151zM152 -395v258h152v-258h-152z" />
    <glyph glyph-name=".notdef.034" unicode="&#x1ecb;" horiz-adv-x="410" 
d="M129 0v1120h152v-1120h-152zM129 1255v258h152v-258h-152zM129 -395v258h152v-258h-152z" />
    <glyph glyph-name=".notdef.095" unicode="&#x1ecc;" horiz-adv-x="1780" 
d="M889 1538c216 0 403.501 -75.332 562.501 -225.999s238.5 -334 238.5 -550c0 -218.667 -78.333 -404.834 -235 -558.501s-345.334 -230.5 -566.001 -230.5c-214 0 -400 75 -558 225c-160.667 153.333 -241 337.333 -241 552c0 218 78.167 403.833 234.5 557.5
s344.5 230.5 564.5 230.5zM891.001 1393c-178 0 -330.667 -62.667 -458 -188s-191 -277 -191 -455c0 -172 64.667 -320.167 194 -444.5s281 -186.5 455 -186.5c178 0 330.333 62.5 457 187.5s190 276.833 190 455.5c0 172.667 -64.167 321 -192.5 445
s-279.833 186 -454.5 186zM817.001 -394.999v258h152v-258h-152z" />
    <glyph glyph-name=".notdef.029" unicode="&#x1ecd;" 
d="M674 1145c154.667 0 290.168 -57.168 406.501 -171.501s174.5 -249.833 174.5 -406.5c0 -161.333 -56.667 -300.666 -170 -417.999s-250.333 -176 -411 -176s-298.834 56.667 -414.501 170s-173.5 250 -173.5 410c0 162.667 57 302 171 418s253 174 417 174z
M674.001 998.999c-122.667 0 -226 -43.499 -310 -130.499s-126 -192.167 -126 -315.5c0 -120 42.833 -222.333 128.5 -307s188.167 -127 307.5 -127c123.333 0 225.833 43.833 307.5 131.5s122.5 193.167 122.5 316.5s-43.667 226.666 -131 309.999
c-39.333 37.333 -85.5 67 -138.5 89s-106.5 33 -160.5 33zM600.001 -395v258h152v-258h-152z" />
    <glyph glyph-name=".notdef.097" unicode="&#x1ece;" horiz-adv-x="1780" 
d="M889 1538c216.667 0 404.333 -75.333 563 -226s238 -334 238 -550c0 -218 -78.5 -404 -235.5 -558s-345.5 -231 -565.5 -231c-214 0 -400 75 -558 225c-160.667 153.333 -241 337.333 -241 552c0 218.667 78.167 404.667 234.5 558s344.5 230 564.5 230zM890.999 1393
c-178 0 -330.667 -62.667 -458 -188s-191 -277 -191 -455c0 -172.667 64.667 -321 194 -445s281 -186 455 -186c178 0 330.333 62.5 457 187.5s190 276.833 190 455.5c0 173.333 -64.167 321.833 -192.5 445.5s-279.833 185.5 -454.5 185.5zM825.999 1852l-109 -0.00292969
v14l3 29c2.66699 11.333 6.33398 21.333 11.001 30c8 18.667 20.333 37.334 37 56.001c14 14 33.333 26.667 58 38c26 8.66699 49 13 69 13c46.667 0 86 -16.167 118 -48.5s48 -72.166 48 -119.499c0 -38 -19.667 -74 -59 -108s-59 -69.667 -59 -107h-108
c0 28.667 10.333 59.667 31 93l72 84c10 11.333 15 26 15 44s-5.83301 32.833 -17.5 44.5s-25.834 17.5 -42.501 17.5c-18.667 0 -33.667 -5.33301 -45 -16c-14.667 -13.333 -22 -34.666 -22 -63.999z" />
    <glyph glyph-name=".notdef.031" unicode="&#x1ecf;" 
d="M674 1145c154.667 0 290.168 -57.168 406.501 -171.501s174.5 -249.833 174.5 -406.5c0 -161.333 -56.667 -300.666 -170 -417.999s-250.333 -176 -411 -176s-298.834 56.667 -414.501 170s-173.5 250 -173.5 410c0 162.667 57 302 171 418s253 174 417 174z
M674.001 998.999c-122.667 0 -226 -43.499 -310 -130.499s-126 -192.167 -126 -315.5c0 -120 42.833 -222.333 128.5 -307s188.167 -127 307.5 -127c123.333 0 225.833 43.833 307.5 131.5s122.5 193.167 122.5 316.5s-43.667 226.666 -131 309.999
c-39.333 37.333 -85.5 67 -138.5 89s-106.5 33 -160.5 33zM615.001 1459l-109 -0.00292969v14l3 29c2.66699 11.333 6.33398 21.333 11.001 30c8 18.667 20.333 37.334 37 56.001c14 14 33.333 26.667 58 38c26 8.66699 49 13 69 13c46.667 0 86 -16.167 118 -48.5
s48 -72.166 48 -119.499c0 -38 -19.667 -74 -59 -108s-59 -69.667 -59 -107h-108c0 28.667 10.333 59.667 31 93l72 84c10 11.333 15 26 15 44s-5.83301 32.833 -17.5 44.5s-25.834 17.5 -42.501 17.5c-18.667 0 -33.667 -5.33301 -45 -16
c-14.667 -13.333 -22 -34.666 -22 -63.999z" />
    <glyph glyph-name=".notdef.092" unicode="&#x1ed0;" horiz-adv-x="1780" 
d="M889 1538c216 0 403.501 -75.332 562.501 -225.999s238.5 -334 238.5 -550c0 -218.667 -78.333 -404.834 -235 -558.501s-345.334 -230.5 -566.001 -230.5c-214 0 -400 75 -558 225c-160.667 153.333 -241 337.333 -241 552c0 218 78.167 403.833 234.5 557.5
s344.5 230.5 564.5 230.5zM528.001 1649l297 258h131l297 -258h-184l-178 149l-178 -149h-185zM891.001 1393c-178 0 -330.667 -62.667 -458 -188s-191 -277 -191 -455c0 -172 64.667 -320.167 194 -444.5s281 -186.5 455 -186.5c178 0 330.333 62.5 457 187.5
s190 276.833 190 455.5c0 172.667 -64.167 321 -192.5 445s-279.833 186 -454.5 186zM1129 1958l394 238l71 -119l-395 -233z" />
    <glyph glyph-name=".notdef.026" unicode="&#x1ed1;" 
d="M674 1145c154.667 0 290.168 -57.168 406.501 -171.501s174.5 -249.833 174.5 -406.5c0 -161.333 -56.667 -300.666 -170 -417.999s-250.333 -176 -411 -176s-298.834 56.667 -414.501 170s-173.5 250 -173.5 410c0 162.667 57 302 171 418s253 174 417 174z
M309.001 1255l297 258h131l297 -258h-184l-178 150l-178 -150h-185zM674.001 998.999c-122.667 0 -226 -43.499 -310 -130.499s-126 -192.167 -126 -315.5c0 -120 42.833 -222.333 128.5 -307s188.167 -127 307.5 -127c123.333 0 225.833 43.833 307.5 131.5
s122.5 193.167 122.5 316.5s-43.667 226.666 -131 309.999c-39.333 37.333 -85.5 67 -138.5 89s-106.5 33 -160.5 33zM910.001 1565l394 238l71 -119l-395 -233z" />
    <glyph glyph-name=".notdef.093" unicode="&#x1ed2;" horiz-adv-x="1780" 
d="M889 1538c216 0 403.501 -75.332 562.501 -225.999s238.5 -334 238.5 -550c0 -218.667 -78.333 -404.834 -235 -558.501s-345.334 -230.5 -566.001 -230.5c-214 0 -400 75 -558 225c-160.667 153.333 -241 337.333 -241 552c0 218 78.167 403.833 234.5 557.5
s344.5 230.5 564.5 230.5zM528.001 1649l297 258h131l297 -258h-184l-178 149l-178 -149h-185zM891.001 1393c-178 0 -330.667 -62.667 -458 -188s-191 -277 -191 -455c0 -172 64.667 -320.167 194 -444.5s281 -186.5 455 -186.5c178 0 330.333 62.5 457 187.5
s190 276.833 190 455.5c0 172.667 -64.167 321 -192.5 445s-279.833 186 -454.5 186zM988.001 2188l405 -222l-67 -118l-404 217z" />
    <glyph glyph-name=".notdef.027" unicode="&#x1ed3;" 
d="M674 1145c154.667 0 290.168 -57.168 406.501 -171.501s174.5 -249.833 174.5 -406.5c0 -161.333 -56.667 -300.666 -170 -417.999s-250.333 -176 -411 -176s-298.834 56.667 -414.501 170s-173.5 250 -173.5 410c0 162.667 57 302 171 418s253 174 417 174z
M309.001 1255l297 258h131l297 -258h-184l-178 150l-178 -150h-185zM674.001 998.999c-122.667 0 -226 -43.499 -310 -130.499s-126 -192.167 -126 -315.5c0 -120 42.833 -222.333 128.5 -307s188.167 -127 307.5 -127c123.333 0 225.833 43.833 307.5 131.5
s122.5 193.167 122.5 316.5s-43.667 226.666 -131 309.999c-39.333 37.333 -85.5 67 -138.5 89s-106.5 33 -160.5 33zM769.001 1794l405 -222l-67 -118l-404 217z" />
    <glyph glyph-name=".notdef.091" unicode="&#x1ed4;" horiz-adv-x="1780" 
d="M889 1538c216 0 403.501 -75.332 562.501 -225.999s238.5 -334 238.5 -550c0 -218.667 -78.333 -404.834 -235 -558.501s-345.334 -230.5 -566.001 -230.5c-214 0 -400 75 -558 225c-160.667 153.333 -241 337.333 -241 552c0 218 78.167 403.833 234.5 557.5
s344.5 230.5 564.5 230.5zM528.001 1649l297 258h131l297 -258h-184l-178 149l-178 -149h-185zM891.001 1393c-178 0 -330.667 -62.667 -458 -188s-191 -277 -191 -455c0 -172 64.667 -320.167 194 -444.5s281 -186.5 455 -186.5c178 0 330.333 62.5 457 187.5
s190 276.833 190 455.5c0 172.667 -64.167 321 -192.5 445s-279.833 186 -454.5 186zM1119 2051l-109 -0.000976562v14l3 29c2.66699 11.333 6.33398 21.333 11.001 30c8 18.667 20.333 37.334 37 56c14 14 33.333 26.667 58 38c26 8.66699 49 13 69 13
c46.667 0 86 -16.167 118 -48.5s48 -72.166 48 -119.5c0 -38 -19.667 -74 -59 -108s-59 -69.667 -59 -107h-108c0 28.667 10.333 59.667 31 93l72 84c10 11.333 15 26 15 44s-5.83301 32.833 -17.5 44.5s-25.834 17.5 -42.501 17.5c-18.667 0 -33.667 -5.33301 -45 -16
c-14.667 -13.333 -22 -34.666 -22 -63.999z" />
    <glyph glyph-name=".notdef.025" unicode="&#x1ed5;" 
d="M674 1145c154.667 0 290.168 -57.168 406.501 -171.501s174.5 -249.833 174.5 -406.5c0 -161.333 -56.667 -300.666 -170 -417.999s-250.333 -176 -411 -176s-298.834 56.667 -414.501 170s-173.5 250 -173.5 410c0 162.667 57 302 171 418s253 174 417 174z
M309.001 1255l297 258h131l297 -258h-184l-178 150l-178 -150h-185zM674.001 998.999c-122.667 0 -226 -43.499 -310 -130.499s-126 -192.167 -126 -315.5c0 -120 42.833 -222.333 128.5 -307s188.167 -127 307.5 -127c123.333 0 225.833 43.833 307.5 131.5
s122.5 193.167 122.5 316.5s-43.667 226.666 -131 309.999c-39.333 37.333 -85.5 67 -138.5 89s-106.5 33 -160.5 33zM900.001 1658l-109 -0.00292969v14l3 29c2.66699 11.333 6.33398 21.333 11.001 30c8 18.667 20.333 37.334 37 56.001c14 14 33.333 26.667 58 38
c26 8.66699 49 13 69 13c46.667 0 86 -16.167 118 -48.5s48 -72.166 48 -119.499c0 -38 -19.667 -74 -59 -108s-59 -69.667 -59 -107h-108c0 28.667 10.333 59.667 31 93l72 84c10 11.333 15 26 15 44s-5.83301 32.833 -17.5 44.5s-25.834 17.5 -42.501 17.5
c-18.667 0 -33.667 -5.33301 -45 -16c-14.667 -13.333 -22 -34.666 -22 -63.999z" />
    <glyph glyph-name=".notdef.090" unicode="&#x1ed6;" horiz-adv-x="1780" 
d="M889 1538c216 0 403.501 -75.332 562.501 -225.999s238.5 -334 238.5 -550c0 -218.667 -78.333 -404.834 -235 -558.501s-345.334 -230.5 -566.001 -230.5c-214 0 -400 75 -558 225c-160.667 153.333 -241 337.333 -241 552c0 218 78.167 403.833 234.5 557.5
s344.5 230.5 564.5 230.5zM528.001 1649l297 258h131l297 -258h-184l-178 149l-178 -149h-185zM891.001 1393c-178 0 -330.667 -62.667 -458 -188s-191 -277 -191 -455c0 -172 64.667 -320.167 194 -444.5s281 -186.5 455 -186.5c178 0 330.333 62.5 457 187.5
s190 276.833 190 455.5c0 172.667 -64.167 321 -192.5 445s-279.833 186 -454.5 186zM1132 2164l62.001 -97.999c-10 -9.33301 -21.167 -18.333 -33.5 -27s-28.166 -18.334 -47.499 -29.001c-30 -16 -59 -24 -87 -24l-37 3c-4.66699 0.666992 -10.834 2 -18.501 4
s-14.5 4.33301 -20.5 7c-15.333 5.33301 -37.833 15.833 -67.5 31.5s-52.834 25.667 -69.501 30.001c-16.667 4.33301 -29.667 6.5 -39 6.5c-18 0 -38.667 -6 -62 -18c-7.33301 -4 -15.833 -9.83301 -25.5 -17.5s-18.834 -15.834 -27.501 -24.501l-59 101
c26 28 53.833 49.333 83.5 64s61.834 22 96.501 22c40 0 84.833 -13.667 134.5 -41s86.167 -41 109.5 -41c20 0 42 7 66 21z" />
    <glyph glyph-name=".notdef.024" unicode="&#x1ed7;" 
d="M674 1145c154.667 0 290.168 -57.168 406.501 -171.501s174.5 -249.833 174.5 -406.5c0 -161.333 -56.667 -300.666 -170 -417.999s-250.333 -176 -411 -176s-298.834 56.667 -414.501 170s-173.5 250 -173.5 410c0 162.667 57 302 171 418s253 174 417 174z
M309.001 1255l297 258h131l297 -258h-184l-178 150l-178 -150h-185zM674.001 998.999c-122.667 0 -226 -43.499 -310 -130.499s-126 -192.167 -126 -315.5c0 -120 42.833 -222.333 128.5 -307s188.167 -127 307.5 -127c123.333 0 225.833 43.833 307.5 131.5
s122.5 193.167 122.5 316.5s-43.667 226.666 -131 309.999c-39.333 37.333 -85.5 67 -138.5 89s-106.5 33 -160.5 33zM913.001 1770l62.001 -97.998c-10 -9.33301 -21.167 -18.333 -33.5 -27s-28.166 -18.334 -47.499 -29.001c-30 -16 -59 -24 -87 -24l-37 3
c-4.66699 0.666992 -10.834 2 -18.501 4s-14.5 4.33301 -20.5 7c-15.333 5.33301 -37.833 15.833 -67.5 31.5s-52.834 25.667 -69.501 30s-29.667 6.5 -39 6.5c-18 0 -38.667 -6 -62 -18c-7.33301 -4 -15.833 -9.83301 -25.5 -17.5s-18.834 -15.834 -27.501 -24.501l-59 101
c26 28 53.833 49.333 83.5 64s61.834 22 96.501 22c40 0 84.833 -13.667 134.5 -41s86.167 -41 109.5 -41c20 0 42 7 66 21z" />
    <glyph glyph-name=".notdef.089" unicode="&#x1ed8;" horiz-adv-x="1780" 
d="M889 1538c216 0 403.501 -75.332 562.501 -225.999s238.5 -334 238.5 -550c0 -218.667 -78.333 -404.834 -235 -558.501s-345.334 -230.5 -566.001 -230.5c-214 0 -400 75 -558 225c-160.667 153.333 -241 337.333 -241 552c0 218 78.167 403.833 234.5 557.5
s344.5 230.5 564.5 230.5zM528.001 1649l297 258h131l297 -258h-184l-178 149l-178 -149h-185zM891.001 1393c-178 0 -330.667 -62.667 -458 -188s-191 -277 -191 -455c0 -172 64.667 -320.167 194 -444.5s281 -186.5 455 -186.5c178 0 330.333 62.5 457 187.5
s190 276.833 190 455.5c0 172.667 -64.167 321 -192.5 445s-279.833 186 -454.5 186zM817.001 -394.999v258h152v-258h-152z" />
    <glyph glyph-name=".notdef.023" unicode="&#x1ed9;" 
d="M674 1145c154.667 0 290.168 -57.168 406.501 -171.501s174.5 -249.833 174.5 -406.5c0 -161.333 -56.667 -300.666 -170 -417.999s-250.333 -176 -411 -176s-298.834 56.667 -414.501 170s-173.5 250 -173.5 410c0 162.667 57 302 171 418s253 174 417 174z
M309.001 1255l297 258h131l297 -258h-184l-178 150l-178 -150h-185zM674.001 998.999c-122.667 0 -226 -43.499 -310 -130.499s-126 -192.167 -126 -315.5c0 -120 42.833 -222.333 128.5 -307s188.167 -127 307.5 -127c123.333 0 225.833 43.833 307.5 131.5
s122.5 193.167 122.5 316.5s-43.667 226.666 -131 309.999c-39.333 37.333 -85.5 67 -138.5 89s-106.5 33 -160.5 33zM600.001 -395v258h152v-258h-152z" />
    <glyph glyph-name=".notdef.075" unicode="&#x1eda;" horiz-adv-x="1780" 
d="M889 1538c216.667 0 404.333 -75.333 563 -226s238 -334 238 -550c0 -218 -78.5 -404 -235.5 -558s-345.5 -231 -565.5 -231c-214 0 -400 75 -558 225c-160.667 153.333 -241 337.333 -241 552c0 218.667 78.167 404.667 234.5 558s344.5 230 564.5 230zM890.999 1393
c-178 0 -330.667 -62.667 -458 -188s-191 -277 -191 -455c0 -172.667 64.667 -321 194 -445s281 -186 455 -186c178 0 330.333 62.5 457 187.5s190 276.833 190 455.5c0 173.333 -64.167 321.833 -192.5 445.5s-279.833 185.5 -454.5 185.5zM1376 1317v259h164v-259h-164z
M656.999 1763l394 238l71 -119l-395 -233z" />
    <glyph glyph-name=".notdef.009" unicode="&#x1edb;" 
d="M674 999c-122.667 0 -226 -43.499 -310 -130.499s-126 -192.167 -126 -315.5c0 -120 42.833 -222.333 128.5 -307s188.167 -127 307.5 -127c123.333 0 225.833 43.833 307.5 131.5s122.5 193.167 122.5 316.5s-43.667 226.666 -131 309.999
c-39.333 37.333 -85.5 67 -138.5 89s-106.5 33 -160.5 33zM1026 1020l0.00195312 197h153v-259h-83c48 -50.667 86.667 -111 116 -181c14 -34 24.667 -68.333 32 -103s11 -70.334 11 -107.001c0 -161.333 -56.667 -300.666 -170 -417.999s-250.333 -176 -411 -176
s-298.834 56.667 -414.501 170s-173.5 250 -173.5 410c0 162.667 57 302 171 418s253 174 417 174c63.333 0 125.666 -10.833 186.999 -32.5s116.333 -52.5 165 -92.5zM959.002 1473l-403 -218l-68 119l406 221z" />
    <glyph glyph-name=".notdef.076" unicode="&#x1edc;" horiz-adv-x="1780" 
d="M889 1538c216.667 0 404.333 -75.333 563 -226s238 -334 238 -550c0 -218 -78.5 -404 -235.5 -558s-345.5 -231 -565.5 -231c-214 0 -400 75 -558 225c-160.667 153.333 -241 337.333 -241 552c0 218.667 78.167 404.667 234.5 558s344.5 230 564.5 230zM890.999 1393
c-178 0 -330.667 -62.667 -458 -188s-191 -277 -191 -455c0 -172.667 64.667 -321 194 -445s281 -186 455 -186c178 0 330.333 62.5 457 187.5s190 276.833 190 455.5c0 173.333 -64.167 321.833 -192.5 445.5s-279.833 185.5 -454.5 185.5zM1376 1317v259h164v-259h-164z
M720.999 1989l405 -222l-67 -118l-404 217z" />
    <glyph glyph-name=".notdef.010" unicode="&#x1edd;" 
d="M674 999c-122.667 0 -226 -43.499 -310 -130.499s-126 -192.167 -126 -315.5c0 -120 42.833 -222.333 128.5 -307s188.167 -127 307.5 -127c123.333 0 225.833 43.833 307.5 131.5s122.5 193.167 122.5 316.5s-43.667 226.666 -131 309.999
c-39.333 37.333 -85.5 67 -138.5 89s-106.5 33 -160.5 33zM1026 1020l0.00195312 197h153v-259h-83c48 -50.667 86.667 -111 116 -181c14 -34 24.667 -68.333 32 -103s11 -70.334 11 -107.001c0 -161.333 -56.667 -300.666 -170 -417.999s-250.333 -176 -411 -176
s-298.834 56.667 -414.501 170s-173.5 250 -173.5 410c0 162.667 57 302 171 418s253 174 417 174c63.333 0 125.666 -10.833 186.999 -32.5s116.333 -52.5 165 -92.5zM530.002 1595l406 -221l-68 -119l-403 218z" />
    <glyph glyph-name=".notdef.074" unicode="&#x1ede;" horiz-adv-x="1780" 
d="M889 1538c216.667 0 404.333 -75.333 563 -226s238 -334 238 -550c0 -218 -78.5 -404 -235.5 -558s-345.5 -231 -565.5 -231c-214 0 -400 75 -558 225c-160.667 153.333 -241 337.333 -241 552c0 218.667 78.167 404.667 234.5 558s344.5 230 564.5 230zM890.999 1393
c-178 0 -330.667 -62.667 -458 -188s-191 -277 -191 -455c0 -172.667 64.667 -321 194 -445s281 -186 455 -186c178 0 330.333 62.5 457 187.5s190 276.833 190 455.5c0 173.333 -64.167 321.833 -192.5 445.5s-279.833 185.5 -454.5 185.5zM1376 1317v259h164v-259h-164z
M825.999 1852l-109 -0.00292969v14l3 29c2.66699 11.333 6.33398 21.333 11.001 30c8 18.667 20.333 37.334 37 56.001c14 14 33.333 26.667 58 38c26 8.66699 49 13 69 13c46.667 0 86 -16.167 118 -48.5s48 -72.166 48 -119.499c0 -38 -19.667 -74 -59 -108
s-59 -69.667 -59 -107h-108c0 28.667 10.333 59.667 31 93l72 84c10 11.333 15 26 15 44s-5.83301 32.833 -17.5 44.5s-25.834 17.5 -42.501 17.5c-18.667 0 -33.667 -5.33301 -45 -16c-14.667 -13.333 -22 -34.666 -22 -63.999z" />
    <glyph glyph-name=".notdef.008" unicode="&#x1edf;" 
d="M674 999c-122.667 0 -226 -43.499 -310 -130.499s-126 -192.167 -126 -315.5c0 -120 42.833 -222.333 128.5 -307s188.167 -127 307.5 -127c123.333 0 225.833 43.833 307.5 131.5s122.5 193.167 122.5 316.5s-43.667 226.666 -131 309.999
c-39.333 37.333 -85.5 67 -138.5 89s-106.5 33 -160.5 33zM1026 1020l0.00195312 197h153v-259h-83c48 -50.667 86.667 -111 116 -181c14 -34 24.667 -68.333 32 -103s11 -70.334 11 -107.001c0 -161.333 -56.667 -300.666 -170 -417.999s-250.333 -176 -411 -176
s-298.834 56.667 -414.501 170s-173.5 250 -173.5 410c0 162.667 57 302 171 418s253 174 417 174c63.333 0 125.666 -10.833 186.999 -32.5s116.333 -52.5 165 -92.5zM615.002 1459l-109 -0.00292969v14l3 29c2.66699 11.333 6.33398 21.333 11.001 30
c8 18.667 20.333 37.334 37 56.001c14 14 33.333 26.667 58 38c26 8.66699 49 13 69 13c46.667 0 86 -16.167 118 -48.5s48 -72.166 48 -119.499c0 -38 -19.667 -74 -59 -108s-59 -69.667 -59 -107h-108c0 28.667 10.333 59.667 31 93l72 84c10 11.333 15 26 15 44
s-5.83301 32.833 -17.5 44.5s-25.834 17.5 -42.501 17.5c-18.667 0 -33.667 -5.33301 -45 -16c-14.667 -13.333 -22 -34.666 -22 -63.999z" />
    <glyph glyph-name=".notdef.073" unicode="&#x1ee0;" horiz-adv-x="1780" 
d="M889 1538c216.667 0 404.333 -75.333 563 -226s238 -334 238 -550c0 -218 -78.5 -404 -235.5 -558s-345.5 -231 -565.5 -231c-214 0 -400 75 -558 225c-160.667 153.333 -241 337.333 -241 552c0 218.667 78.167 404.667 234.5 558s344.5 230 564.5 230zM890.999 1393
c-178 0 -330.667 -62.667 -458 -188s-191 -277 -191 -455c0 -172.667 64.667 -321 194 -445s281 -186 455 -186c178 0 330.333 62.5 457 187.5s190 276.833 190 455.5c0 173.333 -64.167 321.833 -192.5 445.5s-279.833 185.5 -454.5 185.5zM1376 1317v259h164v-259h-164z
M1126 1827l62.001 -97.998c-10 -9.33301 -21.167 -18.333 -33.5 -27s-28.166 -18.334 -47.499 -29.001c-30 -16 -59 -24 -87 -24l-37 3c-4.66699 0.666992 -10.834 2 -18.501 4s-14.5 4.33301 -20.5 7c-15.333 5.33301 -37.833 15.833 -67.5 31.5s-52.834 25.667 -69.501 30
s-29.667 6.5 -39 6.5c-18 0 -38.667 -6 -62 -18c-7.33301 -4 -15.833 -9.83301 -25.5 -17.5s-18.834 -15.834 -27.501 -24.501l-59 101c26 28 53.833 49.333 83.5 64s61.834 22 96.501 22c40 0 84.833 -13.667 134.5 -41s86.167 -41 109.5 -41c20 0 42 7 66 21z" />
    <glyph glyph-name=".notdef.007" unicode="&#x1ee1;" 
d="M674 999c-122.667 0 -226 -43.499 -310 -130.499s-126 -192.167 -126 -315.5c0 -120 42.833 -222.333 128.5 -307s188.167 -127 307.5 -127c123.333 0 225.833 43.833 307.5 131.5s122.5 193.167 122.5 316.5s-43.667 226.666 -131 309.999
c-39.333 37.333 -85.5 67 -138.5 89s-106.5 33 -160.5 33zM1026 1020l0.00195312 197h153v-259h-83c48 -50.667 86.667 -111 116 -181c14 -34 24.667 -68.333 32 -103s11 -70.334 11 -107.001c0 -161.333 -56.667 -300.666 -170 -417.999s-250.333 -176 -411 -176
s-298.834 56.667 -414.501 170s-173.5 250 -173.5 410c0 162.667 57 302 171 418s253 174 417 174c63.333 0 125.666 -10.833 186.999 -32.5s116.333 -52.5 165 -92.5zM908.002 1460l62.001 -97.998c-10 -9.33301 -21.167 -18.333 -33.5 -27
s-28.166 -18.334 -47.499 -29.001c-30 -16 -59 -24 -87 -24l-37 3c-4.66699 0.666992 -10.834 2 -18.501 4s-14.5 4.33301 -20.5 7c-15.333 5.33301 -37.833 15.833 -67.5 31.5s-52.834 25.667 -69.501 30s-29.667 6.5 -39 6.5c-18 0 -38.667 -6 -62 -18
c-7.33301 -4 -15.833 -9.83301 -25.5 -17.5s-18.834 -15.834 -27.501 -24.501l-59 101c26 28 53.833 49.333 83.5 64s61.834 22 96.501 22c40 0 84.833 -13.667 134.5 -41s86.167 -41 109.5 -41c20 0 42 7 66 21z" />
    <glyph glyph-name=".notdef.072" unicode="&#x1ee2;" horiz-adv-x="1780" 
d="M889 1538c216.667 0 404.333 -75.333 563 -226s238 -334 238 -550c0 -218 -78.5 -404 -235.5 -558s-345.5 -231 -565.5 -231c-214 0 -400 75 -558 225c-160.667 153.333 -241 337.333 -241 552c0 218.667 78.167 404.667 234.5 558s344.5 230 564.5 230zM890.999 1393
c-178 0 -330.667 -62.667 -458 -188s-191 -277 -191 -455c0 -172.667 64.667 -321 194 -445s281 -186 455 -186c178 0 330.333 62.5 457 187.5s190 276.833 190 455.5c0 173.333 -64.167 321.833 -192.5 445.5s-279.833 185.5 -454.5 185.5zM1376 1317v259h164v-259h-164z
M816.999 -395v258h152v-258h-152z" />
    <glyph glyph-name=".notdef.006" unicode="&#x1ee3;" 
d="M674 999c-122.667 0 -226 -43.499 -310 -130.499s-126 -192.167 -126 -315.5c0 -120 42.833 -222.333 128.5 -307s188.167 -127 307.5 -127c123.333 0 225.833 43.833 307.5 131.5s122.5 193.167 122.5 316.5s-43.667 226.666 -131 309.999
c-39.333 37.333 -85.5 67 -138.5 89s-106.5 33 -160.5 33zM1026 1020l0.00195312 197h153v-259h-83c48 -50.667 86.667 -111 116 -181c14 -34 24.667 -68.333 32 -103s11 -70.334 11 -107.001c0 -161.333 -56.667 -300.666 -170 -417.999s-250.333 -176 -411 -176
s-298.834 56.667 -414.501 170s-173.5 250 -173.5 410c0 162.667 57 302 171 418s253 174 417 174c63.333 0 125.666 -10.833 186.999 -32.5s116.333 -52.5 165 -92.5zM600.002 -394.999v258h152v-258h-152z" />
    <glyph glyph-name=".notdef.084" unicode="&#x1ee4;" 
d="M156 1513l150.998 0.00292969v-919c0 -65.333 4.5 -123.5 13.5 -174.5s28.333 -99.833 58 -146.5s70.834 -84 123.501 -112s109.334 -42 170.001 -42c55.333 0 107.5 11.833 156.5 35.5s89.667 57.167 122 100.5s55.5 97.333 69.5 162c9.33301 46.667 14 105.667 14 177
v919h152v-919c0 -92.667 -6.33301 -167.334 -19 -224.001c-17.333 -76 -48.833 -144.333 -94.5 -205s-104.334 -107.834 -176.001 -141.501s-146.5 -50.5 -224.5 -50.5c-78.667 0 -151.667 15.333 -219 46s-125.666 75.667 -174.999 135s-83 128.666 -101 207.999
c-14 60 -21 137.333 -21 232v919zM594.998 -394.997v258h152v-258h-152z" />
    <glyph glyph-name=".notdef.018" unicode="&#x1ee5;" horiz-adv-x="1245" 
d="M1116 1120l0.000976562 -1120h-143v174c-34.667 -68 -86 -119.333 -154 -154c-62.667 -31.333 -135 -47 -217 -47c-75.333 0 -142.666 14.667 -201.999 44c-64.667 32 -128.334 84.333 -191.001 157c-29.333 31.333 -51 81 -65 149c-10 53.333 -15 121.666 -15 204.999
v592h152v-592c0 -68 4 -119 12 -153s20.333 -65.333 37 -94c30 -52 70.667 -92 122 -120s108.333 -42 171 -42c55.333 0 106.333 11.5 153 34.5s87 57.167 121 102.5c25.333 35.333 43.666 78.666 54.999 129.999c8.66699 43.333 13 90.666 13 141.999v592h151z
M531.001 -394.997v258h152v-258h-152z" />
    <glyph glyph-name=".notdef.086" unicode="&#x1ee6;" 
d="M156 1513l150.998 0.00292969v-919c0 -65.333 4.5 -123.5 13.5 -174.5s28.333 -99.833 58 -146.5s70.834 -84 123.501 -112s109.334 -42 170.001 -42c55.333 0 107.5 11.833 156.5 35.5s89.667 57.167 122 100.5s55.5 97.333 69.5 162c9.33301 46.667 14 105.667 14 177
v919h152v-919c0 -92.667 -6.33301 -167.334 -19 -224.001c-17.333 -76 -48.833 -144.333 -94.5 -205s-104.334 -107.834 -176.001 -141.501s-146.5 -50.5 -224.5 -50.5c-78.667 0 -151.667 15.333 -219 46s-125.666 75.667 -174.999 135s-83 128.666 -101 207.999
c-14 60 -21 137.333 -21 232v919zM625.998 1852l-109 -0.00292969v14l3 29c2.66699 11.333 6.33398 21.333 11.001 30c8 18.667 20.333 37.334 37 56.001c14 14 33.333 26.667 58 38c26 8.66699 49 13 69 13c46.667 0 86 -16.167 118 -48.5s48 -72.166 48 -119.499
c0 -38 -19.667 -74 -59 -108s-59 -69.667 -59 -107h-108c0 28.667 10.333 59.667 31 93l72 84c10 11.333 15 26 15 44s-5.83301 32.833 -17.5 44.5s-25.834 17.5 -42.501 17.5c-18.667 0 -33.667 -5.33301 -45 -16c-14.667 -13.333 -22 -34.666 -22 -63.999z" />
    <glyph glyph-name=".notdef.020" unicode="&#x1ee7;" horiz-adv-x="1245" 
d="M1116 1120l0.000976562 -1120h-143v174c-34.667 -68 -86 -119.333 -154 -154c-62.667 -31.333 -135 -47 -217 -47c-75.333 0 -142.666 14.667 -201.999 44c-64.667 32 -128.334 84.333 -191.001 157c-29.333 31.333 -51 81 -65 149c-10 53.333 -15 121.666 -15 204.999
v592h152v-592c0 -68 4 -119 12 -153s20.333 -65.333 37 -94c30 -52 70.667 -92 122 -120s108.333 -42 171 -42c55.333 0 106.333 11.5 153 34.5s87 57.167 121 102.5c25.333 35.333 43.666 78.666 54.999 129.999c8.66699 43.333 13 90.666 13 141.999v592h151z
M587.001 1459l-109 -0.00292969v14l3 29c2.66699 11.333 6.33398 21.333 11.001 30c8 18.667 20.333 37.334 37 56.001c14 14 33.333 26.667 58 38c26 8.66699 49 13 69 13c46.667 0 86 -16.167 118 -48.5s48 -72.166 48 -119.499c0 -38 -19.667 -74 -59 -108
s-59 -69.667 -59 -107h-108c0 28.667 10.333 59.667 31 93l72 84c10 11.333 15 26 15 44s-5.83301 32.833 -17.5 44.5s-25.834 17.5 -42.501 17.5c-18.667 0 -33.667 -5.33301 -45 -16c-14.667 -13.333 -22 -34.666 -22 -63.999z" />
    <glyph glyph-name=".notdef.081" unicode="&#x1ee8;" horiz-adv-x="1364" 
d="M1186 1376l-0.00195312 -781.997c0 -92.667 -6.33301 -167.334 -19 -224.001c-17.333 -76 -48.833 -144.333 -94.5 -205s-104.334 -107.834 -176.001 -141.501s-146.5 -50.5 -224.5 -50.5c-78.667 0 -151.667 15.333 -219 46s-125.666 75.667 -174.999 135
s-83 128.666 -101 207.999c-14 60 -21 137.333 -21 232v919h151v-919c0 -65.333 4.5 -123.5 13.5 -174.5s28.333 -99.833 58 -146.5s70.834 -84 123.501 -112s109.334 -42 170.001 -42c55.333 0 107.5 11.833 156.5 35.5s89.667 57.167 122 100.5s55.5 97.333 69.5 162
c9.33301 46.667 14 105.667 14 177v919l122 1v120h158v-258h-128zM437.998 1763l393 238l72 -119l-395 -233z" />
    <glyph glyph-name=".notdef.015" unicode="&#x1ee9;" horiz-adv-x="1245" 
d="M1116 958l0.000976562 -957.997h-143v174c-34.667 -68 -86 -119.333 -154 -154c-62.667 -31.333 -135 -47 -217 -47c-75.333 0 -142.666 14.667 -201.999 44c-64.667 32 -128.334 84.333 -191.001 157c-29.333 31.333 -51 81 -65 149c-10 53.333 -15 121.666 -15 204.999
v592h152v-592c0 -68 4 -119 12 -153s20.333 -65.333 37 -94c30 -52 70.667 -92 122 -120s108.333 -42 171 -42c55.333 0 106.333 11.5 153 34.5s87 57.167 121 102.5c25.333 35.333 43.666 78.666 54.999 129.999c8.66699 43.333 13 90.666 13 141.999v592h94v97h151v-259
h-94zM884.001 1473l-403 -218l-68 119l406 221z" />
    <glyph glyph-name=".notdef.082" unicode="&#x1eea;" horiz-adv-x="1364" 
d="M1186 1376l-0.00195312 -781.997c0 -92.667 -6.33301 -167.334 -19 -224.001c-17.333 -76 -48.833 -144.333 -94.5 -205s-104.334 -107.834 -176.001 -141.501s-146.5 -50.5 -224.5 -50.5c-78.667 0 -151.667 15.333 -219 46s-125.666 75.667 -174.999 135
s-83 128.666 -101 207.999c-14 60 -21 137.333 -21 232v919h151v-919c0 -65.333 4.5 -123.5 13.5 -174.5s28.333 -99.833 58 -146.5s70.834 -84 123.501 -112s109.334 -42 170.001 -42c55.333 0 107.5 11.833 156.5 35.5s89.667 57.167 122 100.5s55.5 97.333 69.5 162
c9.33301 46.667 14 105.667 14 177v919l122 1v120h158v-258h-128zM501.998 1989l405 -222l-67 -118l-404 217z" />
    <glyph glyph-name=".notdef.016" unicode="&#x1eeb;" horiz-adv-x="1245" 
d="M1116 958l0.000976562 -957.997h-143v174c-34.667 -68 -86 -119.333 -154 -154c-62.667 -31.333 -135 -47 -217 -47c-75.333 0 -142.666 14.667 -201.999 44c-64.667 32 -128.334 84.333 -191.001 157c-29.333 31.333 -51 81 -65 149c-10 53.333 -15 121.666 -15 204.999
v592h152v-592c0 -68 4 -119 12 -153s20.333 -65.333 37 -94c30 -52 70.667 -92 122 -120s108.333 -42 171 -42c55.333 0 106.333 11.5 153 34.5s87 57.167 121 102.5c25.333 35.333 43.666 78.666 54.999 129.999c8.66699 43.333 13 90.666 13 141.999v592h94v97h151v-259
h-94zM455.001 1595l406 -221l-68 -119l-403 218z" />
    <glyph glyph-name=".notdef.080" unicode="&#x1eec;" horiz-adv-x="1364" 
d="M1186 1376l-0.00195312 -781.997c0 -92.667 -6.33301 -167.334 -19 -224.001c-17.333 -76 -48.833 -144.333 -94.5 -205s-104.334 -107.834 -176.001 -141.501s-146.5 -50.5 -224.5 -50.5c-78.667 0 -151.667 15.333 -219 46s-125.666 75.667 -174.999 135
s-83 128.666 -101 207.999c-14 60 -21 137.333 -21 232v919h151v-919c0 -65.333 4.5 -123.5 13.5 -174.5s28.333 -99.833 58 -146.5s70.834 -84 123.501 -112s109.334 -42 170.001 -42c55.333 0 107.5 11.833 156.5 35.5s89.667 57.167 122 100.5s55.5 97.333 69.5 162
c9.33301 46.667 14 105.667 14 177v919l122 1v120h158v-258h-128zM625.998 1852l-109 -0.00292969v14l3 29c2.66699 11.333 6.33398 21.333 11.001 30c8 18.667 20.333 37.334 37 56.001c14 14 33.333 26.667 58 38c26 8.66699 49 13 69 13c46.667 0 86 -16.167 118 -48.5
s48 -72.166 48 -119.499c0 -38 -19.667 -74 -59 -108s-59 -69.667 -59 -107h-108c0 28.667 10.333 59.667 31 93l72 84c10 11.333 15 26 15 44s-5.83301 32.833 -17.5 44.5s-25.834 17.5 -42.501 17.5c-18.667 0 -33.667 -5.33301 -45 -16
c-14.667 -13.333 -22 -34.666 -22 -63.999z" />
    <glyph glyph-name=".notdef.014" unicode="&#x1eed;" horiz-adv-x="1245" 
d="M1116 958l0.000976562 -957.997h-143v174c-34.667 -68 -86 -119.333 -154 -154c-62.667 -31.333 -135 -47 -217 -47c-75.333 0 -142.666 14.667 -201.999 44c-64.667 32 -128.334 84.333 -191.001 157c-29.333 31.333 -51 81 -65 149c-10 53.333 -15 121.666 -15 204.999
v592h152v-592c0 -68 4 -119 12 -153s20.333 -65.333 37 -94c30 -52 70.667 -92 122 -120s108.333 -42 171 -42c55.333 0 106.333 11.5 153 34.5s87 57.167 121 102.5c25.333 35.333 43.666 78.666 54.999 129.999c8.66699 43.333 13 90.666 13 141.999v592h94v97h151v-259
h-94zM587.001 1459l-109 -0.00292969v14l3 29c2.66699 11.333 6.33398 21.333 11.001 30c8 18.667 20.333 37.334 37 56.001c14 14 33.333 26.667 58 38c26 8.66699 49 13 69 13c46.667 0 86 -16.167 118 -48.5s48 -72.166 48 -119.499c0 -38 -19.667 -74 -59 -108
s-59 -69.667 -59 -107h-108c0 28.667 10.333 59.667 31 93l72 84c10 11.333 15 26 15 44s-5.83301 32.833 -17.5 44.5s-25.834 17.5 -42.501 17.5c-18.667 0 -33.667 -5.33301 -45 -16c-14.667 -13.333 -22 -34.666 -22 -63.999z" />
    <glyph glyph-name=".notdef.079" unicode="&#x1eee;" horiz-adv-x="1364" 
d="M1186 1376l-0.00195312 -781.997c0 -92.667 -6.33301 -167.334 -19 -224.001c-17.333 -76 -48.833 -144.333 -94.5 -205s-104.334 -107.834 -176.001 -141.501s-146.5 -50.5 -224.5 -50.5c-78.667 0 -151.667 15.333 -219 46s-125.666 75.667 -174.999 135
s-83 128.666 -101 207.999c-14 60 -21 137.333 -21 232v919h151v-919c0 -65.333 4.5 -123.5 13.5 -174.5s28.333 -99.833 58 -146.5s70.834 -84 123.501 -112s109.334 -42 170.001 -42c55.333 0 107.5 11.833 156.5 35.5s89.667 57.167 122 100.5s55.5 97.333 69.5 162
c9.33301 46.667 14 105.667 14 177v919l122 1v120h158v-258h-128zM918.998 1851l61.001 -98c-22 -22 -48.667 -40.833 -80 -56.5s-60.666 -23.5 -87.999 -23.5l-37 3c-4.66699 0.666992 -10.834 2 -18.501 4s-14.5 4.33301 -20.5 7l-71 33l-34 16l-29 13
c-12 4 -25.667 6 -41 6c-20 0 -40 -5.16699 -60 -15.5s-38.333 -24.833 -55 -43.5l-60 100c26 28 54 49.333 84 64s62.333 22 97 22c37.333 0 81.166 -13.667 131.499 -41s87.5 -41 111.5 -41c20 0 42.667 7.33301 68 22z" />
    <glyph glyph-name=".notdef.013" unicode="&#x1eef;" horiz-adv-x="1245" 
d="M1116 958l0.000976562 -957.997h-143v174c-34.667 -68 -86 -119.333 -154 -154c-62.667 -31.333 -135 -47 -217 -47c-75.333 0 -142.666 14.667 -201.999 44c-64.667 32 -128.334 84.333 -191.001 157c-29.333 31.333 -51 81 -65 149c-10 53.333 -15 121.666 -15 204.999
v592h152v-592c0 -68 4 -119 12 -153s20.333 -65.333 37 -94c30 -52 70.667 -92 122 -120s108.333 -42 171 -42c55.333 0 106.333 11.5 153 34.5s87 57.167 121 102.5c25.333 35.333 43.666 78.666 54.999 129.999c8.66699 43.333 13 90.666 13 141.999v592h94v97h151v-259
h-94zM857.001 1460l62.001 -97.998c-10 -9.33301 -21.167 -18.333 -33.5 -27s-28.166 -18.334 -47.499 -29.001c-30 -16 -59 -24 -87 -24l-37 3c-4.66699 0.666992 -10.834 2 -18.501 4s-14.5 4.33301 -20.5 7c-15.333 5.33301 -37.833 15.833 -67.5 31.5
s-52.834 25.667 -69.501 30s-29.667 6.5 -39 6.5c-18 0 -38.667 -6 -62 -18c-7.33301 -4 -15.833 -9.83301 -25.5 -17.5s-18.834 -15.834 -27.501 -24.501l-59 101c26 28 53.833 49.333 83.5 64s61.834 22 96.501 22c40 0 84.833 -13.667 134.5 -41s86.167 -41 109.5 -41
c20 0 42 7 66 21z" />
    <glyph glyph-name=".notdef.078" unicode="&#x1ef0;" horiz-adv-x="1364" 
d="M1186 1376l-0.00195312 -781.997c0 -92.667 -6.33301 -167.334 -19 -224.001c-17.333 -76 -48.833 -144.333 -94.5 -205s-104.334 -107.834 -176.001 -141.501s-146.5 -50.5 -224.5 -50.5c-78.667 0 -151.667 15.333 -219 46s-125.666 75.667 -174.999 135
s-83 128.666 -101 207.999c-14 60 -21 137.333 -21 232v919h151v-919c0 -65.333 4.5 -123.5 13.5 -174.5s28.333 -99.833 58 -146.5s70.834 -84 123.501 -112s109.334 -42 170.001 -42c55.333 0 107.5 11.833 156.5 35.5s89.667 57.167 122 100.5s55.5 97.333 69.5 162
c9.33301 46.667 14 105.667 14 177v919l122 1v120h158v-258h-128zM594.998 -394.997v258h152v-258h-152z" />
    <glyph glyph-name=".notdef.012" unicode="&#x1ef1;" horiz-adv-x="1245" 
d="M1116 958l0.000976562 -957.997h-143v174c-34.667 -68 -86 -119.333 -154 -154c-62.667 -31.333 -135 -47 -217 -47c-75.333 0 -142.666 14.667 -201.999 44c-64.667 32 -128.334 84.333 -191.001 157c-29.333 31.333 -51 81 -65 149c-10 53.333 -15 121.666 -15 204.999
v592h152v-592c0 -68 4 -119 12 -153s20.333 -65.333 37 -94c30 -52 70.667 -92 122 -120s108.333 -42 171 -42c55.333 0 106.333 11.5 153 34.5s87 57.167 121 102.5c25.333 35.333 43.666 78.666 54.999 129.999c8.66699 43.333 13 90.666 13 141.999v592h94v97h151v-259
h-94zM531.001 -394.997v258h152v-258h-152z" />
    <glyph glyph-name=".notdef.071" unicode="&#x1ef2;" horiz-adv-x="1212" 
d="M530 0v506l-526 1007h166l436 -849l436 849h166l-526 -1007v-506h-152zM474 1989l405 -222l-67 -118l-404 217z" />
    <glyph glyph-name=".notdef.005" unicode="&#x1ef3;" horiz-adv-x="1098" 
d="M918 1120h161l-647 -1513h-160l177 428l-431 1085h162l359 -893zM390 1595l405 -222l-67 -118l-404 217z" />
    <glyph glyph-name=".notdef.067" unicode="&#x1ef4;" horiz-adv-x="1212" 
d="M530 0v506l-526 1007h166l436 -849l436 849h166l-526 -1007v-506h-152zM535 -395v258h152v-258h-152z" />
    <glyph glyph-name=".notdef.001" unicode="&#x1ef5;" horiz-adv-x="1098" 
d="M918 1120h161l-647 -1513h-160l177 428l-431 1085h162l359 -893zM675 -395v258h152v-258h-152z" />
    <glyph glyph-name=".notdef.069" unicode="&#x1ef6;" horiz-adv-x="1212" 
d="M530 0v506l-526 1007h166l436 -849l436 849h166l-526 -1007v-506h-152zM559 1852l-109 -0.00292969v14l3 29c2.66699 11.333 6.33398 21.333 11.001 30c8 18.667 20.333 37.334 37 56.001c14 14 33.333 26.667 58 38c26 8.66699 49 13 69 13
c46.667 0 86 -16.167 118 -48.5s48 -72.166 48 -119.499c0 -38 -19.667 -74 -59 -108s-59 -69.667 -59 -107h-108c0 28.667 10.333 59.667 31 93l72 84c10 11.333 15 26 15 44s-5.83301 32.833 -17.5 44.5s-25.834 17.5 -42.501 17.5c-18.667 0 -33.667 -5.33301 -45 -16
c-14.667 -13.333 -22 -34.666 -22 -63.999z" />
    <glyph glyph-name=".notdef.003" unicode="&#x1ef7;" horiz-adv-x="1098" 
d="M918 1120h161l-647 -1513h-160l177 428l-431 1085h162l359 -893zM498 1459l-109 -0.00292969v14l3 29c2.66699 11.333 6.33398 21.333 11.001 30c8 18.667 20.333 37.334 37 56.001c14 14 33.333 26.667 58 38c26 8.66699 49 13 69 13c46.667 0 86 -16.167 118 -48.5
s48 -72.166 48 -119.499c0 -38 -19.667 -74 -59 -108s-59 -69.667 -59 -107h-108c0 28.667 10.333 59.667 31 93l72 84c10 11.333 15 26 15 44s-5.83301 32.833 -17.5 44.5s-25.834 17.5 -42.501 17.5c-18.667 0 -33.667 -5.33301 -45 -16
c-14.667 -13.333 -22 -34.666 -22 -63.999z" />
    <glyph glyph-name=".notdef.068" unicode="&#x1ef8;" horiz-adv-x="1212" 
d="M530 0v506l-526 1007h166l436 -849l436 849h166l-526 -1007v-506h-152zM842 1827l62.001 -97.998c-10 -9.33301 -21.167 -18.333 -33.5 -27s-28.166 -18.334 -47.499 -29.001c-30 -16 -59 -24 -87 -24l-37 3c-4.66699 0.666992 -10.834 2 -18.501 4
s-14.5 4.33301 -20.5 7c-15.333 5.33301 -37.833 15.833 -67.5 31.5s-52.834 25.667 -69.501 30s-29.667 6.5 -39 6.5c-18 0 -38.667 -6 -62 -18c-7.33301 -4 -15.833 -9.83301 -25.5 -17.5s-18.834 -15.834 -27.501 -24.501l-59 101c26 28 53.833 49.333 83.5 64
s61.834 22 96.501 22c40 0 84.833 -13.667 134.5 -41s86.167 -41 109.5 -41c20 0 42 7 66 21z" />
    <glyph glyph-name=".notdef.002" unicode="&#x1ef9;" horiz-adv-x="1098" 
d="M918 1120h161l-647 -1513h-160l177 428l-431 1085h162l359 -893zM793 1454l62.001 -97.998c-10 -9.33301 -21.167 -18.333 -33.5 -27s-28.166 -18.334 -47.499 -29.001c-30 -16 -59 -24 -87 -24l-37 3c-4.66699 0.666992 -10.834 2 -18.501 4s-14.5 4.33301 -20.5 7
c-15.333 5.33301 -37.833 15.833 -67.5 31.5s-52.834 25.667 -69.501 30s-29.667 6.5 -39 6.5c-18 0 -38.667 -6 -62 -18c-7.33301 -4 -15.833 -9.83301 -25.5 -17.5s-18.834 -15.834 -27.501 -24.501l-59 101c26 28 53.833 49.333 83.5 64s61.834 22 96.501 22
c40 0 84.833 -13.667 134.5 -41s86.167 -41 109.5 -41c20 0 42 7 66 21z" />
    <glyph glyph-name="quoteleft" unicode="&#x2018;" horiz-adv-x="406" 
d="M152 1051v462h102v-462h-102z" />
    <glyph glyph-name="quoteright" unicode="&#x2019;" horiz-adv-x="406" 
d="M152 1051v462h102v-462h-102z" />
    <glyph glyph-name="quotedblleft" unicode="&#x201c;" horiz-adv-x="604" 
d="M152 1051v462h102v-462h-102zM350 1051v462h102v-462h-102z" />
    <glyph glyph-name="quotedblright" unicode="&#x201d;" horiz-adv-x="604" 
d="M152 1051v462h102v-462h-102zM350 1051v462h102v-462h-102z" />
    <glyph glyph-name="ellipsis" unicode="&#x2026;" horiz-adv-x="1701" 
d="M207 0v258h151v-258h-151zM774 0v258h151v-258h-151zM1341 0v258h151v-258h-151z" />
    <glyph glyph-name="nonmarkingreturn" horiz-adv-x="571" 
 />
    <glyph glyph-name="ugrave" horiz-adv-x="582" 
 />
    <glyph glyph-name="uacute" horiz-adv-x="580" 
 />
    <glyph glyph-name="yacute" horiz-adv-x="629" 
 />
  </font>
</defs>
</svg>
